M48
;Layer_Color=9474304
;FILE_FORMAT=2:5
INCH,LZ
;TYPE=PLATED
T1F00S00C0.01181
T2F00S00C0.01968
T3F00S00C0.02559
T4F00S00C0.03000
T5F00S00C0.03150
T6F00S00C0.03543
T7F00S00C0.03937
T8F00S00C0.04724
;TYPE=NON_PLATED
T10F00S00C0.12598
%
T01
X005315Y003248
X0051181Y0044291
X0047244
X0045276Y0109843
X0031496Y013189
X0040551Y0144882
X0037795Y0151181
Y0157087
X0058071Y0147638
X0062205Y0144488
X0065354Y0142717
X0068898Y0127165
X0072047Y0124409
X0056102Y0108268
X0095669Y0113779
X0096457Y0138583
Y0151575
X0127953Y0150591
Y0154528
Y0158465
Y0162402
X0159449Y0130905
Y0105315
X0150787Y0109055
X0151201Y0091732
X0131102Y0087402
X0137795Y0044291
X0141732
X0145669
X0149606
X0143701Y003248
X0104331Y0031496
Y0037402
X009252
Y0031496
Y005315
Y0059055
X0104331
Y005315
X0059055Y0044291
X0055118
X0180118Y0044291
X0184055
X0187992
X0191929
X0188583Y0088583
X0100394Y0175197
T02
X0167323Y0080709
X017126
T03
X0098425Y0041339
Y0049213
T04
X0013835Y0086606
X0031835
Y0112606
X0013835
T05
X0114173Y0145905
Y0165118
T06
X0007874Y0122047
X0017874
X0027874
X0037874
X0047874
X0017717Y0135827
Y0145827
X0007717
Y0155827
X0017717Y0155827
X0007717Y0135827
X0191929Y0108268
X0094488Y0180945
X0084488
X0074488
X0064488
Y0190945
X0074488
X0084488
X0094488
X0054488
X0054488Y0180945
X0044488
Y0190945
T07
X0088583Y0068898
X0098425
X0108268
Y0125984
X0088583
T08
X0063976Y001378
X0132874
X0146654
X0050197
X0136811Y0183071
X0150591
T10
X0019685Y0019685
X0177165
Y0177165
X0019685
M30
