G04 Layer_Color=8388736*
%FSLAX25Y25*%
%MOIN*%
G70*
G01*
G75*
%ADD12C,0.01575*%
%ADD27C,0.00787*%
%ADD33C,0.00591*%
%ADD34C,0.00984*%
%ADD49C,0.01000*%
%ADD81C,0.00600*%
G36*
X1086432Y-200414D02*
X1086145D01*
Y-200700D01*
X1085859D01*
Y-200987D01*
Y-201273D01*
X1085573D01*
Y-201559D01*
X1085286D01*
Y-201846D01*
X1085000D01*
Y-202132D01*
Y-202418D01*
X1084714D01*
Y-202704D01*
X1084427D01*
Y-202991D01*
X1084141D01*
Y-203277D01*
X1083855D01*
Y-203563D01*
Y-203850D01*
X1083568D01*
Y-204136D01*
X1083282D01*
Y-204422D01*
X1082996D01*
Y-204709D01*
Y-204995D01*
X1082710D01*
Y-205281D01*
X1082423D01*
Y-205568D01*
X1082137D01*
Y-205854D01*
X1081851D01*
Y-206140D01*
Y-206427D01*
X1081564D01*
Y-206713D01*
X1081278D01*
Y-206999D01*
X1080992D01*
Y-207285D01*
Y-207572D01*
X1080705D01*
Y-207858D01*
X1080419D01*
Y-208144D01*
X1080133D01*
Y-208431D01*
Y-208717D01*
X1079846D01*
Y-209003D01*
X1079560D01*
Y-209290D01*
X1079274D01*
Y-209576D01*
X1078988D01*
Y-209862D01*
Y-210149D01*
X1078701D01*
Y-210435D01*
X1078415D01*
Y-210721D01*
X1078129D01*
Y-211007D01*
Y-211294D01*
X1077842D01*
Y-211580D01*
X1077556D01*
Y-211866D01*
X1077270D01*
Y-212153D01*
Y-212439D01*
X1076983D01*
Y-212725D01*
X1076697D01*
Y-213012D01*
X1076411D01*
Y-213298D01*
X1076124D01*
Y-213584D01*
Y-213871D01*
X1075838D01*
Y-214157D01*
X1075552D01*
Y-214443D01*
X1075265D01*
Y-214730D01*
Y-215016D01*
X1074979D01*
Y-215302D01*
X1074693D01*
Y-215588D01*
X1074407D01*
Y-215875D01*
Y-216161D01*
X1074120D01*
Y-216447D01*
X1073834D01*
Y-216734D01*
X1073548D01*
Y-217020D01*
X1073261D01*
Y-217306D01*
Y-217593D01*
X1072975D01*
Y-217879D01*
X1072689D01*
Y-218165D01*
X1072402D01*
Y-218452D01*
Y-218738D01*
X1072116D01*
Y-219024D01*
X1071830D01*
Y-219311D01*
X1071543D01*
Y-219597D01*
X1071257D01*
Y-219883D01*
Y-220169D01*
X1071543D01*
Y-220456D01*
Y-220742D01*
X1071830D01*
Y-221028D01*
Y-221315D01*
X1072116D01*
Y-221601D01*
X1072402D01*
Y-221887D01*
Y-222174D01*
X1072689D01*
Y-222460D01*
Y-222746D01*
X1072975D01*
Y-223033D01*
Y-223319D01*
X1073261D01*
Y-223605D01*
Y-223892D01*
X1073548D01*
Y-224178D01*
Y-224464D01*
X1073834D01*
Y-224750D01*
Y-225037D01*
X1074120D01*
Y-225323D01*
Y-225609D01*
X1074407D01*
Y-225896D01*
Y-226182D01*
X1074693D01*
Y-226468D01*
X1074979D01*
Y-226755D01*
Y-227041D01*
X1075265D01*
Y-227327D01*
Y-227614D01*
X1075552D01*
Y-227900D01*
Y-228186D01*
X1075838D01*
Y-228473D01*
Y-228759D01*
X1076124D01*
Y-229045D01*
Y-229331D01*
X1076411D01*
Y-229618D01*
Y-229904D01*
X1076697D01*
Y-230190D01*
Y-230477D01*
X1076983D01*
Y-230763D01*
X1077270D01*
Y-231049D01*
Y-231336D01*
X1077556D01*
Y-231622D01*
Y-231908D01*
X1077842D01*
Y-232195D01*
Y-232481D01*
X1078129D01*
Y-232767D01*
Y-233054D01*
X1078415D01*
Y-233340D01*
Y-233626D01*
X1078701D01*
Y-233912D01*
Y-234199D01*
X1078988D01*
Y-234485D01*
Y-234771D01*
X1079274D01*
Y-235058D01*
X1079560D01*
Y-235344D01*
Y-235630D01*
X1079846D01*
Y-235917D01*
Y-236203D01*
X1080133D01*
Y-236489D01*
X1064958D01*
Y-236203D01*
X1064672D01*
Y-235917D01*
Y-235630D01*
Y-235344D01*
X1064386D01*
Y-235058D01*
Y-234771D01*
Y-234485D01*
X1064099D01*
Y-234199D01*
Y-233912D01*
X1063813D01*
Y-233626D01*
Y-233340D01*
Y-233054D01*
X1063527D01*
Y-232767D01*
Y-232481D01*
Y-232195D01*
X1063240D01*
Y-231908D01*
Y-231622D01*
X1062954D01*
Y-231336D01*
Y-231049D01*
Y-230763D01*
X1062668D01*
Y-230477D01*
Y-230190D01*
Y-229904D01*
X1062381D01*
Y-229618D01*
Y-229331D01*
Y-229045D01*
X1062095D01*
Y-228759D01*
X1061522D01*
Y-229045D01*
Y-229331D01*
X1061236D01*
Y-229618D01*
X1060950D01*
Y-229904D01*
Y-230190D01*
X1060664D01*
Y-230477D01*
X1060377D01*
Y-230763D01*
Y-231049D01*
X1060091D01*
Y-231336D01*
X1059805D01*
Y-231622D01*
Y-231908D01*
X1059518D01*
Y-232195D01*
X1059232D01*
Y-232481D01*
X1058946D01*
Y-232767D01*
Y-233054D01*
X1058659D01*
Y-233340D01*
X1058373D01*
Y-233626D01*
Y-233912D01*
X1058087D01*
Y-234199D01*
X1057800D01*
Y-234485D01*
Y-234771D01*
X1057514D01*
Y-235058D01*
X1057228D01*
Y-235344D01*
Y-235630D01*
X1056941D01*
Y-235917D01*
X1056655D01*
Y-236203D01*
Y-236489D01*
X1040622D01*
Y-236203D01*
X1040908D01*
Y-235917D01*
X1041194D01*
Y-235630D01*
X1041481D01*
Y-235344D01*
X1041767D01*
Y-235058D01*
Y-234771D01*
X1042053D01*
Y-234485D01*
X1042340D01*
Y-234199D01*
X1042626D01*
Y-233912D01*
X1042912D01*
Y-233626D01*
Y-233340D01*
X1043198D01*
Y-233054D01*
X1043485D01*
Y-232767D01*
X1043771D01*
Y-232481D01*
Y-232195D01*
X1044057D01*
Y-231908D01*
X1044344D01*
Y-231622D01*
X1044630D01*
Y-231336D01*
X1044916D01*
Y-231049D01*
Y-230763D01*
X1045203D01*
Y-230477D01*
X1045489D01*
Y-230190D01*
X1045775D01*
Y-229904D01*
X1046062D01*
Y-229618D01*
Y-229331D01*
X1046348D01*
Y-229045D01*
X1046634D01*
Y-228759D01*
X1046920D01*
Y-228473D01*
Y-228186D01*
X1047207D01*
Y-227900D01*
X1047493D01*
Y-227614D01*
X1047779D01*
Y-227327D01*
X1048066D01*
Y-227041D01*
Y-226755D01*
X1048352D01*
Y-226468D01*
X1048638D01*
Y-226182D01*
X1048925D01*
Y-225896D01*
Y-225609D01*
X1049211D01*
Y-225323D01*
X1049497D01*
Y-225037D01*
X1049784D01*
Y-224750D01*
X1050070D01*
Y-224464D01*
Y-224178D01*
X1050356D01*
Y-223892D01*
X1050642D01*
Y-223605D01*
X1050929D01*
Y-223319D01*
Y-223033D01*
X1051215D01*
Y-222746D01*
X1051501D01*
Y-222460D01*
X1051788D01*
Y-222174D01*
X1052074D01*
Y-221887D01*
Y-221601D01*
X1052360D01*
Y-221315D01*
X1052647D01*
Y-221028D01*
X1052933D01*
Y-220742D01*
X1053219D01*
Y-220456D01*
Y-220169D01*
X1053506D01*
Y-219883D01*
X1053792D01*
Y-219597D01*
X1054078D01*
Y-219311D01*
Y-219024D01*
X1054365D01*
Y-218738D01*
X1054651D01*
Y-218452D01*
X1054937D01*
Y-218165D01*
X1055223D01*
Y-217879D01*
Y-217593D01*
X1055510D01*
Y-217306D01*
Y-217020D01*
Y-216734D01*
X1055223D01*
Y-216447D01*
X1054937D01*
Y-216161D01*
Y-215875D01*
X1054651D01*
Y-215588D01*
Y-215302D01*
X1054365D01*
Y-215016D01*
Y-214730D01*
X1054078D01*
Y-214443D01*
Y-214157D01*
X1053792D01*
Y-213871D01*
Y-213584D01*
X1053506D01*
Y-213298D01*
Y-213012D01*
X1053219D01*
Y-212725D01*
X1052933D01*
Y-212439D01*
Y-212153D01*
X1052647D01*
Y-211866D01*
Y-211580D01*
X1052360D01*
Y-211294D01*
Y-211007D01*
X1052074D01*
Y-210721D01*
Y-210435D01*
X1051788D01*
Y-210149D01*
Y-209862D01*
X1051501D01*
Y-209576D01*
Y-209290D01*
X1051215D01*
Y-209003D01*
X1050929D01*
Y-208717D01*
Y-208431D01*
X1050642D01*
Y-208144D01*
Y-207858D01*
X1050356D01*
Y-207572D01*
Y-207285D01*
X1050070D01*
Y-206999D01*
Y-206713D01*
X1049784D01*
Y-206427D01*
Y-206140D01*
X1049497D01*
Y-205854D01*
Y-205568D01*
X1049211D01*
Y-205281D01*
Y-204995D01*
X1048925D01*
Y-204709D01*
X1048638D01*
Y-204422D01*
Y-204136D01*
X1048352D01*
Y-203850D01*
Y-203563D01*
X1048066D01*
Y-203277D01*
Y-202991D01*
X1047779D01*
Y-202704D01*
Y-202418D01*
X1047493D01*
Y-202132D01*
Y-201846D01*
X1047207D01*
Y-201559D01*
Y-201273D01*
X1046920D01*
Y-200987D01*
X1046634D01*
Y-200700D01*
Y-200414D01*
X1046348D01*
Y-200128D01*
X1062095D01*
Y-200414D01*
X1062381D01*
Y-200700D01*
Y-200987D01*
Y-201273D01*
X1062668D01*
Y-201559D01*
Y-201846D01*
Y-202132D01*
X1062954D01*
Y-202418D01*
Y-202704D01*
Y-202991D01*
X1063240D01*
Y-203277D01*
Y-203563D01*
Y-203850D01*
X1063527D01*
Y-204136D01*
Y-204422D01*
Y-204709D01*
X1063813D01*
Y-204995D01*
Y-205281D01*
Y-205568D01*
X1064099D01*
Y-205854D01*
Y-206140D01*
Y-206427D01*
X1064386D01*
Y-206713D01*
Y-206999D01*
Y-207285D01*
X1064672D01*
Y-207572D01*
Y-207858D01*
Y-208144D01*
Y-208431D01*
X1065244D01*
Y-208144D01*
X1065531D01*
Y-207858D01*
X1065817D01*
Y-207572D01*
Y-207285D01*
X1066103D01*
Y-206999D01*
X1066390D01*
Y-206713D01*
Y-206427D01*
X1066676D01*
Y-206140D01*
X1066962D01*
Y-205854D01*
Y-205568D01*
X1067249D01*
Y-205281D01*
X1067535D01*
Y-204995D01*
Y-204709D01*
X1067821D01*
Y-204422D01*
X1068108D01*
Y-204136D01*
Y-203850D01*
X1068394D01*
Y-203563D01*
X1068680D01*
Y-203277D01*
Y-202991D01*
X1068966D01*
Y-202704D01*
X1069253D01*
Y-202418D01*
Y-202132D01*
X1069539D01*
Y-201846D01*
X1069825D01*
Y-201559D01*
Y-201273D01*
X1070112D01*
Y-200987D01*
X1070398D01*
Y-200700D01*
Y-200414D01*
X1070684D01*
Y-200128D01*
X1086432D01*
Y-200414D01*
D02*
G37*
G36*
X953296Y-186385D02*
X955014D01*
Y-186671D01*
X955873D01*
Y-186957D01*
X956732D01*
Y-187243D01*
X957591D01*
Y-187530D01*
X958164D01*
Y-187816D01*
X958450D01*
Y-188102D01*
X959022D01*
Y-188389D01*
X959309D01*
Y-188675D01*
X959881D01*
Y-188961D01*
X960168D01*
Y-189248D01*
X960454D01*
Y-189534D01*
X960740D01*
Y-189820D01*
X961027D01*
Y-190107D01*
X961313D01*
Y-190393D01*
X961599D01*
Y-190679D01*
Y-190966D01*
X961886D01*
Y-191252D01*
X962172D01*
Y-191538D01*
Y-191824D01*
X962458D01*
Y-192111D01*
X962745D01*
Y-192397D01*
Y-192683D01*
X963031D01*
Y-192970D01*
Y-193256D01*
Y-193542D01*
X963317D01*
Y-193829D01*
Y-194115D01*
Y-194401D01*
X963603D01*
Y-194688D01*
Y-194974D01*
Y-195260D01*
Y-195547D01*
X963890D01*
Y-195833D01*
Y-196119D01*
Y-196405D01*
Y-196692D01*
Y-196978D01*
X964176D01*
Y-197265D01*
Y-197551D01*
Y-197837D01*
Y-198123D01*
Y-198410D01*
Y-198696D01*
Y-198982D01*
Y-199269D01*
Y-199555D01*
Y-199841D01*
Y-200128D01*
Y-200414D01*
Y-200700D01*
Y-200987D01*
Y-201273D01*
Y-201559D01*
Y-201846D01*
Y-202132D01*
Y-202418D01*
Y-202704D01*
X963890D01*
Y-202991D01*
Y-203277D01*
Y-203563D01*
Y-203850D01*
Y-204136D01*
Y-204422D01*
Y-204709D01*
X963603D01*
Y-204995D01*
Y-205281D01*
Y-205568D01*
Y-205854D01*
Y-206140D01*
X963317D01*
Y-206427D01*
Y-206713D01*
Y-206999D01*
Y-207285D01*
Y-207572D01*
X963031D01*
Y-207858D01*
Y-208144D01*
Y-208431D01*
X962745D01*
Y-208717D01*
Y-209003D01*
Y-209290D01*
Y-209576D01*
X962458D01*
Y-209862D01*
Y-210149D01*
Y-210435D01*
X962172D01*
Y-210721D01*
Y-211007D01*
X961886D01*
Y-211294D01*
Y-211580D01*
Y-211866D01*
X961599D01*
Y-212153D01*
Y-212439D01*
X961313D01*
Y-212725D01*
Y-213012D01*
X961027D01*
Y-213298D01*
Y-213584D01*
X960740D01*
Y-213871D01*
X960454D01*
Y-214157D01*
Y-214443D01*
X960168D01*
Y-214730D01*
X959881D01*
Y-215016D01*
X959595D01*
Y-215302D01*
Y-215588D01*
X959309D01*
Y-215875D01*
X959022D01*
Y-216161D01*
X958736D01*
Y-216447D01*
X958450D01*
Y-216734D01*
X958164D01*
Y-217020D01*
X957591D01*
Y-217306D01*
X957304D01*
Y-217593D01*
X956732D01*
Y-217879D01*
X956446D01*
Y-218165D01*
X955873D01*
Y-218452D01*
X955014D01*
Y-218738D01*
X954155D01*
Y-219024D01*
X953296D01*
Y-219311D01*
X951578D01*
Y-219597D01*
X946425D01*
Y-219311D01*
X943848D01*
Y-219024D01*
X941844D01*
Y-218738D01*
X940412D01*
Y-218452D01*
X938980D01*
Y-218165D01*
X937549D01*
Y-218452D01*
Y-218738D01*
Y-219024D01*
Y-219311D01*
Y-219597D01*
Y-219883D01*
Y-220169D01*
X937263D01*
Y-220456D01*
Y-220742D01*
Y-221028D01*
Y-221315D01*
Y-221601D01*
Y-221887D01*
X936976D01*
Y-222174D01*
Y-222460D01*
Y-222746D01*
Y-223033D01*
Y-223319D01*
Y-223605D01*
X936690D01*
Y-223892D01*
Y-224178D01*
Y-224464D01*
Y-224750D01*
Y-225037D01*
Y-225323D01*
Y-225609D01*
X936404D01*
Y-225896D01*
Y-226182D01*
Y-226468D01*
Y-226755D01*
Y-227041D01*
Y-227327D01*
X936117D01*
Y-227614D01*
Y-227900D01*
Y-228186D01*
Y-228473D01*
Y-228759D01*
Y-229045D01*
X935831D01*
Y-229331D01*
Y-229618D01*
Y-229904D01*
Y-230190D01*
Y-230477D01*
Y-230763D01*
Y-231049D01*
X935545D01*
Y-231336D01*
Y-231622D01*
Y-231908D01*
Y-232195D01*
Y-232481D01*
Y-232767D01*
X935258D01*
Y-233054D01*
Y-233340D01*
Y-233626D01*
Y-233912D01*
Y-234199D01*
Y-234485D01*
X934972D01*
Y-234771D01*
Y-235058D01*
Y-235344D01*
Y-235630D01*
Y-235917D01*
Y-236203D01*
Y-236489D01*
X921515D01*
Y-236203D01*
X921802D01*
Y-235917D01*
Y-235630D01*
Y-235344D01*
Y-235058D01*
Y-234771D01*
X922088D01*
Y-234485D01*
Y-234199D01*
Y-233912D01*
Y-233626D01*
Y-233340D01*
Y-233054D01*
Y-232767D01*
X922374D01*
Y-232481D01*
Y-232195D01*
Y-231908D01*
Y-231622D01*
Y-231336D01*
Y-231049D01*
X922661D01*
Y-230763D01*
Y-230477D01*
Y-230190D01*
Y-229904D01*
Y-229618D01*
Y-229331D01*
X922947D01*
Y-229045D01*
Y-228759D01*
Y-228473D01*
Y-228186D01*
Y-227900D01*
Y-227614D01*
Y-227327D01*
X923233D01*
Y-227041D01*
Y-226755D01*
Y-226468D01*
Y-226182D01*
Y-225896D01*
Y-225609D01*
X923520D01*
Y-225323D01*
Y-225037D01*
Y-224750D01*
Y-224464D01*
Y-224178D01*
Y-223892D01*
X923806D01*
Y-223605D01*
Y-223319D01*
Y-223033D01*
Y-222746D01*
Y-222460D01*
Y-222174D01*
X924092D01*
Y-221887D01*
Y-221601D01*
Y-221315D01*
Y-221028D01*
Y-220742D01*
Y-220456D01*
Y-220169D01*
X924379D01*
Y-219883D01*
Y-219597D01*
Y-219311D01*
Y-219024D01*
Y-218738D01*
Y-218452D01*
X924665D01*
Y-218165D01*
Y-217879D01*
Y-217593D01*
Y-217306D01*
Y-217020D01*
Y-216734D01*
X924951D01*
Y-216447D01*
Y-216161D01*
Y-215875D01*
Y-215588D01*
Y-215302D01*
Y-215016D01*
X925237D01*
Y-214730D01*
Y-214443D01*
Y-214157D01*
Y-213871D01*
Y-213584D01*
Y-213298D01*
Y-213012D01*
X925524D01*
Y-212725D01*
Y-212439D01*
Y-212153D01*
Y-211866D01*
Y-211580D01*
Y-211294D01*
X925810D01*
Y-211007D01*
Y-210721D01*
Y-210435D01*
Y-210149D01*
Y-209862D01*
Y-209576D01*
X926096D01*
Y-209290D01*
Y-209003D01*
Y-208717D01*
Y-208431D01*
Y-208144D01*
Y-207858D01*
Y-207572D01*
X926383D01*
Y-207285D01*
Y-206999D01*
Y-206713D01*
Y-206427D01*
Y-206140D01*
Y-205854D01*
X926669D01*
Y-205568D01*
Y-205281D01*
Y-204995D01*
Y-204709D01*
Y-204422D01*
Y-204136D01*
X926955D01*
Y-203850D01*
Y-203563D01*
Y-203277D01*
Y-202991D01*
Y-202704D01*
Y-202418D01*
X927242D01*
Y-202132D01*
Y-201846D01*
Y-201559D01*
Y-201273D01*
Y-200987D01*
Y-200700D01*
Y-200414D01*
X927528D01*
Y-200128D01*
Y-199841D01*
Y-199555D01*
Y-199269D01*
Y-198982D01*
Y-198696D01*
X927814D01*
Y-198410D01*
Y-198123D01*
Y-197837D01*
Y-197551D01*
Y-197265D01*
Y-196978D01*
X928101D01*
Y-196692D01*
Y-196405D01*
Y-196119D01*
Y-195833D01*
Y-195547D01*
Y-195260D01*
Y-194974D01*
X928387D01*
Y-194688D01*
Y-194401D01*
Y-194115D01*
Y-193829D01*
Y-193542D01*
Y-193256D01*
X928673D01*
Y-192970D01*
Y-192683D01*
Y-192397D01*
Y-192111D01*
Y-191824D01*
Y-191538D01*
X928960D01*
Y-191252D01*
Y-190966D01*
Y-190679D01*
Y-190393D01*
Y-190107D01*
Y-189820D01*
Y-189534D01*
X929246D01*
Y-189248D01*
Y-188961D01*
Y-188675D01*
Y-188389D01*
Y-188102D01*
Y-187816D01*
X929532D01*
Y-187530D01*
Y-187243D01*
Y-186957D01*
Y-186671D01*
Y-186385D01*
Y-186098D01*
X953296D01*
Y-186385D01*
D02*
G37*
G36*
X1042340Y-200414D02*
Y-200700D01*
Y-200987D01*
Y-201273D01*
Y-201559D01*
Y-201846D01*
Y-202132D01*
Y-202418D01*
Y-202704D01*
Y-202991D01*
Y-203277D01*
Y-203563D01*
Y-203850D01*
Y-204136D01*
Y-204422D01*
Y-204709D01*
Y-204995D01*
Y-205281D01*
Y-205568D01*
Y-205854D01*
Y-206140D01*
X1042053D01*
Y-206427D01*
Y-206713D01*
Y-206999D01*
Y-207285D01*
Y-207572D01*
X1041767D01*
Y-207858D01*
Y-208144D01*
Y-208431D01*
Y-208717D01*
X1041481D01*
Y-209003D01*
Y-209290D01*
Y-209576D01*
Y-209862D01*
X1041194D01*
Y-210149D01*
Y-210435D01*
Y-210721D01*
X1040908D01*
Y-211007D01*
Y-211294D01*
Y-211580D01*
X1040622D01*
Y-211866D01*
Y-212153D01*
Y-212439D01*
X1040335D01*
Y-212725D01*
Y-213012D01*
Y-213298D01*
X1040049D01*
Y-213584D01*
Y-213871D01*
X1039763D01*
Y-214157D01*
Y-214443D01*
X1039476D01*
Y-214730D01*
Y-215016D01*
Y-215302D01*
X1039190D01*
Y-215588D01*
Y-215875D01*
X1038904D01*
Y-216161D01*
Y-216447D01*
Y-216734D01*
X1038617D01*
Y-217020D01*
Y-217306D01*
X1038331D01*
Y-217593D01*
Y-217879D01*
Y-218165D01*
X1038045D01*
Y-218452D01*
Y-218738D01*
X1037758D01*
Y-219024D01*
Y-219311D01*
Y-219597D01*
X1037472D01*
Y-219883D01*
Y-220169D01*
X1037186D01*
Y-220456D01*
Y-220742D01*
Y-221028D01*
X1036899D01*
Y-221315D01*
Y-221601D01*
X1036613D01*
Y-221887D01*
Y-222174D01*
Y-222460D01*
X1036327D01*
Y-222746D01*
Y-223033D01*
X1036041D01*
Y-223319D01*
Y-223605D01*
Y-223892D01*
X1035754D01*
Y-224178D01*
Y-224464D01*
X1035468D01*
Y-224750D01*
Y-225037D01*
Y-225323D01*
X1035182D01*
Y-225609D01*
Y-225896D01*
X1034895D01*
Y-226182D01*
Y-226468D01*
Y-226755D01*
X1034609D01*
Y-227041D01*
Y-227327D01*
X1034323D01*
Y-227614D01*
Y-227900D01*
Y-228186D01*
X1034036D01*
Y-228473D01*
Y-228759D01*
X1033750D01*
Y-229045D01*
Y-229331D01*
Y-229618D01*
X1033464D01*
Y-229904D01*
Y-230190D01*
X1033177D01*
Y-230477D01*
Y-230763D01*
Y-231049D01*
X1032891D01*
Y-231336D01*
Y-231622D01*
X1032605D01*
Y-231908D01*
Y-232195D01*
Y-232481D01*
X1032318D01*
Y-232767D01*
Y-233054D01*
X1032032D01*
Y-233340D01*
Y-233626D01*
Y-233912D01*
X1031746D01*
Y-234199D01*
Y-234485D01*
X1031460D01*
Y-234771D01*
Y-235058D01*
Y-235344D01*
X1031173D01*
Y-235630D01*
Y-235917D01*
X1030887D01*
Y-236203D01*
Y-236489D01*
Y-236776D01*
X1030601D01*
Y-237062D01*
Y-237348D01*
X1030314D01*
Y-237635D01*
Y-237921D01*
X1030028D01*
Y-238207D01*
Y-238493D01*
X1029742D01*
Y-238780D01*
Y-239066D01*
Y-239352D01*
X1029455D01*
Y-239639D01*
X1029169D01*
Y-239925D01*
Y-240211D01*
Y-240498D01*
X1028883D01*
Y-240784D01*
X1028596D01*
Y-241070D01*
Y-241357D01*
X1028310D01*
Y-241643D01*
Y-241929D01*
X1028024D01*
Y-242216D01*
Y-242502D01*
X1027738D01*
Y-242788D01*
Y-243074D01*
X1027451D01*
Y-243361D01*
X1027165D01*
Y-243647D01*
Y-243934D01*
X1026879D01*
Y-244220D01*
Y-244506D01*
X1026592D01*
Y-244792D01*
X1026306D01*
Y-245079D01*
X1026020D01*
Y-245365D01*
Y-245651D01*
X1025733D01*
Y-245938D01*
X1025447D01*
Y-246224D01*
Y-246510D01*
X1025161D01*
Y-246797D01*
X1024874D01*
Y-247083D01*
X1024588D01*
Y-247369D01*
Y-247656D01*
X1024302D01*
Y-247942D01*
X1024015D01*
Y-248228D01*
X1023729D01*
Y-248515D01*
X1023443D01*
Y-248801D01*
X1023157D01*
Y-249087D01*
Y-249373D01*
X1022870D01*
Y-249660D01*
X1022584D01*
Y-249946D01*
X1022298D01*
Y-250232D01*
X1022011D01*
Y-250519D01*
X1021725D01*
Y-250805D01*
X1021439D01*
Y-251091D01*
X1021152D01*
Y-251378D01*
X1020580D01*
Y-251664D01*
X1020293D01*
Y-251950D01*
X1020007D01*
Y-252237D01*
X1019721D01*
Y-252523D01*
X1019434D01*
Y-252809D01*
X1018862D01*
Y-253096D01*
X1018575D01*
Y-253382D01*
X1018003D01*
Y-253668D01*
X1017717D01*
Y-253954D01*
X1017144D01*
Y-254241D01*
X1016858D01*
Y-254527D01*
X1016285D01*
Y-254813D01*
X1015712D01*
Y-255100D01*
X1015140D01*
Y-255386D01*
X1014567D01*
Y-255672D01*
X1013995D01*
Y-255959D01*
X1013136D01*
Y-256245D01*
X1012563D01*
Y-256531D01*
X1011704D01*
Y-256818D01*
X1010559D01*
Y-257104D01*
X1009414D01*
Y-257390D01*
X1007696D01*
Y-257677D01*
X1005691D01*
Y-257963D01*
X1005405D01*
Y-257677D01*
Y-257390D01*
Y-257104D01*
Y-256818D01*
Y-256531D01*
Y-256245D01*
Y-255959D01*
Y-255672D01*
Y-255386D01*
Y-255100D01*
Y-254813D01*
Y-254527D01*
Y-254241D01*
Y-253954D01*
Y-253668D01*
Y-253382D01*
Y-253096D01*
Y-252809D01*
Y-252523D01*
Y-252237D01*
Y-251950D01*
Y-251664D01*
Y-251378D01*
Y-251091D01*
Y-250805D01*
Y-250519D01*
Y-250232D01*
Y-249946D01*
Y-249660D01*
Y-249373D01*
Y-249087D01*
Y-248801D01*
Y-248515D01*
X1005978D01*
Y-248228D01*
X1006550D01*
Y-247942D01*
X1007123D01*
Y-247656D01*
X1007696D01*
Y-247369D01*
X1008268D01*
Y-247083D01*
X1008841D01*
Y-246797D01*
X1009127D01*
Y-246510D01*
X1009700D01*
Y-246224D01*
X1009986D01*
Y-245938D01*
X1010559D01*
Y-245651D01*
X1010845D01*
Y-245365D01*
X1011131D01*
Y-245079D01*
X1011704D01*
Y-244792D01*
X1011990D01*
Y-244506D01*
X1012277D01*
Y-244220D01*
X1012563D01*
Y-243934D01*
X1012849D01*
Y-243647D01*
X1013136D01*
Y-243361D01*
X1013422D01*
Y-243074D01*
X1013708D01*
Y-242788D01*
X1013995D01*
Y-242502D01*
X1014281D01*
Y-242216D01*
X1014567D01*
Y-241929D01*
X1014853D01*
Y-241643D01*
Y-241357D01*
X1015140D01*
Y-241070D01*
X1015426D01*
Y-240784D01*
X1015712D01*
Y-240498D01*
Y-240211D01*
X1015999D01*
Y-239925D01*
X1016285D01*
Y-239639D01*
Y-239352D01*
X1016571D01*
Y-239066D01*
Y-238780D01*
X1016858D01*
Y-238493D01*
X1017144D01*
Y-238207D01*
Y-237921D01*
X1017430D01*
Y-237635D01*
Y-237348D01*
X1017717D01*
Y-237062D01*
Y-236776D01*
X1015999D01*
Y-236489D01*
X1013995D01*
Y-236203D01*
X1012849D01*
Y-235917D01*
X1012277D01*
Y-235630D01*
X1011418D01*
Y-235344D01*
X1010845D01*
Y-235058D01*
X1010559D01*
Y-234771D01*
X1009986D01*
Y-234485D01*
X1009700D01*
Y-234199D01*
X1009414D01*
Y-233912D01*
X1009127D01*
Y-233626D01*
X1008841D01*
Y-233340D01*
X1008554D01*
Y-233054D01*
Y-232767D01*
X1008268D01*
Y-232481D01*
X1007982D01*
Y-232195D01*
Y-231908D01*
X1007696D01*
Y-231622D01*
Y-231336D01*
X1007409D01*
Y-231049D01*
Y-230763D01*
X1007123D01*
Y-230477D01*
Y-230190D01*
Y-229904D01*
X1006837D01*
Y-229618D01*
Y-229331D01*
Y-229045D01*
Y-228759D01*
X1006550D01*
Y-228473D01*
Y-228186D01*
Y-227900D01*
Y-227614D01*
Y-227327D01*
Y-227041D01*
Y-226755D01*
X1006264D01*
Y-226468D01*
Y-226182D01*
Y-225896D01*
Y-225609D01*
Y-225323D01*
Y-225037D01*
Y-224750D01*
Y-224464D01*
Y-224178D01*
Y-223892D01*
Y-223605D01*
Y-223319D01*
Y-223033D01*
Y-222746D01*
Y-222460D01*
X1005978D01*
Y-222174D01*
Y-221887D01*
Y-221601D01*
Y-221315D01*
Y-221028D01*
Y-220742D01*
Y-220456D01*
Y-220169D01*
Y-219883D01*
Y-219597D01*
Y-219311D01*
Y-219024D01*
Y-218738D01*
Y-218452D01*
Y-218165D01*
X1005691D01*
Y-217879D01*
Y-217593D01*
Y-217306D01*
Y-217020D01*
Y-216734D01*
Y-216447D01*
Y-216161D01*
Y-215875D01*
Y-215588D01*
Y-215302D01*
Y-215016D01*
Y-214730D01*
Y-214443D01*
Y-214157D01*
Y-213871D01*
Y-213584D01*
X1005405D01*
Y-213298D01*
Y-213012D01*
Y-212725D01*
Y-212439D01*
Y-212153D01*
Y-211866D01*
Y-211580D01*
Y-211294D01*
Y-211007D01*
Y-210721D01*
Y-210435D01*
Y-210149D01*
Y-209862D01*
Y-209576D01*
Y-209290D01*
Y-209003D01*
X1005119D01*
Y-208717D01*
Y-208431D01*
Y-208144D01*
Y-207858D01*
Y-207572D01*
Y-207285D01*
Y-206999D01*
Y-206713D01*
Y-206427D01*
Y-206140D01*
Y-205854D01*
Y-205568D01*
Y-205281D01*
Y-204995D01*
X1004832D01*
Y-204709D01*
Y-204422D01*
Y-204136D01*
Y-203850D01*
Y-203563D01*
Y-203277D01*
Y-202991D01*
Y-202704D01*
Y-202418D01*
Y-202132D01*
Y-201846D01*
Y-201559D01*
Y-201273D01*
Y-200987D01*
Y-200700D01*
Y-200414D01*
X1004546D01*
Y-200128D01*
X1018289D01*
Y-200414D01*
Y-200700D01*
Y-200987D01*
Y-201273D01*
Y-201559D01*
Y-201846D01*
Y-202132D01*
Y-202418D01*
Y-202704D01*
Y-202991D01*
Y-203277D01*
Y-203563D01*
Y-203850D01*
Y-204136D01*
X1018575D01*
Y-204422D01*
Y-204709D01*
Y-204995D01*
Y-205281D01*
Y-205568D01*
Y-205854D01*
Y-206140D01*
Y-206427D01*
Y-206713D01*
Y-206999D01*
Y-207285D01*
Y-207572D01*
Y-207858D01*
Y-208144D01*
Y-208431D01*
Y-208717D01*
Y-209003D01*
Y-209290D01*
Y-209576D01*
Y-209862D01*
Y-210149D01*
Y-210435D01*
Y-210721D01*
Y-211007D01*
Y-211294D01*
Y-211580D01*
Y-211866D01*
Y-212153D01*
Y-212439D01*
Y-212725D01*
Y-213012D01*
Y-213298D01*
Y-213584D01*
Y-213871D01*
Y-214157D01*
Y-214443D01*
Y-214730D01*
Y-215016D01*
Y-215302D01*
Y-215588D01*
Y-215875D01*
X1018862D01*
Y-216161D01*
X1018575D01*
Y-216447D01*
Y-216734D01*
X1018862D01*
Y-217020D01*
Y-217306D01*
Y-217593D01*
Y-217879D01*
Y-218165D01*
Y-218452D01*
Y-218738D01*
Y-219024D01*
Y-219311D01*
Y-219597D01*
Y-219883D01*
Y-220169D01*
Y-220456D01*
Y-220742D01*
Y-221028D01*
Y-221315D01*
Y-221601D01*
Y-221887D01*
Y-222174D01*
Y-222460D01*
Y-222746D01*
Y-223033D01*
Y-223319D01*
Y-223605D01*
Y-223892D01*
Y-224178D01*
X1019148D01*
Y-224464D01*
Y-224750D01*
Y-225037D01*
X1019434D01*
Y-225323D01*
X1019721D01*
Y-225609D01*
X1020007D01*
Y-225896D01*
X1020866D01*
Y-226182D01*
X1021725D01*
Y-225896D01*
X1022011D01*
Y-225609D01*
Y-225323D01*
Y-225037D01*
X1022298D01*
Y-224750D01*
Y-224464D01*
X1022584D01*
Y-224178D01*
Y-223892D01*
Y-223605D01*
X1022870D01*
Y-223319D01*
Y-223033D01*
Y-222746D01*
X1023157D01*
Y-222460D01*
Y-222174D01*
Y-221887D01*
X1023443D01*
Y-221601D01*
Y-221315D01*
Y-221028D01*
X1023729D01*
Y-220742D01*
Y-220456D01*
X1024015D01*
Y-220169D01*
Y-219883D01*
Y-219597D01*
X1024302D01*
Y-219311D01*
Y-219024D01*
Y-218738D01*
X1024588D01*
Y-218452D01*
Y-218165D01*
Y-217879D01*
X1024874D01*
Y-217593D01*
Y-217306D01*
X1025161D01*
Y-217020D01*
Y-216734D01*
Y-216447D01*
X1025447D01*
Y-216161D01*
Y-215875D01*
Y-215588D01*
X1025733D01*
Y-215302D01*
Y-215016D01*
Y-214730D01*
X1026020D01*
Y-214443D01*
Y-214157D01*
X1026306D01*
Y-213871D01*
Y-213584D01*
Y-213298D01*
X1026592D01*
Y-213012D01*
Y-212725D01*
Y-212439D01*
X1026879D01*
Y-212153D01*
Y-211866D01*
Y-211580D01*
X1027165D01*
Y-211294D01*
Y-211007D01*
X1027451D01*
Y-210721D01*
Y-210435D01*
Y-210149D01*
X1027738D01*
Y-209862D01*
Y-209576D01*
Y-209290D01*
X1028024D01*
Y-209003D01*
Y-208717D01*
Y-208431D01*
X1028310D01*
Y-208144D01*
Y-207858D01*
Y-207572D01*
Y-207285D01*
X1028596D01*
Y-206999D01*
Y-206713D01*
Y-206427D01*
Y-206140D01*
X1028883D01*
Y-205854D01*
Y-205568D01*
Y-205281D01*
Y-204995D01*
Y-204709D01*
X1029169D01*
Y-204422D01*
Y-204136D01*
Y-203850D01*
Y-203563D01*
Y-203277D01*
Y-202991D01*
X1029455D01*
Y-202704D01*
Y-202418D01*
Y-202132D01*
Y-201846D01*
Y-201559D01*
Y-201273D01*
Y-200987D01*
Y-200700D01*
Y-200414D01*
Y-200128D01*
X1042340D01*
Y-200414D01*
D02*
G37*
G36*
X984504Y-182949D02*
Y-183235D01*
X984218D01*
Y-183521D01*
Y-183808D01*
Y-184094D01*
Y-184380D01*
Y-184667D01*
Y-184953D01*
X983932D01*
Y-185239D01*
Y-185526D01*
Y-185812D01*
Y-186098D01*
Y-186385D01*
Y-186671D01*
X983645D01*
Y-186957D01*
Y-187243D01*
Y-187530D01*
Y-187816D01*
Y-188102D01*
Y-188389D01*
Y-188675D01*
X983359D01*
Y-188961D01*
Y-189248D01*
Y-189534D01*
Y-189820D01*
Y-190107D01*
Y-190393D01*
X983073D01*
Y-190679D01*
Y-190966D01*
Y-191252D01*
Y-191538D01*
Y-191824D01*
Y-192111D01*
X982786D01*
Y-192397D01*
Y-192683D01*
Y-192970D01*
Y-193256D01*
Y-193542D01*
Y-193829D01*
Y-194115D01*
X982500D01*
Y-194401D01*
Y-194688D01*
Y-194974D01*
Y-195260D01*
Y-195547D01*
Y-195833D01*
X982214D01*
Y-196119D01*
Y-196405D01*
Y-196692D01*
Y-196978D01*
Y-197265D01*
Y-197551D01*
X981927D01*
Y-197837D01*
Y-198123D01*
Y-198410D01*
Y-198696D01*
Y-198982D01*
Y-199269D01*
X981641D01*
Y-199555D01*
Y-199841D01*
Y-200128D01*
Y-200414D01*
Y-200700D01*
Y-200987D01*
Y-201273D01*
X981355D01*
Y-201559D01*
Y-201846D01*
Y-202132D01*
Y-202418D01*
Y-202704D01*
Y-202991D01*
X981069D01*
Y-203277D01*
Y-203563D01*
X981641D01*
Y-203277D01*
X981927D01*
Y-202991D01*
X982214D01*
Y-202704D01*
X982786D01*
Y-202418D01*
X983073D01*
Y-202132D01*
X983359D01*
Y-201846D01*
X983932D01*
Y-201559D01*
X984504D01*
Y-201273D01*
X984791D01*
Y-200987D01*
X985363D01*
Y-200700D01*
X986222D01*
Y-200414D01*
X986795D01*
Y-200128D01*
X987654D01*
Y-199841D01*
X989085D01*
Y-199555D01*
X995384D01*
Y-199841D01*
X996529D01*
Y-200128D01*
X997388D01*
Y-200414D01*
X997961D01*
Y-200700D01*
X998247D01*
Y-200987D01*
X998820D01*
Y-201273D01*
X999106D01*
Y-201559D01*
X999393D01*
Y-201846D01*
X999679D01*
Y-202132D01*
X999965D01*
Y-202418D01*
Y-202704D01*
X1000251D01*
Y-202991D01*
Y-203277D01*
X1000538D01*
Y-203563D01*
Y-203850D01*
Y-204136D01*
X1000824D01*
Y-204422D01*
Y-204709D01*
Y-204995D01*
Y-205281D01*
X1001110D01*
Y-205568D01*
Y-205854D01*
Y-206140D01*
Y-206427D01*
Y-206713D01*
Y-206999D01*
Y-207285D01*
Y-207572D01*
Y-207858D01*
Y-208144D01*
Y-208431D01*
Y-208717D01*
Y-209003D01*
Y-209290D01*
Y-209576D01*
Y-209862D01*
Y-210149D01*
Y-210435D01*
X1000824D01*
Y-210721D01*
Y-211007D01*
Y-211294D01*
Y-211580D01*
Y-211866D01*
Y-212153D01*
Y-212439D01*
X1000538D01*
Y-212725D01*
Y-213012D01*
Y-213298D01*
Y-213584D01*
Y-213871D01*
Y-214157D01*
Y-214443D01*
X1000251D01*
Y-214730D01*
Y-215016D01*
Y-215302D01*
Y-215588D01*
Y-215875D01*
Y-216161D01*
X999965D01*
Y-216447D01*
Y-216734D01*
Y-217020D01*
Y-217306D01*
Y-217593D01*
Y-217879D01*
X999679D01*
Y-218165D01*
Y-218452D01*
Y-218738D01*
Y-219024D01*
Y-219311D01*
Y-219597D01*
X999393D01*
Y-219883D01*
Y-220169D01*
Y-220456D01*
Y-220742D01*
Y-221028D01*
Y-221315D01*
Y-221601D01*
X999106D01*
Y-221887D01*
Y-222174D01*
Y-222460D01*
Y-222746D01*
Y-223033D01*
Y-223319D01*
X998820D01*
Y-223605D01*
Y-223892D01*
Y-224178D01*
Y-224464D01*
Y-224750D01*
Y-225037D01*
X998534D01*
Y-225323D01*
Y-225609D01*
Y-225896D01*
Y-226182D01*
Y-226468D01*
Y-226755D01*
Y-227041D01*
X998247D01*
Y-227327D01*
Y-227614D01*
Y-227900D01*
Y-228186D01*
Y-228473D01*
Y-228759D01*
X997961D01*
Y-229045D01*
Y-229331D01*
Y-229618D01*
Y-229904D01*
Y-230190D01*
Y-230477D01*
X997675D01*
Y-230763D01*
Y-231049D01*
Y-231336D01*
Y-231622D01*
Y-231908D01*
Y-232195D01*
X997388D01*
Y-232481D01*
Y-232767D01*
Y-233054D01*
Y-233340D01*
Y-233626D01*
Y-233912D01*
Y-234199D01*
X997102D01*
Y-234485D01*
Y-234771D01*
Y-235058D01*
Y-235344D01*
Y-235630D01*
Y-235917D01*
X996816D01*
Y-236203D01*
Y-236489D01*
X983645D01*
Y-236203D01*
Y-235917D01*
X983932D01*
Y-235630D01*
Y-235344D01*
Y-235058D01*
Y-234771D01*
Y-234485D01*
Y-234199D01*
X984218D01*
Y-233912D01*
Y-233626D01*
Y-233340D01*
Y-233054D01*
Y-232767D01*
Y-232481D01*
Y-232195D01*
X984504D01*
Y-231908D01*
Y-231622D01*
Y-231336D01*
Y-231049D01*
Y-230763D01*
Y-230477D01*
X984791D01*
Y-230190D01*
Y-229904D01*
Y-229618D01*
Y-229331D01*
Y-229045D01*
Y-228759D01*
X985077D01*
Y-228473D01*
Y-228186D01*
Y-227900D01*
Y-227614D01*
Y-227327D01*
Y-227041D01*
Y-226755D01*
X985363D01*
Y-226468D01*
Y-226182D01*
Y-225896D01*
Y-225609D01*
Y-225323D01*
Y-225037D01*
X985649D01*
Y-224750D01*
Y-224464D01*
Y-224178D01*
Y-223892D01*
Y-223605D01*
Y-223319D01*
Y-223033D01*
X985936D01*
Y-222746D01*
Y-222460D01*
Y-222174D01*
Y-221887D01*
Y-221601D01*
Y-221315D01*
X986222D01*
Y-221028D01*
Y-220742D01*
Y-220456D01*
Y-220169D01*
Y-219883D01*
Y-219597D01*
X986508D01*
Y-219311D01*
Y-219024D01*
Y-218738D01*
Y-218452D01*
Y-218165D01*
Y-217879D01*
X986795D01*
Y-217593D01*
Y-217306D01*
Y-217020D01*
Y-216734D01*
Y-216447D01*
Y-216161D01*
Y-215875D01*
X987081D01*
Y-215588D01*
Y-215302D01*
Y-215016D01*
Y-214730D01*
Y-214443D01*
Y-214157D01*
X987367D01*
Y-213871D01*
Y-213584D01*
Y-213298D01*
Y-213012D01*
Y-212725D01*
Y-212439D01*
Y-212153D01*
X987654D01*
Y-211866D01*
Y-211580D01*
Y-211294D01*
Y-211007D01*
Y-210721D01*
Y-210435D01*
X987367D01*
Y-210149D01*
Y-209862D01*
X987081D01*
Y-209576D01*
X986795D01*
Y-209290D01*
X986222D01*
Y-209003D01*
X984504D01*
Y-209290D01*
X983073D01*
Y-209576D01*
X982214D01*
Y-209862D01*
X981641D01*
Y-210149D01*
X981355D01*
Y-210435D01*
X980782D01*
Y-210721D01*
X980496D01*
Y-211007D01*
X980210D01*
Y-211294D01*
Y-211580D01*
X979923D01*
Y-211866D01*
Y-212153D01*
Y-212439D01*
X979637D01*
Y-212725D01*
Y-213012D01*
Y-213298D01*
Y-213584D01*
Y-213871D01*
Y-214157D01*
X979351D01*
Y-214443D01*
Y-214730D01*
Y-215016D01*
Y-215302D01*
Y-215588D01*
Y-215875D01*
Y-216161D01*
X979064D01*
Y-216447D01*
Y-216734D01*
Y-217020D01*
Y-217306D01*
Y-217593D01*
Y-217879D01*
X978778D01*
Y-218165D01*
Y-218452D01*
Y-218738D01*
Y-219024D01*
Y-219311D01*
Y-219597D01*
X978492D01*
Y-219883D01*
Y-220169D01*
Y-220456D01*
Y-220742D01*
Y-221028D01*
Y-221315D01*
X978205D01*
Y-221601D01*
Y-221887D01*
Y-222174D01*
Y-222460D01*
Y-222746D01*
Y-223033D01*
Y-223319D01*
X977919D01*
Y-223605D01*
Y-223892D01*
Y-224178D01*
Y-224464D01*
Y-224750D01*
Y-225037D01*
X977633D01*
Y-225323D01*
Y-225609D01*
Y-225896D01*
Y-226182D01*
Y-226468D01*
Y-226755D01*
X977346D01*
Y-227041D01*
Y-227327D01*
Y-227614D01*
Y-227900D01*
Y-228186D01*
Y-228473D01*
Y-228759D01*
X977060D01*
Y-229045D01*
Y-229331D01*
Y-229618D01*
Y-229904D01*
Y-230190D01*
Y-230477D01*
X976774D01*
Y-230763D01*
Y-231049D01*
Y-231336D01*
Y-231622D01*
Y-231908D01*
Y-232195D01*
X976488D01*
Y-232481D01*
Y-232767D01*
Y-233054D01*
Y-233340D01*
Y-233626D01*
Y-233912D01*
X976201D01*
Y-234199D01*
Y-234485D01*
Y-234771D01*
Y-235058D01*
Y-235344D01*
Y-235630D01*
Y-235917D01*
X975915D01*
Y-236203D01*
Y-236489D01*
X962745D01*
Y-236203D01*
Y-235917D01*
X963031D01*
Y-235630D01*
Y-235344D01*
Y-235058D01*
Y-234771D01*
Y-234485D01*
Y-234199D01*
Y-233912D01*
X963317D01*
Y-233626D01*
Y-233340D01*
Y-233054D01*
Y-232767D01*
Y-232481D01*
Y-232195D01*
X963603D01*
Y-231908D01*
Y-231622D01*
Y-231336D01*
Y-231049D01*
Y-230763D01*
Y-230477D01*
X963890D01*
Y-230190D01*
Y-229904D01*
Y-229618D01*
Y-229331D01*
Y-229045D01*
Y-228759D01*
Y-228473D01*
X964176D01*
Y-228186D01*
Y-227900D01*
Y-227614D01*
Y-227327D01*
Y-227041D01*
Y-226755D01*
X964462D01*
Y-226468D01*
Y-226182D01*
Y-225896D01*
Y-225609D01*
Y-225323D01*
Y-225037D01*
X964749D01*
Y-224750D01*
Y-224464D01*
Y-224178D01*
Y-223892D01*
Y-223605D01*
Y-223319D01*
X965035D01*
Y-223033D01*
Y-222746D01*
Y-222460D01*
Y-222174D01*
Y-221887D01*
Y-221601D01*
Y-221315D01*
X965321D01*
Y-221028D01*
Y-220742D01*
Y-220456D01*
Y-220169D01*
Y-219883D01*
Y-219597D01*
X965608D01*
Y-219311D01*
Y-219024D01*
Y-218738D01*
Y-218452D01*
Y-218165D01*
Y-217879D01*
X965894D01*
Y-217593D01*
Y-217306D01*
Y-217020D01*
Y-216734D01*
Y-216447D01*
Y-216161D01*
Y-215875D01*
X966180D01*
Y-215588D01*
Y-215302D01*
Y-215016D01*
Y-214730D01*
Y-214443D01*
Y-214157D01*
X966467D01*
Y-213871D01*
Y-213584D01*
Y-213298D01*
Y-213012D01*
Y-212725D01*
Y-212439D01*
X966753D01*
Y-212153D01*
Y-211866D01*
Y-211580D01*
Y-211294D01*
Y-211007D01*
Y-210721D01*
X967039D01*
Y-210435D01*
Y-210149D01*
Y-209862D01*
Y-209576D01*
Y-209290D01*
Y-209003D01*
Y-208717D01*
X967325D01*
Y-208431D01*
Y-208144D01*
Y-207858D01*
Y-207572D01*
Y-207285D01*
Y-206999D01*
X967612D01*
Y-206713D01*
Y-206427D01*
Y-206140D01*
Y-205854D01*
Y-205568D01*
Y-205281D01*
X967898D01*
Y-204995D01*
Y-204709D01*
Y-204422D01*
Y-204136D01*
Y-203850D01*
Y-203563D01*
X968184D01*
Y-203277D01*
Y-202991D01*
Y-202704D01*
Y-202418D01*
Y-202132D01*
Y-201846D01*
Y-201559D01*
X968471D01*
Y-201273D01*
Y-200987D01*
Y-200700D01*
Y-200414D01*
Y-200128D01*
Y-199841D01*
X968757D01*
Y-199555D01*
Y-199269D01*
Y-198982D01*
Y-198696D01*
Y-198410D01*
Y-198123D01*
X969043D01*
Y-197837D01*
Y-197551D01*
Y-197265D01*
Y-196978D01*
Y-196692D01*
Y-196405D01*
Y-196119D01*
X969330D01*
Y-195833D01*
Y-195547D01*
Y-195260D01*
Y-194974D01*
Y-194688D01*
Y-194401D01*
X969616D01*
Y-194115D01*
Y-193829D01*
Y-193542D01*
Y-193256D01*
Y-192970D01*
Y-192683D01*
X969902D01*
Y-192397D01*
Y-192111D01*
Y-191824D01*
Y-191538D01*
Y-191252D01*
Y-190966D01*
X970189D01*
Y-190679D01*
Y-190393D01*
Y-190107D01*
Y-189820D01*
Y-189534D01*
Y-189248D01*
Y-188961D01*
X970475D01*
Y-188675D01*
Y-188389D01*
Y-188102D01*
Y-187816D01*
Y-187530D01*
Y-187243D01*
X970761D01*
Y-186957D01*
Y-186671D01*
Y-186385D01*
Y-186098D01*
Y-185812D01*
Y-185526D01*
X971048D01*
Y-185239D01*
Y-184953D01*
Y-184667D01*
Y-184380D01*
Y-184094D01*
Y-183808D01*
Y-183521D01*
X971334D01*
Y-183235D01*
Y-182949D01*
Y-182662D01*
X984504D01*
Y-182949D01*
D02*
G37*
%LPC*%
G36*
X949002Y-197265D02*
X940985D01*
Y-197551D01*
Y-197837D01*
Y-198123D01*
Y-198410D01*
Y-198696D01*
X940698D01*
Y-198982D01*
Y-199269D01*
Y-199555D01*
Y-199841D01*
Y-200128D01*
Y-200414D01*
X940412D01*
Y-200700D01*
Y-200987D01*
Y-201273D01*
Y-201559D01*
Y-201846D01*
Y-202132D01*
X940126D01*
Y-202418D01*
Y-202704D01*
Y-202991D01*
Y-203277D01*
Y-203563D01*
Y-203850D01*
X939839D01*
Y-204136D01*
Y-204422D01*
Y-204709D01*
Y-204995D01*
Y-205281D01*
Y-205568D01*
Y-205854D01*
X939553D01*
Y-206140D01*
Y-206427D01*
Y-206713D01*
Y-206999D01*
Y-207285D01*
Y-207572D01*
X939267D01*
Y-207858D01*
Y-208144D01*
Y-208431D01*
X946425D01*
Y-208144D01*
X947570D01*
Y-207858D01*
X948143D01*
Y-207572D01*
X948429D01*
Y-207285D01*
X948715D01*
Y-206999D01*
X949002D01*
Y-206713D01*
X949288D01*
Y-206427D01*
Y-206140D01*
X949574D01*
Y-205854D01*
Y-205568D01*
X949860D01*
Y-205281D01*
Y-204995D01*
X950147D01*
Y-204709D01*
Y-204422D01*
Y-204136D01*
Y-203850D01*
X950433D01*
Y-203563D01*
Y-203277D01*
Y-202991D01*
Y-202704D01*
Y-202418D01*
X950719D01*
Y-202132D01*
Y-201846D01*
Y-201559D01*
Y-201273D01*
Y-200987D01*
Y-200700D01*
Y-200414D01*
Y-200128D01*
Y-199841D01*
Y-199555D01*
Y-199269D01*
X950433D01*
Y-198982D01*
Y-198696D01*
X950147D01*
Y-198410D01*
Y-198123D01*
X949860D01*
Y-197837D01*
X949574D01*
Y-197551D01*
X949002D01*
Y-197265D01*
D02*
G37*
%LPD*%
D12*
X1133199Y-213158D02*
X1124016D01*
Y-220046D01*
X1128607D01*
X1124016D01*
Y-226933D01*
X1140087Y-217750D02*
X1144678D01*
X1146974Y-220046D01*
Y-226933D01*
X1140087D01*
X1137791Y-224637D01*
X1140087Y-222341D01*
X1146974D01*
X1151566Y-213158D02*
Y-226933D01*
X1158453D01*
X1160749Y-224637D01*
Y-222341D01*
Y-220046D01*
X1158453Y-217750D01*
X1151566D01*
X1165341D02*
Y-226933D01*
Y-222341D01*
X1167637Y-220046D01*
X1169933Y-217750D01*
X1172229D01*
X1179116Y-226933D02*
X1183708D01*
X1181412D01*
Y-217750D01*
X1179116D01*
X1199779D02*
X1192891D01*
X1190595Y-220046D01*
Y-224637D01*
X1192891Y-226933D01*
X1199779D01*
X1206666Y-217750D02*
X1211258D01*
X1213554Y-220046D01*
Y-226933D01*
X1206666D01*
X1204370Y-224637D01*
X1206666Y-222341D01*
X1213554D01*
X1220441Y-215454D02*
Y-217750D01*
X1218145D01*
X1222737D01*
X1220441D01*
Y-224637D01*
X1222737Y-226933D01*
X1229625D02*
X1234216D01*
X1231921D01*
Y-217750D01*
X1229625D01*
X1243400Y-226933D02*
X1247991D01*
X1250287Y-224637D01*
Y-220046D01*
X1247991Y-217750D01*
X1243400D01*
X1241104Y-220046D01*
Y-224637D01*
X1243400Y-226933D01*
X1254879D02*
Y-217750D01*
X1261767D01*
X1264062Y-220046D01*
Y-226933D01*
X927165Y-291899D02*
Y-307642D01*
X932413Y-302394D01*
X937661Y-307642D01*
Y-291899D01*
X942908Y-307642D02*
X948156D01*
X945532D01*
Y-297147D01*
X942908D01*
X956027Y-307642D02*
Y-297147D01*
X958651D01*
X961275Y-299770D01*
Y-307642D01*
Y-299770D01*
X963899Y-297147D01*
X966523Y-299770D01*
Y-307642D01*
X971770Y-291899D02*
Y-302394D01*
X977018Y-307642D01*
X982266Y-302394D01*
Y-291899D01*
X998009Y-294523D02*
X995385Y-291899D01*
X990137D01*
X987513Y-294523D01*
Y-305018D01*
X990137Y-307642D01*
X995385D01*
X998009Y-305018D01*
Y-299770D01*
X992761D01*
X1281496Y-255153D02*
X1284120Y-252529D01*
X1289367D01*
X1291991Y-255153D01*
Y-265648D01*
X1289367Y-268272D01*
X1284120D01*
X1281496Y-265648D01*
Y-255153D01*
X1297239D02*
X1299863Y-252529D01*
X1305110D01*
X1307734Y-255153D01*
Y-265648D01*
X1305110Y-268272D01*
X1299863D01*
X1297239Y-265648D01*
Y-255153D01*
X1127294Y-254497D02*
X1118110D01*
Y-261384D01*
X1122702Y-259088D01*
X1124998D01*
X1127294Y-261384D01*
Y-265976D01*
X1124998Y-268272D01*
X1120406D01*
X1118110Y-265976D01*
X1131885Y-268272D02*
X1141069Y-259088D01*
X1145660Y-256792D02*
X1147956Y-254497D01*
X1152548D01*
X1154844Y-256792D01*
Y-265976D01*
X1152548Y-268272D01*
X1147956D01*
X1145660Y-265976D01*
Y-256792D01*
X1159435Y-268272D02*
X1164027D01*
X1161731D01*
Y-254497D01*
X1159435Y-256792D01*
X1170915Y-268272D02*
X1180098Y-259088D01*
X1193873Y-268272D02*
X1184690D01*
X1193873Y-259088D01*
Y-256792D01*
X1191577Y-254497D01*
X1186986D01*
X1184690Y-256792D01*
X1198465D02*
X1200761Y-254497D01*
X1205352D01*
X1207648Y-256792D01*
Y-265976D01*
X1205352Y-268272D01*
X1200761D01*
X1198465Y-265976D01*
Y-256792D01*
X1212240Y-268272D02*
X1216832D01*
X1214536D01*
Y-254497D01*
X1212240Y-256792D01*
X1223719Y-254497D02*
X1232903D01*
Y-256792D01*
X1223719Y-265976D01*
Y-268272D01*
X1112205Y-189532D02*
Y-179036D01*
X1117452Y-173789D01*
X1122700Y-179036D01*
Y-189532D01*
Y-181660D01*
X1112205D01*
X1127948Y-173789D02*
Y-186908D01*
X1130571Y-189532D01*
X1135819D01*
X1138443Y-186908D01*
Y-173789D01*
X1143691D02*
Y-189532D01*
X1151562D01*
X1154186Y-186908D01*
Y-176412D01*
X1151562Y-173789D01*
X1143691D01*
X1159433D02*
X1164681D01*
X1162057D01*
Y-189532D01*
X1159433D01*
X1164681D01*
X1180424Y-173789D02*
X1175177D01*
X1172553Y-176412D01*
Y-186908D01*
X1175177Y-189532D01*
X1180424D01*
X1183048Y-186908D01*
Y-176412D01*
X1180424Y-173789D01*
X1188296Y-192155D02*
X1198791D01*
X1214534Y-173789D02*
X1204039D01*
Y-181660D01*
X1209286D01*
X1204039D01*
Y-189532D01*
X1219781D02*
Y-173789D01*
X1225029Y-179036D01*
X1230277Y-173789D01*
Y-189532D01*
X1235524Y-192155D02*
X1246020D01*
X1251267Y-173789D02*
Y-189532D01*
X1261763D01*
X1277506Y-176412D02*
X1274882Y-173789D01*
X1269634D01*
X1267010Y-176412D01*
Y-186908D01*
X1269634Y-189532D01*
X1274882D01*
X1277506Y-186908D01*
D27*
X1259842Y-274177D02*
Y-234807D01*
X1102362Y-195437D02*
X1377953D01*
X1102362Y-234807D02*
X1377953D01*
X905512Y-274177D02*
X1377953D01*
X905512Y-156067D02*
X1377953D01*
X905512Y-313547D02*
Y-156067D01*
X1102362Y-313547D02*
Y-156067D01*
X-275590Y855744D02*
X1377953D01*
Y-313547D02*
Y855744D01*
X-275590Y-313547D02*
Y855744D01*
Y-313547D02*
X1377953D01*
X1112205Y-305673D02*
Y-301738D01*
X1114173Y-299770D01*
X1116140Y-301738D01*
Y-305673D01*
Y-302722D01*
X1112205D01*
X1118108Y-299770D02*
Y-304689D01*
X1119092Y-305673D01*
X1121060D01*
X1122044Y-304689D01*
Y-299770D01*
X1124012D02*
Y-305673D01*
X1126964D01*
X1127948Y-304689D01*
Y-300754D01*
X1126964Y-299770D01*
X1124012D01*
X1129916D02*
X1131883D01*
X1130900D01*
Y-305673D01*
X1129916D01*
X1131883D01*
X1137787Y-299770D02*
X1135819D01*
X1134835Y-300754D01*
Y-304689D01*
X1135819Y-305673D01*
X1137787D01*
X1138771Y-304689D01*
Y-300754D01*
X1137787Y-299770D01*
X1140739Y-306657D02*
X1144674D01*
X1150578Y-299770D02*
X1146642D01*
Y-302722D01*
X1148610D01*
X1146642D01*
Y-305673D01*
X1152546D02*
Y-299770D01*
X1154514Y-301738D01*
X1156482Y-299770D01*
Y-305673D01*
X1158450Y-306657D02*
X1162385D01*
X1164353Y-299770D02*
Y-305673D01*
X1168289D01*
X1174193Y-300754D02*
X1173209Y-299770D01*
X1171241D01*
X1170257Y-300754D01*
Y-304689D01*
X1171241Y-305673D01*
X1173209D01*
X1174193Y-304689D01*
X1176160Y-306657D02*
X1180096D01*
X1182064Y-300754D02*
X1183048Y-299770D01*
X1185016D01*
X1186000Y-300754D01*
Y-304689D01*
X1185016Y-305673D01*
X1183048D01*
X1182064Y-304689D01*
Y-300754D01*
X1187968D02*
X1188951Y-299770D01*
X1190919D01*
X1191903Y-300754D01*
Y-304689D01*
X1190919Y-305673D01*
X1188951D01*
X1187968Y-304689D01*
Y-300754D01*
X1193871Y-305673D02*
Y-304689D01*
X1194855D01*
Y-305673D01*
X1193871D01*
X1198791D02*
Y-299770D01*
X1201743D01*
X1202727Y-300754D01*
Y-302722D01*
X1201743Y-303705D01*
X1198791D01*
X1208630Y-301738D02*
X1205678D01*
X1204694Y-302722D01*
Y-304689D01*
X1205678Y-305673D01*
X1208630D01*
X1210598Y-299770D02*
Y-305673D01*
X1213550D01*
X1214534Y-304689D01*
Y-303705D01*
Y-302722D01*
X1213550Y-301738D01*
X1210598D01*
X1216502Y-299770D02*
Y-305673D01*
X1219454D01*
X1220437Y-304689D01*
Y-300754D01*
X1219454Y-299770D01*
X1216502D01*
X1223389Y-305673D02*
X1225357D01*
X1226341Y-304689D01*
Y-302722D01*
X1225357Y-301738D01*
X1223389D01*
X1222405Y-302722D01*
Y-304689D01*
X1223389Y-305673D01*
X1232245Y-301738D02*
X1229293D01*
X1228309Y-302722D01*
Y-304689D01*
X1229293Y-305673D01*
X1232245D01*
D33*
X-31496Y-199374D02*
Y-196750D01*
X-30184Y-195438D01*
X-28872Y-196750D01*
Y-199374D01*
Y-197406D01*
X-31496D01*
X-27560Y-199374D02*
X-26248D01*
X-26904D01*
Y-195438D01*
X-27560D01*
X-24281Y-199374D02*
X-22969D01*
X-23625D01*
Y-195438D01*
X-24281D01*
X-17065D02*
Y-199374D01*
X-15097D01*
X-14441Y-198718D01*
Y-196094D01*
X-15097Y-195438D01*
X-17065D01*
X-13129Y-199374D02*
X-11817D01*
X-12473D01*
Y-196750D01*
X-13129D01*
X-9849Y-199374D02*
Y-196750D01*
X-9194D01*
X-8538Y-197406D01*
Y-199374D01*
Y-197406D01*
X-7882Y-196750D01*
X-7226Y-197406D01*
Y-199374D01*
X-3946D02*
X-5258D01*
X-5914Y-198718D01*
Y-197406D01*
X-5258Y-196750D01*
X-3946D01*
X-3290Y-197406D01*
Y-198062D01*
X-5914D01*
X-1978Y-199374D02*
Y-196750D01*
X-10D01*
X646Y-197406D01*
Y-199374D01*
X1958D02*
X3926D01*
X4581Y-198718D01*
X3926Y-198062D01*
X2614D01*
X1958Y-197406D01*
X2614Y-196750D01*
X4581D01*
X5894Y-199374D02*
X7205D01*
X6549D01*
Y-196750D01*
X5894D01*
X9829Y-199374D02*
X11141D01*
X11797Y-198718D01*
Y-197406D01*
X11141Y-196750D01*
X9829D01*
X9173Y-197406D01*
Y-198718D01*
X9829Y-199374D01*
X13109D02*
Y-196750D01*
X15077D01*
X15733Y-197406D01*
Y-199374D01*
X17045D02*
X19013D01*
X19669Y-198718D01*
X19013Y-198062D01*
X17701D01*
X17045Y-197406D01*
X17701Y-196750D01*
X19669D01*
X25572D02*
X26884D01*
X27540Y-197406D01*
Y-199374D01*
X25572D01*
X24916Y-198718D01*
X25572Y-198062D01*
X27540D01*
X28852Y-196750D02*
Y-199374D01*
Y-198062D01*
X29508Y-197406D01*
X30164Y-196750D01*
X30820D01*
X34756Y-199374D02*
X33444D01*
X32788Y-198718D01*
Y-197406D01*
X33444Y-196750D01*
X34756D01*
X35412Y-197406D01*
Y-198062D01*
X32788D01*
X40659Y-199374D02*
X41971D01*
X41315D01*
Y-196750D01*
X40659D01*
X43939Y-199374D02*
Y-196750D01*
X45907D01*
X46563Y-197406D01*
Y-199374D01*
X51810D02*
Y-196750D01*
X52466D01*
X53122Y-197406D01*
Y-199374D01*
Y-197406D01*
X53778Y-196750D01*
X54434Y-197406D01*
Y-199374D01*
X55746D02*
Y-196750D01*
X56402D01*
X57058Y-197406D01*
Y-199374D01*
Y-197406D01*
X57714Y-196750D01*
X58370Y-197406D01*
Y-199374D01*
X0Y19685D02*
G03*
X19685Y0I19685J0D01*
G01*
Y196850D02*
G03*
X0Y177165I0J-19685D01*
G01*
X196850D02*
G03*
X177165Y196850I-19685J0D01*
G01*
Y0D02*
G03*
X196850Y19685I0J19685D01*
G01*
X19685Y0D02*
X177165D01*
X196850Y19685D02*
Y177165D01*
X19685Y196850D02*
X177165D01*
X0Y19685D02*
Y177165D01*
D34*
X1263780Y-246618D02*
Y-238747D01*
X1267715D01*
X1269027Y-240059D01*
Y-242682D01*
X1267715Y-243994D01*
X1263780D01*
X1266403D02*
X1269027Y-246618D01*
X1275587D02*
X1272963D01*
X1271651Y-245306D01*
Y-242682D01*
X1272963Y-241371D01*
X1275587D01*
X1276899Y-242682D01*
Y-243994D01*
X1271651D01*
X1279523Y-241371D02*
X1282146Y-246618D01*
X1284770Y-241371D01*
X909449Y-278117D02*
Y-285988D01*
X913385D01*
X914697Y-284676D01*
Y-279429D01*
X913385Y-278117D01*
X909449D01*
X921256Y-285988D02*
X918632D01*
X917320Y-284676D01*
Y-282052D01*
X918632Y-280741D01*
X921256D01*
X922568Y-282052D01*
Y-283364D01*
X917320D01*
X925192Y-285988D02*
X929128D01*
X930439Y-284676D01*
X929128Y-283364D01*
X926504D01*
X925192Y-282052D01*
X926504Y-280741D01*
X930439D01*
X935687Y-288612D02*
X936999D01*
X938311Y-287300D01*
Y-280741D01*
X934375D01*
X933063Y-282052D01*
Y-284676D01*
X934375Y-285988D01*
X938311D01*
X940935D02*
X943559D01*
X942247D01*
Y-280741D01*
X940935D01*
X947494Y-285988D02*
Y-280741D01*
X951430D01*
X952742Y-282052D01*
Y-285988D01*
X959301D02*
X956678D01*
X955366Y-284676D01*
Y-282052D01*
X956678Y-280741D01*
X959301D01*
X960613Y-282052D01*
Y-283364D01*
X955366D01*
X963237Y-280741D02*
Y-285988D01*
Y-283364D01*
X964549Y-282052D01*
X965861Y-280741D01*
X967173D01*
X1106299Y-160006D02*
Y-167878D01*
X1110235D01*
X1111547Y-166566D01*
Y-161319D01*
X1110235Y-160006D01*
X1106299D01*
X1115483Y-167878D02*
X1118106D01*
X1119418Y-166566D01*
Y-163942D01*
X1118106Y-162630D01*
X1115483D01*
X1114171Y-163942D01*
Y-166566D01*
X1115483Y-167878D01*
X1127290Y-162630D02*
X1123354D01*
X1122042Y-163942D01*
Y-166566D01*
X1123354Y-167878D01*
X1127290D01*
X1129914Y-162630D02*
Y-166566D01*
X1131226Y-167878D01*
X1135161D01*
Y-162630D01*
X1137785Y-167878D02*
Y-162630D01*
X1139097D01*
X1140409Y-163942D01*
Y-167878D01*
Y-163942D01*
X1141721Y-162630D01*
X1143033Y-163942D01*
Y-167878D01*
X1149592D02*
X1146968D01*
X1145657Y-166566D01*
Y-163942D01*
X1146968Y-162630D01*
X1149592D01*
X1150904Y-163942D01*
Y-165254D01*
X1145657D01*
X1153528Y-167878D02*
Y-162630D01*
X1157464D01*
X1158776Y-163942D01*
Y-167878D01*
X1162712Y-161319D02*
Y-162630D01*
X1161400D01*
X1164023D01*
X1162712D01*
Y-166566D01*
X1164023Y-167878D01*
X1106299Y-199377D02*
Y-207248D01*
X1111547D01*
X1115483Y-202000D02*
X1118106D01*
X1119418Y-203312D01*
Y-207248D01*
X1115483D01*
X1114171Y-205936D01*
X1115483Y-204624D01*
X1119418D01*
X1122042Y-202000D02*
Y-205936D01*
X1123354Y-207248D01*
X1127290D01*
Y-208560D01*
X1125978Y-209872D01*
X1124666D01*
X1127290Y-207248D02*
Y-202000D01*
X1133849Y-207248D02*
X1131226D01*
X1129914Y-205936D01*
Y-203312D01*
X1131226Y-202000D01*
X1133849D01*
X1135161Y-203312D01*
Y-204624D01*
X1129914D01*
X1137785Y-202000D02*
Y-207248D01*
Y-204624D01*
X1139097Y-203312D01*
X1140409Y-202000D01*
X1141721D01*
X1153528Y-207248D02*
Y-199377D01*
X1158776Y-207248D01*
Y-199377D01*
X1162712Y-202000D02*
X1165335D01*
X1166647Y-203312D01*
Y-207248D01*
X1162712D01*
X1161400Y-205936D01*
X1162712Y-204624D01*
X1166647D01*
X1169271Y-207248D02*
Y-202000D01*
X1170583D01*
X1171895Y-203312D01*
Y-207248D01*
Y-203312D01*
X1173207Y-202000D01*
X1174519Y-203312D01*
Y-207248D01*
X1181078D02*
X1178454D01*
X1177143Y-205936D01*
Y-203312D01*
X1178454Y-202000D01*
X1181078D01*
X1182390Y-203312D01*
Y-204624D01*
X1177143D01*
X1106299Y-238747D02*
Y-246618D01*
X1110235D01*
X1111547Y-245306D01*
Y-240059D01*
X1110235Y-238747D01*
X1106299D01*
X1115483Y-241371D02*
X1118106D01*
X1119418Y-242682D01*
Y-246618D01*
X1115483D01*
X1114171Y-245306D01*
X1115483Y-243994D01*
X1119418D01*
X1123354Y-240059D02*
Y-241371D01*
X1122042D01*
X1124666D01*
X1123354D01*
Y-245306D01*
X1124666Y-246618D01*
X1132537D02*
X1129914D01*
X1128602Y-245306D01*
Y-242682D01*
X1129914Y-241371D01*
X1132537D01*
X1133849Y-242682D01*
Y-243994D01*
X1128602D01*
X1106299Y-278117D02*
Y-285988D01*
X1110235D01*
X1111547Y-284676D01*
Y-279429D01*
X1110235Y-278117D01*
X1106299D01*
X1115483Y-285988D02*
X1118106D01*
X1119418Y-284676D01*
Y-282052D01*
X1118106Y-280741D01*
X1115483D01*
X1114171Y-282052D01*
Y-284676D01*
X1115483Y-285988D01*
X1127290Y-280741D02*
X1123354D01*
X1122042Y-282052D01*
Y-284676D01*
X1123354Y-285988D01*
X1127290D01*
X1129914Y-280741D02*
Y-284676D01*
X1131226Y-285988D01*
X1135161D01*
Y-280741D01*
X1137785Y-285988D02*
Y-280741D01*
X1139097D01*
X1140409Y-282052D01*
Y-285988D01*
Y-282052D01*
X1141721Y-280741D01*
X1143033Y-282052D01*
Y-285988D01*
X1149592D02*
X1146968D01*
X1145657Y-284676D01*
Y-282052D01*
X1146968Y-280741D01*
X1149592D01*
X1150904Y-282052D01*
Y-283364D01*
X1145657D01*
X1153528Y-285988D02*
Y-280741D01*
X1157464D01*
X1158776Y-282052D01*
Y-285988D01*
X1162712Y-279429D02*
Y-280741D01*
X1161400D01*
X1164023D01*
X1162712D01*
Y-284676D01*
X1164023Y-285988D01*
D49*
X-37614Y196850D02*
X176165D01*
X-37614Y0D02*
X175870D01*
X-36614Y112421D02*
Y196850D01*
Y0D02*
Y81230D01*
X-38614Y190850D02*
X-36614Y196850D01*
X-34614Y190850D01*
X-36614Y0D02*
X-34614Y6000D01*
X-38614D02*
X-36614Y0D01*
X196850Y-32102D02*
Y18685D01*
X0Y-32102D02*
Y18685D01*
X112421Y-31102D02*
X196850D01*
X0D02*
X81230D01*
X190850Y-29102D02*
X196850Y-31102D01*
X190850Y-33102D02*
X196850Y-31102D01*
X0D02*
X6000Y-33102D01*
X0Y-31102D02*
X6000Y-29102D01*
D81*
X-38013Y86828D02*
Y82830D01*
X-35015D01*
X-36014Y84829D01*
Y85829D01*
X-35015Y86828D01*
X-33015D01*
X-32015Y85829D01*
Y83829D01*
X-33015Y82830D01*
X-37014Y88828D02*
X-38013Y89828D01*
Y91827D01*
X-37014Y92826D01*
X-33015D01*
X-32015Y91827D01*
Y89828D01*
X-33015Y88828D01*
X-37014D01*
X-31016Y95825D02*
X-32015Y96825D01*
X-33015D01*
Y95825D01*
X-32015D01*
Y96825D01*
X-31016Y95825D01*
X-30016Y94826D01*
X-37014Y100824D02*
X-38013Y101824D01*
Y103823D01*
X-37014Y104823D01*
X-33015D01*
X-32015Y103823D01*
Y101824D01*
X-33015Y100824D01*
X-37014D01*
Y106822D02*
X-38013Y107822D01*
Y109821D01*
X-37014Y110821D01*
X-33015D01*
X-32015Y109821D01*
Y107822D01*
X-33015Y106822D01*
X-37014D01*
X86828Y-29703D02*
X82830D01*
Y-32702D01*
X84829Y-31702D01*
X85829D01*
X86828Y-32702D01*
Y-34701D01*
X85829Y-35701D01*
X83829D01*
X82830Y-34701D01*
X88828Y-30703D02*
X89828Y-29703D01*
X91827D01*
X92826Y-30703D01*
Y-34701D01*
X91827Y-35701D01*
X89828D01*
X88828Y-34701D01*
Y-30703D01*
X95825Y-36701D02*
X96825Y-35701D01*
Y-34701D01*
X95825D01*
Y-35701D01*
X96825D01*
X95825Y-36701D01*
X94826Y-37700D01*
X100824Y-30703D02*
X101824Y-29703D01*
X103823D01*
X104823Y-30703D01*
Y-34701D01*
X103823Y-35701D01*
X101824D01*
X100824Y-34701D01*
Y-30703D01*
X106822D02*
X107822Y-29703D01*
X109821D01*
X110821Y-30703D01*
Y-34701D01*
X109821Y-35701D01*
X107822D01*
X106822Y-34701D01*
Y-30703D01*
M02*
