G04 Layer_Physical_Order=2*
G04 Layer_Color=33789*
%FSLAX25Y25*%
%MOIN*%
G70*
G01*
G75*
%ADD11C,0.02756*%
%ADD12C,0.01575*%
%ADD27C,0.00787*%
%ADD28C,0.01181*%
%ADD33C,0.00591*%
%ADD34C,0.00984*%
%ADD35C,0.05906*%
%ADD36R,0.05906X0.05906*%
%ADD37C,0.12598*%
%ADD38C,0.03150*%
%ADD39C,0.06000*%
%ADD40R,0.07087X0.07087*%
%ADD41R,0.06299X0.06299*%
G04:AMPARAMS|DCode=42|XSize=62.99mil|YSize=62.99mil|CornerRadius=15.75mil|HoleSize=0mil|Usage=FLASHONLY|Rotation=0.000|XOffset=0mil|YOffset=0mil|HoleType=Round|Shape=RoundedRectangle|*
%AMROUNDEDRECTD42*
21,1,0.06299,0.03150,0,0,0.0*
21,1,0.03150,0.06299,0,0,0.0*
1,1,0.03150,0.01575,-0.01575*
1,1,0.03150,-0.01575,-0.01575*
1,1,0.03150,-0.01575,0.01575*
1,1,0.03150,0.01575,0.01575*
%
%ADD42ROUNDEDRECTD42*%
G04:AMPARAMS|DCode=43|XSize=118.11mil|YSize=236.22mil|CornerRadius=29.53mil|HoleSize=0mil|Usage=FLASHONLY|Rotation=0.000|XOffset=0mil|YOffset=0mil|HoleType=Round|Shape=RoundedRectangle|*
%AMROUNDEDRECTD43*
21,1,0.11811,0.17716,0,0,0.0*
21,1,0.05906,0.23622,0,0,0.0*
1,1,0.05906,0.02953,-0.08858*
1,1,0.05906,-0.02953,-0.08858*
1,1,0.05906,-0.02953,0.08858*
1,1,0.05906,0.02953,0.08858*
%
%ADD43ROUNDEDRECTD43*%
G04:AMPARAMS|DCode=44|XSize=39.37mil|YSize=39.37mil|CornerRadius=9.84mil|HoleSize=0mil|Usage=FLASHONLY|Rotation=90.000|XOffset=0mil|YOffset=0mil|HoleType=Round|Shape=RoundedRectangle|*
%AMROUNDEDRECTD44*
21,1,0.03937,0.01969,0,0,90.0*
21,1,0.01969,0.03937,0,0,90.0*
1,1,0.01969,0.00984,0.00984*
1,1,0.01969,0.00984,-0.00984*
1,1,0.01969,-0.00984,-0.00984*
1,1,0.01969,-0.00984,0.00984*
%
%ADD44ROUNDEDRECTD44*%
%ADD45R,0.03937X0.03937*%
%ADD46R,0.05906X0.05906*%
%ADD47C,0.02756*%
%ADD48C,0.06299*%
G36*
X177885Y194571D02*
X178604Y194527D01*
X179320Y194453D01*
X180033Y194349D01*
X180740Y194216D01*
X181442Y194053D01*
X182136Y193862D01*
X182822Y193642D01*
X183498Y193395D01*
X184163Y193119D01*
X184817Y192816D01*
X185457Y192487D01*
X186083Y192131D01*
X186694Y191750D01*
X187288Y191343D01*
X187866Y190913D01*
X188425Y190459D01*
X188964Y189982D01*
X189484Y189484D01*
X189982Y188964D01*
X190459Y188425D01*
X190913Y187866D01*
X191343Y187288D01*
X191750Y186694D01*
X192131Y186083D01*
X192487Y185457D01*
X192816Y184817D01*
X193119Y184163D01*
X193395Y183498D01*
X193642Y182822D01*
X193862Y182136D01*
X194053Y181442D01*
X194216Y180740D01*
X194349Y180033D01*
X194453Y179320D01*
X194527Y178604D01*
X194571Y177885D01*
X194574Y177752D01*
X194583Y177165D01*
X194583Y176587D01*
X194583Y176581D01*
Y113099D01*
X194431Y112937D01*
X193992Y112735D01*
X193814Y112818D01*
X193451Y112952D01*
X193079Y113057D01*
X192700Y113132D01*
X192315Y113178D01*
X191929Y113193D01*
X191543Y113178D01*
X191159Y113132D01*
X190779Y113057D01*
X190407Y112952D01*
X190044Y112818D01*
X189693Y112656D01*
X189356Y112467D01*
X189034Y112252D01*
X188731Y112013D01*
X188447Y111750D01*
X188184Y111466D01*
X187945Y111163D01*
X187799Y110944D01*
X187460Y110984D01*
X187208Y111118D01*
Y137795D01*
X187195Y138161D01*
X187156Y138524D01*
X187091Y138884D01*
X187001Y139238D01*
X186885Y139585D01*
X186745Y139923D01*
X186582Y140250D01*
X186395Y140564D01*
X186187Y140864D01*
X185957Y141149D01*
X185708Y141417D01*
X163070Y164054D01*
X162803Y164304D01*
X162518Y164533D01*
X162218Y164741D01*
X161903Y164928D01*
X161576Y165092D01*
X161239Y165232D01*
X160892Y165347D01*
X160537Y165437D01*
X160178Y165502D01*
X159814Y165541D01*
X159449Y165554D01*
X129082D01*
X128820Y165637D01*
X128534Y165700D01*
X128245Y165738D01*
X127953Y165751D01*
X127661Y165738D01*
X127371Y165700D01*
X127086Y165637D01*
X126807Y165549D01*
X126537Y165437D01*
X126278Y165302D01*
X126171Y165234D01*
X126163Y165232D01*
X125825Y165092D01*
X125498Y164928D01*
X125184Y164741D01*
X124884Y164533D01*
X124599Y164304D01*
X124331Y164054D01*
X124082Y163787D01*
X123853Y163502D01*
X123644Y163202D01*
X123458Y162888D01*
X123294Y162561D01*
X123154Y162223D01*
X123039Y161876D01*
X122948Y161522D01*
X122883Y161162D01*
X122844Y160798D01*
X122831Y160433D01*
X122844Y160068D01*
X122883Y159704D01*
X122948Y159344D01*
X123039Y158990D01*
X123154Y158643D01*
X123294Y158306D01*
X123458Y157979D01*
X123644Y157664D01*
X123853Y157364D01*
X124082Y157079D01*
X124331Y156812D01*
X124599Y156563D01*
X124884Y156333D01*
X125184Y156125D01*
X125498Y155938D01*
X125825Y155774D01*
X126163Y155635D01*
X126171Y155632D01*
X126278Y155564D01*
X126537Y155429D01*
X126807Y155317D01*
X127086Y155229D01*
X127371Y155166D01*
X127661Y155128D01*
X127953Y155115D01*
X128245Y155128D01*
X128534Y155166D01*
X128820Y155229D01*
X129082Y155312D01*
X157327D01*
X176965Y135674D01*
Y60239D01*
X141732D01*
X141367Y60226D01*
X141003Y60187D01*
X140644Y60122D01*
X140289Y60032D01*
X139943Y59917D01*
X139605Y59777D01*
X139278Y59613D01*
X138963Y59426D01*
X138663Y59218D01*
X138379Y58989D01*
X138111Y58740D01*
X136142Y56771D01*
X135893Y56503D01*
X135664Y56219D01*
X135455Y55918D01*
X135269Y55604D01*
X135105Y55277D01*
X134965Y54939D01*
X134850Y54593D01*
X134759Y54238D01*
X134695Y53878D01*
X134655Y53515D01*
X134642Y53150D01*
Y46413D01*
X127800Y39570D01*
X106883D01*
X106699Y39770D01*
X106484Y39968D01*
X106252Y40145D01*
X106006Y40302D01*
X105746Y40437D01*
X105476Y40549D01*
X105198Y40637D01*
X104912Y40700D01*
X104623Y40738D01*
X104331Y40751D01*
X104039Y40738D01*
X103829Y40711D01*
X102362Y42178D01*
Y45276D01*
X94488D01*
Y42178D01*
X93021Y40711D01*
X92812Y40738D01*
X92520Y40751D01*
X92228Y40738D01*
X91938Y40700D01*
X91653Y40637D01*
X91374Y40549D01*
X91104Y40437D01*
X90845Y40302D01*
X90598Y40145D01*
X90367Y39968D01*
X90151Y39770D01*
X89968Y39570D01*
X71413D01*
X68976Y42007D01*
X68708Y42256D01*
X68423Y42486D01*
X68123Y42694D01*
X67809Y42881D01*
X67482Y43044D01*
X67144Y43184D01*
X66797Y43300D01*
X66443Y43390D01*
X66083Y43455D01*
X65720Y43494D01*
X65354Y43507D01*
X54993D01*
X54594Y43921D01*
X54522Y44098D01*
X54531Y44291D01*
X54518Y44583D01*
X54480Y44873D01*
X54417Y45158D01*
X54329Y45437D01*
X54217Y45707D01*
X54082Y45966D01*
X54014Y46074D01*
X54011Y46081D01*
X53871Y46419D01*
X53707Y46746D01*
X53521Y47060D01*
X53312Y47361D01*
X53083Y47645D01*
X52834Y47913D01*
X52566Y48162D01*
X52282Y48391D01*
X51981Y48600D01*
X51667Y48786D01*
X51340Y48950D01*
X51002Y49090D01*
X50656Y49205D01*
X50301Y49296D01*
X49941Y49361D01*
X49578Y49400D01*
X49213Y49413D01*
X48847Y49400D01*
X48484Y49361D01*
X48124Y49296D01*
X47770Y49205D01*
X47423Y49090D01*
X47085Y48950D01*
X46758Y48786D01*
X46444Y48600D01*
X46143Y48391D01*
X45859Y48162D01*
X45591Y47913D01*
X45342Y47645D01*
X45113Y47361D01*
X44904Y47060D01*
X44718Y46746D01*
X44554Y46419D01*
X44414Y46081D01*
X44412Y46073D01*
X44343Y45966D01*
X44208Y45707D01*
X44096Y45437D01*
X44009Y45158D01*
X43945Y44873D01*
X43907Y44583D01*
X43894Y44291D01*
X43907Y43999D01*
X43945Y43710D01*
X44009Y43424D01*
X44091Y43162D01*
Y39370D01*
X44104Y39005D01*
X44143Y38641D01*
X44208Y38282D01*
X44299Y37927D01*
X44414Y37580D01*
X44554Y37243D01*
X44718Y36916D01*
X44904Y36601D01*
X45113Y36301D01*
X45342Y36016D01*
X45591Y35749D01*
X46575Y34765D01*
X46843Y34515D01*
X47128Y34286D01*
X47428Y34078D01*
X47742Y33891D01*
X48069Y33727D01*
X48407Y33587D01*
X48754Y33472D01*
X49108Y33382D01*
X49468Y33317D01*
X49832Y33277D01*
X50197Y33264D01*
X63233D01*
X65670Y30828D01*
X65938Y30578D01*
X66222Y30349D01*
X66523Y30141D01*
X66837Y29954D01*
X67164Y29790D01*
X67502Y29650D01*
X67848Y29535D01*
X68203Y29445D01*
X68563Y29380D01*
X68926Y29340D01*
X69291Y29327D01*
X89968D01*
X90151Y29127D01*
X90367Y28930D01*
X90598Y28752D01*
X90845Y28595D01*
X91104Y28460D01*
X91374Y28348D01*
X91653Y28261D01*
X91938Y28197D01*
X92228Y28159D01*
X92520Y28146D01*
X92812Y28159D01*
X93101Y28197D01*
X93387Y28261D01*
X93665Y28348D01*
X93935Y28460D01*
X94195Y28595D01*
X94441Y28752D01*
X94673Y28930D01*
X94677Y28934D01*
X102173D01*
X102178Y28930D01*
X102409Y28752D01*
X102656Y28595D01*
X102915Y28460D01*
X103185Y28348D01*
X103464Y28261D01*
X103749Y28197D01*
X104039Y28159D01*
X104331Y28146D01*
X104623Y28159D01*
X104912Y28197D01*
X105198Y28261D01*
X105476Y28348D01*
X105746Y28460D01*
X106006Y28595D01*
X106252Y28752D01*
X106484Y28930D01*
X106699Y29127D01*
X106883Y29327D01*
X129921D01*
X130287Y29340D01*
X130650Y29380D01*
X131010Y29445D01*
X131364Y29535D01*
X131711Y29650D01*
X132049Y29790D01*
X132376Y29954D01*
X132690Y30141D01*
X132990Y30349D01*
X133275Y30578D01*
X133543Y30828D01*
X143385Y40670D01*
X143634Y40938D01*
X143864Y41222D01*
X144072Y41522D01*
X144259Y41837D01*
X144422Y42164D01*
X144562Y42502D01*
X144565Y42509D01*
X144633Y42617D01*
X144768Y42876D01*
X144880Y43146D01*
X144968Y43424D01*
X145031Y43710D01*
X145069Y43999D01*
X145082Y44291D01*
X145069Y44583D01*
X145031Y44873D01*
X144968Y45158D01*
X144885Y45420D01*
Y49997D01*
X176965D01*
Y45420D01*
X176883Y45158D01*
X176819Y44873D01*
X176781Y44583D01*
X176769Y44291D01*
X176781Y43999D01*
X176819Y43710D01*
X176883Y43424D01*
X176971Y43146D01*
X177082Y42876D01*
X177217Y42617D01*
X177286Y42509D01*
X177288Y42502D01*
X177428Y42164D01*
X177592Y41837D01*
X177778Y41522D01*
X177987Y41222D01*
X178216Y40938D01*
X178465Y40670D01*
X178733Y40421D01*
X179017Y40192D01*
X179318Y39983D01*
X179632Y39796D01*
X179959Y39633D01*
X180297Y39493D01*
X180644Y39377D01*
X180998Y39287D01*
X181358Y39222D01*
X181721Y39183D01*
X182087Y39170D01*
X182452Y39183D01*
X182816Y39222D01*
X183175Y39287D01*
X183529Y39377D01*
X183876Y39493D01*
X184214Y39633D01*
X184541Y39796D01*
X184855Y39983D01*
X185156Y40192D01*
X185440Y40421D01*
X185708Y40670D01*
X185957Y40938D01*
X186187Y41222D01*
X186395Y41522D01*
X186582Y41837D01*
X186745Y42164D01*
X186885Y42502D01*
X186888Y42509D01*
X186956Y42617D01*
X187091Y42876D01*
X187203Y43146D01*
X187291Y43424D01*
X187354Y43710D01*
X187392Y43999D01*
X187405Y44291D01*
X187392Y44583D01*
X187354Y44873D01*
X187291Y45158D01*
X187208Y45420D01*
Y55118D01*
Y105418D01*
X187460Y105551D01*
X187799Y105592D01*
X187945Y105373D01*
X188184Y105069D01*
X188447Y104785D01*
X188731Y104523D01*
X189034Y104283D01*
X189356Y104068D01*
X189693Y103879D01*
X190044Y103718D01*
X190407Y103584D01*
X190779Y103479D01*
X191159Y103403D01*
X191543Y103358D01*
X191929Y103343D01*
X192315Y103358D01*
X192700Y103403D01*
X193079Y103479D01*
X193451Y103584D01*
X193814Y103718D01*
X193992Y103800D01*
X194431Y103598D01*
X194583Y103437D01*
Y19685D01*
X194586Y19641D01*
X194571Y18965D01*
X194527Y18246D01*
X194453Y17530D01*
X194349Y16818D01*
X194216Y16110D01*
X194053Y15408D01*
X193862Y14714D01*
X193642Y14028D01*
X193395Y13352D01*
X193119Y12687D01*
X192816Y12034D01*
X192487Y11394D01*
X192131Y10768D01*
X191750Y10157D01*
X191343Y9562D01*
X190913Y8985D01*
X190459Y8426D01*
X189982Y7886D01*
X189484Y7367D01*
X188964Y6868D01*
X188425Y6391D01*
X187866Y5937D01*
X187288Y5507D01*
X186694Y5101D01*
X186083Y4719D01*
X185457Y4364D01*
X184817Y4034D01*
X184163Y3731D01*
X183498Y3456D01*
X182822Y3208D01*
X182136Y2988D01*
X181442Y2797D01*
X180740Y2635D01*
X180033Y2502D01*
X179320Y2398D01*
X178604Y2324D01*
X177885Y2279D01*
X177752Y2276D01*
X177165Y2267D01*
X176587Y2267D01*
X176581Y2267D01*
X19685D01*
X19641Y2265D01*
X18965Y2279D01*
X18246Y2324D01*
X17530Y2398D01*
X16818Y2502D01*
X16110Y2635D01*
X15408Y2797D01*
X14714Y2988D01*
X14028Y3208D01*
X13352Y3456D01*
X12687Y3731D01*
X12034Y4034D01*
X11394Y4364D01*
X10768Y4719D01*
X10157Y5101D01*
X9562Y5507D01*
X8985Y5937D01*
X8426Y6391D01*
X7886Y6868D01*
X7367Y7367D01*
X6868Y7886D01*
X6391Y8426D01*
X5937Y8985D01*
X5507Y9562D01*
X5101Y10157D01*
X4719Y10768D01*
X4364Y11394D01*
X4034Y12034D01*
X3731Y12687D01*
X3456Y13352D01*
X3208Y14028D01*
X2988Y14714D01*
X2797Y15408D01*
X2635Y16110D01*
X2502Y16818D01*
X2398Y17530D01*
X2324Y18246D01*
X2279Y18965D01*
X2276Y19098D01*
X2267Y19685D01*
X2267Y20264D01*
X2267Y20270D01*
Y134984D01*
X2852Y135056D01*
X2928Y134677D01*
X3032Y134305D01*
X3166Y133942D01*
X3328Y133591D01*
X3517Y133253D01*
X3732Y132932D01*
X3971Y132628D01*
X4234Y132344D01*
X4518Y132082D01*
X4822Y131842D01*
X5143Y131628D01*
X5481Y131439D01*
X5832Y131277D01*
X6195Y131143D01*
X6567Y131038D01*
X6946Y130962D01*
X7330Y130917D01*
X7717Y130902D01*
X8103Y130917D01*
X8487Y130962D01*
X8866Y131038D01*
X9239Y131143D01*
X9601Y131277D01*
X9952Y131439D01*
X10290Y131628D01*
X10611Y131842D01*
X10915Y132082D01*
X11199Y132344D01*
X11462Y132628D01*
X11701Y132932D01*
X11916Y133253D01*
X12105Y133591D01*
X12205Y133808D01*
X12795Y133678D01*
Y130905D01*
X22638D01*
Y140748D01*
X19865D01*
X19736Y141339D01*
X19952Y141438D01*
X20290Y141628D01*
X20611Y141842D01*
X20915Y142082D01*
X21199Y142344D01*
X21462Y142628D01*
X21701Y142932D01*
X21916Y143253D01*
X22105Y143591D01*
X22267Y143942D01*
X22400Y144305D01*
X22505Y144677D01*
X22581Y145056D01*
X22626Y145440D01*
X22642Y145827D01*
X22626Y146213D01*
X22581Y146597D01*
X22505Y146976D01*
X22400Y147349D01*
X22267Y147712D01*
X22105Y148063D01*
X21916Y148400D01*
X21701Y148722D01*
X21462Y149025D01*
X21199Y149309D01*
X20915Y149572D01*
X20611Y149811D01*
X20290Y150026D01*
X19952Y150215D01*
X19601Y150377D01*
X19239Y150511D01*
X19206Y150520D01*
Y151134D01*
X19239Y151143D01*
X19601Y151277D01*
X19952Y151438D01*
X20290Y151628D01*
X20611Y151842D01*
X20915Y152082D01*
X21199Y152344D01*
X21462Y152628D01*
X21701Y152932D01*
X21916Y153253D01*
X22032Y153461D01*
X24528D01*
X24792Y153476D01*
X25054Y153520D01*
X25309Y153594D01*
X25554Y153695D01*
X25786Y153823D01*
X26003Y153977D01*
X26201Y154154D01*
X28810Y156764D01*
X29279Y156397D01*
X29237Y156326D01*
X29129Y156099D01*
X29044Y155862D01*
X28983Y155618D01*
X28946Y155369D01*
X28934Y155118D01*
Y134047D01*
X28930Y134043D01*
X28752Y133811D01*
X28595Y133565D01*
X28460Y133305D01*
X28348Y133035D01*
X28261Y132757D01*
X28197Y132471D01*
X28159Y132182D01*
X28146Y131890D01*
X28159Y131598D01*
X28197Y131308D01*
X28261Y131023D01*
X28348Y130744D01*
X28460Y130474D01*
X28595Y130215D01*
X28752Y129969D01*
X28930Y129737D01*
X29127Y129521D01*
X29343Y129324D01*
X29575Y129146D01*
X29821Y128989D01*
X30080Y128854D01*
X30350Y128742D01*
X30629Y128654D01*
X30914Y128591D01*
X31204Y128553D01*
X31496Y128540D01*
X31788Y128553D01*
X32078Y128591D01*
X32363Y128654D01*
X32642Y128742D01*
X32912Y128854D01*
X33171Y128989D01*
X33417Y129146D01*
X33649Y129324D01*
X33865Y129521D01*
X34062Y129737D01*
X34240Y129969D01*
X34397Y130215D01*
X34532Y130474D01*
X34644Y130744D01*
X34732Y131023D01*
X34795Y131308D01*
X34833Y131598D01*
X34846Y131890D01*
X34833Y132182D01*
X34795Y132471D01*
X34732Y132757D01*
X34644Y133035D01*
X34532Y133305D01*
X34397Y133565D01*
X34240Y133811D01*
X34062Y134043D01*
X34058Y134047D01*
Y154057D01*
X34526Y154525D01*
X35638D01*
X35642Y154521D01*
X35874Y154343D01*
X36121Y154186D01*
X36380Y154051D01*
X36650Y153939D01*
X36928Y153851D01*
X37214Y153788D01*
X37503Y153750D01*
X37795Y153737D01*
X38087Y153750D01*
X38377Y153788D01*
X38662Y153851D01*
X38941Y153939D01*
X39211Y154051D01*
X39470Y154186D01*
X39717Y154343D01*
X39948Y154521D01*
X40164Y154718D01*
X40361Y154934D01*
X40539Y155165D01*
X40696Y155412D01*
X40831Y155671D01*
X40943Y155941D01*
X41031Y156220D01*
X41094Y156505D01*
X41132Y156795D01*
X41145Y157087D01*
X41132Y157378D01*
X41119Y157477D01*
X41382Y157890D01*
X41611Y158067D01*
X44296D01*
X54309Y148054D01*
X54316Y147823D01*
X53763Y147248D01*
X42922D01*
X42920Y147250D01*
X42704Y147448D01*
X42472Y147626D01*
X42226Y147783D01*
X41967Y147918D01*
X41697Y148029D01*
X41418Y148117D01*
X41133Y148181D01*
X40843Y148219D01*
X40551Y148231D01*
X40259Y148219D01*
X39970Y148181D01*
X39684Y148117D01*
X39406Y148029D01*
X39136Y147918D01*
X38876Y147783D01*
X38630Y147626D01*
X38398Y147448D01*
X38183Y147250D01*
X37985Y147035D01*
X37807Y146803D01*
X37650Y146557D01*
X37515Y146298D01*
X37404Y146028D01*
X37316Y145749D01*
X37252Y145464D01*
X37214Y145174D01*
X37201Y144882D01*
X37214Y144590D01*
X37252Y144300D01*
X37316Y144015D01*
X37404Y143736D01*
X37515Y143466D01*
X37650Y143207D01*
X37807Y142961D01*
X37985Y142729D01*
X38183Y142513D01*
X38398Y142316D01*
X38630Y142138D01*
X38876Y141981D01*
X39136Y141846D01*
X39406Y141734D01*
X39684Y141646D01*
X39970Y141583D01*
X40259Y141545D01*
X40551Y141532D01*
X40843Y141545D01*
X41133Y141583D01*
X41418Y141646D01*
X41697Y141734D01*
X41967Y141846D01*
X42226Y141981D01*
X42472Y142138D01*
X42704Y142316D01*
X42920Y142513D01*
X42922Y142516D01*
X55315D01*
X55580Y142531D01*
X55841Y142575D01*
X56096Y142649D01*
X56341Y142750D01*
X56574Y142879D01*
X56790Y143032D01*
X56988Y143209D01*
X58067Y144288D01*
X58071Y144288D01*
X58363Y144301D01*
X58718Y144227D01*
X58906Y143906D01*
X58969Y143621D01*
X59057Y143342D01*
X59169Y143072D01*
X59304Y142813D01*
X59461Y142567D01*
X59639Y142335D01*
X59836Y142119D01*
X60052Y141922D01*
X60283Y141744D01*
X60530Y141587D01*
X60789Y141452D01*
X61059Y141340D01*
X61338Y141252D01*
X61623Y141189D01*
X61913Y141151D01*
X62205Y141138D01*
X62399Y141147D01*
X62454Y141042D01*
X62611Y140795D01*
X62788Y140563D01*
X62986Y140348D01*
X63201Y140150D01*
X63433Y139973D01*
X63679Y139816D01*
X63939Y139681D01*
X64209Y139569D01*
X64487Y139481D01*
X64773Y139418D01*
X65062Y139380D01*
X65354Y139367D01*
X65646Y139380D01*
X65936Y139418D01*
X66221Y139481D01*
X66500Y139569D01*
X66770Y139681D01*
X67029Y139816D01*
X67276Y139973D01*
X67507Y140150D01*
X67723Y140348D01*
X67920Y140563D01*
X68098Y140795D01*
X68255Y141042D01*
X68390Y141301D01*
X68502Y141571D01*
X68590Y141850D01*
X68653Y142135D01*
X68691Y142425D01*
X68704Y142717D01*
X68691Y143008D01*
X68653Y143298D01*
X68590Y143584D01*
X68502Y143862D01*
X68390Y144132D01*
X68255Y144391D01*
X68098Y144638D01*
X67920Y144870D01*
X67723Y145085D01*
X67720Y145088D01*
Y150984D01*
X67705Y151249D01*
X67661Y151511D01*
X67588Y151766D01*
X67486Y152011D01*
X67358Y152243D01*
X67204Y152459D01*
X67027Y152657D01*
X51854Y167830D01*
Y177239D01*
X51897Y177295D01*
X52445Y177560D01*
X52510Y177518D01*
X52816Y177359D01*
X53135Y177227D01*
X53464Y177123D01*
X53801Y177049D01*
X53988Y177024D01*
Y180945D01*
Y184866D01*
X53801Y184841D01*
X53464Y184767D01*
X53135Y184663D01*
X52816Y184531D01*
X52510Y184371D01*
X52445Y184330D01*
X51897Y184595D01*
X51854Y184650D01*
Y185945D01*
X51839Y186210D01*
X51795Y186471D01*
X51721Y186726D01*
X51620Y186971D01*
X51491Y187204D01*
X51338Y187420D01*
X51161Y187618D01*
X49409Y189370D01*
Y194583D01*
X51766D01*
X51967Y193992D01*
X51945Y193976D01*
X51691Y193743D01*
X51457Y193488D01*
X51247Y193214D01*
X51062Y192923D01*
X50902Y192617D01*
X50770Y192298D01*
X50666Y191969D01*
X50592Y191632D01*
X50567Y191445D01*
X54488D01*
X58409D01*
X58385Y191632D01*
X58310Y191969D01*
X58206Y192298D01*
X58074Y192617D01*
X57915Y192923D01*
X57729Y193214D01*
X57519Y193488D01*
X57286Y193743D01*
X57031Y193976D01*
X57010Y193992D01*
X57210Y194583D01*
X60345D01*
X60455Y194462D01*
X60624Y193992D01*
X60504Y193840D01*
X60289Y193518D01*
X60100Y193181D01*
X59938Y192830D01*
X59804Y192467D01*
X59699Y192095D01*
X59624Y191715D01*
X59578Y191331D01*
X59563Y190945D01*
X59578Y190559D01*
X59624Y190174D01*
X59699Y189795D01*
X59804Y189423D01*
X59938Y189060D01*
X60100Y188709D01*
X60289Y188372D01*
X60504Y188050D01*
X60743Y187746D01*
X61006Y187462D01*
X61290Y187200D01*
X61593Y186960D01*
X61915Y186746D01*
X62252Y186557D01*
X62603Y186395D01*
X62966Y186261D01*
X62999Y186252D01*
Y185638D01*
X62966Y185629D01*
X62603Y185495D01*
X62252Y185333D01*
X61915Y185144D01*
X61593Y184929D01*
X61290Y184690D01*
X61006Y184427D01*
X60743Y184143D01*
X60504Y183840D01*
X60289Y183518D01*
X60100Y183181D01*
X59938Y182830D01*
X59804Y182467D01*
X59699Y182095D01*
X59624Y181715D01*
X59578Y181331D01*
X59563Y180945D01*
X59578Y180559D01*
X59624Y180174D01*
X59699Y179795D01*
X59804Y179423D01*
X59938Y179060D01*
X60100Y178709D01*
X60289Y178372D01*
X60504Y178050D01*
X60743Y177746D01*
X61006Y177462D01*
X61290Y177200D01*
X61593Y176960D01*
X61915Y176746D01*
X62252Y176557D01*
X62603Y176395D01*
X62966Y176261D01*
X63339Y176156D01*
X63718Y176081D01*
X64102Y176035D01*
X64488Y176020D01*
X64875Y176035D01*
X65259Y176081D01*
X65638Y176156D01*
X66010Y176261D01*
X66373Y176395D01*
X66724Y176557D01*
X67062Y176746D01*
X67383Y176960D01*
X67687Y177200D01*
X67971Y177462D01*
X68233Y177746D01*
X68473Y178050D01*
X68687Y178372D01*
X68876Y178709D01*
X69038Y179060D01*
X69172Y179423D01*
X69181Y179456D01*
X69795D01*
X69804Y179423D01*
X69938Y179060D01*
X70100Y178709D01*
X70289Y178372D01*
X70504Y178050D01*
X70743Y177746D01*
X71006Y177462D01*
X71290Y177200D01*
X71593Y176960D01*
X71915Y176746D01*
X72252Y176557D01*
X72603Y176395D01*
X72966Y176261D01*
X73339Y176156D01*
X73718Y176081D01*
X74102Y176035D01*
X74488Y176020D01*
X74875Y176035D01*
X75259Y176081D01*
X75638Y176156D01*
X76010Y176261D01*
X76373Y176395D01*
X76724Y176557D01*
X77061Y176746D01*
X77383Y176960D01*
X77687Y177200D01*
X77971Y177462D01*
X78233Y177746D01*
X78473Y178050D01*
X78688Y178372D01*
X78877Y178709D01*
X79038Y179060D01*
X79172Y179423D01*
X79181Y179456D01*
X79795D01*
X79804Y179423D01*
X79938Y179060D01*
X80100Y178709D01*
X80289Y178372D01*
X80504Y178050D01*
X80743Y177746D01*
X81006Y177462D01*
X81290Y177200D01*
X81593Y176960D01*
X81915Y176746D01*
X82252Y176557D01*
X82604Y176395D01*
X82966Y176261D01*
X83338Y176156D01*
X83718Y176081D01*
X84102Y176035D01*
X84488Y176020D01*
X84875Y176035D01*
X85259Y176081D01*
X85638Y176156D01*
X86010Y176261D01*
X86373Y176395D01*
X86724Y176557D01*
X87062Y176746D01*
X87383Y176960D01*
X87687Y177200D01*
X87971Y177462D01*
X88233Y177746D01*
X88473Y178050D01*
X88687Y178372D01*
X88876Y178709D01*
X89038Y179060D01*
X89172Y179423D01*
X89181Y179456D01*
X89795D01*
X89804Y179423D01*
X89938Y179060D01*
X90100Y178709D01*
X90289Y178372D01*
X90504Y178050D01*
X90743Y177746D01*
X91006Y177462D01*
X91290Y177200D01*
X91593Y176960D01*
X91915Y176746D01*
X92252Y176557D01*
X92603Y176395D01*
X92966Y176261D01*
X93339Y176156D01*
X93718Y176081D01*
X94102Y176035D01*
X94488Y176020D01*
X94875Y176035D01*
X95259Y176081D01*
X95638Y176156D01*
X96010Y176261D01*
X96373Y176395D01*
X96724Y176557D01*
X97062Y176746D01*
X97383Y176960D01*
X97687Y177200D01*
X97971Y177462D01*
X98233Y177746D01*
X98473Y178050D01*
X98687Y178372D01*
X98877Y178709D01*
X99038Y179060D01*
X99172Y179423D01*
X99277Y179795D01*
X99353Y180174D01*
X99398Y180559D01*
X99413Y180945D01*
X99398Y181331D01*
X99353Y181715D01*
X99277Y182095D01*
X99172Y182467D01*
X99038Y182830D01*
X98877Y183181D01*
X98687Y183518D01*
X98473Y183840D01*
X98233Y184143D01*
X97971Y184427D01*
X97687Y184690D01*
X97383Y184929D01*
X97062Y185144D01*
X96724Y185333D01*
X96507Y185433D01*
X96637Y186024D01*
X99410D01*
Y194583D01*
X177165D01*
X177209Y194586D01*
X177885Y194571D01*
D02*
G37*
G36*
X39567Y186024D02*
X42340D01*
X42469Y185433D01*
X42252Y185333D01*
X41915Y185144D01*
X41593Y184929D01*
X41290Y184690D01*
X41006Y184427D01*
X40743Y184143D01*
X40504Y183840D01*
X40289Y183518D01*
X40100Y183181D01*
X39938Y182830D01*
X39804Y182467D01*
X39699Y182095D01*
X39624Y181715D01*
X39578Y181331D01*
X39563Y180945D01*
X39578Y180559D01*
X39624Y180174D01*
X39699Y179795D01*
X39804Y179423D01*
X39938Y179060D01*
X40100Y178709D01*
X40289Y178372D01*
X40504Y178050D01*
X40743Y177746D01*
X41006Y177462D01*
X41290Y177200D01*
X41593Y176960D01*
X41915Y176746D01*
X42122Y176629D01*
Y167717D01*
X42137Y167452D01*
X42182Y167190D01*
X42255Y166935D01*
X42357Y166690D01*
X42485Y166458D01*
X42638Y166241D01*
X42815Y166044D01*
X45480Y163379D01*
X45312Y162903D01*
X45225Y162799D01*
X29134D01*
X28869Y162784D01*
X28607Y162740D01*
X28352Y162666D01*
X28107Y162565D01*
X27875Y162436D01*
X27659Y162283D01*
X27461Y162106D01*
X23548Y158193D01*
X22032D01*
X21916Y158400D01*
X21701Y158722D01*
X21462Y159025D01*
X21199Y159309D01*
X20915Y159572D01*
X20611Y159811D01*
X20290Y160026D01*
X19952Y160215D01*
X19601Y160377D01*
X19239Y160511D01*
X18866Y160616D01*
X18487Y160691D01*
X18103Y160737D01*
X17717Y160752D01*
X17330Y160737D01*
X16946Y160691D01*
X16567Y160616D01*
X16195Y160511D01*
X15832Y160377D01*
X15481Y160215D01*
X15143Y160026D01*
X14822Y159811D01*
X14518Y159572D01*
X14234Y159309D01*
X13972Y159025D01*
X13732Y158722D01*
X13517Y158400D01*
X13328Y158063D01*
X13166Y157712D01*
X13033Y157349D01*
X12928Y156976D01*
X12852Y156597D01*
X12807Y156213D01*
X12791Y155827D01*
X12807Y155440D01*
X12852Y155056D01*
X12928Y154677D01*
X13033Y154305D01*
X13166Y153942D01*
X13328Y153591D01*
X13517Y153253D01*
X13732Y152932D01*
X13972Y152628D01*
X14234Y152344D01*
X14518Y152082D01*
X14822Y151842D01*
X15143Y151628D01*
X15481Y151438D01*
X15832Y151277D01*
X16195Y151143D01*
X16227Y151134D01*
Y150520D01*
X16195Y150511D01*
X15832Y150377D01*
X15481Y150215D01*
X15143Y150026D01*
X14822Y149811D01*
X14518Y149572D01*
X14234Y149309D01*
X13972Y149025D01*
X13732Y148722D01*
X13517Y148400D01*
X13328Y148063D01*
X13166Y147712D01*
X13033Y147349D01*
X13023Y147316D01*
X12410D01*
X12400Y147349D01*
X12267Y147712D01*
X12105Y148063D01*
X11916Y148400D01*
X11701Y148722D01*
X11462Y149025D01*
X11199Y149309D01*
X10915Y149572D01*
X10611Y149811D01*
X10290Y150026D01*
X9952Y150215D01*
X9601Y150377D01*
X9239Y150511D01*
X8866Y150616D01*
X8487Y150691D01*
X8103Y150737D01*
X7717Y150752D01*
X7330Y150737D01*
X6946Y150691D01*
X6567Y150616D01*
X6195Y150511D01*
X5832Y150377D01*
X5481Y150215D01*
X5143Y150026D01*
X4822Y149811D01*
X4518Y149572D01*
X4234Y149309D01*
X3971Y149025D01*
X3732Y148722D01*
X3517Y148400D01*
X3328Y148063D01*
X3166Y147712D01*
X3032Y147349D01*
X2928Y146976D01*
X2852Y146597D01*
X2267Y146670D01*
Y177165D01*
X2265Y177209D01*
X2279Y177885D01*
X2324Y178604D01*
X2398Y179320D01*
X2502Y180033D01*
X2635Y180740D01*
X2797Y181442D01*
X2988Y182136D01*
X3208Y182822D01*
X3456Y183498D01*
X3731Y184163D01*
X4034Y184817D01*
X4364Y185457D01*
X4719Y186083D01*
X5101Y186694D01*
X5507Y187288D01*
X5937Y187866D01*
X6391Y188425D01*
X6868Y188964D01*
X7367Y189484D01*
X7886Y189982D01*
X8426Y190459D01*
X8985Y190913D01*
X9562Y191343D01*
X10157Y191750D01*
X10768Y192131D01*
X11394Y192487D01*
X12034Y192816D01*
X12687Y193119D01*
X13352Y193395D01*
X14028Y193642D01*
X14714Y193862D01*
X15408Y194053D01*
X16110Y194216D01*
X16818Y194349D01*
X17530Y194453D01*
X18246Y194527D01*
X18965Y194571D01*
X19098Y194574D01*
X19685Y194583D01*
X20264Y194583D01*
X20270Y194583D01*
X39567D01*
Y186024D01*
D02*
G37*
G36*
X103515Y40185D02*
X104207Y39559D01*
X105756Y38524D01*
X107477Y37811D01*
X109305Y37447D01*
X110236Y37402D01*
Y31496D01*
X110067D01*
X109409Y31464D01*
X108116Y31207D01*
X106899Y30702D01*
X105804Y29970D01*
X105315Y29528D01*
Y29528D01*
X91535D01*
X91535Y29528D01*
X91047Y29970D01*
X89951Y30702D01*
X88734Y31207D01*
X87442Y31464D01*
X86783Y31496D01*
X86614D01*
Y37402D01*
X87546Y37447D01*
X89373Y37811D01*
X91095Y38524D01*
X92644Y39559D01*
X93335Y40185D01*
X96457Y43307D01*
X100394D01*
X103515Y40185D01*
D02*
G37*
G36*
X1086432Y-200414D02*
X1086145D01*
Y-200700D01*
X1085859D01*
Y-200987D01*
Y-201273D01*
X1085573D01*
Y-201559D01*
X1085286D01*
Y-201846D01*
X1085000D01*
Y-202132D01*
Y-202418D01*
X1084714D01*
Y-202704D01*
X1084427D01*
Y-202991D01*
X1084141D01*
Y-203277D01*
X1083855D01*
Y-203563D01*
Y-203850D01*
X1083568D01*
Y-204136D01*
X1083282D01*
Y-204422D01*
X1082996D01*
Y-204709D01*
Y-204995D01*
X1082710D01*
Y-205281D01*
X1082423D01*
Y-205568D01*
X1082137D01*
Y-205854D01*
X1081851D01*
Y-206140D01*
Y-206427D01*
X1081564D01*
Y-206713D01*
X1081278D01*
Y-206999D01*
X1080992D01*
Y-207285D01*
Y-207572D01*
X1080705D01*
Y-207858D01*
X1080419D01*
Y-208144D01*
X1080133D01*
Y-208431D01*
Y-208717D01*
X1079846D01*
Y-209003D01*
X1079560D01*
Y-209290D01*
X1079274D01*
Y-209576D01*
X1078988D01*
Y-209862D01*
Y-210149D01*
X1078701D01*
Y-210435D01*
X1078415D01*
Y-210721D01*
X1078129D01*
Y-211007D01*
Y-211294D01*
X1077842D01*
Y-211580D01*
X1077556D01*
Y-211866D01*
X1077270D01*
Y-212153D01*
Y-212439D01*
X1076983D01*
Y-212725D01*
X1076697D01*
Y-213012D01*
X1076411D01*
Y-213298D01*
X1076124D01*
Y-213584D01*
Y-213871D01*
X1075838D01*
Y-214157D01*
X1075552D01*
Y-214443D01*
X1075265D01*
Y-214730D01*
Y-215016D01*
X1074979D01*
Y-215302D01*
X1074693D01*
Y-215588D01*
X1074407D01*
Y-215875D01*
Y-216161D01*
X1074120D01*
Y-216447D01*
X1073834D01*
Y-216734D01*
X1073548D01*
Y-217020D01*
X1073261D01*
Y-217306D01*
Y-217593D01*
X1072975D01*
Y-217879D01*
X1072689D01*
Y-218165D01*
X1072402D01*
Y-218452D01*
Y-218738D01*
X1072116D01*
Y-219024D01*
X1071830D01*
Y-219311D01*
X1071543D01*
Y-219597D01*
X1071257D01*
Y-219883D01*
Y-220169D01*
X1071543D01*
Y-220456D01*
Y-220742D01*
X1071830D01*
Y-221028D01*
Y-221315D01*
X1072116D01*
Y-221601D01*
X1072402D01*
Y-221887D01*
Y-222174D01*
X1072689D01*
Y-222460D01*
Y-222746D01*
X1072975D01*
Y-223033D01*
Y-223319D01*
X1073261D01*
Y-223605D01*
Y-223892D01*
X1073548D01*
Y-224178D01*
Y-224464D01*
X1073834D01*
Y-224750D01*
Y-225037D01*
X1074120D01*
Y-225323D01*
Y-225609D01*
X1074407D01*
Y-225896D01*
Y-226182D01*
X1074693D01*
Y-226468D01*
X1074979D01*
Y-226755D01*
Y-227041D01*
X1075265D01*
Y-227327D01*
Y-227614D01*
X1075552D01*
Y-227900D01*
Y-228186D01*
X1075838D01*
Y-228473D01*
Y-228759D01*
X1076124D01*
Y-229045D01*
Y-229331D01*
X1076411D01*
Y-229618D01*
Y-229904D01*
X1076697D01*
Y-230190D01*
Y-230477D01*
X1076983D01*
Y-230763D01*
X1077270D01*
Y-231049D01*
Y-231336D01*
X1077556D01*
Y-231622D01*
Y-231908D01*
X1077842D01*
Y-232195D01*
Y-232481D01*
X1078129D01*
Y-232767D01*
Y-233054D01*
X1078415D01*
Y-233340D01*
Y-233626D01*
X1078701D01*
Y-233912D01*
Y-234199D01*
X1078988D01*
Y-234485D01*
Y-234771D01*
X1079274D01*
Y-235058D01*
X1079560D01*
Y-235344D01*
Y-235630D01*
X1079846D01*
Y-235917D01*
Y-236203D01*
X1080133D01*
Y-236489D01*
X1064958D01*
Y-236203D01*
X1064672D01*
Y-235917D01*
Y-235630D01*
Y-235344D01*
X1064386D01*
Y-235058D01*
Y-234771D01*
Y-234485D01*
X1064099D01*
Y-234199D01*
Y-233912D01*
X1063813D01*
Y-233626D01*
Y-233340D01*
Y-233054D01*
X1063527D01*
Y-232767D01*
Y-232481D01*
Y-232195D01*
X1063240D01*
Y-231908D01*
Y-231622D01*
X1062954D01*
Y-231336D01*
Y-231049D01*
Y-230763D01*
X1062668D01*
Y-230477D01*
Y-230190D01*
Y-229904D01*
X1062381D01*
Y-229618D01*
Y-229331D01*
Y-229045D01*
X1062095D01*
Y-228759D01*
X1061522D01*
Y-229045D01*
Y-229331D01*
X1061236D01*
Y-229618D01*
X1060950D01*
Y-229904D01*
Y-230190D01*
X1060664D01*
Y-230477D01*
X1060377D01*
Y-230763D01*
Y-231049D01*
X1060091D01*
Y-231336D01*
X1059805D01*
Y-231622D01*
Y-231908D01*
X1059518D01*
Y-232195D01*
X1059232D01*
Y-232481D01*
X1058946D01*
Y-232767D01*
Y-233054D01*
X1058659D01*
Y-233340D01*
X1058373D01*
Y-233626D01*
Y-233912D01*
X1058087D01*
Y-234199D01*
X1057800D01*
Y-234485D01*
Y-234771D01*
X1057514D01*
Y-235058D01*
X1057228D01*
Y-235344D01*
Y-235630D01*
X1056941D01*
Y-235917D01*
X1056655D01*
Y-236203D01*
Y-236489D01*
X1040622D01*
Y-236203D01*
X1040908D01*
Y-235917D01*
X1041194D01*
Y-235630D01*
X1041481D01*
Y-235344D01*
X1041767D01*
Y-235058D01*
Y-234771D01*
X1042053D01*
Y-234485D01*
X1042340D01*
Y-234199D01*
X1042626D01*
Y-233912D01*
X1042912D01*
Y-233626D01*
Y-233340D01*
X1043198D01*
Y-233054D01*
X1043485D01*
Y-232767D01*
X1043771D01*
Y-232481D01*
Y-232195D01*
X1044057D01*
Y-231908D01*
X1044344D01*
Y-231622D01*
X1044630D01*
Y-231336D01*
X1044916D01*
Y-231049D01*
Y-230763D01*
X1045203D01*
Y-230477D01*
X1045489D01*
Y-230190D01*
X1045775D01*
Y-229904D01*
X1046062D01*
Y-229618D01*
Y-229331D01*
X1046348D01*
Y-229045D01*
X1046634D01*
Y-228759D01*
X1046920D01*
Y-228473D01*
Y-228186D01*
X1047207D01*
Y-227900D01*
X1047493D01*
Y-227614D01*
X1047779D01*
Y-227327D01*
X1048066D01*
Y-227041D01*
Y-226755D01*
X1048352D01*
Y-226468D01*
X1048638D01*
Y-226182D01*
X1048925D01*
Y-225896D01*
Y-225609D01*
X1049211D01*
Y-225323D01*
X1049497D01*
Y-225037D01*
X1049784D01*
Y-224750D01*
X1050070D01*
Y-224464D01*
Y-224178D01*
X1050356D01*
Y-223892D01*
X1050642D01*
Y-223605D01*
X1050929D01*
Y-223319D01*
Y-223033D01*
X1051215D01*
Y-222746D01*
X1051501D01*
Y-222460D01*
X1051788D01*
Y-222174D01*
X1052074D01*
Y-221887D01*
Y-221601D01*
X1052360D01*
Y-221315D01*
X1052647D01*
Y-221028D01*
X1052933D01*
Y-220742D01*
X1053219D01*
Y-220456D01*
Y-220169D01*
X1053506D01*
Y-219883D01*
X1053792D01*
Y-219597D01*
X1054078D01*
Y-219311D01*
Y-219024D01*
X1054365D01*
Y-218738D01*
X1054651D01*
Y-218452D01*
X1054937D01*
Y-218165D01*
X1055223D01*
Y-217879D01*
Y-217593D01*
X1055510D01*
Y-217306D01*
Y-217020D01*
Y-216734D01*
X1055223D01*
Y-216447D01*
X1054937D01*
Y-216161D01*
Y-215875D01*
X1054651D01*
Y-215588D01*
Y-215302D01*
X1054365D01*
Y-215016D01*
Y-214730D01*
X1054078D01*
Y-214443D01*
Y-214157D01*
X1053792D01*
Y-213871D01*
Y-213584D01*
X1053506D01*
Y-213298D01*
Y-213012D01*
X1053219D01*
Y-212725D01*
X1052933D01*
Y-212439D01*
Y-212153D01*
X1052647D01*
Y-211866D01*
Y-211580D01*
X1052360D01*
Y-211294D01*
Y-211007D01*
X1052074D01*
Y-210721D01*
Y-210435D01*
X1051788D01*
Y-210149D01*
Y-209862D01*
X1051501D01*
Y-209576D01*
Y-209290D01*
X1051215D01*
Y-209003D01*
X1050929D01*
Y-208717D01*
Y-208431D01*
X1050642D01*
Y-208144D01*
Y-207858D01*
X1050356D01*
Y-207572D01*
Y-207285D01*
X1050070D01*
Y-206999D01*
Y-206713D01*
X1049784D01*
Y-206427D01*
Y-206140D01*
X1049497D01*
Y-205854D01*
Y-205568D01*
X1049211D01*
Y-205281D01*
Y-204995D01*
X1048925D01*
Y-204709D01*
X1048638D01*
Y-204422D01*
Y-204136D01*
X1048352D01*
Y-203850D01*
Y-203563D01*
X1048066D01*
Y-203277D01*
Y-202991D01*
X1047779D01*
Y-202704D01*
Y-202418D01*
X1047493D01*
Y-202132D01*
Y-201846D01*
X1047207D01*
Y-201559D01*
Y-201273D01*
X1046920D01*
Y-200987D01*
X1046634D01*
Y-200700D01*
Y-200414D01*
X1046348D01*
Y-200128D01*
X1062095D01*
Y-200414D01*
X1062381D01*
Y-200700D01*
Y-200987D01*
Y-201273D01*
X1062668D01*
Y-201559D01*
Y-201846D01*
Y-202132D01*
X1062954D01*
Y-202418D01*
Y-202704D01*
Y-202991D01*
X1063240D01*
Y-203277D01*
Y-203563D01*
Y-203850D01*
X1063527D01*
Y-204136D01*
Y-204422D01*
Y-204709D01*
X1063813D01*
Y-204995D01*
Y-205281D01*
Y-205568D01*
X1064099D01*
Y-205854D01*
Y-206140D01*
Y-206427D01*
X1064386D01*
Y-206713D01*
Y-206999D01*
Y-207285D01*
X1064672D01*
Y-207572D01*
Y-207858D01*
Y-208144D01*
Y-208431D01*
X1065244D01*
Y-208144D01*
X1065531D01*
Y-207858D01*
X1065817D01*
Y-207572D01*
Y-207285D01*
X1066103D01*
Y-206999D01*
X1066390D01*
Y-206713D01*
Y-206427D01*
X1066676D01*
Y-206140D01*
X1066962D01*
Y-205854D01*
Y-205568D01*
X1067249D01*
Y-205281D01*
X1067535D01*
Y-204995D01*
Y-204709D01*
X1067821D01*
Y-204422D01*
X1068108D01*
Y-204136D01*
Y-203850D01*
X1068394D01*
Y-203563D01*
X1068680D01*
Y-203277D01*
Y-202991D01*
X1068966D01*
Y-202704D01*
X1069253D01*
Y-202418D01*
Y-202132D01*
X1069539D01*
Y-201846D01*
X1069825D01*
Y-201559D01*
Y-201273D01*
X1070112D01*
Y-200987D01*
X1070398D01*
Y-200700D01*
Y-200414D01*
X1070684D01*
Y-200128D01*
X1086432D01*
Y-200414D01*
D02*
G37*
G36*
X953296Y-186385D02*
X955014D01*
Y-186671D01*
X955873D01*
Y-186957D01*
X956732D01*
Y-187243D01*
X957591D01*
Y-187530D01*
X958164D01*
Y-187816D01*
X958450D01*
Y-188102D01*
X959022D01*
Y-188389D01*
X959309D01*
Y-188675D01*
X959881D01*
Y-188961D01*
X960168D01*
Y-189248D01*
X960454D01*
Y-189534D01*
X960740D01*
Y-189820D01*
X961027D01*
Y-190107D01*
X961313D01*
Y-190393D01*
X961599D01*
Y-190679D01*
Y-190966D01*
X961886D01*
Y-191252D01*
X962172D01*
Y-191538D01*
Y-191824D01*
X962458D01*
Y-192111D01*
X962745D01*
Y-192397D01*
Y-192683D01*
X963031D01*
Y-192970D01*
Y-193256D01*
Y-193542D01*
X963317D01*
Y-193829D01*
Y-194115D01*
Y-194401D01*
X963603D01*
Y-194688D01*
Y-194974D01*
Y-195260D01*
Y-195547D01*
X963890D01*
Y-195833D01*
Y-196119D01*
Y-196405D01*
Y-196692D01*
Y-196978D01*
X964176D01*
Y-197265D01*
Y-197551D01*
Y-197837D01*
Y-198123D01*
Y-198410D01*
Y-198696D01*
Y-198982D01*
Y-199269D01*
Y-199555D01*
Y-199841D01*
Y-200128D01*
Y-200414D01*
Y-200700D01*
Y-200987D01*
Y-201273D01*
Y-201559D01*
Y-201846D01*
Y-202132D01*
Y-202418D01*
Y-202704D01*
X963890D01*
Y-202991D01*
Y-203277D01*
Y-203563D01*
Y-203850D01*
Y-204136D01*
Y-204422D01*
Y-204709D01*
X963603D01*
Y-204995D01*
Y-205281D01*
Y-205568D01*
Y-205854D01*
Y-206140D01*
X963317D01*
Y-206427D01*
Y-206713D01*
Y-206999D01*
Y-207285D01*
Y-207572D01*
X963031D01*
Y-207858D01*
Y-208144D01*
Y-208431D01*
X962745D01*
Y-208717D01*
Y-209003D01*
Y-209290D01*
Y-209576D01*
X962458D01*
Y-209862D01*
Y-210149D01*
Y-210435D01*
X962172D01*
Y-210721D01*
Y-211007D01*
X961886D01*
Y-211294D01*
Y-211580D01*
Y-211866D01*
X961599D01*
Y-212153D01*
Y-212439D01*
X961313D01*
Y-212725D01*
Y-213012D01*
X961027D01*
Y-213298D01*
Y-213584D01*
X960740D01*
Y-213871D01*
X960454D01*
Y-214157D01*
Y-214443D01*
X960168D01*
Y-214730D01*
X959881D01*
Y-215016D01*
X959595D01*
Y-215302D01*
Y-215588D01*
X959309D01*
Y-215875D01*
X959022D01*
Y-216161D01*
X958736D01*
Y-216447D01*
X958450D01*
Y-216734D01*
X958164D01*
Y-217020D01*
X957591D01*
Y-217306D01*
X957304D01*
Y-217593D01*
X956732D01*
Y-217879D01*
X956446D01*
Y-218165D01*
X955873D01*
Y-218452D01*
X955014D01*
Y-218738D01*
X954155D01*
Y-219024D01*
X953296D01*
Y-219311D01*
X951578D01*
Y-219597D01*
X946425D01*
Y-219311D01*
X943848D01*
Y-219024D01*
X941844D01*
Y-218738D01*
X940412D01*
Y-218452D01*
X938980D01*
Y-218165D01*
X937549D01*
Y-218452D01*
Y-218738D01*
Y-219024D01*
Y-219311D01*
Y-219597D01*
Y-219883D01*
Y-220169D01*
X937263D01*
Y-220456D01*
Y-220742D01*
Y-221028D01*
Y-221315D01*
Y-221601D01*
Y-221887D01*
X936976D01*
Y-222174D01*
Y-222460D01*
Y-222746D01*
Y-223033D01*
Y-223319D01*
Y-223605D01*
X936690D01*
Y-223892D01*
Y-224178D01*
Y-224464D01*
Y-224750D01*
Y-225037D01*
Y-225323D01*
Y-225609D01*
X936404D01*
Y-225896D01*
Y-226182D01*
Y-226468D01*
Y-226755D01*
Y-227041D01*
Y-227327D01*
X936117D01*
Y-227614D01*
Y-227900D01*
Y-228186D01*
Y-228473D01*
Y-228759D01*
Y-229045D01*
X935831D01*
Y-229331D01*
Y-229618D01*
Y-229904D01*
Y-230190D01*
Y-230477D01*
Y-230763D01*
Y-231049D01*
X935545D01*
Y-231336D01*
Y-231622D01*
Y-231908D01*
Y-232195D01*
Y-232481D01*
Y-232767D01*
X935258D01*
Y-233054D01*
Y-233340D01*
Y-233626D01*
Y-233912D01*
Y-234199D01*
Y-234485D01*
X934972D01*
Y-234771D01*
Y-235058D01*
Y-235344D01*
Y-235630D01*
Y-235917D01*
Y-236203D01*
Y-236489D01*
X921515D01*
Y-236203D01*
X921802D01*
Y-235917D01*
Y-235630D01*
Y-235344D01*
Y-235058D01*
Y-234771D01*
X922088D01*
Y-234485D01*
Y-234199D01*
Y-233912D01*
Y-233626D01*
Y-233340D01*
Y-233054D01*
Y-232767D01*
X922374D01*
Y-232481D01*
Y-232195D01*
Y-231908D01*
Y-231622D01*
Y-231336D01*
Y-231049D01*
X922661D01*
Y-230763D01*
Y-230477D01*
Y-230190D01*
Y-229904D01*
Y-229618D01*
Y-229331D01*
X922947D01*
Y-229045D01*
Y-228759D01*
Y-228473D01*
Y-228186D01*
Y-227900D01*
Y-227614D01*
Y-227327D01*
X923233D01*
Y-227041D01*
Y-226755D01*
Y-226468D01*
Y-226182D01*
Y-225896D01*
Y-225609D01*
X923520D01*
Y-225323D01*
Y-225037D01*
Y-224750D01*
Y-224464D01*
Y-224178D01*
Y-223892D01*
X923806D01*
Y-223605D01*
Y-223319D01*
Y-223033D01*
Y-222746D01*
Y-222460D01*
Y-222174D01*
X924092D01*
Y-221887D01*
Y-221601D01*
Y-221315D01*
Y-221028D01*
Y-220742D01*
Y-220456D01*
Y-220169D01*
X924379D01*
Y-219883D01*
Y-219597D01*
Y-219311D01*
Y-219024D01*
Y-218738D01*
Y-218452D01*
X924665D01*
Y-218165D01*
Y-217879D01*
Y-217593D01*
Y-217306D01*
Y-217020D01*
Y-216734D01*
X924951D01*
Y-216447D01*
Y-216161D01*
Y-215875D01*
Y-215588D01*
Y-215302D01*
Y-215016D01*
X925237D01*
Y-214730D01*
Y-214443D01*
Y-214157D01*
Y-213871D01*
Y-213584D01*
Y-213298D01*
Y-213012D01*
X925524D01*
Y-212725D01*
Y-212439D01*
Y-212153D01*
Y-211866D01*
Y-211580D01*
Y-211294D01*
X925810D01*
Y-211007D01*
Y-210721D01*
Y-210435D01*
Y-210149D01*
Y-209862D01*
Y-209576D01*
X926096D01*
Y-209290D01*
Y-209003D01*
Y-208717D01*
Y-208431D01*
Y-208144D01*
Y-207858D01*
Y-207572D01*
X926383D01*
Y-207285D01*
Y-206999D01*
Y-206713D01*
Y-206427D01*
Y-206140D01*
Y-205854D01*
X926669D01*
Y-205568D01*
Y-205281D01*
Y-204995D01*
Y-204709D01*
Y-204422D01*
Y-204136D01*
X926955D01*
Y-203850D01*
Y-203563D01*
Y-203277D01*
Y-202991D01*
Y-202704D01*
Y-202418D01*
X927242D01*
Y-202132D01*
Y-201846D01*
Y-201559D01*
Y-201273D01*
Y-200987D01*
Y-200700D01*
Y-200414D01*
X927528D01*
Y-200128D01*
Y-199841D01*
Y-199555D01*
Y-199269D01*
Y-198982D01*
Y-198696D01*
X927814D01*
Y-198410D01*
Y-198123D01*
Y-197837D01*
Y-197551D01*
Y-197265D01*
Y-196978D01*
X928101D01*
Y-196692D01*
Y-196405D01*
Y-196119D01*
Y-195833D01*
Y-195547D01*
Y-195260D01*
Y-194974D01*
X928387D01*
Y-194688D01*
Y-194401D01*
Y-194115D01*
Y-193829D01*
Y-193542D01*
Y-193256D01*
X928673D01*
Y-192970D01*
Y-192683D01*
Y-192397D01*
Y-192111D01*
Y-191824D01*
Y-191538D01*
X928960D01*
Y-191252D01*
Y-190966D01*
Y-190679D01*
Y-190393D01*
Y-190107D01*
Y-189820D01*
Y-189534D01*
X929246D01*
Y-189248D01*
Y-188961D01*
Y-188675D01*
Y-188389D01*
Y-188102D01*
Y-187816D01*
X929532D01*
Y-187530D01*
Y-187243D01*
Y-186957D01*
Y-186671D01*
Y-186385D01*
Y-186098D01*
X953296D01*
Y-186385D01*
D02*
G37*
G36*
X1042340Y-200414D02*
Y-200700D01*
Y-200987D01*
Y-201273D01*
Y-201559D01*
Y-201846D01*
Y-202132D01*
Y-202418D01*
Y-202704D01*
Y-202991D01*
Y-203277D01*
Y-203563D01*
Y-203850D01*
Y-204136D01*
Y-204422D01*
Y-204709D01*
Y-204995D01*
Y-205281D01*
Y-205568D01*
Y-205854D01*
Y-206140D01*
X1042053D01*
Y-206427D01*
Y-206713D01*
Y-206999D01*
Y-207285D01*
Y-207572D01*
X1041767D01*
Y-207858D01*
Y-208144D01*
Y-208431D01*
Y-208717D01*
X1041481D01*
Y-209003D01*
Y-209290D01*
Y-209576D01*
Y-209862D01*
X1041194D01*
Y-210149D01*
Y-210435D01*
Y-210721D01*
X1040908D01*
Y-211007D01*
Y-211294D01*
Y-211580D01*
X1040622D01*
Y-211866D01*
Y-212153D01*
Y-212439D01*
X1040335D01*
Y-212725D01*
Y-213012D01*
Y-213298D01*
X1040049D01*
Y-213584D01*
Y-213871D01*
X1039763D01*
Y-214157D01*
Y-214443D01*
X1039476D01*
Y-214730D01*
Y-215016D01*
Y-215302D01*
X1039190D01*
Y-215588D01*
Y-215875D01*
X1038904D01*
Y-216161D01*
Y-216447D01*
Y-216734D01*
X1038617D01*
Y-217020D01*
Y-217306D01*
X1038331D01*
Y-217593D01*
Y-217879D01*
Y-218165D01*
X1038045D01*
Y-218452D01*
Y-218738D01*
X1037758D01*
Y-219024D01*
Y-219311D01*
Y-219597D01*
X1037472D01*
Y-219883D01*
Y-220169D01*
X1037186D01*
Y-220456D01*
Y-220742D01*
Y-221028D01*
X1036899D01*
Y-221315D01*
Y-221601D01*
X1036613D01*
Y-221887D01*
Y-222174D01*
Y-222460D01*
X1036327D01*
Y-222746D01*
Y-223033D01*
X1036041D01*
Y-223319D01*
Y-223605D01*
Y-223892D01*
X1035754D01*
Y-224178D01*
Y-224464D01*
X1035468D01*
Y-224750D01*
Y-225037D01*
Y-225323D01*
X1035182D01*
Y-225609D01*
Y-225896D01*
X1034895D01*
Y-226182D01*
Y-226468D01*
Y-226755D01*
X1034609D01*
Y-227041D01*
Y-227327D01*
X1034323D01*
Y-227614D01*
Y-227900D01*
Y-228186D01*
X1034036D01*
Y-228473D01*
Y-228759D01*
X1033750D01*
Y-229045D01*
Y-229331D01*
Y-229618D01*
X1033464D01*
Y-229904D01*
Y-230190D01*
X1033177D01*
Y-230477D01*
Y-230763D01*
Y-231049D01*
X1032891D01*
Y-231336D01*
Y-231622D01*
X1032605D01*
Y-231908D01*
Y-232195D01*
Y-232481D01*
X1032318D01*
Y-232767D01*
Y-233054D01*
X1032032D01*
Y-233340D01*
Y-233626D01*
Y-233912D01*
X1031746D01*
Y-234199D01*
Y-234485D01*
X1031460D01*
Y-234771D01*
Y-235058D01*
Y-235344D01*
X1031173D01*
Y-235630D01*
Y-235917D01*
X1030887D01*
Y-236203D01*
Y-236489D01*
Y-236776D01*
X1030601D01*
Y-237062D01*
Y-237348D01*
X1030314D01*
Y-237635D01*
Y-237921D01*
X1030028D01*
Y-238207D01*
Y-238493D01*
X1029742D01*
Y-238780D01*
Y-239066D01*
Y-239352D01*
X1029455D01*
Y-239639D01*
X1029169D01*
Y-239925D01*
Y-240211D01*
Y-240498D01*
X1028883D01*
Y-240784D01*
X1028596D01*
Y-241070D01*
Y-241357D01*
X1028310D01*
Y-241643D01*
Y-241929D01*
X1028024D01*
Y-242216D01*
Y-242502D01*
X1027738D01*
Y-242788D01*
Y-243074D01*
X1027451D01*
Y-243361D01*
X1027165D01*
Y-243647D01*
Y-243934D01*
X1026879D01*
Y-244220D01*
Y-244506D01*
X1026592D01*
Y-244792D01*
X1026306D01*
Y-245079D01*
X1026020D01*
Y-245365D01*
Y-245651D01*
X1025733D01*
Y-245938D01*
X1025447D01*
Y-246224D01*
Y-246510D01*
X1025161D01*
Y-246797D01*
X1024874D01*
Y-247083D01*
X1024588D01*
Y-247369D01*
Y-247656D01*
X1024302D01*
Y-247942D01*
X1024015D01*
Y-248228D01*
X1023729D01*
Y-248515D01*
X1023443D01*
Y-248801D01*
X1023157D01*
Y-249087D01*
Y-249373D01*
X1022870D01*
Y-249660D01*
X1022584D01*
Y-249946D01*
X1022298D01*
Y-250232D01*
X1022011D01*
Y-250519D01*
X1021725D01*
Y-250805D01*
X1021439D01*
Y-251091D01*
X1021152D01*
Y-251378D01*
X1020580D01*
Y-251664D01*
X1020293D01*
Y-251950D01*
X1020007D01*
Y-252237D01*
X1019721D01*
Y-252523D01*
X1019434D01*
Y-252809D01*
X1018862D01*
Y-253096D01*
X1018575D01*
Y-253382D01*
X1018003D01*
Y-253668D01*
X1017717D01*
Y-253954D01*
X1017144D01*
Y-254241D01*
X1016858D01*
Y-254527D01*
X1016285D01*
Y-254813D01*
X1015712D01*
Y-255100D01*
X1015140D01*
Y-255386D01*
X1014567D01*
Y-255672D01*
X1013995D01*
Y-255959D01*
X1013136D01*
Y-256245D01*
X1012563D01*
Y-256531D01*
X1011704D01*
Y-256818D01*
X1010559D01*
Y-257104D01*
X1009414D01*
Y-257390D01*
X1007696D01*
Y-257677D01*
X1005691D01*
Y-257963D01*
X1005405D01*
Y-257677D01*
Y-257390D01*
Y-257104D01*
Y-256818D01*
Y-256531D01*
Y-256245D01*
Y-255959D01*
Y-255672D01*
Y-255386D01*
Y-255100D01*
Y-254813D01*
Y-254527D01*
Y-254241D01*
Y-253954D01*
Y-253668D01*
Y-253382D01*
Y-253096D01*
Y-252809D01*
Y-252523D01*
Y-252237D01*
Y-251950D01*
Y-251664D01*
Y-251378D01*
Y-251091D01*
Y-250805D01*
Y-250519D01*
Y-250232D01*
Y-249946D01*
Y-249660D01*
Y-249373D01*
Y-249087D01*
Y-248801D01*
Y-248515D01*
X1005978D01*
Y-248228D01*
X1006550D01*
Y-247942D01*
X1007123D01*
Y-247656D01*
X1007696D01*
Y-247369D01*
X1008268D01*
Y-247083D01*
X1008841D01*
Y-246797D01*
X1009127D01*
Y-246510D01*
X1009700D01*
Y-246224D01*
X1009986D01*
Y-245938D01*
X1010559D01*
Y-245651D01*
X1010845D01*
Y-245365D01*
X1011131D01*
Y-245079D01*
X1011704D01*
Y-244792D01*
X1011990D01*
Y-244506D01*
X1012277D01*
Y-244220D01*
X1012563D01*
Y-243934D01*
X1012849D01*
Y-243647D01*
X1013136D01*
Y-243361D01*
X1013422D01*
Y-243074D01*
X1013708D01*
Y-242788D01*
X1013995D01*
Y-242502D01*
X1014281D01*
Y-242216D01*
X1014567D01*
Y-241929D01*
X1014853D01*
Y-241643D01*
Y-241357D01*
X1015140D01*
Y-241070D01*
X1015426D01*
Y-240784D01*
X1015712D01*
Y-240498D01*
Y-240211D01*
X1015999D01*
Y-239925D01*
X1016285D01*
Y-239639D01*
Y-239352D01*
X1016571D01*
Y-239066D01*
Y-238780D01*
X1016858D01*
Y-238493D01*
X1017144D01*
Y-238207D01*
Y-237921D01*
X1017430D01*
Y-237635D01*
Y-237348D01*
X1017717D01*
Y-237062D01*
Y-236776D01*
X1015999D01*
Y-236489D01*
X1013995D01*
Y-236203D01*
X1012849D01*
Y-235917D01*
X1012277D01*
Y-235630D01*
X1011418D01*
Y-235344D01*
X1010845D01*
Y-235058D01*
X1010559D01*
Y-234771D01*
X1009986D01*
Y-234485D01*
X1009700D01*
Y-234199D01*
X1009414D01*
Y-233912D01*
X1009127D01*
Y-233626D01*
X1008841D01*
Y-233340D01*
X1008554D01*
Y-233054D01*
Y-232767D01*
X1008268D01*
Y-232481D01*
X1007982D01*
Y-232195D01*
Y-231908D01*
X1007696D01*
Y-231622D01*
Y-231336D01*
X1007409D01*
Y-231049D01*
Y-230763D01*
X1007123D01*
Y-230477D01*
Y-230190D01*
Y-229904D01*
X1006837D01*
Y-229618D01*
Y-229331D01*
Y-229045D01*
Y-228759D01*
X1006550D01*
Y-228473D01*
Y-228186D01*
Y-227900D01*
Y-227614D01*
Y-227327D01*
Y-227041D01*
Y-226755D01*
X1006264D01*
Y-226468D01*
Y-226182D01*
Y-225896D01*
Y-225609D01*
Y-225323D01*
Y-225037D01*
Y-224750D01*
Y-224464D01*
Y-224178D01*
Y-223892D01*
Y-223605D01*
Y-223319D01*
Y-223033D01*
Y-222746D01*
Y-222460D01*
X1005978D01*
Y-222174D01*
Y-221887D01*
Y-221601D01*
Y-221315D01*
Y-221028D01*
Y-220742D01*
Y-220456D01*
Y-220169D01*
Y-219883D01*
Y-219597D01*
Y-219311D01*
Y-219024D01*
Y-218738D01*
Y-218452D01*
Y-218165D01*
X1005691D01*
Y-217879D01*
Y-217593D01*
Y-217306D01*
Y-217020D01*
Y-216734D01*
Y-216447D01*
Y-216161D01*
Y-215875D01*
Y-215588D01*
Y-215302D01*
Y-215016D01*
Y-214730D01*
Y-214443D01*
Y-214157D01*
Y-213871D01*
Y-213584D01*
X1005405D01*
Y-213298D01*
Y-213012D01*
Y-212725D01*
Y-212439D01*
Y-212153D01*
Y-211866D01*
Y-211580D01*
Y-211294D01*
Y-211007D01*
Y-210721D01*
Y-210435D01*
Y-210149D01*
Y-209862D01*
Y-209576D01*
Y-209290D01*
Y-209003D01*
X1005119D01*
Y-208717D01*
Y-208431D01*
Y-208144D01*
Y-207858D01*
Y-207572D01*
Y-207285D01*
Y-206999D01*
Y-206713D01*
Y-206427D01*
Y-206140D01*
Y-205854D01*
Y-205568D01*
Y-205281D01*
Y-204995D01*
X1004832D01*
Y-204709D01*
Y-204422D01*
Y-204136D01*
Y-203850D01*
Y-203563D01*
Y-203277D01*
Y-202991D01*
Y-202704D01*
Y-202418D01*
Y-202132D01*
Y-201846D01*
Y-201559D01*
Y-201273D01*
Y-200987D01*
Y-200700D01*
Y-200414D01*
X1004546D01*
Y-200128D01*
X1018289D01*
Y-200414D01*
Y-200700D01*
Y-200987D01*
Y-201273D01*
Y-201559D01*
Y-201846D01*
Y-202132D01*
Y-202418D01*
Y-202704D01*
Y-202991D01*
Y-203277D01*
Y-203563D01*
Y-203850D01*
Y-204136D01*
X1018575D01*
Y-204422D01*
Y-204709D01*
Y-204995D01*
Y-205281D01*
Y-205568D01*
Y-205854D01*
Y-206140D01*
Y-206427D01*
Y-206713D01*
Y-206999D01*
Y-207285D01*
Y-207572D01*
Y-207858D01*
Y-208144D01*
Y-208431D01*
Y-208717D01*
Y-209003D01*
Y-209290D01*
Y-209576D01*
Y-209862D01*
Y-210149D01*
Y-210435D01*
Y-210721D01*
Y-211007D01*
Y-211294D01*
Y-211580D01*
Y-211866D01*
Y-212153D01*
Y-212439D01*
Y-212725D01*
Y-213012D01*
Y-213298D01*
Y-213584D01*
Y-213871D01*
Y-214157D01*
Y-214443D01*
Y-214730D01*
Y-215016D01*
Y-215302D01*
Y-215588D01*
Y-215875D01*
X1018862D01*
Y-216161D01*
X1018575D01*
Y-216447D01*
Y-216734D01*
X1018862D01*
Y-217020D01*
Y-217306D01*
Y-217593D01*
Y-217879D01*
Y-218165D01*
Y-218452D01*
Y-218738D01*
Y-219024D01*
Y-219311D01*
Y-219597D01*
Y-219883D01*
Y-220169D01*
Y-220456D01*
Y-220742D01*
Y-221028D01*
Y-221315D01*
Y-221601D01*
Y-221887D01*
Y-222174D01*
Y-222460D01*
Y-222746D01*
Y-223033D01*
Y-223319D01*
Y-223605D01*
Y-223892D01*
Y-224178D01*
X1019148D01*
Y-224464D01*
Y-224750D01*
Y-225037D01*
X1019434D01*
Y-225323D01*
X1019721D01*
Y-225609D01*
X1020007D01*
Y-225896D01*
X1020866D01*
Y-226182D01*
X1021725D01*
Y-225896D01*
X1022011D01*
Y-225609D01*
Y-225323D01*
Y-225037D01*
X1022298D01*
Y-224750D01*
Y-224464D01*
X1022584D01*
Y-224178D01*
Y-223892D01*
Y-223605D01*
X1022870D01*
Y-223319D01*
Y-223033D01*
Y-222746D01*
X1023157D01*
Y-222460D01*
Y-222174D01*
Y-221887D01*
X1023443D01*
Y-221601D01*
Y-221315D01*
Y-221028D01*
X1023729D01*
Y-220742D01*
Y-220456D01*
X1024015D01*
Y-220169D01*
Y-219883D01*
Y-219597D01*
X1024302D01*
Y-219311D01*
Y-219024D01*
Y-218738D01*
X1024588D01*
Y-218452D01*
Y-218165D01*
Y-217879D01*
X1024874D01*
Y-217593D01*
Y-217306D01*
X1025161D01*
Y-217020D01*
Y-216734D01*
Y-216447D01*
X1025447D01*
Y-216161D01*
Y-215875D01*
Y-215588D01*
X1025733D01*
Y-215302D01*
Y-215016D01*
Y-214730D01*
X1026020D01*
Y-214443D01*
Y-214157D01*
X1026306D01*
Y-213871D01*
Y-213584D01*
Y-213298D01*
X1026592D01*
Y-213012D01*
Y-212725D01*
Y-212439D01*
X1026879D01*
Y-212153D01*
Y-211866D01*
Y-211580D01*
X1027165D01*
Y-211294D01*
Y-211007D01*
X1027451D01*
Y-210721D01*
Y-210435D01*
Y-210149D01*
X1027738D01*
Y-209862D01*
Y-209576D01*
Y-209290D01*
X1028024D01*
Y-209003D01*
Y-208717D01*
Y-208431D01*
X1028310D01*
Y-208144D01*
Y-207858D01*
Y-207572D01*
Y-207285D01*
X1028596D01*
Y-206999D01*
Y-206713D01*
Y-206427D01*
Y-206140D01*
X1028883D01*
Y-205854D01*
Y-205568D01*
Y-205281D01*
Y-204995D01*
Y-204709D01*
X1029169D01*
Y-204422D01*
Y-204136D01*
Y-203850D01*
Y-203563D01*
Y-203277D01*
Y-202991D01*
X1029455D01*
Y-202704D01*
Y-202418D01*
Y-202132D01*
Y-201846D01*
Y-201559D01*
Y-201273D01*
Y-200987D01*
Y-200700D01*
Y-200414D01*
Y-200128D01*
X1042340D01*
Y-200414D01*
D02*
G37*
G36*
X984504Y-182949D02*
Y-183235D01*
X984218D01*
Y-183521D01*
Y-183808D01*
Y-184094D01*
Y-184380D01*
Y-184667D01*
Y-184953D01*
X983932D01*
Y-185239D01*
Y-185526D01*
Y-185812D01*
Y-186098D01*
Y-186385D01*
Y-186671D01*
X983645D01*
Y-186957D01*
Y-187243D01*
Y-187530D01*
Y-187816D01*
Y-188102D01*
Y-188389D01*
Y-188675D01*
X983359D01*
Y-188961D01*
Y-189248D01*
Y-189534D01*
Y-189820D01*
Y-190107D01*
Y-190393D01*
X983073D01*
Y-190679D01*
Y-190966D01*
Y-191252D01*
Y-191538D01*
Y-191824D01*
Y-192111D01*
X982786D01*
Y-192397D01*
Y-192683D01*
Y-192970D01*
Y-193256D01*
Y-193542D01*
Y-193829D01*
Y-194115D01*
X982500D01*
Y-194401D01*
Y-194688D01*
Y-194974D01*
Y-195260D01*
Y-195547D01*
Y-195833D01*
X982214D01*
Y-196119D01*
Y-196405D01*
Y-196692D01*
Y-196978D01*
Y-197265D01*
Y-197551D01*
X981927D01*
Y-197837D01*
Y-198123D01*
Y-198410D01*
Y-198696D01*
Y-198982D01*
Y-199269D01*
X981641D01*
Y-199555D01*
Y-199841D01*
Y-200128D01*
Y-200414D01*
Y-200700D01*
Y-200987D01*
Y-201273D01*
X981355D01*
Y-201559D01*
Y-201846D01*
Y-202132D01*
Y-202418D01*
Y-202704D01*
Y-202991D01*
X981069D01*
Y-203277D01*
Y-203563D01*
X981641D01*
Y-203277D01*
X981927D01*
Y-202991D01*
X982214D01*
Y-202704D01*
X982786D01*
Y-202418D01*
X983073D01*
Y-202132D01*
X983359D01*
Y-201846D01*
X983932D01*
Y-201559D01*
X984504D01*
Y-201273D01*
X984791D01*
Y-200987D01*
X985363D01*
Y-200700D01*
X986222D01*
Y-200414D01*
X986795D01*
Y-200128D01*
X987654D01*
Y-199841D01*
X989085D01*
Y-199555D01*
X995384D01*
Y-199841D01*
X996529D01*
Y-200128D01*
X997388D01*
Y-200414D01*
X997961D01*
Y-200700D01*
X998247D01*
Y-200987D01*
X998820D01*
Y-201273D01*
X999106D01*
Y-201559D01*
X999393D01*
Y-201846D01*
X999679D01*
Y-202132D01*
X999965D01*
Y-202418D01*
Y-202704D01*
X1000251D01*
Y-202991D01*
Y-203277D01*
X1000538D01*
Y-203563D01*
Y-203850D01*
Y-204136D01*
X1000824D01*
Y-204422D01*
Y-204709D01*
Y-204995D01*
Y-205281D01*
X1001110D01*
Y-205568D01*
Y-205854D01*
Y-206140D01*
Y-206427D01*
Y-206713D01*
Y-206999D01*
Y-207285D01*
Y-207572D01*
Y-207858D01*
Y-208144D01*
Y-208431D01*
Y-208717D01*
Y-209003D01*
Y-209290D01*
Y-209576D01*
Y-209862D01*
Y-210149D01*
Y-210435D01*
X1000824D01*
Y-210721D01*
Y-211007D01*
Y-211294D01*
Y-211580D01*
Y-211866D01*
Y-212153D01*
Y-212439D01*
X1000538D01*
Y-212725D01*
Y-213012D01*
Y-213298D01*
Y-213584D01*
Y-213871D01*
Y-214157D01*
Y-214443D01*
X1000251D01*
Y-214730D01*
Y-215016D01*
Y-215302D01*
Y-215588D01*
Y-215875D01*
Y-216161D01*
X999965D01*
Y-216447D01*
Y-216734D01*
Y-217020D01*
Y-217306D01*
Y-217593D01*
Y-217879D01*
X999679D01*
Y-218165D01*
Y-218452D01*
Y-218738D01*
Y-219024D01*
Y-219311D01*
Y-219597D01*
X999393D01*
Y-219883D01*
Y-220169D01*
Y-220456D01*
Y-220742D01*
Y-221028D01*
Y-221315D01*
Y-221601D01*
X999106D01*
Y-221887D01*
Y-222174D01*
Y-222460D01*
Y-222746D01*
Y-223033D01*
Y-223319D01*
X998820D01*
Y-223605D01*
Y-223892D01*
Y-224178D01*
Y-224464D01*
Y-224750D01*
Y-225037D01*
X998534D01*
Y-225323D01*
Y-225609D01*
Y-225896D01*
Y-226182D01*
Y-226468D01*
Y-226755D01*
Y-227041D01*
X998247D01*
Y-227327D01*
Y-227614D01*
Y-227900D01*
Y-228186D01*
Y-228473D01*
Y-228759D01*
X997961D01*
Y-229045D01*
Y-229331D01*
Y-229618D01*
Y-229904D01*
Y-230190D01*
Y-230477D01*
X997675D01*
Y-230763D01*
Y-231049D01*
Y-231336D01*
Y-231622D01*
Y-231908D01*
Y-232195D01*
X997388D01*
Y-232481D01*
Y-232767D01*
Y-233054D01*
Y-233340D01*
Y-233626D01*
Y-233912D01*
Y-234199D01*
X997102D01*
Y-234485D01*
Y-234771D01*
Y-235058D01*
Y-235344D01*
Y-235630D01*
Y-235917D01*
X996816D01*
Y-236203D01*
Y-236489D01*
X983645D01*
Y-236203D01*
Y-235917D01*
X983932D01*
Y-235630D01*
Y-235344D01*
Y-235058D01*
Y-234771D01*
Y-234485D01*
Y-234199D01*
X984218D01*
Y-233912D01*
Y-233626D01*
Y-233340D01*
Y-233054D01*
Y-232767D01*
Y-232481D01*
Y-232195D01*
X984504D01*
Y-231908D01*
Y-231622D01*
Y-231336D01*
Y-231049D01*
Y-230763D01*
Y-230477D01*
X984791D01*
Y-230190D01*
Y-229904D01*
Y-229618D01*
Y-229331D01*
Y-229045D01*
Y-228759D01*
X985077D01*
Y-228473D01*
Y-228186D01*
Y-227900D01*
Y-227614D01*
Y-227327D01*
Y-227041D01*
Y-226755D01*
X985363D01*
Y-226468D01*
Y-226182D01*
Y-225896D01*
Y-225609D01*
Y-225323D01*
Y-225037D01*
X985649D01*
Y-224750D01*
Y-224464D01*
Y-224178D01*
Y-223892D01*
Y-223605D01*
Y-223319D01*
Y-223033D01*
X985936D01*
Y-222746D01*
Y-222460D01*
Y-222174D01*
Y-221887D01*
Y-221601D01*
Y-221315D01*
X986222D01*
Y-221028D01*
Y-220742D01*
Y-220456D01*
Y-220169D01*
Y-219883D01*
Y-219597D01*
X986508D01*
Y-219311D01*
Y-219024D01*
Y-218738D01*
Y-218452D01*
Y-218165D01*
Y-217879D01*
X986795D01*
Y-217593D01*
Y-217306D01*
Y-217020D01*
Y-216734D01*
Y-216447D01*
Y-216161D01*
Y-215875D01*
X987081D01*
Y-215588D01*
Y-215302D01*
Y-215016D01*
Y-214730D01*
Y-214443D01*
Y-214157D01*
X987367D01*
Y-213871D01*
Y-213584D01*
Y-213298D01*
Y-213012D01*
Y-212725D01*
Y-212439D01*
Y-212153D01*
X987654D01*
Y-211866D01*
Y-211580D01*
Y-211294D01*
Y-211007D01*
Y-210721D01*
Y-210435D01*
X987367D01*
Y-210149D01*
Y-209862D01*
X987081D01*
Y-209576D01*
X986795D01*
Y-209290D01*
X986222D01*
Y-209003D01*
X984504D01*
Y-209290D01*
X983073D01*
Y-209576D01*
X982214D01*
Y-209862D01*
X981641D01*
Y-210149D01*
X981355D01*
Y-210435D01*
X980782D01*
Y-210721D01*
X980496D01*
Y-211007D01*
X980210D01*
Y-211294D01*
Y-211580D01*
X979923D01*
Y-211866D01*
Y-212153D01*
Y-212439D01*
X979637D01*
Y-212725D01*
Y-213012D01*
Y-213298D01*
Y-213584D01*
Y-213871D01*
Y-214157D01*
X979351D01*
Y-214443D01*
Y-214730D01*
Y-215016D01*
Y-215302D01*
Y-215588D01*
Y-215875D01*
Y-216161D01*
X979064D01*
Y-216447D01*
Y-216734D01*
Y-217020D01*
Y-217306D01*
Y-217593D01*
Y-217879D01*
X978778D01*
Y-218165D01*
Y-218452D01*
Y-218738D01*
Y-219024D01*
Y-219311D01*
Y-219597D01*
X978492D01*
Y-219883D01*
Y-220169D01*
Y-220456D01*
Y-220742D01*
Y-221028D01*
Y-221315D01*
X978205D01*
Y-221601D01*
Y-221887D01*
Y-222174D01*
Y-222460D01*
Y-222746D01*
Y-223033D01*
Y-223319D01*
X977919D01*
Y-223605D01*
Y-223892D01*
Y-224178D01*
Y-224464D01*
Y-224750D01*
Y-225037D01*
X977633D01*
Y-225323D01*
Y-225609D01*
Y-225896D01*
Y-226182D01*
Y-226468D01*
Y-226755D01*
X977346D01*
Y-227041D01*
Y-227327D01*
Y-227614D01*
Y-227900D01*
Y-228186D01*
Y-228473D01*
Y-228759D01*
X977060D01*
Y-229045D01*
Y-229331D01*
Y-229618D01*
Y-229904D01*
Y-230190D01*
Y-230477D01*
X976774D01*
Y-230763D01*
Y-231049D01*
Y-231336D01*
Y-231622D01*
Y-231908D01*
Y-232195D01*
X976488D01*
Y-232481D01*
Y-232767D01*
Y-233054D01*
Y-233340D01*
Y-233626D01*
Y-233912D01*
X976201D01*
Y-234199D01*
Y-234485D01*
Y-234771D01*
Y-235058D01*
Y-235344D01*
Y-235630D01*
Y-235917D01*
X975915D01*
Y-236203D01*
Y-236489D01*
X962745D01*
Y-236203D01*
Y-235917D01*
X963031D01*
Y-235630D01*
Y-235344D01*
Y-235058D01*
Y-234771D01*
Y-234485D01*
Y-234199D01*
Y-233912D01*
X963317D01*
Y-233626D01*
Y-233340D01*
Y-233054D01*
Y-232767D01*
Y-232481D01*
Y-232195D01*
X963603D01*
Y-231908D01*
Y-231622D01*
Y-231336D01*
Y-231049D01*
Y-230763D01*
Y-230477D01*
X963890D01*
Y-230190D01*
Y-229904D01*
Y-229618D01*
Y-229331D01*
Y-229045D01*
Y-228759D01*
Y-228473D01*
X964176D01*
Y-228186D01*
Y-227900D01*
Y-227614D01*
Y-227327D01*
Y-227041D01*
Y-226755D01*
X964462D01*
Y-226468D01*
Y-226182D01*
Y-225896D01*
Y-225609D01*
Y-225323D01*
Y-225037D01*
X964749D01*
Y-224750D01*
Y-224464D01*
Y-224178D01*
Y-223892D01*
Y-223605D01*
Y-223319D01*
X965035D01*
Y-223033D01*
Y-222746D01*
Y-222460D01*
Y-222174D01*
Y-221887D01*
Y-221601D01*
Y-221315D01*
X965321D01*
Y-221028D01*
Y-220742D01*
Y-220456D01*
Y-220169D01*
Y-219883D01*
Y-219597D01*
X965608D01*
Y-219311D01*
Y-219024D01*
Y-218738D01*
Y-218452D01*
Y-218165D01*
Y-217879D01*
X965894D01*
Y-217593D01*
Y-217306D01*
Y-217020D01*
Y-216734D01*
Y-216447D01*
Y-216161D01*
Y-215875D01*
X966180D01*
Y-215588D01*
Y-215302D01*
Y-215016D01*
Y-214730D01*
Y-214443D01*
Y-214157D01*
X966467D01*
Y-213871D01*
Y-213584D01*
Y-213298D01*
Y-213012D01*
Y-212725D01*
Y-212439D01*
X966753D01*
Y-212153D01*
Y-211866D01*
Y-211580D01*
Y-211294D01*
Y-211007D01*
Y-210721D01*
X967039D01*
Y-210435D01*
Y-210149D01*
Y-209862D01*
Y-209576D01*
Y-209290D01*
Y-209003D01*
Y-208717D01*
X967325D01*
Y-208431D01*
Y-208144D01*
Y-207858D01*
Y-207572D01*
Y-207285D01*
Y-206999D01*
X967612D01*
Y-206713D01*
Y-206427D01*
Y-206140D01*
Y-205854D01*
Y-205568D01*
Y-205281D01*
X967898D01*
Y-204995D01*
Y-204709D01*
Y-204422D01*
Y-204136D01*
Y-203850D01*
Y-203563D01*
X968184D01*
Y-203277D01*
Y-202991D01*
Y-202704D01*
Y-202418D01*
Y-202132D01*
Y-201846D01*
Y-201559D01*
X968471D01*
Y-201273D01*
Y-200987D01*
Y-200700D01*
Y-200414D01*
Y-200128D01*
Y-199841D01*
X968757D01*
Y-199555D01*
Y-199269D01*
Y-198982D01*
Y-198696D01*
Y-198410D01*
Y-198123D01*
X969043D01*
Y-197837D01*
Y-197551D01*
Y-197265D01*
Y-196978D01*
Y-196692D01*
Y-196405D01*
Y-196119D01*
X969330D01*
Y-195833D01*
Y-195547D01*
Y-195260D01*
Y-194974D01*
Y-194688D01*
Y-194401D01*
X969616D01*
Y-194115D01*
Y-193829D01*
Y-193542D01*
Y-193256D01*
Y-192970D01*
Y-192683D01*
X969902D01*
Y-192397D01*
Y-192111D01*
Y-191824D01*
Y-191538D01*
Y-191252D01*
Y-190966D01*
X970189D01*
Y-190679D01*
Y-190393D01*
Y-190107D01*
Y-189820D01*
Y-189534D01*
Y-189248D01*
Y-188961D01*
X970475D01*
Y-188675D01*
Y-188389D01*
Y-188102D01*
Y-187816D01*
Y-187530D01*
Y-187243D01*
X970761D01*
Y-186957D01*
Y-186671D01*
Y-186385D01*
Y-186098D01*
Y-185812D01*
Y-185526D01*
X971048D01*
Y-185239D01*
Y-184953D01*
Y-184667D01*
Y-184380D01*
Y-184094D01*
Y-183808D01*
Y-183521D01*
X971334D01*
Y-183235D01*
Y-182949D01*
Y-182662D01*
X984504D01*
Y-182949D01*
D02*
G37*
%LPC*%
G36*
X53988Y190445D02*
X50567D01*
X50592Y190258D01*
X50666Y189921D01*
X50770Y189592D01*
X50902Y189273D01*
X51062Y188967D01*
X51247Y188675D01*
X51457Y188402D01*
X51691Y188147D01*
X51945Y187914D01*
X52219Y187704D01*
X52510Y187518D01*
X52816Y187359D01*
X53135Y187227D01*
X53464Y187123D01*
X53801Y187048D01*
X53988Y187024D01*
Y190445D01*
D02*
G37*
G36*
X58409D02*
X54988D01*
Y187024D01*
X55175Y187048D01*
X55512Y187123D01*
X55841Y187227D01*
X56160Y187359D01*
X56466Y187518D01*
X56758Y187704D01*
X57031Y187914D01*
X57286Y188147D01*
X57519Y188402D01*
X57729Y188675D01*
X57915Y188967D01*
X58074Y189273D01*
X58206Y189592D01*
X58310Y189921D01*
X58385Y190258D01*
X58409Y190445D01*
D02*
G37*
G36*
X141354Y187614D02*
X137311D01*
Y183571D01*
X141354D01*
Y187614D01*
D02*
G37*
G36*
X136311D02*
X132268D01*
Y183571D01*
X136311D01*
Y187614D01*
D02*
G37*
G36*
X54988Y184866D02*
Y181445D01*
X58409D01*
X58385Y181632D01*
X58310Y181969D01*
X58206Y182298D01*
X58074Y182617D01*
X57915Y182923D01*
X57729Y183214D01*
X57519Y183488D01*
X57286Y183743D01*
X57031Y183976D01*
X56758Y184186D01*
X56467Y184371D01*
X56160Y184531D01*
X55841Y184663D01*
X55512Y184767D01*
X55175Y184841D01*
X54988Y184866D01*
D02*
G37*
G36*
X141354Y182571D02*
X137311D01*
Y178528D01*
X141354D01*
Y182571D01*
D02*
G37*
G36*
X136311D02*
X132268D01*
Y178528D01*
X136311D01*
Y182571D01*
D02*
G37*
G36*
X156102Y188583D02*
X145079D01*
Y177559D01*
X156102D01*
Y188583D01*
D02*
G37*
G36*
X58409Y180445D02*
X54988D01*
Y177024D01*
X55175Y177049D01*
X55512Y177123D01*
X55841Y177227D01*
X56160Y177359D01*
X56467Y177518D01*
X56758Y177704D01*
X57031Y177914D01*
X57286Y178147D01*
X57519Y178402D01*
X57729Y178675D01*
X57915Y178967D01*
X58074Y179273D01*
X58206Y179592D01*
X58310Y179921D01*
X58385Y180258D01*
X58409Y180445D01*
D02*
G37*
G36*
X177165Y191244D02*
X176515Y191229D01*
X175866Y191184D01*
X175220Y191109D01*
X174578Y191004D01*
X173942Y190870D01*
X173313Y190707D01*
X172691Y190514D01*
X172080Y190293D01*
X171479Y190044D01*
X170890Y189768D01*
X170315Y189465D01*
X169754Y189135D01*
X169209Y188780D01*
X168681Y188400D01*
X168171Y187996D01*
X167681Y187569D01*
X167210Y187120D01*
X166761Y186650D01*
X166334Y186159D01*
X165930Y185650D01*
X165551Y185122D01*
X165196Y184577D01*
X164866Y184016D01*
X164563Y183441D01*
X164286Y182852D01*
X164038Y182251D01*
X163817Y181639D01*
X163624Y181018D01*
X163461Y180389D01*
X163327Y179752D01*
X163222Y179110D01*
X163147Y178464D01*
X163102Y177816D01*
X163087Y177165D01*
X163102Y176515D01*
X163147Y175866D01*
X163222Y175220D01*
X163327Y174578D01*
X163461Y173942D01*
X163624Y173313D01*
X163817Y172691D01*
X164038Y172080D01*
X164286Y171479D01*
X164563Y170890D01*
X164866Y170315D01*
X165196Y169754D01*
X165551Y169209D01*
X165930Y168681D01*
X166334Y168171D01*
X166761Y167681D01*
X167210Y167210D01*
X167681Y166761D01*
X168171Y166334D01*
X168681Y165930D01*
X169209Y165551D01*
X169754Y165196D01*
X170315Y164866D01*
X170890Y164563D01*
X171479Y164286D01*
X172080Y164038D01*
X172691Y163817D01*
X173313Y163624D01*
X173942Y163461D01*
X174578Y163327D01*
X175220Y163222D01*
X175866Y163147D01*
X176515Y163102D01*
X177165Y163087D01*
X177816Y163102D01*
X178464Y163147D01*
X179110Y163222D01*
X179752Y163327D01*
X180389Y163461D01*
X181018Y163624D01*
X181639Y163817D01*
X182251Y164038D01*
X182852Y164286D01*
X183441Y164563D01*
X184016Y164866D01*
X184577Y165196D01*
X185122Y165551D01*
X185650Y165930D01*
X186159Y166334D01*
X186650Y166761D01*
X187120Y167210D01*
X187569Y167681D01*
X187996Y168171D01*
X188400Y168681D01*
X188780Y169209D01*
X189135Y169754D01*
X189465Y170315D01*
X189768Y170890D01*
X190044Y171479D01*
X190293Y172080D01*
X190514Y172691D01*
X190707Y173313D01*
X190870Y173942D01*
X191004Y174578D01*
X191109Y175220D01*
X191184Y175866D01*
X191229Y176515D01*
X191244Y177165D01*
X191229Y177816D01*
X191184Y178464D01*
X191109Y179110D01*
X191004Y179752D01*
X190870Y180389D01*
X190707Y181018D01*
X190514Y181639D01*
X190293Y182251D01*
X190044Y182852D01*
X189768Y183441D01*
X189465Y184016D01*
X189135Y184577D01*
X188780Y185122D01*
X188400Y185650D01*
X187996Y186159D01*
X187569Y186650D01*
X187120Y187120D01*
X186650Y187569D01*
X186159Y187996D01*
X185650Y188400D01*
X185122Y188780D01*
X184577Y189135D01*
X184016Y189465D01*
X183441Y189768D01*
X182852Y190044D01*
X182251Y190293D01*
X181639Y190514D01*
X181018Y190707D01*
X180389Y190870D01*
X179752Y191004D01*
X179110Y191109D01*
X178464Y191184D01*
X177816Y191229D01*
X177165Y191244D01*
D02*
G37*
G36*
X114173Y170090D02*
X113783Y170075D01*
X113395Y170029D01*
X113013Y169953D01*
X112637Y169847D01*
X112270Y169712D01*
X111916Y169548D01*
X111575Y169358D01*
X111251Y169141D01*
X110944Y168899D01*
X110657Y168634D01*
X110392Y168347D01*
X110151Y168041D01*
X109934Y167716D01*
X109743Y167376D01*
X109579Y167021D01*
X109444Y166655D01*
X109338Y166279D01*
X109262Y165896D01*
X109216Y165508D01*
X109201Y165118D01*
X109216Y164728D01*
X109262Y164340D01*
X109338Y163957D01*
X109444Y163582D01*
X109579Y163215D01*
X109743Y162861D01*
X109934Y162520D01*
X110151Y162196D01*
X110392Y161889D01*
X110657Y161602D01*
X110944Y161337D01*
X111251Y161095D01*
X111575Y160879D01*
X111916Y160688D01*
X112270Y160524D01*
X112637Y160389D01*
X113013Y160283D01*
X113395Y160207D01*
X113783Y160161D01*
X114173Y160146D01*
X114563Y160161D01*
X114951Y160207D01*
X115334Y160283D01*
X115710Y160389D01*
X116076Y160524D01*
X116431Y160688D01*
X116771Y160879D01*
X117096Y161095D01*
X117403Y161337D01*
X117689Y161602D01*
X117954Y161889D01*
X118196Y162196D01*
X118413Y162520D01*
X118604Y162861D01*
X118767Y163215D01*
X118902Y163582D01*
X119008Y163957D01*
X119084Y164340D01*
X119130Y164728D01*
X119146Y165118D01*
X119130Y165508D01*
X119084Y165896D01*
X119008Y166279D01*
X118902Y166655D01*
X118767Y167021D01*
X118604Y167376D01*
X118413Y167716D01*
X118196Y168041D01*
X117954Y168347D01*
X117689Y168634D01*
X117403Y168899D01*
X117096Y169141D01*
X116771Y169358D01*
X116431Y169548D01*
X116076Y169712D01*
X115710Y169847D01*
X115334Y169953D01*
X114951Y170029D01*
X114563Y170075D01*
X114173Y170090D01*
D02*
G37*
G36*
Y150878D02*
X113783Y150863D01*
X113395Y150817D01*
X113013Y150741D01*
X112637Y150635D01*
X112270Y150499D01*
X111916Y150336D01*
X111575Y150145D01*
X111251Y149928D01*
X110944Y149687D01*
X110657Y149422D01*
X110392Y149135D01*
X110151Y148828D01*
X109934Y148504D01*
X109743Y148163D01*
X109579Y147808D01*
X109444Y147442D01*
X109338Y147066D01*
X109262Y146683D01*
X109216Y146296D01*
X109201Y145905D01*
X109216Y145515D01*
X109262Y145128D01*
X109338Y144745D01*
X109444Y144369D01*
X109579Y144003D01*
X109743Y143648D01*
X109934Y143307D01*
X110151Y142983D01*
X110392Y142676D01*
X110657Y142390D01*
X110944Y142124D01*
X111251Y141883D01*
X111575Y141666D01*
X111916Y141475D01*
X112270Y141312D01*
X112637Y141176D01*
X113013Y141071D01*
X113395Y140994D01*
X113783Y140948D01*
X114173Y140933D01*
X114563Y140948D01*
X114951Y140994D01*
X115334Y141071D01*
X115710Y141176D01*
X116076Y141312D01*
X116431Y141475D01*
X116771Y141666D01*
X117096Y141883D01*
X117403Y142124D01*
X117689Y142390D01*
X117954Y142676D01*
X118196Y142983D01*
X118413Y143307D01*
X118604Y143648D01*
X118767Y144003D01*
X118902Y144369D01*
X119008Y144745D01*
X119084Y145128D01*
X119130Y145515D01*
X119146Y145905D01*
X119130Y146296D01*
X119084Y146683D01*
X119008Y147066D01*
X118902Y147442D01*
X118767Y147808D01*
X118604Y148163D01*
X118413Y148504D01*
X118196Y148828D01*
X117954Y149135D01*
X117689Y149422D01*
X117403Y149687D01*
X117096Y149928D01*
X116771Y150145D01*
X116431Y150336D01*
X116076Y150499D01*
X115710Y150635D01*
X115334Y150741D01*
X114951Y150817D01*
X114563Y150863D01*
X114173Y150878D01*
D02*
G37*
G36*
X68898Y130515D02*
X68606Y130502D01*
X68316Y130464D01*
X68031Y130401D01*
X67752Y130313D01*
X67482Y130201D01*
X67223Y130066D01*
X66976Y129909D01*
X66745Y129731D01*
X66529Y129534D01*
X66527Y129531D01*
X42992D01*
X42727Y129516D01*
X42466Y129472D01*
X42211Y129399D01*
X41966Y129297D01*
X41733Y129169D01*
X41517Y129015D01*
X41319Y128838D01*
X39252Y126772D01*
X39024Y126836D01*
X38644Y126912D01*
X38260Y126957D01*
X37874Y126972D01*
X37488Y126957D01*
X37104Y126912D01*
X36724Y126836D01*
X36352Y126731D01*
X35989Y126597D01*
X35638Y126435D01*
X35301Y126247D01*
X34979Y126032D01*
X34675Y125792D01*
X34391Y125530D01*
X34129Y125246D01*
X33890Y124942D01*
X33675Y124621D01*
X33486Y124283D01*
X33324Y123932D01*
X33190Y123569D01*
X33181Y123537D01*
X32567D01*
X32558Y123569D01*
X32424Y123932D01*
X32262Y124283D01*
X32073Y124621D01*
X31859Y124942D01*
X31619Y125246D01*
X31357Y125530D01*
X31073Y125792D01*
X30769Y126032D01*
X30447Y126247D01*
X30110Y126435D01*
X29759Y126597D01*
X29396Y126731D01*
X29024Y126836D01*
X28644Y126912D01*
X28260Y126957D01*
X27874Y126972D01*
X27488Y126957D01*
X27104Y126912D01*
X26724Y126836D01*
X26352Y126731D01*
X25989Y126597D01*
X25638Y126435D01*
X25301Y126247D01*
X24979Y126032D01*
X24676Y125792D01*
X24392Y125530D01*
X24129Y125246D01*
X23890Y124942D01*
X23675Y124621D01*
X23486Y124283D01*
X23324Y123932D01*
X23190Y123569D01*
X23181Y123537D01*
X22567D01*
X22558Y123569D01*
X22424Y123932D01*
X22262Y124283D01*
X22073Y124621D01*
X21858Y124942D01*
X21619Y125246D01*
X21357Y125530D01*
X21073Y125792D01*
X20769Y126032D01*
X20447Y126247D01*
X20110Y126435D01*
X19759Y126597D01*
X19396Y126731D01*
X19024Y126836D01*
X18644Y126912D01*
X18260Y126957D01*
X17874Y126972D01*
X17488Y126957D01*
X17104Y126912D01*
X16724Y126836D01*
X16352Y126731D01*
X15989Y126597D01*
X15638Y126435D01*
X15301Y126247D01*
X14979Y126032D01*
X14675Y125792D01*
X14391Y125530D01*
X14129Y125246D01*
X13890Y124942D01*
X13675Y124621D01*
X13486Y124283D01*
X13324Y123932D01*
X13190Y123569D01*
X13085Y123197D01*
X13010Y122818D01*
X12964Y122434D01*
X12949Y122047D01*
X12964Y121661D01*
X13010Y121277D01*
X13085Y120897D01*
X13190Y120525D01*
X13324Y120162D01*
X13486Y119811D01*
X13675Y119474D01*
X13890Y119152D01*
X14129Y118849D01*
X14391Y118565D01*
X14675Y118302D01*
X14979Y118063D01*
X15301Y117848D01*
X15638Y117659D01*
X15989Y117497D01*
X16352Y117363D01*
X16724Y117258D01*
X17104Y117183D01*
X17488Y117137D01*
X17874Y117122D01*
X18260Y117137D01*
X18644Y117183D01*
X19024Y117258D01*
X19396Y117363D01*
X19759Y117497D01*
X20110Y117659D01*
X20447Y117848D01*
X20769Y118063D01*
X21073Y118302D01*
X21357Y118565D01*
X21619Y118849D01*
X21858Y119152D01*
X22073Y119474D01*
X22262Y119811D01*
X22424Y120162D01*
X22558Y120525D01*
X22567Y120558D01*
X23181D01*
X23190Y120525D01*
X23324Y120162D01*
X23486Y119811D01*
X23675Y119474D01*
X23890Y119152D01*
X24129Y118849D01*
X24392Y118565D01*
X24676Y118302D01*
X24979Y118063D01*
X25301Y117848D01*
X25638Y117659D01*
X25989Y117497D01*
X26352Y117363D01*
X26724Y117258D01*
X27104Y117183D01*
X27488Y117137D01*
X27874Y117122D01*
X28260Y117137D01*
X28644Y117183D01*
X28692Y117192D01*
X28923Y116636D01*
X28912Y116629D01*
X28605Y116387D01*
X28319Y116122D01*
X28054Y115836D01*
X27812Y115529D01*
X27595Y115204D01*
X27404Y114864D01*
X27241Y114509D01*
X27106Y114143D01*
X27000Y113767D01*
X26923Y113384D01*
X26878Y112996D01*
X26862Y112606D01*
X26878Y112216D01*
X26923Y111828D01*
X27000Y111445D01*
X27106Y111070D01*
X27241Y110704D01*
X27404Y110349D01*
X27595Y110008D01*
X27812Y109684D01*
X28054Y109377D01*
X28319Y109090D01*
X28605Y108825D01*
X28912Y108584D01*
X29237Y108367D01*
X29577Y108176D01*
X29932Y108012D01*
X30298Y107877D01*
X30674Y107771D01*
X31057Y107695D01*
X31444Y107649D01*
X31835Y107634D01*
X32225Y107649D01*
X32612Y107695D01*
X32995Y107771D01*
X33371Y107877D01*
X33737Y108012D01*
X34092Y108176D01*
X34433Y108367D01*
X34757Y108584D01*
X35064Y108825D01*
X35351Y109090D01*
X35616Y109377D01*
X35857Y109684D01*
X36074Y110008D01*
X36265Y110349D01*
X36428Y110704D01*
X36564Y111070D01*
X36670Y111445D01*
X36746Y111828D01*
X36792Y112216D01*
X36807Y112606D01*
X36792Y112996D01*
X36746Y113384D01*
X36670Y113767D01*
X36564Y114143D01*
X36428Y114509D01*
X36265Y114864D01*
X36074Y115204D01*
X35857Y115529D01*
X35616Y115836D01*
X35351Y116122D01*
X35064Y116387D01*
X34757Y116629D01*
X34433Y116846D01*
X34092Y117037D01*
X33737Y117200D01*
X33371Y117335D01*
X32995Y117441D01*
X32612Y117517D01*
X32225Y117563D01*
X31835Y117579D01*
X31444Y117563D01*
X31057Y117517D01*
X30998Y117506D01*
X30768Y118062D01*
X30769Y118063D01*
X31073Y118302D01*
X31357Y118565D01*
X31619Y118849D01*
X31859Y119152D01*
X32073Y119474D01*
X32262Y119811D01*
X32424Y120162D01*
X32558Y120525D01*
X32567Y120558D01*
X33181D01*
X33190Y120525D01*
X33324Y120162D01*
X33486Y119811D01*
X33675Y119474D01*
X33890Y119152D01*
X34129Y118849D01*
X34391Y118565D01*
X34675Y118302D01*
X34979Y118063D01*
X35301Y117848D01*
X35638Y117659D01*
X35989Y117497D01*
X36352Y117363D01*
X36724Y117258D01*
X37104Y117183D01*
X37488Y117137D01*
X37874Y117122D01*
X38260Y117137D01*
X38644Y117183D01*
X39024Y117258D01*
X39396Y117363D01*
X39759Y117497D01*
X40110Y117659D01*
X40447Y117848D01*
X40769Y118063D01*
X41073Y118302D01*
X41357Y118565D01*
X41619Y118849D01*
X41859Y119152D01*
X42073Y119474D01*
X42262Y119811D01*
X42424Y120162D01*
X42558Y120525D01*
X42567Y120558D01*
X43181D01*
X43190Y120525D01*
X43324Y120162D01*
X43486Y119811D01*
X43675Y119474D01*
X43890Y119152D01*
X44129Y118849D01*
X44392Y118565D01*
X44675Y118302D01*
X44979Y118063D01*
X45301Y117848D01*
X45638Y117659D01*
X45989Y117497D01*
X46352Y117363D01*
X46724Y117258D01*
X47104Y117183D01*
X47488Y117137D01*
X47874Y117122D01*
X48260Y117137D01*
X48645Y117183D01*
X49024Y117258D01*
X49396Y117363D01*
X49759Y117497D01*
X50110Y117659D01*
X50447Y117848D01*
X50769Y118063D01*
X51073Y118302D01*
X51357Y118565D01*
X51619Y118849D01*
X51859Y119152D01*
X52073Y119474D01*
X52189Y119681D01*
X52756D01*
X53021Y119696D01*
X53282Y119741D01*
X53537Y119814D01*
X53782Y119916D01*
X54015Y120044D01*
X54231Y120197D01*
X54429Y120374D01*
X56098Y122044D01*
X69676D01*
X69679Y122041D01*
X69894Y121844D01*
X70126Y121666D01*
X70372Y121509D01*
X70632Y121374D01*
X70902Y121262D01*
X71180Y121174D01*
X71466Y121111D01*
X71755Y121073D01*
X72047Y121060D01*
X72339Y121073D01*
X72629Y121111D01*
X72914Y121174D01*
X73193Y121262D01*
X73463Y121374D01*
X73722Y121509D01*
X73968Y121666D01*
X74200Y121844D01*
X74416Y122041D01*
X74613Y122256D01*
X74791Y122488D01*
X74948Y122735D01*
X75083Y122994D01*
X75195Y123264D01*
X75283Y123542D01*
X75346Y123828D01*
X75384Y124118D01*
X75397Y124409D01*
X75384Y124701D01*
X75346Y124991D01*
X75283Y125276D01*
X75195Y125555D01*
X75083Y125825D01*
X74948Y126084D01*
X74791Y126331D01*
X74613Y126563D01*
X74416Y126778D01*
X74200Y126975D01*
X73968Y127153D01*
X73722Y127310D01*
X73463Y127445D01*
X73193Y127557D01*
X72914Y127645D01*
X72629Y127708D01*
X72339Y127746D01*
X72195Y127753D01*
X72133Y128032D01*
X72045Y128311D01*
X71933Y128581D01*
X71798Y128840D01*
X71641Y129087D01*
X71464Y129318D01*
X71266Y129534D01*
X71051Y129731D01*
X70819Y129909D01*
X70573Y130066D01*
X70313Y130201D01*
X70043Y130313D01*
X69765Y130401D01*
X69479Y130464D01*
X69190Y130502D01*
X68898Y130515D01*
D02*
G37*
G36*
X109843Y130137D02*
X108768D01*
Y126484D01*
X112420D01*
Y127559D01*
X112408Y127812D01*
X112371Y128062D01*
X112309Y128307D01*
X112224Y128546D01*
X112116Y128774D01*
X111986Y128991D01*
X111835Y129194D01*
X111665Y129382D01*
X111478Y129552D01*
X111275Y129702D01*
X111058Y129833D01*
X110829Y129941D01*
X110591Y130026D01*
X110345Y130087D01*
X110095Y130125D01*
X109843Y130137D01*
D02*
G37*
G36*
X107768D02*
X106693D01*
X106440Y130125D01*
X106190Y130087D01*
X105945Y130026D01*
X105706Y129941D01*
X105478Y129833D01*
X105261Y129702D01*
X105058Y129552D01*
X104870Y129382D01*
X104700Y129194D01*
X104550Y128991D01*
X104419Y128774D01*
X104311Y128546D01*
X104226Y128307D01*
X104165Y128062D01*
X104127Y127812D01*
X104115Y127559D01*
Y126484D01*
X107768D01*
Y130137D01*
D02*
G37*
G36*
X11827Y126000D02*
X8374D01*
Y122547D01*
X11827D01*
Y126000D01*
D02*
G37*
G36*
X7374D02*
X3921D01*
Y122547D01*
X7374D01*
Y126000D01*
D02*
G37*
G36*
X112420Y125484D02*
X108768D01*
Y121832D01*
X109843D01*
X110095Y121844D01*
X110345Y121881D01*
X110591Y121943D01*
X110829Y122028D01*
X111058Y122136D01*
X111275Y122266D01*
X111478Y122417D01*
X111665Y122587D01*
X111835Y122774D01*
X111986Y122977D01*
X112116Y123194D01*
X112224Y123423D01*
X112309Y123661D01*
X112371Y123907D01*
X112408Y124157D01*
X112420Y124409D01*
Y125484D01*
D02*
G37*
G36*
X107768D02*
X104115D01*
Y124409D01*
X104127Y124157D01*
X104165Y123907D01*
X104226Y123661D01*
X104311Y123423D01*
X104419Y123194D01*
X104550Y122977D01*
X104700Y122774D01*
X104870Y122587D01*
X105058Y122417D01*
X105261Y122266D01*
X105478Y122136D01*
X105706Y122028D01*
X105945Y121943D01*
X106190Y121881D01*
X106440Y121844D01*
X106693Y121832D01*
X107768D01*
Y125484D01*
D02*
G37*
G36*
X93701Y131102D02*
X83465D01*
Y120866D01*
X93701D01*
Y131102D01*
D02*
G37*
G36*
X11827Y121547D02*
X8374D01*
Y118095D01*
X11827D01*
Y121547D01*
D02*
G37*
G36*
X7374D02*
X3921D01*
Y118095D01*
X7374D01*
Y121547D01*
D02*
G37*
G36*
X95669Y117129D02*
X95377Y117116D01*
X95088Y117078D01*
X94802Y117015D01*
X94524Y116927D01*
X94254Y116815D01*
X93994Y116680D01*
X93748Y116523D01*
X93516Y116346D01*
X93301Y116148D01*
X93298Y116146D01*
X49213D01*
X48948Y116131D01*
X48686Y116086D01*
X48431Y116013D01*
X48186Y115911D01*
X47954Y115783D01*
X47738Y115629D01*
X47540Y115453D01*
X45279Y113192D01*
X45276Y113192D01*
X44984Y113179D01*
X44694Y113141D01*
X44409Y113078D01*
X44130Y112990D01*
X43860Y112878D01*
X43601Y112743D01*
X43354Y112586D01*
X43123Y112408D01*
X42907Y112211D01*
X42710Y111996D01*
X42532Y111764D01*
X42375Y111517D01*
X42240Y111258D01*
X42128Y110988D01*
X42040Y110710D01*
X41977Y110424D01*
X41939Y110134D01*
X41926Y109843D01*
X41939Y109551D01*
X41977Y109261D01*
X42040Y108976D01*
X42128Y108697D01*
X42240Y108427D01*
X42375Y108168D01*
X42532Y107921D01*
X42710Y107689D01*
X42907Y107474D01*
X43123Y107276D01*
X43354Y107099D01*
X43601Y106942D01*
X43860Y106807D01*
X44130Y106695D01*
X44409Y106607D01*
X44694Y106544D01*
X44984Y106506D01*
X45276Y106493D01*
X45568Y106506D01*
X45857Y106544D01*
X46143Y106607D01*
X46421Y106695D01*
X46691Y106807D01*
X46950Y106942D01*
X47197Y107099D01*
X47429Y107276D01*
X47644Y107474D01*
X47842Y107689D01*
X48019Y107921D01*
X48177Y108168D01*
X48311Y108427D01*
X48423Y108697D01*
X48511Y108976D01*
X48574Y109261D01*
X48612Y109551D01*
X48625Y109843D01*
X48625Y109846D01*
X50193Y111414D01*
X69380D01*
X69611Y110823D01*
X69549Y110766D01*
X69287Y110482D01*
X69047Y110178D01*
X68832Y109857D01*
X68643Y109519D01*
X68481Y109168D01*
X68348Y108805D01*
X68243Y108433D01*
X68167Y108054D01*
X68122Y107670D01*
X68106Y107283D01*
Y89567D01*
X68122Y89180D01*
X68167Y88797D01*
X68243Y88417D01*
X68348Y88045D01*
X68481Y87682D01*
X68643Y87331D01*
X68832Y86994D01*
X69047Y86672D01*
X69287Y86368D01*
X69549Y86084D01*
X69833Y85822D01*
X70137Y85583D01*
X70458Y85368D01*
X70796Y85179D01*
X71147Y85017D01*
X71510Y84883D01*
X71882Y84778D01*
X72261Y84702D01*
X72645Y84657D01*
X73032Y84642D01*
X78937D01*
X79323Y84657D01*
X79707Y84702D01*
X80087Y84778D01*
X80459Y84883D01*
X80822Y85017D01*
X81173Y85179D01*
X81510Y85368D01*
X81832Y85583D01*
X82136Y85822D01*
X82420Y86084D01*
X82682Y86368D01*
X82921Y86672D01*
X83136Y86994D01*
X83325Y87331D01*
X83487Y87682D01*
X83621Y88045D01*
X83726Y88417D01*
X83801Y88797D01*
X83847Y89180D01*
X83862Y89567D01*
Y107283D01*
X83847Y107670D01*
X83801Y108054D01*
X83726Y108433D01*
X83621Y108805D01*
X83487Y109168D01*
X83325Y109519D01*
X83136Y109857D01*
X82921Y110178D01*
X82682Y110482D01*
X82420Y110766D01*
X82358Y110823D01*
X82589Y111414D01*
X93298D01*
X93301Y111411D01*
X93516Y111214D01*
X93748Y111036D01*
X93994Y110879D01*
X94254Y110744D01*
X94524Y110632D01*
X94802Y110544D01*
X95088Y110481D01*
X95377Y110443D01*
X95669Y110430D01*
X95961Y110443D01*
X96251Y110481D01*
X96536Y110544D01*
X96815Y110632D01*
X97085Y110744D01*
X97344Y110879D01*
X97591Y111036D01*
X97822Y111214D01*
X98038Y111411D01*
X98235Y111626D01*
X98413Y111858D01*
X98570Y112105D01*
X98705Y112364D01*
X98817Y112634D01*
X98905Y112913D01*
X98968Y113198D01*
X99006Y113488D01*
X99019Y113779D01*
X99006Y114072D01*
X98968Y114361D01*
X98905Y114646D01*
X98817Y114925D01*
X98705Y115195D01*
X98570Y115454D01*
X98413Y115701D01*
X98235Y115933D01*
X98038Y116148D01*
X97822Y116346D01*
X97591Y116523D01*
X97344Y116680D01*
X97085Y116815D01*
X96815Y116927D01*
X96536Y117015D01*
X96251Y117078D01*
X95961Y117116D01*
X95669Y117129D01*
D02*
G37*
G36*
X14335Y116575D02*
Y113106D01*
X17803D01*
X17778Y113302D01*
X17702Y113643D01*
X17597Y113976D01*
X17463Y114298D01*
X17302Y114608D01*
X17114Y114903D01*
X16902Y115180D01*
X16666Y115437D01*
X16408Y115673D01*
X16131Y115886D01*
X15837Y116074D01*
X15527Y116235D01*
X15204Y116369D01*
X14871Y116474D01*
X14530Y116549D01*
X14335Y116575D01*
D02*
G37*
G36*
X13335Y116575D02*
X13139Y116549D01*
X12798Y116474D01*
X12465Y116369D01*
X12143Y116235D01*
X11833Y116074D01*
X11538Y115886D01*
X11261Y115673D01*
X11004Y115437D01*
X10768Y115180D01*
X10555Y114903D01*
X10367Y114608D01*
X10206Y114298D01*
X10072Y113976D01*
X9967Y113643D01*
X9892Y113302D01*
X9866Y113106D01*
X13335D01*
Y116575D01*
D02*
G37*
G36*
X17803Y112106D02*
X14335D01*
Y108638D01*
X14530Y108663D01*
X14871Y108739D01*
X15204Y108844D01*
X15527Y108978D01*
X15837Y109139D01*
X16131Y109327D01*
X16408Y109539D01*
X16666Y109775D01*
X16902Y110033D01*
X17114Y110310D01*
X17302Y110604D01*
X17463Y110914D01*
X17597Y111237D01*
X17702Y111570D01*
X17778Y111911D01*
X17803Y112106D01*
D02*
G37*
G36*
X13335D02*
X9866D01*
X9892Y111911D01*
X9967Y111570D01*
X10072Y111237D01*
X10206Y110914D01*
X10367Y110604D01*
X10555Y110310D01*
X10768Y110033D01*
X11004Y109775D01*
X11261Y109539D01*
X11538Y109327D01*
X11833Y109139D01*
X12143Y108978D01*
X12465Y108844D01*
X12798Y108739D01*
X13139Y108663D01*
X13335Y108638D01*
Y112106D01*
D02*
G37*
G36*
X159449Y134255D02*
X159157Y134242D01*
X158867Y134204D01*
X158582Y134141D01*
X158303Y134053D01*
X158033Y133941D01*
X157774Y133806D01*
X157527Y133649D01*
X157296Y133472D01*
X157080Y133274D01*
X156883Y133059D01*
X156705Y132827D01*
X156548Y132580D01*
X156413Y132321D01*
X156301Y132051D01*
X156213Y131772D01*
X156150Y131487D01*
X156112Y131198D01*
X156099Y130905D01*
X156112Y130614D01*
X156150Y130324D01*
X156213Y130039D01*
X156301Y129760D01*
X156413Y129490D01*
X156548Y129231D01*
X156705Y128984D01*
X156883Y128752D01*
X157080Y128537D01*
X157083Y128534D01*
Y107686D01*
X157080Y107684D01*
X156883Y107468D01*
X156705Y107236D01*
X156548Y106990D01*
X156413Y106731D01*
X156301Y106461D01*
X156213Y106182D01*
X156150Y105897D01*
X156112Y105607D01*
X156099Y105315D01*
X156112Y105023D01*
X156150Y104733D01*
X156213Y104448D01*
X156301Y104169D01*
X156413Y103899D01*
X156548Y103640D01*
X156705Y103394D01*
X156883Y103162D01*
X157080Y102946D01*
X157296Y102749D01*
X157527Y102571D01*
X157774Y102414D01*
X158033Y102279D01*
X158303Y102167D01*
X158582Y102079D01*
X158867Y102016D01*
X159157Y101978D01*
X159449Y101965D01*
X159741Y101978D01*
X160030Y102016D01*
X160316Y102079D01*
X160594Y102167D01*
X160864Y102279D01*
X161124Y102414D01*
X161370Y102571D01*
X161602Y102749D01*
X161817Y102946D01*
X162015Y103162D01*
X162193Y103394D01*
X162350Y103640D01*
X162485Y103899D01*
X162596Y104169D01*
X162684Y104448D01*
X162748Y104733D01*
X162786Y105023D01*
X162799Y105315D01*
X162786Y105607D01*
X162748Y105897D01*
X162684Y106182D01*
X162596Y106461D01*
X162485Y106731D01*
X162350Y106990D01*
X162193Y107236D01*
X162015Y107468D01*
X161817Y107684D01*
X161815Y107686D01*
Y128534D01*
X161817Y128537D01*
X162015Y128752D01*
X162193Y128984D01*
X162350Y129231D01*
X162485Y129490D01*
X162596Y129760D01*
X162684Y130039D01*
X162748Y130324D01*
X162786Y130614D01*
X162799Y130905D01*
X162786Y131198D01*
X162748Y131487D01*
X162684Y131772D01*
X162596Y132051D01*
X162485Y132321D01*
X162350Y132580D01*
X162193Y132827D01*
X162015Y133059D01*
X161817Y133274D01*
X161602Y133472D01*
X161370Y133649D01*
X161124Y133806D01*
X160864Y133941D01*
X160594Y134053D01*
X160316Y134141D01*
X160030Y134204D01*
X159741Y134242D01*
X159449Y134255D01*
D02*
G37*
G36*
X123819Y112208D02*
X117913D01*
X117527Y112193D01*
X117143Y112148D01*
X116764Y112072D01*
X116392Y111968D01*
X116029Y111834D01*
X115677Y111672D01*
X115340Y111483D01*
X115018Y111268D01*
X114715Y111029D01*
X114431Y110766D01*
X114168Y110482D01*
X113929Y110178D01*
X113714Y109857D01*
X113525Y109519D01*
X113363Y109168D01*
X113229Y108805D01*
X113124Y108433D01*
X113049Y108054D01*
X113004Y107670D01*
X112988Y107283D01*
Y89567D01*
X113004Y89180D01*
X113049Y88797D01*
X113124Y88417D01*
X113229Y88045D01*
X113363Y87682D01*
X113525Y87331D01*
X113714Y86994D01*
X113929Y86672D01*
X114168Y86368D01*
X114431Y86084D01*
X114715Y85822D01*
X115018Y85583D01*
X115340Y85368D01*
X115677Y85179D01*
X116029Y85017D01*
X116392Y84883D01*
X116764Y84778D01*
X117143Y84702D01*
X117527Y84657D01*
X117913Y84642D01*
X123819D01*
X124205Y84657D01*
X124589Y84702D01*
X124969Y84778D01*
X125341Y84883D01*
X125704Y85017D01*
X126055Y85179D01*
X126392Y85368D01*
X126714Y85583D01*
X127017Y85822D01*
X127301Y86084D01*
X127367Y86155D01*
X127508Y86180D01*
X127981Y86077D01*
X128049Y86029D01*
X128067Y85986D01*
X128201Y85727D01*
X128358Y85480D01*
X128536Y85249D01*
X128734Y85033D01*
X128949Y84836D01*
X129181Y84658D01*
X129428Y84501D01*
X129687Y84366D01*
X129957Y84254D01*
X130235Y84166D01*
X130521Y84103D01*
X130810Y84065D01*
X131102Y84052D01*
X131394Y84065D01*
X131684Y84103D01*
X131969Y84166D01*
X132248Y84254D01*
X132518Y84366D01*
X132777Y84501D01*
X133024Y84658D01*
X133256Y84836D01*
X133471Y85033D01*
X133473Y85036D01*
X146870D01*
X147135Y85050D01*
X147397Y85095D01*
X147652Y85168D01*
X147897Y85270D01*
X148129Y85398D01*
X148345Y85552D01*
X148543Y85729D01*
X151197Y88383D01*
X151201Y88383D01*
X151493Y88395D01*
X151783Y88434D01*
X152068Y88497D01*
X152347Y88585D01*
X152616Y88696D01*
X152876Y88831D01*
X153122Y88989D01*
X153354Y89166D01*
X153569Y89364D01*
X153767Y89579D01*
X153945Y89811D01*
X154102Y90057D01*
X154237Y90317D01*
X154348Y90587D01*
X154436Y90865D01*
X154500Y91151D01*
X154538Y91440D01*
X154551Y91732D01*
X154538Y92024D01*
X154500Y92314D01*
X154436Y92599D01*
X154348Y92878D01*
X154237Y93148D01*
X154102Y93407D01*
X153945Y93654D01*
X153767Y93885D01*
X153569Y94101D01*
X153354Y94298D01*
X153122Y94476D01*
X152876Y94633D01*
X152616Y94768D01*
X152347Y94880D01*
X152068Y94968D01*
X151783Y95031D01*
X151493Y95069D01*
X151201Y95082D01*
X150909Y95069D01*
X150619Y95031D01*
X150334Y94968D01*
X150055Y94880D01*
X149785Y94768D01*
X149526Y94633D01*
X149279Y94476D01*
X149048Y94298D01*
X148832Y94101D01*
X148635Y93885D01*
X148457Y93654D01*
X148300Y93407D01*
X148165Y93148D01*
X148053Y92878D01*
X147965Y92599D01*
X147902Y92314D01*
X147864Y92024D01*
X147851Y91732D01*
X147851Y91729D01*
X145890Y89767D01*
X133473D01*
X133471Y89770D01*
X133256Y89968D01*
X133024Y90145D01*
X132777Y90302D01*
X132518Y90437D01*
X132248Y90549D01*
X131969Y90637D01*
X131684Y90700D01*
X131394Y90738D01*
X131102Y90751D01*
X130810Y90738D01*
X130521Y90700D01*
X130235Y90637D01*
X129957Y90549D01*
X129687Y90437D01*
X129428Y90302D01*
X129334Y90243D01*
X128894Y90414D01*
X128744Y90554D01*
Y107283D01*
X128729Y107670D01*
X128683Y108054D01*
X128608Y108433D01*
X128503Y108805D01*
X128369Y109168D01*
X128207Y109519D01*
X128018Y109857D01*
X127803Y110178D01*
X127564Y110482D01*
X127301Y110766D01*
X127017Y111029D01*
X126714Y111268D01*
X126392Y111483D01*
X126055Y111672D01*
X125704Y111834D01*
X125341Y111968D01*
X124969Y112072D01*
X124589Y112148D01*
X124205Y112193D01*
X123819Y112208D01*
D02*
G37*
G36*
X14335Y90575D02*
Y87106D01*
X17803D01*
X17778Y87301D01*
X17702Y87643D01*
X17597Y87976D01*
X17463Y88298D01*
X17302Y88608D01*
X17114Y88903D01*
X16902Y89180D01*
X16666Y89437D01*
X16408Y89673D01*
X16131Y89886D01*
X15837Y90074D01*
X15527Y90235D01*
X15204Y90369D01*
X14871Y90474D01*
X14530Y90549D01*
X14335Y90575D01*
D02*
G37*
G36*
X13335Y90575D02*
X13139Y90549D01*
X12798Y90474D01*
X12465Y90369D01*
X12143Y90235D01*
X11833Y90074D01*
X11538Y89886D01*
X11261Y89673D01*
X11004Y89437D01*
X10768Y89180D01*
X10555Y88903D01*
X10367Y88608D01*
X10206Y88298D01*
X10072Y87976D01*
X9967Y87643D01*
X9892Y87301D01*
X9866Y87106D01*
X13335D01*
Y90575D01*
D02*
G37*
G36*
X171260Y84255D02*
X170951Y84242D01*
X170644Y84202D01*
X170342Y84135D01*
X170047Y84041D01*
X169761Y83923D01*
X169486Y83780D01*
X169226Y83614D01*
X168980Y83426D01*
X168752Y83217D01*
X168543Y82988D01*
X168538Y82982D01*
X168538Y82982D01*
X168309Y83090D01*
X168071Y83176D01*
X167826Y83237D01*
X167823Y83237D01*
Y81577D01*
X167767Y81325D01*
X167727Y81018D01*
X167713Y80709D01*
X167727Y80400D01*
X167767Y80093D01*
X167823Y79840D01*
Y78180D01*
X167826Y78180D01*
X168071Y78242D01*
X168309Y78327D01*
X168538Y78435D01*
X168538Y78435D01*
X168543Y78429D01*
X168752Y78201D01*
X168980Y77992D01*
X169226Y77803D01*
X169486Y77637D01*
X169761Y77494D01*
X170047Y77376D01*
X170342Y77283D01*
X170644Y77216D01*
X170951Y77175D01*
X171260Y77162D01*
X171569Y77175D01*
X171876Y77216D01*
X172178Y77283D01*
X172473Y77376D01*
X172759Y77494D01*
X173033Y77637D01*
X173294Y77803D01*
X173540Y77992D01*
X173768Y78201D01*
X173977Y78429D01*
X174165Y78674D01*
X174331Y78935D01*
X174474Y79210D01*
X174593Y79496D01*
X174686Y79791D01*
X174753Y80093D01*
X174793Y80400D01*
X174806Y80709D01*
X174793Y81018D01*
X174753Y81324D01*
X174686Y81627D01*
X174593Y81922D01*
X174474Y82208D01*
X174331Y82482D01*
X174165Y82743D01*
X173977Y82988D01*
X173768Y83217D01*
X173540Y83426D01*
X173294Y83614D01*
X173033Y83780D01*
X172759Y83923D01*
X172473Y84041D01*
X172178Y84135D01*
X171876Y84202D01*
X171569Y84242D01*
X171260Y84255D01*
D02*
G37*
G36*
X17803Y86106D02*
X14335D01*
Y82638D01*
X14530Y82663D01*
X14871Y82739D01*
X15204Y82844D01*
X15527Y82978D01*
X15837Y83139D01*
X16131Y83327D01*
X16408Y83539D01*
X16666Y83775D01*
X16902Y84033D01*
X17114Y84310D01*
X17302Y84604D01*
X17463Y84914D01*
X17597Y85237D01*
X17702Y85570D01*
X17778Y85911D01*
X17803Y86106D01*
D02*
G37*
G36*
X13335D02*
X9866D01*
X9892Y85911D01*
X9967Y85570D01*
X10072Y85237D01*
X10206Y84914D01*
X10367Y84604D01*
X10555Y84310D01*
X10768Y84033D01*
X11004Y83775D01*
X11261Y83539D01*
X11538Y83327D01*
X11833Y83139D01*
X12143Y82978D01*
X12465Y82844D01*
X12798Y82739D01*
X13139Y82663D01*
X13335Y82638D01*
Y86106D01*
D02*
G37*
G36*
X31835Y91579D02*
X31444Y91563D01*
X31057Y91517D01*
X30674Y91441D01*
X30298Y91335D01*
X29932Y91200D01*
X29577Y91037D01*
X29237Y90846D01*
X28912Y90629D01*
X28605Y90387D01*
X28319Y90122D01*
X28054Y89836D01*
X27812Y89529D01*
X27595Y89204D01*
X27404Y88864D01*
X27241Y88509D01*
X27106Y88143D01*
X27000Y87767D01*
X26923Y87384D01*
X26878Y86996D01*
X26862Y86606D01*
X26878Y86216D01*
X26923Y85829D01*
X27000Y85445D01*
X27106Y85070D01*
X27241Y84703D01*
X27404Y84349D01*
X27595Y84008D01*
X27812Y83684D01*
X28054Y83377D01*
X28319Y83090D01*
X28605Y82825D01*
X28912Y82584D01*
X29237Y82367D01*
X29577Y82176D01*
X29932Y82012D01*
X30298Y81877D01*
X30674Y81771D01*
X31057Y81695D01*
X31444Y81649D01*
X31835Y81634D01*
X32225Y81649D01*
X32612Y81695D01*
X32995Y81771D01*
X33371Y81877D01*
X33737Y82012D01*
X34092Y82176D01*
X34433Y82367D01*
X34757Y82584D01*
X35064Y82825D01*
X35351Y83090D01*
X35616Y83377D01*
X35857Y83684D01*
X36074Y84008D01*
X36265Y84349D01*
X36428Y84703D01*
X36564Y85070D01*
X36670Y85445D01*
X36746Y85829D01*
X36792Y86216D01*
X36807Y86606D01*
X36792Y86996D01*
X36746Y87384D01*
X36670Y87767D01*
X36564Y88143D01*
X36428Y88509D01*
X36265Y88864D01*
X36074Y89204D01*
X35857Y89529D01*
X35616Y89836D01*
X35351Y90122D01*
X35064Y90387D01*
X34757Y90629D01*
X34433Y90846D01*
X34092Y91037D01*
X33737Y91200D01*
X33371Y91335D01*
X32995Y91441D01*
X32612Y91517D01*
X32225Y91563D01*
X31835Y91579D01*
D02*
G37*
G36*
X166823Y83237D02*
X166820Y83237D01*
X166575Y83176D01*
X166336Y83090D01*
X166108Y82982D01*
X165891Y82852D01*
X165687Y82701D01*
X165500Y82531D01*
X165330Y82344D01*
X165179Y82141D01*
X165049Y81924D01*
X164941Y81695D01*
X164856Y81457D01*
X164795Y81212D01*
X164794Y81209D01*
X166823D01*
Y83237D01*
D02*
G37*
G36*
Y80209D02*
X164794D01*
X164795Y80206D01*
X164856Y79960D01*
X164941Y79722D01*
X165049Y79493D01*
X165179Y79276D01*
X165330Y79073D01*
X165500Y78886D01*
X165687Y78716D01*
X165891Y78565D01*
X166108Y78435D01*
X166336Y78327D01*
X166575Y78242D01*
X166820Y78180D01*
X166823Y78180D01*
Y80209D01*
D02*
G37*
G36*
X109843Y74019D02*
X106693D01*
X106384Y74006D01*
X106077Y73965D01*
X105775Y73898D01*
X105480Y73805D01*
X105194Y73687D01*
X104920Y73544D01*
X104659Y73378D01*
X104413Y73189D01*
X104185Y72980D01*
X103976Y72752D01*
X103788Y72507D01*
X103621Y72246D01*
X103479Y71971D01*
X103360Y71685D01*
X103267Y71390D01*
X103200Y71088D01*
X103160Y70782D01*
X103157Y70720D01*
X102566Y70718D01*
X102566Y70725D01*
X102528Y70975D01*
X102467Y71221D01*
X102382Y71459D01*
X102273Y71688D01*
X102143Y71905D01*
X101993Y72108D01*
X101823Y72295D01*
X101635Y72465D01*
X101432Y72616D01*
X101215Y72746D01*
X100987Y72854D01*
X100748Y72939D01*
X100503Y73001D01*
X100253Y73038D01*
X100000Y73050D01*
X98925D01*
Y68898D01*
Y64745D01*
X100000D01*
X100253Y64757D01*
X100503Y64794D01*
X100748Y64856D01*
X100987Y64941D01*
X101215Y65049D01*
X101432Y65179D01*
X101635Y65330D01*
X101823Y65500D01*
X101993Y65687D01*
X102143Y65891D01*
X102273Y66108D01*
X102382Y66336D01*
X102467Y66575D01*
X102528Y66820D01*
X102566Y67070D01*
X102566Y67077D01*
X103157Y67076D01*
X103160Y67014D01*
X103200Y66707D01*
X103267Y66405D01*
X103360Y66110D01*
X103479Y65824D01*
X103621Y65549D01*
X103788Y65289D01*
X103976Y65043D01*
X104185Y64815D01*
X104413Y64606D01*
X104659Y64418D01*
X104920Y64251D01*
X105194Y64109D01*
X105480Y63990D01*
X105775Y63897D01*
X106077Y63830D01*
X106384Y63790D01*
X106693Y63776D01*
X109843D01*
X110152Y63790D01*
X110458Y63830D01*
X110760Y63897D01*
X111056Y63990D01*
X111341Y64109D01*
X111616Y64251D01*
X111877Y64418D01*
X112122Y64606D01*
X112350Y64815D01*
X112559Y65043D01*
X112748Y65289D01*
X112914Y65549D01*
X113057Y65824D01*
X113175Y66110D01*
X113268Y66405D01*
X113335Y66707D01*
X113376Y67014D01*
X113389Y67323D01*
Y70472D01*
X113376Y70782D01*
X113335Y71088D01*
X113268Y71390D01*
X113175Y71685D01*
X113057Y71971D01*
X112914Y72246D01*
X112748Y72507D01*
X112559Y72752D01*
X112350Y72980D01*
X112122Y73189D01*
X111877Y73378D01*
X111616Y73544D01*
X111341Y73687D01*
X111056Y73805D01*
X110760Y73898D01*
X110458Y73965D01*
X110152Y74006D01*
X109843Y74019D01*
D02*
G37*
G36*
X90158D02*
X87008D01*
X86699Y74006D01*
X86392Y73965D01*
X86090Y73898D01*
X85795Y73805D01*
X85509Y73687D01*
X85234Y73544D01*
X84974Y73378D01*
X84728Y73189D01*
X84500Y72980D01*
X84291Y72752D01*
X84103Y72507D01*
X83936Y72246D01*
X83793Y71971D01*
X83675Y71685D01*
X83582Y71390D01*
X83515Y71088D01*
X83475Y70782D01*
X83461Y70472D01*
Y67323D01*
X83475Y67014D01*
X83515Y66707D01*
X83582Y66405D01*
X83675Y66110D01*
X83793Y65824D01*
X83936Y65549D01*
X84103Y65289D01*
X84291Y65043D01*
X84500Y64815D01*
X84728Y64606D01*
X84974Y64418D01*
X85234Y64251D01*
X85509Y64109D01*
X85795Y63990D01*
X86090Y63897D01*
X86392Y63830D01*
X86699Y63790D01*
X87008Y63776D01*
X90158D01*
X90467Y63790D01*
X90773Y63830D01*
X91075Y63897D01*
X91370Y63990D01*
X91656Y64109D01*
X91931Y64251D01*
X92192Y64418D01*
X92437Y64606D01*
X92665Y64815D01*
X92874Y65043D01*
X93063Y65289D01*
X93229Y65549D01*
X93372Y65824D01*
X93490Y66110D01*
X93583Y66405D01*
X93650Y66707D01*
X93691Y67014D01*
X93693Y67076D01*
X94285Y67077D01*
X94285Y67070D01*
X94322Y66820D01*
X94384Y66575D01*
X94469Y66336D01*
X94577Y66108D01*
X94707Y65891D01*
X94858Y65687D01*
X95028Y65500D01*
X95215Y65330D01*
X95418Y65179D01*
X95635Y65049D01*
X95864Y64941D01*
X96102Y64856D01*
X96347Y64794D01*
X96598Y64757D01*
X96850Y64745D01*
X97925D01*
Y68898D01*
Y73050D01*
X96850D01*
X96598Y73038D01*
X96347Y73001D01*
X96102Y72939D01*
X95864Y72854D01*
X95635Y72746D01*
X95418Y72616D01*
X95215Y72465D01*
X95028Y72295D01*
X94858Y72108D01*
X94707Y71905D01*
X94577Y71688D01*
X94469Y71459D01*
X94384Y71221D01*
X94322Y70975D01*
X94285Y70725D01*
X94285Y70718D01*
X93693Y70720D01*
X93691Y70782D01*
X93650Y71088D01*
X93583Y71390D01*
X93490Y71685D01*
X93372Y71971D01*
X93229Y72246D01*
X93063Y72507D01*
X92874Y72752D01*
X92665Y72980D01*
X92437Y73189D01*
X92192Y73378D01*
X91931Y73544D01*
X91656Y73687D01*
X91370Y73805D01*
X91075Y73898D01*
X90773Y73965D01*
X90467Y74006D01*
X90158Y74019D01*
D02*
G37*
G36*
X99410Y52184D02*
X98925D01*
Y49713D01*
X101397D01*
Y50197D01*
X101384Y50419D01*
X101347Y50639D01*
X101285Y50853D01*
X101200Y51059D01*
X101092Y51254D01*
X100963Y51436D01*
X100815Y51602D01*
X100649Y51751D01*
X100467Y51880D01*
X100272Y51987D01*
X100066Y52073D01*
X99852Y52134D01*
X99632Y52172D01*
X99410Y52184D01*
D02*
G37*
G36*
X97925D02*
X97441D01*
X97218Y52172D01*
X96999Y52134D01*
X96785Y52073D01*
X96579Y51987D01*
X96384Y51880D01*
X96202Y51751D01*
X96036Y51602D01*
X95887Y51436D01*
X95758Y51254D01*
X95650Y51059D01*
X95565Y50853D01*
X95503Y50639D01*
X95466Y50419D01*
X95454Y50197D01*
Y49713D01*
X97925D01*
Y52184D01*
D02*
G37*
G36*
X101397Y48713D02*
X98925D01*
Y46241D01*
X99410D01*
X99632Y46253D01*
X99852Y46291D01*
X100066Y46352D01*
X100272Y46438D01*
X100467Y46546D01*
X100649Y46674D01*
X100815Y46823D01*
X100963Y46989D01*
X101092Y47171D01*
X101200Y47366D01*
X101285Y47572D01*
X101347Y47786D01*
X101384Y48006D01*
X101397Y48228D01*
Y48713D01*
D02*
G37*
G36*
X97925D02*
X95454D01*
Y48228D01*
X95466Y48006D01*
X95503Y47786D01*
X95565Y47572D01*
X95650Y47366D01*
X95758Y47171D01*
X95887Y46989D01*
X96036Y46823D01*
X96202Y46674D01*
X96384Y46546D01*
X96579Y46438D01*
X96785Y46352D01*
X96999Y46291D01*
X97218Y46253D01*
X97441Y46241D01*
X97925D01*
Y48713D01*
D02*
G37*
G36*
X152165Y19291D02*
X141142D01*
Y8268D01*
X152165D01*
Y19291D01*
D02*
G37*
G36*
X138386D02*
X127362D01*
Y8268D01*
X138386D01*
Y19291D01*
D02*
G37*
G36*
X69488D02*
X58465D01*
Y8268D01*
X69488D01*
Y19291D01*
D02*
G37*
G36*
X55709D02*
X44685D01*
Y8268D01*
X55709D01*
Y19291D01*
D02*
G37*
G36*
X177165Y33764D02*
X176515Y33749D01*
X175866Y33704D01*
X175220Y33629D01*
X174578Y33524D01*
X173942Y33390D01*
X173313Y33226D01*
X172691Y33034D01*
X172080Y32813D01*
X171479Y32564D01*
X170890Y32288D01*
X170315Y31984D01*
X169754Y31655D01*
X169209Y31300D01*
X168681Y30920D01*
X168171Y30516D01*
X167681Y30089D01*
X167210Y29640D01*
X166761Y29170D01*
X166334Y28679D01*
X165930Y28169D01*
X165551Y27641D01*
X165196Y27096D01*
X164866Y26536D01*
X164563Y25960D01*
X164286Y25372D01*
X164038Y24771D01*
X163817Y24159D01*
X163624Y23538D01*
X163461Y22908D01*
X163327Y22272D01*
X163222Y21630D01*
X163147Y20984D01*
X163102Y20335D01*
X163087Y19685D01*
X163102Y19035D01*
X163147Y18386D01*
X163222Y17740D01*
X163327Y17098D01*
X163461Y16462D01*
X163624Y15832D01*
X163817Y15211D01*
X164038Y14599D01*
X164286Y13998D01*
X164563Y13410D01*
X164866Y12834D01*
X165196Y12274D01*
X165551Y11729D01*
X165930Y11201D01*
X166334Y10691D01*
X166761Y10200D01*
X167210Y9730D01*
X167681Y9281D01*
X168171Y8854D01*
X168681Y8450D01*
X169209Y8070D01*
X169754Y7715D01*
X170315Y7386D01*
X170890Y7082D01*
X171479Y6806D01*
X172080Y6557D01*
X172691Y6336D01*
X173313Y6144D01*
X173942Y5980D01*
X174578Y5846D01*
X175220Y5742D01*
X175866Y5667D01*
X176515Y5621D01*
X177165Y5607D01*
X177816Y5621D01*
X178464Y5667D01*
X179110Y5742D01*
X179752Y5846D01*
X180389Y5980D01*
X181018Y6144D01*
X181639Y6336D01*
X182251Y6557D01*
X182852Y6806D01*
X183441Y7082D01*
X184016Y7386D01*
X184577Y7715D01*
X185122Y8070D01*
X185650Y8450D01*
X186159Y8854D01*
X186650Y9281D01*
X187120Y9730D01*
X187569Y10200D01*
X187996Y10691D01*
X188400Y11201D01*
X188780Y11729D01*
X189135Y12274D01*
X189465Y12834D01*
X189768Y13410D01*
X190044Y13998D01*
X190293Y14599D01*
X190514Y15211D01*
X190707Y15832D01*
X190870Y16462D01*
X191004Y17098D01*
X191109Y17740D01*
X191184Y18386D01*
X191229Y19035D01*
X191244Y19685D01*
X191229Y20335D01*
X191184Y20984D01*
X191109Y21630D01*
X191004Y22272D01*
X190870Y22908D01*
X190707Y23538D01*
X190514Y24159D01*
X190293Y24771D01*
X190044Y25372D01*
X189768Y25960D01*
X189465Y26536D01*
X189135Y27096D01*
X188780Y27641D01*
X188400Y28169D01*
X187996Y28679D01*
X187569Y29170D01*
X187120Y29640D01*
X186650Y30089D01*
X186159Y30516D01*
X185650Y30920D01*
X185122Y31300D01*
X184577Y31655D01*
X184016Y31984D01*
X183441Y32288D01*
X182852Y32564D01*
X182251Y32813D01*
X181639Y33034D01*
X181018Y33226D01*
X180389Y33390D01*
X179752Y33524D01*
X179110Y33629D01*
X178464Y33704D01*
X177816Y33749D01*
X177165Y33764D01*
D02*
G37*
G36*
X19685D02*
X19035Y33749D01*
X18386Y33704D01*
X17740Y33629D01*
X17098Y33524D01*
X16462Y33390D01*
X15832Y33226D01*
X15211Y33034D01*
X14599Y32813D01*
X13998Y32564D01*
X13410Y32288D01*
X12834Y31984D01*
X12274Y31655D01*
X11729Y31300D01*
X11201Y30920D01*
X10691Y30516D01*
X10200Y30089D01*
X9730Y29640D01*
X9281Y29170D01*
X8854Y28679D01*
X8450Y28169D01*
X8070Y27641D01*
X7715Y27096D01*
X7386Y26536D01*
X7082Y25960D01*
X6806Y25372D01*
X6557Y24771D01*
X6336Y24159D01*
X6144Y23538D01*
X5980Y22908D01*
X5846Y22272D01*
X5742Y21630D01*
X5667Y20984D01*
X5621Y20335D01*
X5607Y19685D01*
X5621Y19035D01*
X5667Y18386D01*
X5742Y17740D01*
X5846Y17098D01*
X5980Y16462D01*
X6144Y15832D01*
X6336Y15211D01*
X6557Y14599D01*
X6806Y13998D01*
X7082Y13410D01*
X7386Y12834D01*
X7715Y12274D01*
X8070Y11729D01*
X8450Y11201D01*
X8854Y10691D01*
X9281Y10200D01*
X9730Y9730D01*
X10200Y9281D01*
X10691Y8854D01*
X11201Y8450D01*
X11729Y8070D01*
X12274Y7715D01*
X12834Y7386D01*
X13410Y7082D01*
X13998Y6806D01*
X14599Y6557D01*
X15211Y6336D01*
X15832Y6144D01*
X16462Y5980D01*
X17098Y5846D01*
X17740Y5742D01*
X18386Y5667D01*
X19035Y5621D01*
X19685Y5607D01*
X20335Y5621D01*
X20984Y5667D01*
X21630Y5742D01*
X22272Y5846D01*
X22908Y5980D01*
X23538Y6144D01*
X24159Y6336D01*
X24771Y6557D01*
X25372Y6806D01*
X25960Y7082D01*
X26536Y7386D01*
X27096Y7715D01*
X27641Y8070D01*
X28169Y8450D01*
X28679Y8854D01*
X29170Y9281D01*
X29640Y9730D01*
X30089Y10200D01*
X30516Y10691D01*
X30920Y11201D01*
X31300Y11729D01*
X31655Y12274D01*
X31984Y12834D01*
X32288Y13410D01*
X32564Y13998D01*
X32813Y14599D01*
X33034Y15211D01*
X33226Y15832D01*
X33390Y16462D01*
X33524Y17098D01*
X33629Y17740D01*
X33704Y18386D01*
X33749Y19035D01*
X33764Y19685D01*
X33749Y20335D01*
X33704Y20984D01*
X33629Y21630D01*
X33524Y22272D01*
X33390Y22908D01*
X33226Y23538D01*
X33034Y24159D01*
X32813Y24771D01*
X32564Y25372D01*
X32288Y25960D01*
X31984Y26536D01*
X31655Y27096D01*
X31300Y27641D01*
X30920Y28169D01*
X30516Y28679D01*
X30089Y29170D01*
X29640Y29640D01*
X29170Y30089D01*
X28679Y30516D01*
X28169Y30920D01*
X27641Y31300D01*
X27096Y31655D01*
X26536Y31984D01*
X25960Y32288D01*
X25372Y32564D01*
X24771Y32813D01*
X24159Y33034D01*
X23538Y33226D01*
X22908Y33390D01*
X22272Y33524D01*
X21630Y33629D01*
X20984Y33704D01*
X20335Y33749D01*
X19685Y33764D01*
D02*
G37*
G36*
Y191244D02*
X19035Y191229D01*
X18386Y191184D01*
X17740Y191109D01*
X17098Y191004D01*
X16462Y190870D01*
X15832Y190707D01*
X15211Y190514D01*
X14599Y190293D01*
X13998Y190044D01*
X13410Y189768D01*
X12834Y189465D01*
X12274Y189135D01*
X11729Y188780D01*
X11201Y188400D01*
X10691Y187996D01*
X10200Y187569D01*
X9730Y187120D01*
X9281Y186650D01*
X8854Y186159D01*
X8450Y185650D01*
X8070Y185122D01*
X7715Y184577D01*
X7386Y184016D01*
X7082Y183441D01*
X6806Y182852D01*
X6557Y182251D01*
X6336Y181639D01*
X6144Y181018D01*
X5980Y180389D01*
X5846Y179752D01*
X5742Y179110D01*
X5667Y178464D01*
X5621Y177816D01*
X5607Y177165D01*
X5621Y176515D01*
X5667Y175866D01*
X5742Y175220D01*
X5846Y174578D01*
X5980Y173942D01*
X6144Y173313D01*
X6336Y172691D01*
X6557Y172080D01*
X6806Y171479D01*
X7082Y170890D01*
X7386Y170315D01*
X7715Y169754D01*
X8070Y169209D01*
X8450Y168681D01*
X8854Y168171D01*
X9281Y167681D01*
X9730Y167210D01*
X10200Y166761D01*
X10691Y166334D01*
X11201Y165930D01*
X11729Y165551D01*
X12274Y165196D01*
X12834Y164866D01*
X13410Y164563D01*
X13998Y164286D01*
X14599Y164038D01*
X15211Y163817D01*
X15832Y163624D01*
X16462Y163461D01*
X17098Y163327D01*
X17740Y163222D01*
X18386Y163147D01*
X19035Y163102D01*
X19685Y163087D01*
X20335Y163102D01*
X20984Y163147D01*
X21630Y163222D01*
X22272Y163327D01*
X22908Y163461D01*
X23538Y163624D01*
X24159Y163817D01*
X24771Y164038D01*
X25372Y164286D01*
X25960Y164563D01*
X26536Y164866D01*
X27096Y165196D01*
X27641Y165551D01*
X28169Y165930D01*
X28679Y166334D01*
X29170Y166761D01*
X29640Y167210D01*
X30089Y167681D01*
X30516Y168171D01*
X30920Y168681D01*
X31300Y169209D01*
X31655Y169754D01*
X31984Y170315D01*
X32288Y170890D01*
X32564Y171479D01*
X32813Y172080D01*
X33034Y172691D01*
X33226Y173313D01*
X33390Y173942D01*
X33524Y174578D01*
X33629Y175220D01*
X33704Y175866D01*
X33749Y176515D01*
X33764Y177165D01*
X33749Y177816D01*
X33704Y178464D01*
X33629Y179110D01*
X33524Y179752D01*
X33390Y180389D01*
X33226Y181018D01*
X33034Y181639D01*
X32813Y182251D01*
X32564Y182852D01*
X32288Y183441D01*
X31984Y184016D01*
X31655Y184577D01*
X31300Y185122D01*
X30920Y185650D01*
X30516Y186159D01*
X30089Y186650D01*
X29640Y187120D01*
X29170Y187569D01*
X28679Y187996D01*
X28169Y188400D01*
X27641Y188780D01*
X27096Y189135D01*
X26536Y189465D01*
X25960Y189768D01*
X25372Y190044D01*
X24771Y190293D01*
X24159Y190514D01*
X23538Y190707D01*
X22908Y190870D01*
X22272Y191004D01*
X21630Y191109D01*
X20984Y191184D01*
X20335Y191229D01*
X19685Y191244D01*
D02*
G37*
G36*
X8217Y159748D02*
Y156327D01*
X11638D01*
X11613Y156514D01*
X11538Y156851D01*
X11434Y157180D01*
X11302Y157499D01*
X11143Y157805D01*
X10958Y158096D01*
X10747Y158370D01*
X10514Y158624D01*
X10260Y158858D01*
X9986Y159068D01*
X9695Y159253D01*
X9389Y159413D01*
X9070Y159545D01*
X8741Y159649D01*
X8404Y159723D01*
X8217Y159748D01*
D02*
G37*
G36*
X7216D02*
X7029Y159723D01*
X6692Y159649D01*
X6363Y159545D01*
X6044Y159413D01*
X5738Y159253D01*
X5447Y159068D01*
X5173Y158858D01*
X4919Y158624D01*
X4686Y158370D01*
X4476Y158096D01*
X4290Y157805D01*
X4131Y157499D01*
X3999Y157180D01*
X3895Y156851D01*
X3820Y156514D01*
X3796Y156327D01*
X7216D01*
Y159748D01*
D02*
G37*
G36*
X11638Y155327D02*
X8217D01*
Y151906D01*
X8404Y151930D01*
X8741Y152005D01*
X9070Y152109D01*
X9389Y152241D01*
X9695Y152400D01*
X9986Y152586D01*
X10260Y152796D01*
X10514Y153029D01*
X10747Y153284D01*
X10958Y153557D01*
X11143Y153849D01*
X11302Y154155D01*
X11434Y154474D01*
X11538Y154803D01*
X11613Y155140D01*
X11638Y155327D01*
D02*
G37*
G36*
X7216D02*
X3796D01*
X3820Y155140D01*
X3895Y154803D01*
X3999Y154474D01*
X4131Y154155D01*
X4290Y153849D01*
X4476Y153557D01*
X4686Y153284D01*
X4919Y153029D01*
X5173Y152796D01*
X5447Y152586D01*
X5738Y152400D01*
X6044Y152241D01*
X6363Y152109D01*
X6692Y152005D01*
X7029Y151930D01*
X7216Y151906D01*
Y155327D01*
D02*
G37*
G36*
X949002Y-197265D02*
X940985D01*
Y-197551D01*
Y-197837D01*
Y-198123D01*
Y-198410D01*
Y-198696D01*
X940698D01*
Y-198982D01*
Y-199269D01*
Y-199555D01*
Y-199841D01*
Y-200128D01*
Y-200414D01*
X940412D01*
Y-200700D01*
Y-200987D01*
Y-201273D01*
Y-201559D01*
Y-201846D01*
Y-202132D01*
X940126D01*
Y-202418D01*
Y-202704D01*
Y-202991D01*
Y-203277D01*
Y-203563D01*
Y-203850D01*
X939839D01*
Y-204136D01*
Y-204422D01*
Y-204709D01*
Y-204995D01*
Y-205281D01*
Y-205568D01*
Y-205854D01*
X939553D01*
Y-206140D01*
Y-206427D01*
Y-206713D01*
Y-206999D01*
Y-207285D01*
Y-207572D01*
X939267D01*
Y-207858D01*
Y-208144D01*
Y-208431D01*
X946425D01*
Y-208144D01*
X947570D01*
Y-207858D01*
X948143D01*
Y-207572D01*
X948429D01*
Y-207285D01*
X948715D01*
Y-206999D01*
X949002D01*
Y-206713D01*
X949288D01*
Y-206427D01*
Y-206140D01*
X949574D01*
Y-205854D01*
Y-205568D01*
X949860D01*
Y-205281D01*
Y-204995D01*
X950147D01*
Y-204709D01*
Y-204422D01*
Y-204136D01*
Y-203850D01*
X950433D01*
Y-203563D01*
Y-203277D01*
Y-202991D01*
Y-202704D01*
Y-202418D01*
X950719D01*
Y-202132D01*
Y-201846D01*
Y-201559D01*
Y-201273D01*
Y-200987D01*
Y-200700D01*
Y-200414D01*
Y-200128D01*
Y-199841D01*
Y-199555D01*
Y-199269D01*
X950433D01*
Y-198982D01*
Y-198696D01*
X950147D01*
Y-198410D01*
Y-198123D01*
X949860D01*
Y-197837D01*
X949574D01*
Y-197551D01*
X949002D01*
Y-197265D01*
D02*
G37*
%LPD*%
D11*
X127953Y158465D02*
Y160433D01*
Y162402D01*
D12*
X1124016Y-213158D02*
Y-226933D01*
X1130903D01*
X1133199Y-224637D01*
Y-222341D01*
X1130903Y-220046D01*
X1124016D01*
X1130903D01*
X1133199Y-217750D01*
Y-215454D01*
X1130903Y-213158D01*
X1124016D01*
X1140087Y-226933D02*
X1144678D01*
X1146974Y-224637D01*
Y-220046D01*
X1144678Y-217750D01*
X1140087D01*
X1137791Y-220046D01*
Y-224637D01*
X1140087Y-226933D01*
X1153862Y-215454D02*
Y-217750D01*
X1151566D01*
X1156158D01*
X1153862D01*
Y-224637D01*
X1156158Y-226933D01*
X1165341Y-215454D02*
Y-217750D01*
X1163045D01*
X1167637D01*
X1165341D01*
Y-224637D01*
X1167637Y-226933D01*
X1176820D02*
X1181412D01*
X1183708Y-224637D01*
Y-220046D01*
X1181412Y-217750D01*
X1176820D01*
X1174524Y-220046D01*
Y-224637D01*
X1176820Y-226933D01*
X1188299D02*
Y-217750D01*
X1190595D01*
X1192891Y-220046D01*
Y-226933D01*
Y-220046D01*
X1195187Y-217750D01*
X1197483Y-220046D01*
Y-226933D01*
X1215850Y-213158D02*
Y-226933D01*
X1225033D01*
X1231921Y-217750D02*
X1236512D01*
X1238808Y-220046D01*
Y-226933D01*
X1231921D01*
X1229625Y-224637D01*
X1231921Y-222341D01*
X1238808D01*
X1243400Y-217750D02*
Y-224637D01*
X1245696Y-226933D01*
X1252583D01*
Y-229229D01*
X1250287Y-231525D01*
X1247991D01*
X1252583Y-226933D02*
Y-217750D01*
X1264062Y-226933D02*
X1259471D01*
X1257175Y-224637D01*
Y-220046D01*
X1259471Y-217750D01*
X1264062D01*
X1266358Y-220046D01*
Y-222341D01*
X1257175D01*
X1270950Y-217750D02*
Y-226933D01*
Y-222341D01*
X1273246Y-220046D01*
X1275542Y-217750D01*
X1277837D01*
X927165Y-291899D02*
Y-307642D01*
X932413Y-302394D01*
X937661Y-307642D01*
Y-291899D01*
X942908Y-307642D02*
X948156D01*
X945532D01*
Y-297147D01*
X942908D01*
X956027Y-307642D02*
Y-297147D01*
X958651D01*
X961275Y-299770D01*
Y-307642D01*
Y-299770D01*
X963899Y-297147D01*
X966523Y-299770D01*
Y-307642D01*
X971770Y-291899D02*
Y-302394D01*
X977018Y-307642D01*
X982266Y-302394D01*
Y-291899D01*
X998009Y-294523D02*
X995385Y-291899D01*
X990137D01*
X987513Y-294523D01*
Y-305018D01*
X990137Y-307642D01*
X995385D01*
X998009Y-305018D01*
Y-299770D01*
X992761D01*
X1281496Y-255153D02*
X1284120Y-252529D01*
X1289367D01*
X1291991Y-255153D01*
Y-265648D01*
X1289367Y-268272D01*
X1284120D01*
X1281496Y-265648D01*
Y-255153D01*
X1297239D02*
X1299863Y-252529D01*
X1305110D01*
X1307734Y-255153D01*
Y-265648D01*
X1305110Y-268272D01*
X1299863D01*
X1297239Y-265648D01*
Y-255153D01*
X1127294Y-254497D02*
X1118110D01*
Y-261384D01*
X1122702Y-259088D01*
X1124998D01*
X1127294Y-261384D01*
Y-265976D01*
X1124998Y-268272D01*
X1120406D01*
X1118110Y-265976D01*
X1131885Y-268272D02*
X1141069Y-259088D01*
X1145660Y-256792D02*
X1147956Y-254497D01*
X1152548D01*
X1154844Y-256792D01*
Y-265976D01*
X1152548Y-268272D01*
X1147956D01*
X1145660Y-265976D01*
Y-256792D01*
X1159435Y-268272D02*
X1164027D01*
X1161731D01*
Y-254497D01*
X1159435Y-256792D01*
X1170915Y-268272D02*
X1180098Y-259088D01*
X1193873Y-268272D02*
X1184690D01*
X1193873Y-259088D01*
Y-256792D01*
X1191577Y-254497D01*
X1186986D01*
X1184690Y-256792D01*
X1198465D02*
X1200761Y-254497D01*
X1205352D01*
X1207648Y-256792D01*
Y-265976D01*
X1205352Y-268272D01*
X1200761D01*
X1198465Y-265976D01*
Y-256792D01*
X1212240Y-268272D02*
X1216832D01*
X1214536D01*
Y-254497D01*
X1212240Y-256792D01*
X1223719Y-254497D02*
X1232903D01*
Y-256792D01*
X1223719Y-265976D01*
Y-268272D01*
X1112205Y-189532D02*
Y-179036D01*
X1117452Y-173789D01*
X1122700Y-179036D01*
Y-189532D01*
Y-181660D01*
X1112205D01*
X1127948Y-173789D02*
Y-186908D01*
X1130571Y-189532D01*
X1135819D01*
X1138443Y-186908D01*
Y-173789D01*
X1143691D02*
Y-189532D01*
X1151562D01*
X1154186Y-186908D01*
Y-176412D01*
X1151562Y-173789D01*
X1143691D01*
X1159433D02*
X1164681D01*
X1162057D01*
Y-189532D01*
X1159433D01*
X1164681D01*
X1180424Y-173789D02*
X1175177D01*
X1172553Y-176412D01*
Y-186908D01*
X1175177Y-189532D01*
X1180424D01*
X1183048Y-186908D01*
Y-176412D01*
X1180424Y-173789D01*
X1188296Y-192155D02*
X1198791D01*
X1214534Y-173789D02*
X1204039D01*
Y-181660D01*
X1209286D01*
X1204039D01*
Y-189532D01*
X1219781D02*
Y-173789D01*
X1225029Y-179036D01*
X1230277Y-173789D01*
Y-189532D01*
X1235524Y-192155D02*
X1246020D01*
X1251267Y-173789D02*
Y-189532D01*
X1261763D01*
X1277506Y-176412D02*
X1274882Y-173789D01*
X1269634D01*
X1267010Y-176412D01*
Y-186908D01*
X1269634Y-189532D01*
X1274882D01*
X1277506Y-186908D01*
D27*
X65354Y142717D02*
Y150984D01*
X49488Y166850D02*
X65354Y150984D01*
X49488Y166850D02*
Y185945D01*
X44488Y190945D02*
X49488Y185945D01*
X44488Y167717D02*
Y180945D01*
Y167717D02*
X62205Y150000D01*
Y144488D02*
Y150000D01*
X42992Y127165D02*
X68898D01*
X37874Y122047D02*
X42992Y127165D01*
X55118Y124409D02*
X72047D01*
X52756Y122047D02*
X55118Y124409D01*
X47874Y122047D02*
X52756D01*
X45276Y109843D02*
X49213Y113779D01*
X95669D01*
X159449Y105315D02*
Y130905D01*
X131102Y87402D02*
X146870D01*
X151201Y91732D01*
X24528Y155827D02*
X29134Y160433D01*
X45276D01*
X58071Y147638D01*
X17717Y155827D02*
X24528D01*
X40551Y144882D02*
X55315D01*
X58071Y147638D01*
X1259842Y-274177D02*
Y-234807D01*
X1102362Y-195437D02*
X1377953D01*
X1102362Y-234807D02*
X1377953D01*
X905512Y-274177D02*
X1377953D01*
X905512Y-156067D02*
X1377953D01*
X905512Y-313547D02*
Y-156067D01*
X1102362Y-313547D02*
Y-156067D01*
X-275590Y855744D02*
X1377953D01*
Y-313547D02*
Y855744D01*
X-275590Y-313547D02*
Y855744D01*
Y-313547D02*
X1377953D01*
X1112205Y-305673D02*
Y-301738D01*
X1114173Y-299770D01*
X1116140Y-301738D01*
Y-305673D01*
Y-302722D01*
X1112205D01*
X1118108Y-299770D02*
Y-304689D01*
X1119092Y-305673D01*
X1121060D01*
X1122044Y-304689D01*
Y-299770D01*
X1124012D02*
Y-305673D01*
X1126964D01*
X1127948Y-304689D01*
Y-300754D01*
X1126964Y-299770D01*
X1124012D01*
X1129916D02*
X1131883D01*
X1130900D01*
Y-305673D01*
X1129916D01*
X1131883D01*
X1137787Y-299770D02*
X1135819D01*
X1134835Y-300754D01*
Y-304689D01*
X1135819Y-305673D01*
X1137787D01*
X1138771Y-304689D01*
Y-300754D01*
X1137787Y-299770D01*
X1140739Y-306657D02*
X1144674D01*
X1150578Y-299770D02*
X1146642D01*
Y-302722D01*
X1148610D01*
X1146642D01*
Y-305673D01*
X1152546D02*
Y-299770D01*
X1154514Y-301738D01*
X1156482Y-299770D01*
Y-305673D01*
X1158450Y-306657D02*
X1162385D01*
X1164353Y-299770D02*
Y-305673D01*
X1168289D01*
X1174193Y-300754D02*
X1173209Y-299770D01*
X1171241D01*
X1170257Y-300754D01*
Y-304689D01*
X1171241Y-305673D01*
X1173209D01*
X1174193Y-304689D01*
X1176160Y-306657D02*
X1180096D01*
X1182064Y-300754D02*
X1183048Y-299770D01*
X1185016D01*
X1186000Y-300754D01*
Y-304689D01*
X1185016Y-305673D01*
X1183048D01*
X1182064Y-304689D01*
Y-300754D01*
X1187968D02*
X1188951Y-299770D01*
X1190919D01*
X1191903Y-300754D01*
Y-304689D01*
X1190919Y-305673D01*
X1188951D01*
X1187968Y-304689D01*
Y-300754D01*
X1193871Y-305673D02*
Y-304689D01*
X1194855D01*
Y-305673D01*
X1193871D01*
X1198791D02*
Y-299770D01*
X1201743D01*
X1202727Y-300754D01*
Y-302722D01*
X1201743Y-303705D01*
X1198791D01*
X1208630Y-301738D02*
X1205678D01*
X1204694Y-302722D01*
Y-304689D01*
X1205678Y-305673D01*
X1208630D01*
X1210598Y-299770D02*
Y-305673D01*
X1213550D01*
X1214534Y-304689D01*
Y-303705D01*
Y-302722D01*
X1213550Y-301738D01*
X1210598D01*
X1216502Y-299770D02*
Y-305673D01*
X1219454D01*
X1220437Y-304689D01*
Y-300754D01*
X1219454Y-299770D01*
X1216502D01*
X1223389Y-305673D02*
X1225357D01*
X1226341Y-304689D01*
Y-302722D01*
X1225357Y-301738D01*
X1223389D01*
X1222405Y-302722D01*
Y-304689D01*
X1223389Y-305673D01*
X1232245Y-301738D02*
X1229293D01*
X1228309Y-302722D01*
Y-304689D01*
X1229293Y-305673D01*
X1232245D01*
D28*
X12598Y131102D02*
Y154724D01*
X7874Y126378D02*
X12598Y131102D01*
X7874Y122047D02*
Y126378D01*
X11496Y155827D02*
X12598Y154724D01*
X7717Y155827D02*
X11496D01*
X33465Y157087D02*
X37795D01*
X31496Y155118D02*
X33465Y157087D01*
X31496Y131890D02*
Y155118D01*
D33*
X0Y19685D02*
G03*
X19685Y0I19685J0D01*
G01*
Y196850D02*
G03*
X0Y177165I0J-19685D01*
G01*
X196850D02*
G03*
X177165Y196850I-19685J0D01*
G01*
Y0D02*
G03*
X196850Y19685I0J19685D01*
G01*
X19685Y0D02*
X177165D01*
X196850Y19685D02*
Y177165D01*
X19685Y196850D02*
X177165D01*
X0Y19685D02*
Y177165D01*
D34*
X1263780Y-246618D02*
Y-238747D01*
X1267715D01*
X1269027Y-240059D01*
Y-242682D01*
X1267715Y-243994D01*
X1263780D01*
X1266403D02*
X1269027Y-246618D01*
X1275587D02*
X1272963D01*
X1271651Y-245306D01*
Y-242682D01*
X1272963Y-241371D01*
X1275587D01*
X1276899Y-242682D01*
Y-243994D01*
X1271651D01*
X1279523Y-241371D02*
X1282146Y-246618D01*
X1284770Y-241371D01*
X909449Y-278117D02*
Y-285988D01*
X913385D01*
X914697Y-284676D01*
Y-279429D01*
X913385Y-278117D01*
X909449D01*
X921256Y-285988D02*
X918632D01*
X917320Y-284676D01*
Y-282052D01*
X918632Y-280741D01*
X921256D01*
X922568Y-282052D01*
Y-283364D01*
X917320D01*
X925192Y-285988D02*
X929128D01*
X930439Y-284676D01*
X929128Y-283364D01*
X926504D01*
X925192Y-282052D01*
X926504Y-280741D01*
X930439D01*
X935687Y-288612D02*
X936999D01*
X938311Y-287300D01*
Y-280741D01*
X934375D01*
X933063Y-282052D01*
Y-284676D01*
X934375Y-285988D01*
X938311D01*
X940935D02*
X943559D01*
X942247D01*
Y-280741D01*
X940935D01*
X947494Y-285988D02*
Y-280741D01*
X951430D01*
X952742Y-282052D01*
Y-285988D01*
X959301D02*
X956678D01*
X955366Y-284676D01*
Y-282052D01*
X956678Y-280741D01*
X959301D01*
X960613Y-282052D01*
Y-283364D01*
X955366D01*
X963237Y-280741D02*
Y-285988D01*
Y-283364D01*
X964549Y-282052D01*
X965861Y-280741D01*
X967173D01*
X1106299Y-160006D02*
Y-167878D01*
X1110235D01*
X1111547Y-166566D01*
Y-161319D01*
X1110235Y-160006D01*
X1106299D01*
X1115483Y-167878D02*
X1118106D01*
X1119418Y-166566D01*
Y-163942D01*
X1118106Y-162630D01*
X1115483D01*
X1114171Y-163942D01*
Y-166566D01*
X1115483Y-167878D01*
X1127290Y-162630D02*
X1123354D01*
X1122042Y-163942D01*
Y-166566D01*
X1123354Y-167878D01*
X1127290D01*
X1129914Y-162630D02*
Y-166566D01*
X1131226Y-167878D01*
X1135161D01*
Y-162630D01*
X1137785Y-167878D02*
Y-162630D01*
X1139097D01*
X1140409Y-163942D01*
Y-167878D01*
Y-163942D01*
X1141721Y-162630D01*
X1143033Y-163942D01*
Y-167878D01*
X1149592D02*
X1146968D01*
X1145657Y-166566D01*
Y-163942D01*
X1146968Y-162630D01*
X1149592D01*
X1150904Y-163942D01*
Y-165254D01*
X1145657D01*
X1153528Y-167878D02*
Y-162630D01*
X1157464D01*
X1158776Y-163942D01*
Y-167878D01*
X1162712Y-161319D02*
Y-162630D01*
X1161400D01*
X1164023D01*
X1162712D01*
Y-166566D01*
X1164023Y-167878D01*
X1106299Y-199377D02*
Y-207248D01*
X1111547D01*
X1115483Y-202000D02*
X1118106D01*
X1119418Y-203312D01*
Y-207248D01*
X1115483D01*
X1114171Y-205936D01*
X1115483Y-204624D01*
X1119418D01*
X1122042Y-202000D02*
Y-205936D01*
X1123354Y-207248D01*
X1127290D01*
Y-208560D01*
X1125978Y-209872D01*
X1124666D01*
X1127290Y-207248D02*
Y-202000D01*
X1133849Y-207248D02*
X1131226D01*
X1129914Y-205936D01*
Y-203312D01*
X1131226Y-202000D01*
X1133849D01*
X1135161Y-203312D01*
Y-204624D01*
X1129914D01*
X1137785Y-202000D02*
Y-207248D01*
Y-204624D01*
X1139097Y-203312D01*
X1140409Y-202000D01*
X1141721D01*
X1153528Y-207248D02*
Y-199377D01*
X1158776Y-207248D01*
Y-199377D01*
X1162712Y-202000D02*
X1165335D01*
X1166647Y-203312D01*
Y-207248D01*
X1162712D01*
X1161400Y-205936D01*
X1162712Y-204624D01*
X1166647D01*
X1169271Y-207248D02*
Y-202000D01*
X1170583D01*
X1171895Y-203312D01*
Y-207248D01*
Y-203312D01*
X1173207Y-202000D01*
X1174519Y-203312D01*
Y-207248D01*
X1181078D02*
X1178454D01*
X1177143Y-205936D01*
Y-203312D01*
X1178454Y-202000D01*
X1181078D01*
X1182390Y-203312D01*
Y-204624D01*
X1177143D01*
X1106299Y-238747D02*
Y-246618D01*
X1110235D01*
X1111547Y-245306D01*
Y-240059D01*
X1110235Y-238747D01*
X1106299D01*
X1115483Y-241371D02*
X1118106D01*
X1119418Y-242682D01*
Y-246618D01*
X1115483D01*
X1114171Y-245306D01*
X1115483Y-243994D01*
X1119418D01*
X1123354Y-240059D02*
Y-241371D01*
X1122042D01*
X1124666D01*
X1123354D01*
Y-245306D01*
X1124666Y-246618D01*
X1132537D02*
X1129914D01*
X1128602Y-245306D01*
Y-242682D01*
X1129914Y-241371D01*
X1132537D01*
X1133849Y-242682D01*
Y-243994D01*
X1128602D01*
X1106299Y-278117D02*
Y-285988D01*
X1110235D01*
X1111547Y-284676D01*
Y-279429D01*
X1110235Y-278117D01*
X1106299D01*
X1115483Y-285988D02*
X1118106D01*
X1119418Y-284676D01*
Y-282052D01*
X1118106Y-280741D01*
X1115483D01*
X1114171Y-282052D01*
Y-284676D01*
X1115483Y-285988D01*
X1127290Y-280741D02*
X1123354D01*
X1122042Y-282052D01*
Y-284676D01*
X1123354Y-285988D01*
X1127290D01*
X1129914Y-280741D02*
Y-284676D01*
X1131226Y-285988D01*
X1135161D01*
Y-280741D01*
X1137785Y-285988D02*
Y-280741D01*
X1139097D01*
X1140409Y-282052D01*
Y-285988D01*
Y-282052D01*
X1141721Y-280741D01*
X1143033Y-282052D01*
Y-285988D01*
X1149592D02*
X1146968D01*
X1145657Y-284676D01*
Y-282052D01*
X1146968Y-280741D01*
X1149592D01*
X1150904Y-282052D01*
Y-283364D01*
X1145657D01*
X1153528Y-285988D02*
Y-280741D01*
X1157464D01*
X1158776Y-282052D01*
Y-285988D01*
X1162712Y-279429D02*
Y-280741D01*
X1161400D01*
X1164023D01*
X1162712D01*
Y-284676D01*
X1164023Y-285988D01*
D35*
X44488Y180945D02*
D03*
X191929Y108268D02*
D03*
X7717Y155827D02*
D03*
X17717Y155827D02*
D03*
X7717Y145827D02*
D03*
X17717D02*
D03*
X7717Y135827D02*
D03*
X64488Y190945D02*
D03*
Y180945D02*
D03*
X54488Y190945D02*
D03*
X54488Y180945D02*
D03*
X74488D02*
D03*
X74488Y190945D02*
D03*
X84488Y180945D02*
D03*
Y190945D02*
D03*
X94488Y180945D02*
D03*
X47874Y122047D02*
D03*
X37874D02*
D03*
X27874D02*
D03*
X17874D02*
D03*
D36*
X44488Y190945D02*
D03*
X17717Y135827D02*
D03*
D37*
X19685Y19685D02*
D03*
Y177165D02*
D03*
X177165D02*
D03*
Y19685D02*
D03*
D38*
X167323Y80709D02*
D03*
X171260D02*
D03*
D39*
X114173Y165118D02*
D03*
Y145905D02*
D03*
X31835Y112606D02*
D03*
X13835D02*
D03*
Y86606D02*
D03*
X31835D02*
D03*
D40*
X136811Y183071D02*
D03*
X150591D02*
D03*
X63976Y13780D02*
D03*
X50197D02*
D03*
X146654D02*
D03*
X132874D02*
D03*
D41*
X88583Y125984D02*
D03*
D42*
X108268D02*
D03*
X98425Y68898D02*
D03*
X108268D02*
D03*
X88583D02*
D03*
D43*
X120866Y98425D02*
D03*
X75984D02*
D03*
D44*
X98425Y49213D02*
D03*
D45*
Y41339D02*
D03*
D46*
X94488Y190945D02*
D03*
X7874Y122047D02*
D03*
D47*
X62205Y144488D02*
D03*
X65354Y142717D02*
D03*
X100394Y175197D02*
D03*
X68898Y127165D02*
D03*
X72047Y124409D02*
D03*
X58071Y147638D02*
D03*
X37795Y151181D02*
D03*
Y157087D02*
D03*
X96457Y138583D02*
D03*
Y151575D02*
D03*
X104331Y59055D02*
D03*
X92520D02*
D03*
Y53150D02*
D03*
X104331D02*
D03*
X92520Y37402D02*
D03*
X104331D02*
D03*
Y31496D02*
D03*
X92520D02*
D03*
X55118Y44291D02*
D03*
X59055D02*
D03*
X51181D02*
D03*
X47244D02*
D03*
X137795D02*
D03*
X141732D02*
D03*
X149606D02*
D03*
X145669D02*
D03*
X53150Y32480D02*
D03*
X143701D02*
D03*
X56102Y108268D02*
D03*
X151201Y91732D02*
D03*
X45276Y109843D02*
D03*
X95669Y113779D02*
D03*
X150787Y109055D02*
D03*
X159449Y105315D02*
D03*
Y130905D02*
D03*
X188583Y88583D02*
D03*
X40551Y144882D02*
D03*
X127953Y154528D02*
D03*
Y150591D02*
D03*
Y158465D02*
D03*
Y162402D02*
D03*
X187992Y44291D02*
D03*
X191929D02*
D03*
X184055D02*
D03*
X180118D02*
D03*
X131102Y87402D02*
D03*
X31496Y131890D02*
D03*
D48*
X159449Y160433D02*
X182087Y137795D01*
X127953Y160433D02*
X159449D01*
X141732Y55118D02*
X182087D01*
X139764Y53150D02*
X141732Y55118D01*
X65354Y38386D02*
X69291Y34449D01*
X50197Y38386D02*
X65354D01*
X49213Y39370D02*
X50197Y38386D01*
X182087Y44291D02*
Y55118D01*
Y137795D01*
X139764Y44291D02*
Y53150D01*
X129921Y34449D02*
X139764Y44291D01*
X69291Y34449D02*
X129921D01*
X49213Y39370D02*
Y44291D01*
M02*
