G04 Layer_Color=2752767*
%FSLAX25Y25*%
%MOIN*%
G70*
G01*
G75*
%ADD12C,0.01575*%
%ADD27C,0.00787*%
%ADD33C,0.00591*%
%ADD34C,0.00984*%
%ADD49C,0.01000*%
%ADD81C,0.00600*%
%ADD82C,0.00200*%
%ADD83C,0.00267*%
%ADD84C,0.00133*%
%ADD85C,0.01260*%
%ADD86C,0.01102*%
G36*
X1086432Y-200414D02*
X1086145D01*
Y-200700D01*
X1085859D01*
Y-200987D01*
Y-201273D01*
X1085573D01*
Y-201559D01*
X1085286D01*
Y-201846D01*
X1085000D01*
Y-202132D01*
Y-202418D01*
X1084714D01*
Y-202704D01*
X1084427D01*
Y-202991D01*
X1084141D01*
Y-203277D01*
X1083855D01*
Y-203563D01*
Y-203850D01*
X1083568D01*
Y-204136D01*
X1083282D01*
Y-204422D01*
X1082996D01*
Y-204709D01*
Y-204995D01*
X1082710D01*
Y-205281D01*
X1082423D01*
Y-205568D01*
X1082137D01*
Y-205854D01*
X1081851D01*
Y-206140D01*
Y-206427D01*
X1081564D01*
Y-206713D01*
X1081278D01*
Y-206999D01*
X1080992D01*
Y-207285D01*
Y-207572D01*
X1080705D01*
Y-207858D01*
X1080419D01*
Y-208144D01*
X1080133D01*
Y-208431D01*
Y-208717D01*
X1079846D01*
Y-209003D01*
X1079560D01*
Y-209290D01*
X1079274D01*
Y-209576D01*
X1078988D01*
Y-209862D01*
Y-210149D01*
X1078701D01*
Y-210435D01*
X1078415D01*
Y-210721D01*
X1078129D01*
Y-211007D01*
Y-211294D01*
X1077842D01*
Y-211580D01*
X1077556D01*
Y-211866D01*
X1077270D01*
Y-212153D01*
Y-212439D01*
X1076983D01*
Y-212725D01*
X1076697D01*
Y-213012D01*
X1076411D01*
Y-213298D01*
X1076124D01*
Y-213584D01*
Y-213871D01*
X1075838D01*
Y-214157D01*
X1075552D01*
Y-214443D01*
X1075265D01*
Y-214730D01*
Y-215016D01*
X1074979D01*
Y-215302D01*
X1074693D01*
Y-215588D01*
X1074407D01*
Y-215875D01*
Y-216161D01*
X1074120D01*
Y-216447D01*
X1073834D01*
Y-216734D01*
X1073548D01*
Y-217020D01*
X1073261D01*
Y-217306D01*
Y-217593D01*
X1072975D01*
Y-217879D01*
X1072689D01*
Y-218165D01*
X1072402D01*
Y-218452D01*
Y-218738D01*
X1072116D01*
Y-219024D01*
X1071830D01*
Y-219311D01*
X1071543D01*
Y-219597D01*
X1071257D01*
Y-219883D01*
Y-220169D01*
X1071543D01*
Y-220456D01*
Y-220742D01*
X1071830D01*
Y-221028D01*
Y-221315D01*
X1072116D01*
Y-221601D01*
X1072402D01*
Y-221887D01*
Y-222174D01*
X1072689D01*
Y-222460D01*
Y-222746D01*
X1072975D01*
Y-223033D01*
Y-223319D01*
X1073261D01*
Y-223605D01*
Y-223892D01*
X1073548D01*
Y-224178D01*
Y-224464D01*
X1073834D01*
Y-224750D01*
Y-225037D01*
X1074120D01*
Y-225323D01*
Y-225609D01*
X1074407D01*
Y-225896D01*
Y-226182D01*
X1074693D01*
Y-226468D01*
X1074979D01*
Y-226755D01*
Y-227041D01*
X1075265D01*
Y-227327D01*
Y-227614D01*
X1075552D01*
Y-227900D01*
Y-228186D01*
X1075838D01*
Y-228473D01*
Y-228759D01*
X1076124D01*
Y-229045D01*
Y-229331D01*
X1076411D01*
Y-229618D01*
Y-229904D01*
X1076697D01*
Y-230190D01*
Y-230477D01*
X1076983D01*
Y-230763D01*
X1077270D01*
Y-231049D01*
Y-231336D01*
X1077556D01*
Y-231622D01*
Y-231908D01*
X1077842D01*
Y-232195D01*
Y-232481D01*
X1078129D01*
Y-232767D01*
Y-233054D01*
X1078415D01*
Y-233340D01*
Y-233626D01*
X1078701D01*
Y-233912D01*
Y-234199D01*
X1078988D01*
Y-234485D01*
Y-234771D01*
X1079274D01*
Y-235058D01*
X1079560D01*
Y-235344D01*
Y-235630D01*
X1079846D01*
Y-235917D01*
Y-236203D01*
X1080133D01*
Y-236489D01*
X1064958D01*
Y-236203D01*
X1064672D01*
Y-235917D01*
Y-235630D01*
Y-235344D01*
X1064386D01*
Y-235058D01*
Y-234771D01*
Y-234485D01*
X1064099D01*
Y-234199D01*
Y-233912D01*
X1063813D01*
Y-233626D01*
Y-233340D01*
Y-233054D01*
X1063527D01*
Y-232767D01*
Y-232481D01*
Y-232195D01*
X1063240D01*
Y-231908D01*
Y-231622D01*
X1062954D01*
Y-231336D01*
Y-231049D01*
Y-230763D01*
X1062668D01*
Y-230477D01*
Y-230190D01*
Y-229904D01*
X1062381D01*
Y-229618D01*
Y-229331D01*
Y-229045D01*
X1062095D01*
Y-228759D01*
X1061522D01*
Y-229045D01*
Y-229331D01*
X1061236D01*
Y-229618D01*
X1060950D01*
Y-229904D01*
Y-230190D01*
X1060664D01*
Y-230477D01*
X1060377D01*
Y-230763D01*
Y-231049D01*
X1060091D01*
Y-231336D01*
X1059805D01*
Y-231622D01*
Y-231908D01*
X1059518D01*
Y-232195D01*
X1059232D01*
Y-232481D01*
X1058946D01*
Y-232767D01*
Y-233054D01*
X1058659D01*
Y-233340D01*
X1058373D01*
Y-233626D01*
Y-233912D01*
X1058087D01*
Y-234199D01*
X1057800D01*
Y-234485D01*
Y-234771D01*
X1057514D01*
Y-235058D01*
X1057228D01*
Y-235344D01*
Y-235630D01*
X1056941D01*
Y-235917D01*
X1056655D01*
Y-236203D01*
Y-236489D01*
X1040622D01*
Y-236203D01*
X1040908D01*
Y-235917D01*
X1041194D01*
Y-235630D01*
X1041481D01*
Y-235344D01*
X1041767D01*
Y-235058D01*
Y-234771D01*
X1042053D01*
Y-234485D01*
X1042340D01*
Y-234199D01*
X1042626D01*
Y-233912D01*
X1042912D01*
Y-233626D01*
Y-233340D01*
X1043198D01*
Y-233054D01*
X1043485D01*
Y-232767D01*
X1043771D01*
Y-232481D01*
Y-232195D01*
X1044057D01*
Y-231908D01*
X1044344D01*
Y-231622D01*
X1044630D01*
Y-231336D01*
X1044916D01*
Y-231049D01*
Y-230763D01*
X1045203D01*
Y-230477D01*
X1045489D01*
Y-230190D01*
X1045775D01*
Y-229904D01*
X1046062D01*
Y-229618D01*
Y-229331D01*
X1046348D01*
Y-229045D01*
X1046634D01*
Y-228759D01*
X1046920D01*
Y-228473D01*
Y-228186D01*
X1047207D01*
Y-227900D01*
X1047493D01*
Y-227614D01*
X1047779D01*
Y-227327D01*
X1048066D01*
Y-227041D01*
Y-226755D01*
X1048352D01*
Y-226468D01*
X1048638D01*
Y-226182D01*
X1048925D01*
Y-225896D01*
Y-225609D01*
X1049211D01*
Y-225323D01*
X1049497D01*
Y-225037D01*
X1049784D01*
Y-224750D01*
X1050070D01*
Y-224464D01*
Y-224178D01*
X1050356D01*
Y-223892D01*
X1050642D01*
Y-223605D01*
X1050929D01*
Y-223319D01*
Y-223033D01*
X1051215D01*
Y-222746D01*
X1051501D01*
Y-222460D01*
X1051788D01*
Y-222174D01*
X1052074D01*
Y-221887D01*
Y-221601D01*
X1052360D01*
Y-221315D01*
X1052647D01*
Y-221028D01*
X1052933D01*
Y-220742D01*
X1053219D01*
Y-220456D01*
Y-220169D01*
X1053506D01*
Y-219883D01*
X1053792D01*
Y-219597D01*
X1054078D01*
Y-219311D01*
Y-219024D01*
X1054365D01*
Y-218738D01*
X1054651D01*
Y-218452D01*
X1054937D01*
Y-218165D01*
X1055223D01*
Y-217879D01*
Y-217593D01*
X1055510D01*
Y-217306D01*
Y-217020D01*
Y-216734D01*
X1055223D01*
Y-216447D01*
X1054937D01*
Y-216161D01*
Y-215875D01*
X1054651D01*
Y-215588D01*
Y-215302D01*
X1054365D01*
Y-215016D01*
Y-214730D01*
X1054078D01*
Y-214443D01*
Y-214157D01*
X1053792D01*
Y-213871D01*
Y-213584D01*
X1053506D01*
Y-213298D01*
Y-213012D01*
X1053219D01*
Y-212725D01*
X1052933D01*
Y-212439D01*
Y-212153D01*
X1052647D01*
Y-211866D01*
Y-211580D01*
X1052360D01*
Y-211294D01*
Y-211007D01*
X1052074D01*
Y-210721D01*
Y-210435D01*
X1051788D01*
Y-210149D01*
Y-209862D01*
X1051501D01*
Y-209576D01*
Y-209290D01*
X1051215D01*
Y-209003D01*
X1050929D01*
Y-208717D01*
Y-208431D01*
X1050642D01*
Y-208144D01*
Y-207858D01*
X1050356D01*
Y-207572D01*
Y-207285D01*
X1050070D01*
Y-206999D01*
Y-206713D01*
X1049784D01*
Y-206427D01*
Y-206140D01*
X1049497D01*
Y-205854D01*
Y-205568D01*
X1049211D01*
Y-205281D01*
Y-204995D01*
X1048925D01*
Y-204709D01*
X1048638D01*
Y-204422D01*
Y-204136D01*
X1048352D01*
Y-203850D01*
Y-203563D01*
X1048066D01*
Y-203277D01*
Y-202991D01*
X1047779D01*
Y-202704D01*
Y-202418D01*
X1047493D01*
Y-202132D01*
Y-201846D01*
X1047207D01*
Y-201559D01*
Y-201273D01*
X1046920D01*
Y-200987D01*
X1046634D01*
Y-200700D01*
Y-200414D01*
X1046348D01*
Y-200128D01*
X1062095D01*
Y-200414D01*
X1062381D01*
Y-200700D01*
Y-200987D01*
Y-201273D01*
X1062668D01*
Y-201559D01*
Y-201846D01*
Y-202132D01*
X1062954D01*
Y-202418D01*
Y-202704D01*
Y-202991D01*
X1063240D01*
Y-203277D01*
Y-203563D01*
Y-203850D01*
X1063527D01*
Y-204136D01*
Y-204422D01*
Y-204709D01*
X1063813D01*
Y-204995D01*
Y-205281D01*
Y-205568D01*
X1064099D01*
Y-205854D01*
Y-206140D01*
Y-206427D01*
X1064386D01*
Y-206713D01*
Y-206999D01*
Y-207285D01*
X1064672D01*
Y-207572D01*
Y-207858D01*
Y-208144D01*
Y-208431D01*
X1065244D01*
Y-208144D01*
X1065531D01*
Y-207858D01*
X1065817D01*
Y-207572D01*
Y-207285D01*
X1066103D01*
Y-206999D01*
X1066390D01*
Y-206713D01*
Y-206427D01*
X1066676D01*
Y-206140D01*
X1066962D01*
Y-205854D01*
Y-205568D01*
X1067249D01*
Y-205281D01*
X1067535D01*
Y-204995D01*
Y-204709D01*
X1067821D01*
Y-204422D01*
X1068108D01*
Y-204136D01*
Y-203850D01*
X1068394D01*
Y-203563D01*
X1068680D01*
Y-203277D01*
Y-202991D01*
X1068966D01*
Y-202704D01*
X1069253D01*
Y-202418D01*
Y-202132D01*
X1069539D01*
Y-201846D01*
X1069825D01*
Y-201559D01*
Y-201273D01*
X1070112D01*
Y-200987D01*
X1070398D01*
Y-200700D01*
Y-200414D01*
X1070684D01*
Y-200128D01*
X1086432D01*
Y-200414D01*
D02*
G37*
G36*
X953296Y-186385D02*
X955014D01*
Y-186671D01*
X955873D01*
Y-186957D01*
X956732D01*
Y-187243D01*
X957591D01*
Y-187530D01*
X958164D01*
Y-187816D01*
X958450D01*
Y-188102D01*
X959022D01*
Y-188389D01*
X959309D01*
Y-188675D01*
X959881D01*
Y-188961D01*
X960168D01*
Y-189248D01*
X960454D01*
Y-189534D01*
X960740D01*
Y-189820D01*
X961027D01*
Y-190107D01*
X961313D01*
Y-190393D01*
X961599D01*
Y-190679D01*
Y-190966D01*
X961886D01*
Y-191252D01*
X962172D01*
Y-191538D01*
Y-191824D01*
X962458D01*
Y-192111D01*
X962745D01*
Y-192397D01*
Y-192683D01*
X963031D01*
Y-192970D01*
Y-193256D01*
Y-193542D01*
X963317D01*
Y-193829D01*
Y-194115D01*
Y-194401D01*
X963603D01*
Y-194688D01*
Y-194974D01*
Y-195260D01*
Y-195547D01*
X963890D01*
Y-195833D01*
Y-196119D01*
Y-196405D01*
Y-196692D01*
Y-196978D01*
X964176D01*
Y-197265D01*
Y-197551D01*
Y-197837D01*
Y-198123D01*
Y-198410D01*
Y-198696D01*
Y-198982D01*
Y-199269D01*
Y-199555D01*
Y-199841D01*
Y-200128D01*
Y-200414D01*
Y-200700D01*
Y-200987D01*
Y-201273D01*
Y-201559D01*
Y-201846D01*
Y-202132D01*
Y-202418D01*
Y-202704D01*
X963890D01*
Y-202991D01*
Y-203277D01*
Y-203563D01*
Y-203850D01*
Y-204136D01*
Y-204422D01*
Y-204709D01*
X963603D01*
Y-204995D01*
Y-205281D01*
Y-205568D01*
Y-205854D01*
Y-206140D01*
X963317D01*
Y-206427D01*
Y-206713D01*
Y-206999D01*
Y-207285D01*
Y-207572D01*
X963031D01*
Y-207858D01*
Y-208144D01*
Y-208431D01*
X962745D01*
Y-208717D01*
Y-209003D01*
Y-209290D01*
Y-209576D01*
X962458D01*
Y-209862D01*
Y-210149D01*
Y-210435D01*
X962172D01*
Y-210721D01*
Y-211007D01*
X961886D01*
Y-211294D01*
Y-211580D01*
Y-211866D01*
X961599D01*
Y-212153D01*
Y-212439D01*
X961313D01*
Y-212725D01*
Y-213012D01*
X961027D01*
Y-213298D01*
Y-213584D01*
X960740D01*
Y-213871D01*
X960454D01*
Y-214157D01*
Y-214443D01*
X960168D01*
Y-214730D01*
X959881D01*
Y-215016D01*
X959595D01*
Y-215302D01*
Y-215588D01*
X959309D01*
Y-215875D01*
X959022D01*
Y-216161D01*
X958736D01*
Y-216447D01*
X958450D01*
Y-216734D01*
X958164D01*
Y-217020D01*
X957591D01*
Y-217306D01*
X957304D01*
Y-217593D01*
X956732D01*
Y-217879D01*
X956446D01*
Y-218165D01*
X955873D01*
Y-218452D01*
X955014D01*
Y-218738D01*
X954155D01*
Y-219024D01*
X953296D01*
Y-219311D01*
X951578D01*
Y-219597D01*
X946425D01*
Y-219311D01*
X943848D01*
Y-219024D01*
X941844D01*
Y-218738D01*
X940412D01*
Y-218452D01*
X938980D01*
Y-218165D01*
X937549D01*
Y-218452D01*
Y-218738D01*
Y-219024D01*
Y-219311D01*
Y-219597D01*
Y-219883D01*
Y-220169D01*
X937263D01*
Y-220456D01*
Y-220742D01*
Y-221028D01*
Y-221315D01*
Y-221601D01*
Y-221887D01*
X936976D01*
Y-222174D01*
Y-222460D01*
Y-222746D01*
Y-223033D01*
Y-223319D01*
Y-223605D01*
X936690D01*
Y-223892D01*
Y-224178D01*
Y-224464D01*
Y-224750D01*
Y-225037D01*
Y-225323D01*
Y-225609D01*
X936404D01*
Y-225896D01*
Y-226182D01*
Y-226468D01*
Y-226755D01*
Y-227041D01*
Y-227327D01*
X936117D01*
Y-227614D01*
Y-227900D01*
Y-228186D01*
Y-228473D01*
Y-228759D01*
Y-229045D01*
X935831D01*
Y-229331D01*
Y-229618D01*
Y-229904D01*
Y-230190D01*
Y-230477D01*
Y-230763D01*
Y-231049D01*
X935545D01*
Y-231336D01*
Y-231622D01*
Y-231908D01*
Y-232195D01*
Y-232481D01*
Y-232767D01*
X935258D01*
Y-233054D01*
Y-233340D01*
Y-233626D01*
Y-233912D01*
Y-234199D01*
Y-234485D01*
X934972D01*
Y-234771D01*
Y-235058D01*
Y-235344D01*
Y-235630D01*
Y-235917D01*
Y-236203D01*
Y-236489D01*
X921515D01*
Y-236203D01*
X921802D01*
Y-235917D01*
Y-235630D01*
Y-235344D01*
Y-235058D01*
Y-234771D01*
X922088D01*
Y-234485D01*
Y-234199D01*
Y-233912D01*
Y-233626D01*
Y-233340D01*
Y-233054D01*
Y-232767D01*
X922374D01*
Y-232481D01*
Y-232195D01*
Y-231908D01*
Y-231622D01*
Y-231336D01*
Y-231049D01*
X922661D01*
Y-230763D01*
Y-230477D01*
Y-230190D01*
Y-229904D01*
Y-229618D01*
Y-229331D01*
X922947D01*
Y-229045D01*
Y-228759D01*
Y-228473D01*
Y-228186D01*
Y-227900D01*
Y-227614D01*
Y-227327D01*
X923233D01*
Y-227041D01*
Y-226755D01*
Y-226468D01*
Y-226182D01*
Y-225896D01*
Y-225609D01*
X923520D01*
Y-225323D01*
Y-225037D01*
Y-224750D01*
Y-224464D01*
Y-224178D01*
Y-223892D01*
X923806D01*
Y-223605D01*
Y-223319D01*
Y-223033D01*
Y-222746D01*
Y-222460D01*
Y-222174D01*
X924092D01*
Y-221887D01*
Y-221601D01*
Y-221315D01*
Y-221028D01*
Y-220742D01*
Y-220456D01*
Y-220169D01*
X924379D01*
Y-219883D01*
Y-219597D01*
Y-219311D01*
Y-219024D01*
Y-218738D01*
Y-218452D01*
X924665D01*
Y-218165D01*
Y-217879D01*
Y-217593D01*
Y-217306D01*
Y-217020D01*
Y-216734D01*
X924951D01*
Y-216447D01*
Y-216161D01*
Y-215875D01*
Y-215588D01*
Y-215302D01*
Y-215016D01*
X925237D01*
Y-214730D01*
Y-214443D01*
Y-214157D01*
Y-213871D01*
Y-213584D01*
Y-213298D01*
Y-213012D01*
X925524D01*
Y-212725D01*
Y-212439D01*
Y-212153D01*
Y-211866D01*
Y-211580D01*
Y-211294D01*
X925810D01*
Y-211007D01*
Y-210721D01*
Y-210435D01*
Y-210149D01*
Y-209862D01*
Y-209576D01*
X926096D01*
Y-209290D01*
Y-209003D01*
Y-208717D01*
Y-208431D01*
Y-208144D01*
Y-207858D01*
Y-207572D01*
X926383D01*
Y-207285D01*
Y-206999D01*
Y-206713D01*
Y-206427D01*
Y-206140D01*
Y-205854D01*
X926669D01*
Y-205568D01*
Y-205281D01*
Y-204995D01*
Y-204709D01*
Y-204422D01*
Y-204136D01*
X926955D01*
Y-203850D01*
Y-203563D01*
Y-203277D01*
Y-202991D01*
Y-202704D01*
Y-202418D01*
X927242D01*
Y-202132D01*
Y-201846D01*
Y-201559D01*
Y-201273D01*
Y-200987D01*
Y-200700D01*
Y-200414D01*
X927528D01*
Y-200128D01*
Y-199841D01*
Y-199555D01*
Y-199269D01*
Y-198982D01*
Y-198696D01*
X927814D01*
Y-198410D01*
Y-198123D01*
Y-197837D01*
Y-197551D01*
Y-197265D01*
Y-196978D01*
X928101D01*
Y-196692D01*
Y-196405D01*
Y-196119D01*
Y-195833D01*
Y-195547D01*
Y-195260D01*
Y-194974D01*
X928387D01*
Y-194688D01*
Y-194401D01*
Y-194115D01*
Y-193829D01*
Y-193542D01*
Y-193256D01*
X928673D01*
Y-192970D01*
Y-192683D01*
Y-192397D01*
Y-192111D01*
Y-191824D01*
Y-191538D01*
X928960D01*
Y-191252D01*
Y-190966D01*
Y-190679D01*
Y-190393D01*
Y-190107D01*
Y-189820D01*
Y-189534D01*
X929246D01*
Y-189248D01*
Y-188961D01*
Y-188675D01*
Y-188389D01*
Y-188102D01*
Y-187816D01*
X929532D01*
Y-187530D01*
Y-187243D01*
Y-186957D01*
Y-186671D01*
Y-186385D01*
Y-186098D01*
X953296D01*
Y-186385D01*
D02*
G37*
G36*
X1042340Y-200414D02*
Y-200700D01*
Y-200987D01*
Y-201273D01*
Y-201559D01*
Y-201846D01*
Y-202132D01*
Y-202418D01*
Y-202704D01*
Y-202991D01*
Y-203277D01*
Y-203563D01*
Y-203850D01*
Y-204136D01*
Y-204422D01*
Y-204709D01*
Y-204995D01*
Y-205281D01*
Y-205568D01*
Y-205854D01*
Y-206140D01*
X1042053D01*
Y-206427D01*
Y-206713D01*
Y-206999D01*
Y-207285D01*
Y-207572D01*
X1041767D01*
Y-207858D01*
Y-208144D01*
Y-208431D01*
Y-208717D01*
X1041481D01*
Y-209003D01*
Y-209290D01*
Y-209576D01*
Y-209862D01*
X1041194D01*
Y-210149D01*
Y-210435D01*
Y-210721D01*
X1040908D01*
Y-211007D01*
Y-211294D01*
Y-211580D01*
X1040622D01*
Y-211866D01*
Y-212153D01*
Y-212439D01*
X1040335D01*
Y-212725D01*
Y-213012D01*
Y-213298D01*
X1040049D01*
Y-213584D01*
Y-213871D01*
X1039763D01*
Y-214157D01*
Y-214443D01*
X1039476D01*
Y-214730D01*
Y-215016D01*
Y-215302D01*
X1039190D01*
Y-215588D01*
Y-215875D01*
X1038904D01*
Y-216161D01*
Y-216447D01*
Y-216734D01*
X1038617D01*
Y-217020D01*
Y-217306D01*
X1038331D01*
Y-217593D01*
Y-217879D01*
Y-218165D01*
X1038045D01*
Y-218452D01*
Y-218738D01*
X1037758D01*
Y-219024D01*
Y-219311D01*
Y-219597D01*
X1037472D01*
Y-219883D01*
Y-220169D01*
X1037186D01*
Y-220456D01*
Y-220742D01*
Y-221028D01*
X1036899D01*
Y-221315D01*
Y-221601D01*
X1036613D01*
Y-221887D01*
Y-222174D01*
Y-222460D01*
X1036327D01*
Y-222746D01*
Y-223033D01*
X1036041D01*
Y-223319D01*
Y-223605D01*
Y-223892D01*
X1035754D01*
Y-224178D01*
Y-224464D01*
X1035468D01*
Y-224750D01*
Y-225037D01*
Y-225323D01*
X1035182D01*
Y-225609D01*
Y-225896D01*
X1034895D01*
Y-226182D01*
Y-226468D01*
Y-226755D01*
X1034609D01*
Y-227041D01*
Y-227327D01*
X1034323D01*
Y-227614D01*
Y-227900D01*
Y-228186D01*
X1034036D01*
Y-228473D01*
Y-228759D01*
X1033750D01*
Y-229045D01*
Y-229331D01*
Y-229618D01*
X1033464D01*
Y-229904D01*
Y-230190D01*
X1033177D01*
Y-230477D01*
Y-230763D01*
Y-231049D01*
X1032891D01*
Y-231336D01*
Y-231622D01*
X1032605D01*
Y-231908D01*
Y-232195D01*
Y-232481D01*
X1032318D01*
Y-232767D01*
Y-233054D01*
X1032032D01*
Y-233340D01*
Y-233626D01*
Y-233912D01*
X1031746D01*
Y-234199D01*
Y-234485D01*
X1031460D01*
Y-234771D01*
Y-235058D01*
Y-235344D01*
X1031173D01*
Y-235630D01*
Y-235917D01*
X1030887D01*
Y-236203D01*
Y-236489D01*
Y-236776D01*
X1030601D01*
Y-237062D01*
Y-237348D01*
X1030314D01*
Y-237635D01*
Y-237921D01*
X1030028D01*
Y-238207D01*
Y-238493D01*
X1029742D01*
Y-238780D01*
Y-239066D01*
Y-239352D01*
X1029455D01*
Y-239639D01*
X1029169D01*
Y-239925D01*
Y-240211D01*
Y-240498D01*
X1028883D01*
Y-240784D01*
X1028596D01*
Y-241070D01*
Y-241357D01*
X1028310D01*
Y-241643D01*
Y-241929D01*
X1028024D01*
Y-242216D01*
Y-242502D01*
X1027738D01*
Y-242788D01*
Y-243074D01*
X1027451D01*
Y-243361D01*
X1027165D01*
Y-243647D01*
Y-243934D01*
X1026879D01*
Y-244220D01*
Y-244506D01*
X1026592D01*
Y-244792D01*
X1026306D01*
Y-245079D01*
X1026020D01*
Y-245365D01*
Y-245651D01*
X1025733D01*
Y-245938D01*
X1025447D01*
Y-246224D01*
Y-246510D01*
X1025161D01*
Y-246797D01*
X1024874D01*
Y-247083D01*
X1024588D01*
Y-247369D01*
Y-247656D01*
X1024302D01*
Y-247942D01*
X1024015D01*
Y-248228D01*
X1023729D01*
Y-248515D01*
X1023443D01*
Y-248801D01*
X1023157D01*
Y-249087D01*
Y-249373D01*
X1022870D01*
Y-249660D01*
X1022584D01*
Y-249946D01*
X1022298D01*
Y-250232D01*
X1022011D01*
Y-250519D01*
X1021725D01*
Y-250805D01*
X1021439D01*
Y-251091D01*
X1021152D01*
Y-251378D01*
X1020580D01*
Y-251664D01*
X1020293D01*
Y-251950D01*
X1020007D01*
Y-252237D01*
X1019721D01*
Y-252523D01*
X1019434D01*
Y-252809D01*
X1018862D01*
Y-253096D01*
X1018575D01*
Y-253382D01*
X1018003D01*
Y-253668D01*
X1017717D01*
Y-253954D01*
X1017144D01*
Y-254241D01*
X1016858D01*
Y-254527D01*
X1016285D01*
Y-254813D01*
X1015712D01*
Y-255100D01*
X1015140D01*
Y-255386D01*
X1014567D01*
Y-255672D01*
X1013995D01*
Y-255959D01*
X1013136D01*
Y-256245D01*
X1012563D01*
Y-256531D01*
X1011704D01*
Y-256818D01*
X1010559D01*
Y-257104D01*
X1009414D01*
Y-257390D01*
X1007696D01*
Y-257677D01*
X1005691D01*
Y-257963D01*
X1005405D01*
Y-257677D01*
Y-257390D01*
Y-257104D01*
Y-256818D01*
Y-256531D01*
Y-256245D01*
Y-255959D01*
Y-255672D01*
Y-255386D01*
Y-255100D01*
Y-254813D01*
Y-254527D01*
Y-254241D01*
Y-253954D01*
Y-253668D01*
Y-253382D01*
Y-253096D01*
Y-252809D01*
Y-252523D01*
Y-252237D01*
Y-251950D01*
Y-251664D01*
Y-251378D01*
Y-251091D01*
Y-250805D01*
Y-250519D01*
Y-250232D01*
Y-249946D01*
Y-249660D01*
Y-249373D01*
Y-249087D01*
Y-248801D01*
Y-248515D01*
X1005978D01*
Y-248228D01*
X1006550D01*
Y-247942D01*
X1007123D01*
Y-247656D01*
X1007696D01*
Y-247369D01*
X1008268D01*
Y-247083D01*
X1008841D01*
Y-246797D01*
X1009127D01*
Y-246510D01*
X1009700D01*
Y-246224D01*
X1009986D01*
Y-245938D01*
X1010559D01*
Y-245651D01*
X1010845D01*
Y-245365D01*
X1011131D01*
Y-245079D01*
X1011704D01*
Y-244792D01*
X1011990D01*
Y-244506D01*
X1012277D01*
Y-244220D01*
X1012563D01*
Y-243934D01*
X1012849D01*
Y-243647D01*
X1013136D01*
Y-243361D01*
X1013422D01*
Y-243074D01*
X1013708D01*
Y-242788D01*
X1013995D01*
Y-242502D01*
X1014281D01*
Y-242216D01*
X1014567D01*
Y-241929D01*
X1014853D01*
Y-241643D01*
Y-241357D01*
X1015140D01*
Y-241070D01*
X1015426D01*
Y-240784D01*
X1015712D01*
Y-240498D01*
Y-240211D01*
X1015999D01*
Y-239925D01*
X1016285D01*
Y-239639D01*
Y-239352D01*
X1016571D01*
Y-239066D01*
Y-238780D01*
X1016858D01*
Y-238493D01*
X1017144D01*
Y-238207D01*
Y-237921D01*
X1017430D01*
Y-237635D01*
Y-237348D01*
X1017717D01*
Y-237062D01*
Y-236776D01*
X1015999D01*
Y-236489D01*
X1013995D01*
Y-236203D01*
X1012849D01*
Y-235917D01*
X1012277D01*
Y-235630D01*
X1011418D01*
Y-235344D01*
X1010845D01*
Y-235058D01*
X1010559D01*
Y-234771D01*
X1009986D01*
Y-234485D01*
X1009700D01*
Y-234199D01*
X1009414D01*
Y-233912D01*
X1009127D01*
Y-233626D01*
X1008841D01*
Y-233340D01*
X1008554D01*
Y-233054D01*
Y-232767D01*
X1008268D01*
Y-232481D01*
X1007982D01*
Y-232195D01*
Y-231908D01*
X1007696D01*
Y-231622D01*
Y-231336D01*
X1007409D01*
Y-231049D01*
Y-230763D01*
X1007123D01*
Y-230477D01*
Y-230190D01*
Y-229904D01*
X1006837D01*
Y-229618D01*
Y-229331D01*
Y-229045D01*
Y-228759D01*
X1006550D01*
Y-228473D01*
Y-228186D01*
Y-227900D01*
Y-227614D01*
Y-227327D01*
Y-227041D01*
Y-226755D01*
X1006264D01*
Y-226468D01*
Y-226182D01*
Y-225896D01*
Y-225609D01*
Y-225323D01*
Y-225037D01*
Y-224750D01*
Y-224464D01*
Y-224178D01*
Y-223892D01*
Y-223605D01*
Y-223319D01*
Y-223033D01*
Y-222746D01*
Y-222460D01*
X1005978D01*
Y-222174D01*
Y-221887D01*
Y-221601D01*
Y-221315D01*
Y-221028D01*
Y-220742D01*
Y-220456D01*
Y-220169D01*
Y-219883D01*
Y-219597D01*
Y-219311D01*
Y-219024D01*
Y-218738D01*
Y-218452D01*
Y-218165D01*
X1005691D01*
Y-217879D01*
Y-217593D01*
Y-217306D01*
Y-217020D01*
Y-216734D01*
Y-216447D01*
Y-216161D01*
Y-215875D01*
Y-215588D01*
Y-215302D01*
Y-215016D01*
Y-214730D01*
Y-214443D01*
Y-214157D01*
Y-213871D01*
Y-213584D01*
X1005405D01*
Y-213298D01*
Y-213012D01*
Y-212725D01*
Y-212439D01*
Y-212153D01*
Y-211866D01*
Y-211580D01*
Y-211294D01*
Y-211007D01*
Y-210721D01*
Y-210435D01*
Y-210149D01*
Y-209862D01*
Y-209576D01*
Y-209290D01*
Y-209003D01*
X1005119D01*
Y-208717D01*
Y-208431D01*
Y-208144D01*
Y-207858D01*
Y-207572D01*
Y-207285D01*
Y-206999D01*
Y-206713D01*
Y-206427D01*
Y-206140D01*
Y-205854D01*
Y-205568D01*
Y-205281D01*
Y-204995D01*
X1004832D01*
Y-204709D01*
Y-204422D01*
Y-204136D01*
Y-203850D01*
Y-203563D01*
Y-203277D01*
Y-202991D01*
Y-202704D01*
Y-202418D01*
Y-202132D01*
Y-201846D01*
Y-201559D01*
Y-201273D01*
Y-200987D01*
Y-200700D01*
Y-200414D01*
X1004546D01*
Y-200128D01*
X1018289D01*
Y-200414D01*
Y-200700D01*
Y-200987D01*
Y-201273D01*
Y-201559D01*
Y-201846D01*
Y-202132D01*
Y-202418D01*
Y-202704D01*
Y-202991D01*
Y-203277D01*
Y-203563D01*
Y-203850D01*
Y-204136D01*
X1018575D01*
Y-204422D01*
Y-204709D01*
Y-204995D01*
Y-205281D01*
Y-205568D01*
Y-205854D01*
Y-206140D01*
Y-206427D01*
Y-206713D01*
Y-206999D01*
Y-207285D01*
Y-207572D01*
Y-207858D01*
Y-208144D01*
Y-208431D01*
Y-208717D01*
Y-209003D01*
Y-209290D01*
Y-209576D01*
Y-209862D01*
Y-210149D01*
Y-210435D01*
Y-210721D01*
Y-211007D01*
Y-211294D01*
Y-211580D01*
Y-211866D01*
Y-212153D01*
Y-212439D01*
Y-212725D01*
Y-213012D01*
Y-213298D01*
Y-213584D01*
Y-213871D01*
Y-214157D01*
Y-214443D01*
Y-214730D01*
Y-215016D01*
Y-215302D01*
Y-215588D01*
Y-215875D01*
X1018862D01*
Y-216161D01*
X1018575D01*
Y-216447D01*
Y-216734D01*
X1018862D01*
Y-217020D01*
Y-217306D01*
Y-217593D01*
Y-217879D01*
Y-218165D01*
Y-218452D01*
Y-218738D01*
Y-219024D01*
Y-219311D01*
Y-219597D01*
Y-219883D01*
Y-220169D01*
Y-220456D01*
Y-220742D01*
Y-221028D01*
Y-221315D01*
Y-221601D01*
Y-221887D01*
Y-222174D01*
Y-222460D01*
Y-222746D01*
Y-223033D01*
Y-223319D01*
Y-223605D01*
Y-223892D01*
Y-224178D01*
X1019148D01*
Y-224464D01*
Y-224750D01*
Y-225037D01*
X1019434D01*
Y-225323D01*
X1019721D01*
Y-225609D01*
X1020007D01*
Y-225896D01*
X1020866D01*
Y-226182D01*
X1021725D01*
Y-225896D01*
X1022011D01*
Y-225609D01*
Y-225323D01*
Y-225037D01*
X1022298D01*
Y-224750D01*
Y-224464D01*
X1022584D01*
Y-224178D01*
Y-223892D01*
Y-223605D01*
X1022870D01*
Y-223319D01*
Y-223033D01*
Y-222746D01*
X1023157D01*
Y-222460D01*
Y-222174D01*
Y-221887D01*
X1023443D01*
Y-221601D01*
Y-221315D01*
Y-221028D01*
X1023729D01*
Y-220742D01*
Y-220456D01*
X1024015D01*
Y-220169D01*
Y-219883D01*
Y-219597D01*
X1024302D01*
Y-219311D01*
Y-219024D01*
Y-218738D01*
X1024588D01*
Y-218452D01*
Y-218165D01*
Y-217879D01*
X1024874D01*
Y-217593D01*
Y-217306D01*
X1025161D01*
Y-217020D01*
Y-216734D01*
Y-216447D01*
X1025447D01*
Y-216161D01*
Y-215875D01*
Y-215588D01*
X1025733D01*
Y-215302D01*
Y-215016D01*
Y-214730D01*
X1026020D01*
Y-214443D01*
Y-214157D01*
X1026306D01*
Y-213871D01*
Y-213584D01*
Y-213298D01*
X1026592D01*
Y-213012D01*
Y-212725D01*
Y-212439D01*
X1026879D01*
Y-212153D01*
Y-211866D01*
Y-211580D01*
X1027165D01*
Y-211294D01*
Y-211007D01*
X1027451D01*
Y-210721D01*
Y-210435D01*
Y-210149D01*
X1027738D01*
Y-209862D01*
Y-209576D01*
Y-209290D01*
X1028024D01*
Y-209003D01*
Y-208717D01*
Y-208431D01*
X1028310D01*
Y-208144D01*
Y-207858D01*
Y-207572D01*
Y-207285D01*
X1028596D01*
Y-206999D01*
Y-206713D01*
Y-206427D01*
Y-206140D01*
X1028883D01*
Y-205854D01*
Y-205568D01*
Y-205281D01*
Y-204995D01*
Y-204709D01*
X1029169D01*
Y-204422D01*
Y-204136D01*
Y-203850D01*
Y-203563D01*
Y-203277D01*
Y-202991D01*
X1029455D01*
Y-202704D01*
Y-202418D01*
Y-202132D01*
Y-201846D01*
Y-201559D01*
Y-201273D01*
Y-200987D01*
Y-200700D01*
Y-200414D01*
Y-200128D01*
X1042340D01*
Y-200414D01*
D02*
G37*
G36*
X984504Y-182949D02*
Y-183235D01*
X984218D01*
Y-183521D01*
Y-183808D01*
Y-184094D01*
Y-184380D01*
Y-184667D01*
Y-184953D01*
X983932D01*
Y-185239D01*
Y-185526D01*
Y-185812D01*
Y-186098D01*
Y-186385D01*
Y-186671D01*
X983645D01*
Y-186957D01*
Y-187243D01*
Y-187530D01*
Y-187816D01*
Y-188102D01*
Y-188389D01*
Y-188675D01*
X983359D01*
Y-188961D01*
Y-189248D01*
Y-189534D01*
Y-189820D01*
Y-190107D01*
Y-190393D01*
X983073D01*
Y-190679D01*
Y-190966D01*
Y-191252D01*
Y-191538D01*
Y-191824D01*
Y-192111D01*
X982786D01*
Y-192397D01*
Y-192683D01*
Y-192970D01*
Y-193256D01*
Y-193542D01*
Y-193829D01*
Y-194115D01*
X982500D01*
Y-194401D01*
Y-194688D01*
Y-194974D01*
Y-195260D01*
Y-195547D01*
Y-195833D01*
X982214D01*
Y-196119D01*
Y-196405D01*
Y-196692D01*
Y-196978D01*
Y-197265D01*
Y-197551D01*
X981927D01*
Y-197837D01*
Y-198123D01*
Y-198410D01*
Y-198696D01*
Y-198982D01*
Y-199269D01*
X981641D01*
Y-199555D01*
Y-199841D01*
Y-200128D01*
Y-200414D01*
Y-200700D01*
Y-200987D01*
Y-201273D01*
X981355D01*
Y-201559D01*
Y-201846D01*
Y-202132D01*
Y-202418D01*
Y-202704D01*
Y-202991D01*
X981069D01*
Y-203277D01*
Y-203563D01*
X981641D01*
Y-203277D01*
X981927D01*
Y-202991D01*
X982214D01*
Y-202704D01*
X982786D01*
Y-202418D01*
X983073D01*
Y-202132D01*
X983359D01*
Y-201846D01*
X983932D01*
Y-201559D01*
X984504D01*
Y-201273D01*
X984791D01*
Y-200987D01*
X985363D01*
Y-200700D01*
X986222D01*
Y-200414D01*
X986795D01*
Y-200128D01*
X987654D01*
Y-199841D01*
X989085D01*
Y-199555D01*
X995384D01*
Y-199841D01*
X996529D01*
Y-200128D01*
X997388D01*
Y-200414D01*
X997961D01*
Y-200700D01*
X998247D01*
Y-200987D01*
X998820D01*
Y-201273D01*
X999106D01*
Y-201559D01*
X999393D01*
Y-201846D01*
X999679D01*
Y-202132D01*
X999965D01*
Y-202418D01*
Y-202704D01*
X1000251D01*
Y-202991D01*
Y-203277D01*
X1000538D01*
Y-203563D01*
Y-203850D01*
Y-204136D01*
X1000824D01*
Y-204422D01*
Y-204709D01*
Y-204995D01*
Y-205281D01*
X1001110D01*
Y-205568D01*
Y-205854D01*
Y-206140D01*
Y-206427D01*
Y-206713D01*
Y-206999D01*
Y-207285D01*
Y-207572D01*
Y-207858D01*
Y-208144D01*
Y-208431D01*
Y-208717D01*
Y-209003D01*
Y-209290D01*
Y-209576D01*
Y-209862D01*
Y-210149D01*
Y-210435D01*
X1000824D01*
Y-210721D01*
Y-211007D01*
Y-211294D01*
Y-211580D01*
Y-211866D01*
Y-212153D01*
Y-212439D01*
X1000538D01*
Y-212725D01*
Y-213012D01*
Y-213298D01*
Y-213584D01*
Y-213871D01*
Y-214157D01*
Y-214443D01*
X1000251D01*
Y-214730D01*
Y-215016D01*
Y-215302D01*
Y-215588D01*
Y-215875D01*
Y-216161D01*
X999965D01*
Y-216447D01*
Y-216734D01*
Y-217020D01*
Y-217306D01*
Y-217593D01*
Y-217879D01*
X999679D01*
Y-218165D01*
Y-218452D01*
Y-218738D01*
Y-219024D01*
Y-219311D01*
Y-219597D01*
X999393D01*
Y-219883D01*
Y-220169D01*
Y-220456D01*
Y-220742D01*
Y-221028D01*
Y-221315D01*
Y-221601D01*
X999106D01*
Y-221887D01*
Y-222174D01*
Y-222460D01*
Y-222746D01*
Y-223033D01*
Y-223319D01*
X998820D01*
Y-223605D01*
Y-223892D01*
Y-224178D01*
Y-224464D01*
Y-224750D01*
Y-225037D01*
X998534D01*
Y-225323D01*
Y-225609D01*
Y-225896D01*
Y-226182D01*
Y-226468D01*
Y-226755D01*
Y-227041D01*
X998247D01*
Y-227327D01*
Y-227614D01*
Y-227900D01*
Y-228186D01*
Y-228473D01*
Y-228759D01*
X997961D01*
Y-229045D01*
Y-229331D01*
Y-229618D01*
Y-229904D01*
Y-230190D01*
Y-230477D01*
X997675D01*
Y-230763D01*
Y-231049D01*
Y-231336D01*
Y-231622D01*
Y-231908D01*
Y-232195D01*
X997388D01*
Y-232481D01*
Y-232767D01*
Y-233054D01*
Y-233340D01*
Y-233626D01*
Y-233912D01*
Y-234199D01*
X997102D01*
Y-234485D01*
Y-234771D01*
Y-235058D01*
Y-235344D01*
Y-235630D01*
Y-235917D01*
X996816D01*
Y-236203D01*
Y-236489D01*
X983645D01*
Y-236203D01*
Y-235917D01*
X983932D01*
Y-235630D01*
Y-235344D01*
Y-235058D01*
Y-234771D01*
Y-234485D01*
Y-234199D01*
X984218D01*
Y-233912D01*
Y-233626D01*
Y-233340D01*
Y-233054D01*
Y-232767D01*
Y-232481D01*
Y-232195D01*
X984504D01*
Y-231908D01*
Y-231622D01*
Y-231336D01*
Y-231049D01*
Y-230763D01*
Y-230477D01*
X984791D01*
Y-230190D01*
Y-229904D01*
Y-229618D01*
Y-229331D01*
Y-229045D01*
Y-228759D01*
X985077D01*
Y-228473D01*
Y-228186D01*
Y-227900D01*
Y-227614D01*
Y-227327D01*
Y-227041D01*
Y-226755D01*
X985363D01*
Y-226468D01*
Y-226182D01*
Y-225896D01*
Y-225609D01*
Y-225323D01*
Y-225037D01*
X985649D01*
Y-224750D01*
Y-224464D01*
Y-224178D01*
Y-223892D01*
Y-223605D01*
Y-223319D01*
Y-223033D01*
X985936D01*
Y-222746D01*
Y-222460D01*
Y-222174D01*
Y-221887D01*
Y-221601D01*
Y-221315D01*
X986222D01*
Y-221028D01*
Y-220742D01*
Y-220456D01*
Y-220169D01*
Y-219883D01*
Y-219597D01*
X986508D01*
Y-219311D01*
Y-219024D01*
Y-218738D01*
Y-218452D01*
Y-218165D01*
Y-217879D01*
X986795D01*
Y-217593D01*
Y-217306D01*
Y-217020D01*
Y-216734D01*
Y-216447D01*
Y-216161D01*
Y-215875D01*
X987081D01*
Y-215588D01*
Y-215302D01*
Y-215016D01*
Y-214730D01*
Y-214443D01*
Y-214157D01*
X987367D01*
Y-213871D01*
Y-213584D01*
Y-213298D01*
Y-213012D01*
Y-212725D01*
Y-212439D01*
Y-212153D01*
X987654D01*
Y-211866D01*
Y-211580D01*
Y-211294D01*
Y-211007D01*
Y-210721D01*
Y-210435D01*
X987367D01*
Y-210149D01*
Y-209862D01*
X987081D01*
Y-209576D01*
X986795D01*
Y-209290D01*
X986222D01*
Y-209003D01*
X984504D01*
Y-209290D01*
X983073D01*
Y-209576D01*
X982214D01*
Y-209862D01*
X981641D01*
Y-210149D01*
X981355D01*
Y-210435D01*
X980782D01*
Y-210721D01*
X980496D01*
Y-211007D01*
X980210D01*
Y-211294D01*
Y-211580D01*
X979923D01*
Y-211866D01*
Y-212153D01*
Y-212439D01*
X979637D01*
Y-212725D01*
Y-213012D01*
Y-213298D01*
Y-213584D01*
Y-213871D01*
Y-214157D01*
X979351D01*
Y-214443D01*
Y-214730D01*
Y-215016D01*
Y-215302D01*
Y-215588D01*
Y-215875D01*
Y-216161D01*
X979064D01*
Y-216447D01*
Y-216734D01*
Y-217020D01*
Y-217306D01*
Y-217593D01*
Y-217879D01*
X978778D01*
Y-218165D01*
Y-218452D01*
Y-218738D01*
Y-219024D01*
Y-219311D01*
Y-219597D01*
X978492D01*
Y-219883D01*
Y-220169D01*
Y-220456D01*
Y-220742D01*
Y-221028D01*
Y-221315D01*
X978205D01*
Y-221601D01*
Y-221887D01*
Y-222174D01*
Y-222460D01*
Y-222746D01*
Y-223033D01*
Y-223319D01*
X977919D01*
Y-223605D01*
Y-223892D01*
Y-224178D01*
Y-224464D01*
Y-224750D01*
Y-225037D01*
X977633D01*
Y-225323D01*
Y-225609D01*
Y-225896D01*
Y-226182D01*
Y-226468D01*
Y-226755D01*
X977346D01*
Y-227041D01*
Y-227327D01*
Y-227614D01*
Y-227900D01*
Y-228186D01*
Y-228473D01*
Y-228759D01*
X977060D01*
Y-229045D01*
Y-229331D01*
Y-229618D01*
Y-229904D01*
Y-230190D01*
Y-230477D01*
X976774D01*
Y-230763D01*
Y-231049D01*
Y-231336D01*
Y-231622D01*
Y-231908D01*
Y-232195D01*
X976488D01*
Y-232481D01*
Y-232767D01*
Y-233054D01*
Y-233340D01*
Y-233626D01*
Y-233912D01*
X976201D01*
Y-234199D01*
Y-234485D01*
Y-234771D01*
Y-235058D01*
Y-235344D01*
Y-235630D01*
Y-235917D01*
X975915D01*
Y-236203D01*
Y-236489D01*
X962745D01*
Y-236203D01*
Y-235917D01*
X963031D01*
Y-235630D01*
Y-235344D01*
Y-235058D01*
Y-234771D01*
Y-234485D01*
Y-234199D01*
Y-233912D01*
X963317D01*
Y-233626D01*
Y-233340D01*
Y-233054D01*
Y-232767D01*
Y-232481D01*
Y-232195D01*
X963603D01*
Y-231908D01*
Y-231622D01*
Y-231336D01*
Y-231049D01*
Y-230763D01*
Y-230477D01*
X963890D01*
Y-230190D01*
Y-229904D01*
Y-229618D01*
Y-229331D01*
Y-229045D01*
Y-228759D01*
Y-228473D01*
X964176D01*
Y-228186D01*
Y-227900D01*
Y-227614D01*
Y-227327D01*
Y-227041D01*
Y-226755D01*
X964462D01*
Y-226468D01*
Y-226182D01*
Y-225896D01*
Y-225609D01*
Y-225323D01*
Y-225037D01*
X964749D01*
Y-224750D01*
Y-224464D01*
Y-224178D01*
Y-223892D01*
Y-223605D01*
Y-223319D01*
X965035D01*
Y-223033D01*
Y-222746D01*
Y-222460D01*
Y-222174D01*
Y-221887D01*
Y-221601D01*
Y-221315D01*
X965321D01*
Y-221028D01*
Y-220742D01*
Y-220456D01*
Y-220169D01*
Y-219883D01*
Y-219597D01*
X965608D01*
Y-219311D01*
Y-219024D01*
Y-218738D01*
Y-218452D01*
Y-218165D01*
Y-217879D01*
X965894D01*
Y-217593D01*
Y-217306D01*
Y-217020D01*
Y-216734D01*
Y-216447D01*
Y-216161D01*
Y-215875D01*
X966180D01*
Y-215588D01*
Y-215302D01*
Y-215016D01*
Y-214730D01*
Y-214443D01*
Y-214157D01*
X966467D01*
Y-213871D01*
Y-213584D01*
Y-213298D01*
Y-213012D01*
Y-212725D01*
Y-212439D01*
X966753D01*
Y-212153D01*
Y-211866D01*
Y-211580D01*
Y-211294D01*
Y-211007D01*
Y-210721D01*
X967039D01*
Y-210435D01*
Y-210149D01*
Y-209862D01*
Y-209576D01*
Y-209290D01*
Y-209003D01*
Y-208717D01*
X967325D01*
Y-208431D01*
Y-208144D01*
Y-207858D01*
Y-207572D01*
Y-207285D01*
Y-206999D01*
X967612D01*
Y-206713D01*
Y-206427D01*
Y-206140D01*
Y-205854D01*
Y-205568D01*
Y-205281D01*
X967898D01*
Y-204995D01*
Y-204709D01*
Y-204422D01*
Y-204136D01*
Y-203850D01*
Y-203563D01*
X968184D01*
Y-203277D01*
Y-202991D01*
Y-202704D01*
Y-202418D01*
Y-202132D01*
Y-201846D01*
Y-201559D01*
X968471D01*
Y-201273D01*
Y-200987D01*
Y-200700D01*
Y-200414D01*
Y-200128D01*
Y-199841D01*
X968757D01*
Y-199555D01*
Y-199269D01*
Y-198982D01*
Y-198696D01*
Y-198410D01*
Y-198123D01*
X969043D01*
Y-197837D01*
Y-197551D01*
Y-197265D01*
Y-196978D01*
Y-196692D01*
Y-196405D01*
Y-196119D01*
X969330D01*
Y-195833D01*
Y-195547D01*
Y-195260D01*
Y-194974D01*
Y-194688D01*
Y-194401D01*
X969616D01*
Y-194115D01*
Y-193829D01*
Y-193542D01*
Y-193256D01*
Y-192970D01*
Y-192683D01*
X969902D01*
Y-192397D01*
Y-192111D01*
Y-191824D01*
Y-191538D01*
Y-191252D01*
Y-190966D01*
X970189D01*
Y-190679D01*
Y-190393D01*
Y-190107D01*
Y-189820D01*
Y-189534D01*
Y-189248D01*
Y-188961D01*
X970475D01*
Y-188675D01*
Y-188389D01*
Y-188102D01*
Y-187816D01*
Y-187530D01*
Y-187243D01*
X970761D01*
Y-186957D01*
Y-186671D01*
Y-186385D01*
Y-186098D01*
Y-185812D01*
Y-185526D01*
X971048D01*
Y-185239D01*
Y-184953D01*
Y-184667D01*
Y-184380D01*
Y-184094D01*
Y-183808D01*
Y-183521D01*
X971334D01*
Y-183235D01*
Y-182949D01*
Y-182662D01*
X984504D01*
Y-182949D01*
D02*
G37*
%LPC*%
G36*
X949002Y-197265D02*
X940985D01*
Y-197551D01*
Y-197837D01*
Y-198123D01*
Y-198410D01*
Y-198696D01*
X940698D01*
Y-198982D01*
Y-199269D01*
Y-199555D01*
Y-199841D01*
Y-200128D01*
Y-200414D01*
X940412D01*
Y-200700D01*
Y-200987D01*
Y-201273D01*
Y-201559D01*
Y-201846D01*
Y-202132D01*
X940126D01*
Y-202418D01*
Y-202704D01*
Y-202991D01*
Y-203277D01*
Y-203563D01*
Y-203850D01*
X939839D01*
Y-204136D01*
Y-204422D01*
Y-204709D01*
Y-204995D01*
Y-205281D01*
Y-205568D01*
Y-205854D01*
X939553D01*
Y-206140D01*
Y-206427D01*
Y-206713D01*
Y-206999D01*
Y-207285D01*
Y-207572D01*
X939267D01*
Y-207858D01*
Y-208144D01*
Y-208431D01*
X946425D01*
Y-208144D01*
X947570D01*
Y-207858D01*
X948143D01*
Y-207572D01*
X948429D01*
Y-207285D01*
X948715D01*
Y-206999D01*
X949002D01*
Y-206713D01*
X949288D01*
Y-206427D01*
Y-206140D01*
X949574D01*
Y-205854D01*
Y-205568D01*
X949860D01*
Y-205281D01*
Y-204995D01*
X950147D01*
Y-204709D01*
Y-204422D01*
Y-204136D01*
Y-203850D01*
X950433D01*
Y-203563D01*
Y-203277D01*
Y-202991D01*
Y-202704D01*
Y-202418D01*
X950719D01*
Y-202132D01*
Y-201846D01*
Y-201559D01*
Y-201273D01*
Y-200987D01*
Y-200700D01*
Y-200414D01*
Y-200128D01*
Y-199841D01*
Y-199555D01*
Y-199269D01*
X950433D01*
Y-198982D01*
Y-198696D01*
X950147D01*
Y-198410D01*
Y-198123D01*
X949860D01*
Y-197837D01*
X949574D01*
Y-197551D01*
X949002D01*
Y-197265D01*
D02*
G37*
%LPD*%
D12*
X927165Y-291899D02*
Y-307642D01*
X932413Y-302394D01*
X937661Y-307642D01*
Y-291899D01*
X942908Y-307642D02*
X948156D01*
X945532D01*
Y-297147D01*
X942908D01*
X956027Y-307642D02*
Y-297147D01*
X958651D01*
X961275Y-299770D01*
Y-307642D01*
Y-299770D01*
X963899Y-297147D01*
X966523Y-299770D01*
Y-307642D01*
X971770Y-291899D02*
Y-302394D01*
X977018Y-307642D01*
X982266Y-302394D01*
Y-291899D01*
X998009Y-294523D02*
X995385Y-291899D01*
X990137D01*
X987513Y-294523D01*
Y-305018D01*
X990137Y-307642D01*
X995385D01*
X998009Y-305018D01*
Y-299770D01*
X992761D01*
X1281496Y-255153D02*
X1284120Y-252529D01*
X1289367D01*
X1291991Y-255153D01*
Y-265648D01*
X1289367Y-268272D01*
X1284120D01*
X1281496Y-265648D01*
Y-255153D01*
X1297239D02*
X1299863Y-252529D01*
X1305110D01*
X1307734Y-255153D01*
Y-265648D01*
X1305110Y-268272D01*
X1299863D01*
X1297239Y-265648D01*
Y-255153D01*
X1127294Y-254497D02*
X1118110D01*
Y-261384D01*
X1122702Y-259088D01*
X1124998D01*
X1127294Y-261384D01*
Y-265976D01*
X1124998Y-268272D01*
X1120406D01*
X1118110Y-265976D01*
X1131885Y-268272D02*
X1141069Y-259088D01*
X1145660Y-256792D02*
X1147956Y-254497D01*
X1152548D01*
X1154844Y-256792D01*
Y-265976D01*
X1152548Y-268272D01*
X1147956D01*
X1145660Y-265976D01*
Y-256792D01*
X1159435Y-268272D02*
X1164027D01*
X1161731D01*
Y-254497D01*
X1159435Y-256792D01*
X1170915Y-268272D02*
X1180098Y-259088D01*
X1193873Y-268272D02*
X1184690D01*
X1193873Y-259088D01*
Y-256792D01*
X1191577Y-254497D01*
X1186986D01*
X1184690Y-256792D01*
X1198465D02*
X1200761Y-254497D01*
X1205352D01*
X1207648Y-256792D01*
Y-265976D01*
X1205352Y-268272D01*
X1200761D01*
X1198465Y-265976D01*
Y-256792D01*
X1212240Y-268272D02*
X1216832D01*
X1214536D01*
Y-254497D01*
X1212240Y-256792D01*
X1223719Y-254497D02*
X1232903D01*
Y-256792D01*
X1223719Y-265976D01*
Y-268272D01*
X1112205Y-189532D02*
Y-179036D01*
X1117452Y-173789D01*
X1122700Y-179036D01*
Y-189532D01*
Y-181660D01*
X1112205D01*
X1127948Y-173789D02*
Y-186908D01*
X1130571Y-189532D01*
X1135819D01*
X1138443Y-186908D01*
Y-173789D01*
X1143691D02*
Y-189532D01*
X1151562D01*
X1154186Y-186908D01*
Y-176412D01*
X1151562Y-173789D01*
X1143691D01*
X1159433D02*
X1164681D01*
X1162057D01*
Y-189532D01*
X1159433D01*
X1164681D01*
X1180424Y-173789D02*
X1175177D01*
X1172553Y-176412D01*
Y-186908D01*
X1175177Y-189532D01*
X1180424D01*
X1183048Y-186908D01*
Y-176412D01*
X1180424Y-173789D01*
X1188296Y-192155D02*
X1198791D01*
X1214534Y-173789D02*
X1204039D01*
Y-181660D01*
X1209286D01*
X1204039D01*
Y-189532D01*
X1219781D02*
Y-173789D01*
X1225029Y-179036D01*
X1230277Y-173789D01*
Y-189532D01*
X1235524Y-192155D02*
X1246020D01*
X1251267Y-173789D02*
Y-189532D01*
X1261763D01*
X1277506Y-176412D02*
X1274882Y-173789D01*
X1269634D01*
X1267010Y-176412D01*
Y-186908D01*
X1269634Y-189532D01*
X1274882D01*
X1277506Y-186908D01*
D27*
X1259842Y-274177D02*
Y-234807D01*
X1102362Y-195437D02*
X1377953D01*
X1102362Y-234807D02*
X1377953D01*
X905512Y-274177D02*
X1377953D01*
X905512Y-156067D02*
X1377953D01*
X905512Y-313547D02*
Y-156067D01*
X1102362Y-313547D02*
Y-156067D01*
X-275590Y855744D02*
X1377953D01*
Y-313547D02*
Y855744D01*
X-275590Y-313547D02*
Y855744D01*
Y-313547D02*
X1377953D01*
X1112205Y-305673D02*
Y-301738D01*
X1114173Y-299770D01*
X1116140Y-301738D01*
Y-305673D01*
Y-302722D01*
X1112205D01*
X1118108Y-299770D02*
Y-304689D01*
X1119092Y-305673D01*
X1121060D01*
X1122044Y-304689D01*
Y-299770D01*
X1124012D02*
Y-305673D01*
X1126964D01*
X1127948Y-304689D01*
Y-300754D01*
X1126964Y-299770D01*
X1124012D01*
X1129916D02*
X1131883D01*
X1130900D01*
Y-305673D01*
X1129916D01*
X1131883D01*
X1137787Y-299770D02*
X1135819D01*
X1134835Y-300754D01*
Y-304689D01*
X1135819Y-305673D01*
X1137787D01*
X1138771Y-304689D01*
Y-300754D01*
X1137787Y-299770D01*
X1140739Y-306657D02*
X1144674D01*
X1150578Y-299770D02*
X1146642D01*
Y-302722D01*
X1148610D01*
X1146642D01*
Y-305673D01*
X1152546D02*
Y-299770D01*
X1154514Y-301738D01*
X1156482Y-299770D01*
Y-305673D01*
X1158450Y-306657D02*
X1162385D01*
X1164353Y-299770D02*
Y-305673D01*
X1168289D01*
X1174193Y-300754D02*
X1173209Y-299770D01*
X1171241D01*
X1170257Y-300754D01*
Y-304689D01*
X1171241Y-305673D01*
X1173209D01*
X1174193Y-304689D01*
X1176160Y-306657D02*
X1180096D01*
X1182064Y-300754D02*
X1183048Y-299770D01*
X1185016D01*
X1186000Y-300754D01*
Y-304689D01*
X1185016Y-305673D01*
X1183048D01*
X1182064Y-304689D01*
Y-300754D01*
X1187968D02*
X1188951Y-299770D01*
X1190919D01*
X1191903Y-300754D01*
Y-304689D01*
X1190919Y-305673D01*
X1188951D01*
X1187968Y-304689D01*
Y-300754D01*
X1193871Y-305673D02*
Y-304689D01*
X1194855D01*
Y-305673D01*
X1193871D01*
X1198791D02*
Y-299770D01*
X1201743D01*
X1202727Y-300754D01*
Y-302722D01*
X1201743Y-303705D01*
X1198791D01*
X1208630Y-301738D02*
X1205678D01*
X1204694Y-302722D01*
Y-304689D01*
X1205678Y-305673D01*
X1208630D01*
X1210598Y-299770D02*
Y-305673D01*
X1213550D01*
X1214534Y-304689D01*
Y-303705D01*
Y-302722D01*
X1213550Y-301738D01*
X1210598D01*
X1216502Y-299770D02*
Y-305673D01*
X1219454D01*
X1220437Y-304689D01*
Y-300754D01*
X1219454Y-299770D01*
X1216502D01*
X1223389Y-305673D02*
X1225357D01*
X1226341Y-304689D01*
Y-302722D01*
X1225357Y-301738D01*
X1223389D01*
X1222405Y-302722D01*
Y-304689D01*
X1223389Y-305673D01*
X1232245Y-301738D02*
X1229293D01*
X1228309Y-302722D01*
Y-304689D01*
X1229293Y-305673D01*
X1232245D01*
X498644Y206693D02*
Y214564D01*
X494708Y210629D01*
X499956D01*
X502580Y214564D02*
X507827D01*
Y213253D01*
X502580Y208005D01*
Y206693D01*
X583503D02*
X586127D01*
X584815D01*
Y214564D01*
X583503Y213253D01*
X590062Y206693D02*
X592686D01*
X591374D01*
Y214564D01*
X590062Y213253D01*
X596622Y206693D02*
Y208005D01*
X597934D01*
Y206693D01*
X596622D01*
X603181Y213253D02*
X604493Y214564D01*
X607117D01*
X608429Y213253D01*
Y211941D01*
X607117Y210629D01*
X608429Y209317D01*
Y208005D01*
X607117Y206693D01*
X604493D01*
X603181Y208005D01*
Y209317D01*
X604493Y210629D01*
X603181Y211941D01*
Y213253D01*
X604493Y210629D02*
X607117D01*
X611053Y206693D02*
X613677D01*
X612365D01*
Y214564D01*
X611053Y213253D01*
X617612Y206693D02*
X620236D01*
X618924D01*
Y214564D01*
X617612Y213253D01*
X624172Y206693D02*
Y211941D01*
X625484D01*
X626796Y210629D01*
Y206693D01*
Y210629D01*
X628108Y211941D01*
X629420Y210629D01*
Y206693D01*
X632043D02*
X634667D01*
X633355D01*
Y211941D01*
X632043D01*
X638603Y206693D02*
X641227D01*
X639915D01*
Y214564D01*
X638603D01*
X655658Y206693D02*
X653034Y209317D01*
Y211941D01*
X655658Y214564D01*
X659593Y213253D02*
X660906Y214564D01*
X663529D01*
X664841Y213253D01*
Y208005D01*
X663529Y206693D01*
X660906D01*
X659593Y208005D01*
Y213253D01*
X667465Y206693D02*
Y208005D01*
X668777D01*
Y206693D01*
X667465D01*
X674025Y213253D02*
X675337Y214564D01*
X677960D01*
X679272Y213253D01*
Y211941D01*
X677960Y210629D01*
X676648D01*
X677960D01*
X679272Y209317D01*
Y208005D01*
X677960Y206693D01*
X675337D01*
X674025Y208005D01*
X681896Y206693D02*
Y211941D01*
X683208D01*
X684520Y210629D01*
Y206693D01*
Y210629D01*
X685832Y211941D01*
X687144Y210629D01*
Y206693D01*
X689768D02*
Y211941D01*
X691080D01*
X692391Y210629D01*
Y206693D01*
Y210629D01*
X693703Y211941D01*
X695015Y210629D01*
Y206693D01*
X697639D02*
X700263Y209317D01*
Y211941D01*
X697639Y214564D01*
X1060842Y206693D02*
Y214564D01*
X1064777D01*
X1066089Y213253D01*
Y210629D01*
X1064777Y209317D01*
X1060842D01*
X1068713Y214564D02*
X1073961D01*
X1071337D01*
Y206693D01*
X1076585Y214564D02*
Y206693D01*
Y210629D01*
X1081832D01*
Y214564D01*
Y206693D01*
X1124447D02*
Y214564D01*
X1128383D01*
X1129695Y213253D01*
Y210629D01*
X1128383Y209317D01*
X1124447D01*
X1127071D02*
X1129695Y206693D01*
X1133631D02*
X1136255D01*
X1137566Y208005D01*
Y210629D01*
X1136255Y211941D01*
X1133631D01*
X1132319Y210629D01*
Y208005D01*
X1133631Y206693D01*
X1140190Y211941D02*
Y208005D01*
X1141502Y206693D01*
X1145438D01*
Y211941D01*
X1148062Y206693D02*
Y211941D01*
X1151998D01*
X1153310Y210629D01*
Y206693D01*
X1161181Y214564D02*
Y206693D01*
X1157245D01*
X1155933Y208005D01*
Y210629D01*
X1157245Y211941D01*
X1161181D01*
X499956Y190945D02*
X494708D01*
X499956Y196193D01*
Y197504D01*
X498644Y198817D01*
X496020D01*
X494708Y197504D01*
X583503Y190945D02*
X586127D01*
X584815D01*
Y198817D01*
X583503Y197504D01*
X590062Y192257D02*
X591374Y190945D01*
X593998D01*
X595310Y192257D01*
Y197504D01*
X593998Y198817D01*
X591374D01*
X590062Y197504D01*
Y196193D01*
X591374Y194881D01*
X595310D01*
X597934Y190945D02*
Y192257D01*
X599246D01*
Y190945D01*
X597934D01*
X609741Y198817D02*
X607117Y197504D01*
X604493Y194881D01*
Y192257D01*
X605805Y190945D01*
X608429D01*
X609741Y192257D01*
Y193569D01*
X608429Y194881D01*
X604493D01*
X612365Y197504D02*
X613677Y198817D01*
X616300D01*
X617612Y197504D01*
Y196193D01*
X616300Y194881D01*
X617612Y193569D01*
Y192257D01*
X616300Y190945D01*
X613677D01*
X612365Y192257D01*
Y193569D01*
X613677Y194881D01*
X612365Y196193D01*
Y197504D01*
X613677Y194881D02*
X616300D01*
X625484Y198817D02*
X620236D01*
Y194881D01*
X622860Y196193D01*
X624172D01*
X625484Y194881D01*
Y192257D01*
X624172Y190945D01*
X621548D01*
X620236Y192257D01*
X628108Y190945D02*
Y196193D01*
X629420D01*
X630731Y194881D01*
Y190945D01*
Y194881D01*
X632043Y196193D01*
X633355Y194881D01*
Y190945D01*
X635979D02*
X638603D01*
X637291D01*
Y196193D01*
X635979D01*
X642539Y190945D02*
X645162D01*
X643851D01*
Y198817D01*
X642539D01*
X659594Y190945D02*
X656970Y193569D01*
Y196193D01*
X659594Y198817D01*
X663529Y197504D02*
X664841Y198817D01*
X667465D01*
X668777Y197504D01*
Y192257D01*
X667465Y190945D01*
X664841D01*
X663529Y192257D01*
Y197504D01*
X671401Y190945D02*
Y192257D01*
X672713D01*
Y190945D01*
X671401D01*
X683208Y198817D02*
X677960D01*
Y194881D01*
X680584Y196193D01*
X681896D01*
X683208Y194881D01*
Y192257D01*
X681896Y190945D01*
X679272D01*
X677960Y192257D01*
X685832Y190945D02*
Y196193D01*
X687144D01*
X688456Y194881D01*
Y190945D01*
Y194881D01*
X689768Y196193D01*
X691080Y194881D01*
Y190945D01*
X693703D02*
Y196193D01*
X695015D01*
X696327Y194881D01*
Y190945D01*
Y194881D01*
X697639Y196193D01*
X698951Y194881D01*
Y190945D01*
X701575D02*
X704199Y193569D01*
Y196193D01*
X701575Y198817D01*
X1060842Y190945D02*
Y198817D01*
X1064777D01*
X1066089Y197504D01*
Y194881D01*
X1064777Y193569D01*
X1060842D01*
X1068713Y198817D02*
X1073961D01*
X1071337D01*
Y190945D01*
X1076585Y198817D02*
Y190945D01*
Y194881D01*
X1081832D01*
Y198817D01*
Y190945D01*
X1124447D02*
Y198817D01*
X1128383D01*
X1129695Y197504D01*
Y194881D01*
X1128383Y193569D01*
X1124447D01*
X1127071D02*
X1129695Y190945D01*
X1133631D02*
X1136255D01*
X1137566Y192257D01*
Y194881D01*
X1136255Y196193D01*
X1133631D01*
X1132319Y194881D01*
Y192257D01*
X1133631Y190945D01*
X1140190Y196193D02*
Y192257D01*
X1141502Y190945D01*
X1145438D01*
Y196193D01*
X1148062Y190945D02*
Y196193D01*
X1151998D01*
X1153310Y194881D01*
Y190945D01*
X1161181Y198817D02*
Y190945D01*
X1157245D01*
X1155933Y192257D01*
Y194881D01*
X1157245Y196193D01*
X1161181D01*
X499956Y175197D02*
X494708D01*
X499956Y180445D01*
Y181756D01*
X498644Y183068D01*
X496020D01*
X494708Y181756D01*
X588750Y175197D02*
X583503D01*
X588750Y180445D01*
Y181756D01*
X587438Y183068D01*
X584815D01*
X583503Y181756D01*
X596622Y183068D02*
X591374D01*
Y179133D01*
X593998Y180445D01*
X595310D01*
X596622Y179133D01*
Y176509D01*
X595310Y175197D01*
X592686D01*
X591374Y176509D01*
X599246Y175197D02*
Y176509D01*
X600558D01*
Y175197D01*
X599246D01*
X611053Y183068D02*
X605805D01*
Y179133D01*
X608429Y180445D01*
X609741D01*
X611053Y179133D01*
Y176509D01*
X609741Y175197D01*
X607117D01*
X605805Y176509D01*
X613677D02*
X614989Y175197D01*
X617612D01*
X618924Y176509D01*
Y181756D01*
X617612Y183068D01*
X614989D01*
X613677Y181756D01*
Y180445D01*
X614989Y179133D01*
X618924D01*
X621548Y175197D02*
X624172D01*
X622860D01*
Y183068D01*
X621548Y181756D01*
X628108Y175197D02*
Y180445D01*
X629420D01*
X630731Y179133D01*
Y175197D01*
Y179133D01*
X632043Y180445D01*
X633355Y179133D01*
Y175197D01*
X635979D02*
X638603D01*
X637291D01*
Y180445D01*
X635979D01*
X642539Y175197D02*
X645162D01*
X643851D01*
Y183068D01*
X642539D01*
X659594Y175197D02*
X656970Y177821D01*
Y180445D01*
X659594Y183068D01*
X663529Y181756D02*
X664841Y183068D01*
X667465D01*
X668777Y181756D01*
Y176509D01*
X667465Y175197D01*
X664841D01*
X663529Y176509D01*
Y181756D01*
X671401Y175197D02*
Y176509D01*
X672713D01*
Y175197D01*
X671401D01*
X683208Y183068D02*
X680584Y181756D01*
X677960Y179133D01*
Y176509D01*
X679272Y175197D01*
X681896D01*
X683208Y176509D01*
Y177821D01*
X681896Y179133D01*
X677960D01*
X691080Y183068D02*
X685832D01*
Y179133D01*
X688456Y180445D01*
X689768D01*
X691080Y179133D01*
Y176509D01*
X689768Y175197D01*
X687144D01*
X685832Y176509D01*
X693703Y175197D02*
Y180445D01*
X695015D01*
X696327Y179133D01*
Y175197D01*
Y179133D01*
X697639Y180445D01*
X698951Y179133D01*
Y175197D01*
X701575D02*
Y180445D01*
X702887D01*
X704199Y179133D01*
Y175197D01*
Y179133D01*
X705511Y180445D01*
X706822Y179133D01*
Y175197D01*
X709446D02*
X712070Y177821D01*
Y180445D01*
X709446Y183068D01*
X1060842Y175197D02*
Y183068D01*
X1064777D01*
X1066089Y181756D01*
Y179133D01*
X1064777Y177821D01*
X1060842D01*
X1068713Y183068D02*
X1073961D01*
X1071337D01*
Y175197D01*
X1076585Y183068D02*
Y175197D01*
Y179133D01*
X1081832D01*
Y183068D01*
Y175197D01*
X1124447D02*
Y183068D01*
X1128383D01*
X1129695Y181756D01*
Y179133D01*
X1128383Y177821D01*
X1124447D01*
X1127071D02*
X1129695Y175197D01*
X1133631D02*
X1136255D01*
X1137566Y176509D01*
Y179133D01*
X1136255Y180445D01*
X1133631D01*
X1132319Y179133D01*
Y176509D01*
X1133631Y175197D01*
X1140190Y180445D02*
Y176509D01*
X1141502Y175197D01*
X1145438D01*
Y180445D01*
X1148062Y175197D02*
Y180445D01*
X1151998D01*
X1153310Y179133D01*
Y175197D01*
X1161181Y183068D02*
Y175197D01*
X1157245D01*
X1155933Y176509D01*
Y179133D01*
X1157245Y180445D01*
X1161181D01*
X498644Y159449D02*
Y167320D01*
X494708Y163385D01*
X499956D01*
X583503Y166008D02*
X584815Y167320D01*
X587438D01*
X588750Y166008D01*
Y164697D01*
X587438Y163385D01*
X586127D01*
X587438D01*
X588750Y162073D01*
Y160761D01*
X587438Y159449D01*
X584815D01*
X583503Y160761D01*
X591374Y166008D02*
X592686Y167320D01*
X595310D01*
X596622Y166008D01*
Y160761D01*
X595310Y159449D01*
X592686D01*
X591374Y160761D01*
Y166008D01*
X599246Y159449D02*
Y164697D01*
X600558D01*
X601869Y163385D01*
Y159449D01*
Y163385D01*
X603181Y164697D01*
X604493Y163385D01*
Y159449D01*
X607117D02*
X609741D01*
X608429D01*
Y164697D01*
X607117D01*
X613677Y159449D02*
X616300D01*
X614989D01*
Y167320D01*
X613677D01*
X630731Y159449D02*
X628108Y162073D01*
Y164697D01*
X630731Y167320D01*
X634667Y166008D02*
X635979Y167320D01*
X638603D01*
X639915Y166008D01*
Y160761D01*
X638603Y159449D01*
X635979D01*
X634667Y160761D01*
Y166008D01*
X642539Y159449D02*
Y160761D01*
X643851D01*
Y159449D01*
X642539D01*
X649098Y167320D02*
X654346D01*
Y166008D01*
X649098Y160761D01*
Y159449D01*
X662217Y167320D02*
X659594Y166008D01*
X656970Y163385D01*
Y160761D01*
X658282Y159449D01*
X660906D01*
X662217Y160761D01*
Y162073D01*
X660906Y163385D01*
X656970D01*
X670089Y159449D02*
X664841D01*
X670089Y164697D01*
Y166008D01*
X668777Y167320D01*
X666153D01*
X664841Y166008D01*
X672713Y159449D02*
Y164697D01*
X674025D01*
X675337Y163385D01*
Y159449D01*
Y163385D01*
X676648Y164697D01*
X677960Y163385D01*
Y159449D01*
X680584D02*
Y164697D01*
X681896D01*
X683208Y163385D01*
Y159449D01*
Y163385D01*
X684520Y164697D01*
X685832Y163385D01*
Y159449D01*
X688456D02*
X691080Y162073D01*
Y164697D01*
X688456Y167320D01*
X1060842Y159449D02*
Y167320D01*
X1064777D01*
X1066089Y166008D01*
Y163385D01*
X1064777Y162073D01*
X1060842D01*
X1068713Y167320D02*
X1073961D01*
X1071337D01*
Y159449D01*
X1076585Y167320D02*
Y159449D01*
Y163385D01*
X1081832D01*
Y167320D01*
Y159449D01*
X1124447D02*
Y167320D01*
X1128383D01*
X1129695Y166008D01*
Y163385D01*
X1128383Y162073D01*
X1124447D01*
X1127071D02*
X1129695Y159449D01*
X1133631D02*
X1136255D01*
X1137566Y160761D01*
Y163385D01*
X1136255Y164697D01*
X1133631D01*
X1132319Y163385D01*
Y160761D01*
X1133631Y159449D01*
X1140190Y164697D02*
Y160761D01*
X1141502Y159449D01*
X1145438D01*
Y164697D01*
X1148062Y159449D02*
Y164697D01*
X1151998D01*
X1153310Y163385D01*
Y159449D01*
X1161181Y167320D02*
Y159449D01*
X1157245D01*
X1155933Y160761D01*
Y163385D01*
X1157245Y164697D01*
X1161181D01*
X499956Y143701D02*
X494708D01*
X499956Y148949D01*
Y150260D01*
X498644Y151572D01*
X496020D01*
X494708Y150260D01*
X583503D02*
X584815Y151572D01*
X587438D01*
X588750Y150260D01*
Y148949D01*
X587438Y147637D01*
X586127D01*
X587438D01*
X588750Y146325D01*
Y145013D01*
X587438Y143701D01*
X584815D01*
X583503Y145013D01*
X591374Y143701D02*
X593998D01*
X592686D01*
Y151572D01*
X591374Y150260D01*
X597934Y143701D02*
Y145013D01*
X599246D01*
Y143701D01*
X597934D01*
X608429D02*
Y151572D01*
X604493Y147637D01*
X609741D01*
X612365Y145013D02*
X613677Y143701D01*
X616300D01*
X617612Y145013D01*
Y150260D01*
X616300Y151572D01*
X613677D01*
X612365Y150260D01*
Y148949D01*
X613677Y147637D01*
X617612D01*
X625484Y151572D02*
X622860Y150260D01*
X620236Y147637D01*
Y145013D01*
X621548Y143701D01*
X624172D01*
X625484Y145013D01*
Y146325D01*
X624172Y147637D01*
X620236D01*
X628108Y143701D02*
Y148949D01*
X629420D01*
X630731Y147637D01*
Y143701D01*
Y147637D01*
X632043Y148949D01*
X633355Y147637D01*
Y143701D01*
X635979D02*
X638603D01*
X637291D01*
Y148949D01*
X635979D01*
X642539Y143701D02*
X645162D01*
X643851D01*
Y151572D01*
X642539D01*
X659594Y143701D02*
X656970Y146325D01*
Y148949D01*
X659594Y151572D01*
X663529Y150260D02*
X664841Y151572D01*
X667465D01*
X668777Y150260D01*
Y145013D01*
X667465Y143701D01*
X664841D01*
X663529Y145013D01*
Y150260D01*
X671401Y143701D02*
Y145013D01*
X672713D01*
Y143701D01*
X671401D01*
X677960Y150260D02*
X679272Y151572D01*
X681896D01*
X683208Y150260D01*
Y148949D01*
X681896Y147637D01*
X683208Y146325D01*
Y145013D01*
X681896Y143701D01*
X679272D01*
X677960Y145013D01*
Y146325D01*
X679272Y147637D01*
X677960Y148949D01*
Y150260D01*
X679272Y147637D02*
X681896D01*
X685832Y143701D02*
Y148949D01*
X687144D01*
X688456Y147637D01*
Y143701D01*
Y147637D01*
X689768Y148949D01*
X691080Y147637D01*
Y143701D01*
X693703D02*
Y148949D01*
X695015D01*
X696327Y147637D01*
Y143701D01*
Y147637D01*
X697639Y148949D01*
X698951Y147637D01*
Y143701D01*
X701575D02*
X704199Y146325D01*
Y148949D01*
X701575Y151572D01*
X1060842Y143701D02*
Y151572D01*
X1064777D01*
X1066089Y150260D01*
Y147637D01*
X1064777Y146325D01*
X1060842D01*
X1068713Y151572D02*
X1073961D01*
X1071337D01*
Y143701D01*
X1076585Y151572D02*
Y143701D01*
Y147637D01*
X1081832D01*
Y151572D01*
Y143701D01*
X1124447D02*
Y151572D01*
X1128383D01*
X1129695Y150260D01*
Y147637D01*
X1128383Y146325D01*
X1124447D01*
X1127071D02*
X1129695Y143701D01*
X1133631D02*
X1136255D01*
X1137566Y145013D01*
Y147637D01*
X1136255Y148949D01*
X1133631D01*
X1132319Y147637D01*
Y145013D01*
X1133631Y143701D01*
X1140190Y148949D02*
Y145013D01*
X1141502Y143701D01*
X1145438D01*
Y148949D01*
X1148062Y143701D02*
Y148949D01*
X1151998D01*
X1153310Y147637D01*
Y143701D01*
X1161181Y151572D02*
Y143701D01*
X1157245D01*
X1155933Y145013D01*
Y147637D01*
X1157245Y148949D01*
X1161181D01*
X499956Y127953D02*
X494708D01*
X499956Y133201D01*
Y134512D01*
X498644Y135824D01*
X496020D01*
X494708Y134512D01*
X506515Y127953D02*
Y135824D01*
X502580Y131889D01*
X507827D01*
X583503Y134512D02*
X584815Y135824D01*
X587438D01*
X588750Y134512D01*
Y133201D01*
X587438Y131889D01*
X586127D01*
X587438D01*
X588750Y130577D01*
Y129265D01*
X587438Y127953D01*
X584815D01*
X583503Y129265D01*
X596622Y135824D02*
X591374D01*
Y131889D01*
X593998Y133201D01*
X595310D01*
X596622Y131889D01*
Y129265D01*
X595310Y127953D01*
X592686D01*
X591374Y129265D01*
X599246Y127953D02*
Y129265D01*
X600558D01*
Y127953D01*
X599246D01*
X609741D02*
Y135824D01*
X605805Y131889D01*
X611053D01*
X613677Y134512D02*
X614989Y135824D01*
X617612D01*
X618924Y134512D01*
Y133201D01*
X617612Y131889D01*
X616300D01*
X617612D01*
X618924Y130577D01*
Y129265D01*
X617612Y127953D01*
X614989D01*
X613677Y129265D01*
X621548Y134512D02*
X622860Y135824D01*
X625484D01*
X626796Y134512D01*
Y133201D01*
X625484Y131889D01*
X624172D01*
X625484D01*
X626796Y130577D01*
Y129265D01*
X625484Y127953D01*
X622860D01*
X621548Y129265D01*
X629420Y127953D02*
Y133201D01*
X630731D01*
X632043Y131889D01*
Y127953D01*
Y131889D01*
X633355Y133201D01*
X634667Y131889D01*
Y127953D01*
X637291D02*
X639915D01*
X638603D01*
Y133201D01*
X637291D01*
X643851Y127953D02*
X646474D01*
X645162D01*
Y135824D01*
X643851D01*
X660906Y127953D02*
X658282Y130577D01*
Y133201D01*
X660906Y135824D01*
X664841Y134512D02*
X666153Y135824D01*
X668777D01*
X670089Y134512D01*
Y129265D01*
X668777Y127953D01*
X666153D01*
X664841Y129265D01*
Y134512D01*
X672713Y127953D02*
Y129265D01*
X674025D01*
Y127953D01*
X672713D01*
X679272Y129265D02*
X680584Y127953D01*
X683208D01*
X684520Y129265D01*
Y134512D01*
X683208Y135824D01*
X680584D01*
X679272Y134512D01*
Y133201D01*
X680584Y131889D01*
X684520D01*
X687144Y127953D02*
Y133201D01*
X688456D01*
X689768Y131889D01*
Y127953D01*
Y131889D01*
X691080Y133201D01*
X692391Y131889D01*
Y127953D01*
X695015D02*
Y133201D01*
X696327D01*
X697639Y131889D01*
Y127953D01*
Y131889D01*
X698951Y133201D01*
X700263Y131889D01*
Y127953D01*
X702887D02*
X705511Y130577D01*
Y133201D01*
X702887Y135824D01*
X1060842Y127953D02*
Y135824D01*
X1064777D01*
X1066089Y134512D01*
Y131889D01*
X1064777Y130577D01*
X1060842D01*
X1068713Y135824D02*
X1073961D01*
X1071337D01*
Y127953D01*
X1076585Y135824D02*
Y127953D01*
Y131889D01*
X1081832D01*
Y135824D01*
Y127953D01*
X1124447D02*
Y135824D01*
X1128383D01*
X1129695Y134512D01*
Y131889D01*
X1128383Y130577D01*
X1124447D01*
X1127071D02*
X1129695Y127953D01*
X1133631D02*
X1136255D01*
X1137566Y129265D01*
Y131889D01*
X1136255Y133201D01*
X1133631D01*
X1132319Y131889D01*
Y129265D01*
X1133631Y127953D01*
X1140190Y133201D02*
Y129265D01*
X1141502Y127953D01*
X1145438D01*
Y133201D01*
X1148062Y127953D02*
Y133201D01*
X1151998D01*
X1153310Y131889D01*
Y127953D01*
X1161181Y135824D02*
Y127953D01*
X1157245D01*
X1155933Y129265D01*
Y131889D01*
X1157245Y133201D01*
X1161181D01*
X499956Y120076D02*
X494708D01*
Y116140D01*
X497332Y117452D01*
X498644D01*
X499956Y116140D01*
Y113517D01*
X498644Y112205D01*
X496020D01*
X494708Y113517D01*
X583503Y118764D02*
X584815Y120076D01*
X587438D01*
X588750Y118764D01*
Y117452D01*
X587438Y116140D01*
X586127D01*
X587438D01*
X588750Y114829D01*
Y113517D01*
X587438Y112205D01*
X584815D01*
X583503Y113517D01*
X591374D02*
X592686Y112205D01*
X595310D01*
X596622Y113517D01*
Y118764D01*
X595310Y120076D01*
X592686D01*
X591374Y118764D01*
Y117452D01*
X592686Y116140D01*
X596622D01*
X599246Y112205D02*
Y113517D01*
X600558D01*
Y112205D01*
X599246D01*
X605805Y118764D02*
X607117Y120076D01*
X609741D01*
X611053Y118764D01*
Y117452D01*
X609741Y116140D01*
X608429D01*
X609741D01*
X611053Y114829D01*
Y113517D01*
X609741Y112205D01*
X607117D01*
X605805Y113517D01*
X613677Y120076D02*
X618924D01*
Y118764D01*
X613677Y113517D01*
Y112205D01*
X621548D02*
Y117452D01*
X622860D01*
X624172Y116140D01*
Y112205D01*
Y116140D01*
X625484Y117452D01*
X626796Y116140D01*
Y112205D01*
X629420D02*
X632043D01*
X630731D01*
Y117452D01*
X629420D01*
X635979Y112205D02*
X638603D01*
X637291D01*
Y120076D01*
X635979D01*
X653034Y112205D02*
X650410Y114829D01*
Y117452D01*
X653034Y120076D01*
X656970Y112205D02*
X659594D01*
X658282D01*
Y120076D01*
X656970Y118764D01*
X663529Y112205D02*
Y117452D01*
X664841D01*
X666153Y116140D01*
Y112205D01*
Y116140D01*
X667465Y117452D01*
X668777Y116140D01*
Y112205D01*
X671401D02*
Y117452D01*
X672713D01*
X674025Y116140D01*
Y112205D01*
Y116140D01*
X675337Y117452D01*
X676648Y116140D01*
Y112205D01*
X679272D02*
X681896Y114829D01*
Y117452D01*
X679272Y120076D01*
X1060842Y112205D02*
Y120076D01*
X1064777D01*
X1066089Y118764D01*
Y116140D01*
X1064777Y114829D01*
X1060842D01*
X1068713Y120076D02*
X1073961D01*
X1071337D01*
Y112205D01*
X1076585Y120076D02*
Y112205D01*
Y116140D01*
X1081832D01*
Y120076D01*
Y112205D01*
X1124447D02*
Y120076D01*
X1128383D01*
X1129695Y118764D01*
Y116140D01*
X1128383Y114829D01*
X1124447D01*
X1127071D02*
X1129695Y112205D01*
X1133631D02*
X1136255D01*
X1137566Y113517D01*
Y116140D01*
X1136255Y117452D01*
X1133631D01*
X1132319Y116140D01*
Y113517D01*
X1133631Y112205D01*
X1140190Y117452D02*
Y113517D01*
X1141502Y112205D01*
X1145438D01*
Y117452D01*
X1148062Y112205D02*
Y117452D01*
X1151998D01*
X1153310Y116140D01*
Y112205D01*
X1161181Y120076D02*
Y112205D01*
X1157245D01*
X1155933Y113517D01*
Y116140D01*
X1157245Y117452D01*
X1161181D01*
X499956Y104328D02*
X497332Y103016D01*
X494708Y100392D01*
Y97769D01*
X496020Y96457D01*
X498644D01*
X499956Y97769D01*
Y99081D01*
X498644Y100392D01*
X494708D01*
X587438Y96457D02*
Y104328D01*
X583503Y100392D01*
X588750D01*
X591374Y104328D02*
X596622D01*
Y103016D01*
X591374Y97769D01*
Y96457D01*
X599246D02*
Y97769D01*
X600558D01*
Y96457D01*
X599246D01*
X611053D02*
X605805D01*
X611053Y101704D01*
Y103016D01*
X609741Y104328D01*
X607117D01*
X605805Y103016D01*
X617612Y96457D02*
Y104328D01*
X613677Y100392D01*
X618924D01*
X625484Y96457D02*
Y104328D01*
X621548Y100392D01*
X626796D01*
X629420Y96457D02*
Y101704D01*
X630731D01*
X632043Y100392D01*
Y96457D01*
Y100392D01*
X633355Y101704D01*
X634667Y100392D01*
Y96457D01*
X637291D02*
X639915D01*
X638603D01*
Y101704D01*
X637291D01*
X643851Y96457D02*
X646474D01*
X645162D01*
Y104328D01*
X643851D01*
X660906Y96457D02*
X658282Y99081D01*
Y101704D01*
X660906Y104328D01*
X664841Y96457D02*
X667465D01*
X666153D01*
Y104328D01*
X664841Y103016D01*
X671401Y96457D02*
Y97769D01*
X672713D01*
Y96457D01*
X671401D01*
X683208D02*
X677960D01*
X683208Y101704D01*
Y103016D01*
X681896Y104328D01*
X679272D01*
X677960Y103016D01*
X685832Y96457D02*
Y101704D01*
X687144D01*
X688456Y100392D01*
Y96457D01*
Y100392D01*
X689768Y101704D01*
X691080Y100392D01*
Y96457D01*
X693703D02*
Y101704D01*
X695015D01*
X696327Y100392D01*
Y96457D01*
Y100392D01*
X697639Y101704D01*
X698951Y100392D01*
Y96457D01*
X701575D02*
X704199Y99081D01*
Y101704D01*
X701575Y104328D01*
X1060842Y96457D02*
Y104328D01*
X1064777D01*
X1066089Y103016D01*
Y100392D01*
X1064777Y99081D01*
X1060842D01*
X1068713Y104328D02*
X1073961D01*
X1071337D01*
Y96457D01*
X1076585Y104328D02*
Y96457D01*
Y100392D01*
X1081832D01*
Y104328D01*
Y96457D01*
X1124447D02*
Y104328D01*
X1128383D01*
X1129695Y103016D01*
Y100392D01*
X1128383Y99081D01*
X1124447D01*
X1127071D02*
X1129695Y96457D01*
X1133631D02*
X1136255D01*
X1137566Y97769D01*
Y100392D01*
X1136255Y101704D01*
X1133631D01*
X1132319Y100392D01*
Y97769D01*
X1133631Y96457D01*
X1140190Y101704D02*
Y97769D01*
X1141502Y96457D01*
X1145438D01*
Y101704D01*
X1148062Y96457D02*
Y101704D01*
X1151998D01*
X1153310Y100392D01*
Y96457D01*
X1161181Y104328D02*
Y96457D01*
X1157245D01*
X1155933Y97769D01*
Y100392D01*
X1157245Y101704D01*
X1161181D01*
X498644Y80709D02*
Y88580D01*
X494708Y84644D01*
X499956D01*
X583503Y80709D02*
X586127D01*
X584815D01*
Y88580D01*
X583503Y87268D01*
X595310Y80709D02*
X590062D01*
X595310Y85956D01*
Y87268D01*
X593998Y88580D01*
X591374D01*
X590062Y87268D01*
X603181Y88580D02*
X597934D01*
Y84644D01*
X600558Y85956D01*
X601869D01*
X603181Y84644D01*
Y82021D01*
X601869Y80709D01*
X599246D01*
X597934Y82021D01*
X605805Y80709D02*
Y82021D01*
X607117D01*
Y80709D01*
X605805D01*
X612365Y82021D02*
X613677Y80709D01*
X616300D01*
X617612Y82021D01*
Y87268D01*
X616300Y88580D01*
X613677D01*
X612365Y87268D01*
Y85956D01*
X613677Y84644D01*
X617612D01*
X620236Y87268D02*
X621548Y88580D01*
X624172D01*
X625484Y87268D01*
Y85956D01*
X624172Y84644D01*
X625484Y83333D01*
Y82021D01*
X624172Y80709D01*
X621548D01*
X620236Y82021D01*
Y83333D01*
X621548Y84644D01*
X620236Y85956D01*
Y87268D01*
X621548Y84644D02*
X624172D01*
X632043Y80709D02*
Y88580D01*
X628108Y84644D01*
X633355D01*
X635979Y80709D02*
Y85956D01*
X637291D01*
X638603Y84644D01*
Y80709D01*
Y84644D01*
X639915Y85956D01*
X641227Y84644D01*
Y80709D01*
X643851D02*
X646474D01*
X645162D01*
Y85956D01*
X643851D01*
X650410Y80709D02*
X653034D01*
X651722D01*
Y88580D01*
X650410D01*
X667465Y80709D02*
X664841Y83333D01*
Y85956D01*
X667465Y88580D01*
X671401Y87268D02*
X672713Y88580D01*
X675337D01*
X676648Y87268D01*
Y85956D01*
X675337Y84644D01*
X674025D01*
X675337D01*
X676648Y83333D01*
Y82021D01*
X675337Y80709D01*
X672713D01*
X671401Y82021D01*
X679272Y80709D02*
Y82021D01*
X680584D01*
Y80709D01*
X679272D01*
X691080D02*
X685832D01*
X691080Y85956D01*
Y87268D01*
X689768Y88580D01*
X687144D01*
X685832Y87268D01*
X693703Y80709D02*
Y85956D01*
X695015D01*
X696327Y84644D01*
Y80709D01*
Y84644D01*
X697639Y85956D01*
X698951Y84644D01*
Y80709D01*
X701575D02*
Y85956D01*
X702887D01*
X704199Y84644D01*
Y80709D01*
Y84644D01*
X705511Y85956D01*
X706822Y84644D01*
Y80709D01*
X709446D02*
X712070Y83333D01*
Y85956D01*
X709446Y88580D01*
X1060842Y80709D02*
Y88580D01*
X1066089Y80709D01*
Y88580D01*
X1068713Y80709D02*
Y88580D01*
X1072649D01*
X1073961Y87268D01*
Y84644D01*
X1072649Y83333D01*
X1068713D01*
X1076585Y88580D02*
X1081832D01*
X1079208D01*
Y80709D01*
X1084456Y88580D02*
Y80709D01*
Y84644D01*
X1089704D01*
Y88580D01*
Y80709D01*
X1124447D02*
Y88580D01*
X1128383D01*
X1129695Y87268D01*
Y84644D01*
X1128383Y83333D01*
X1124447D01*
X1127071D02*
X1129695Y80709D01*
X1133631D02*
X1136255D01*
X1137566Y82021D01*
Y84644D01*
X1136255Y85956D01*
X1133631D01*
X1132319Y84644D01*
Y82021D01*
X1133631Y80709D01*
X1140190Y85956D02*
Y82021D01*
X1141502Y80709D01*
X1145438D01*
Y85956D01*
X1148062Y80709D02*
Y85956D01*
X1151998D01*
X1153310Y84644D01*
Y80709D01*
X1161181Y88580D02*
Y80709D01*
X1157245D01*
X1155933Y82021D01*
Y84644D01*
X1157245Y85956D01*
X1161181D01*
X499956Y64961D02*
X494708D01*
X499956Y70208D01*
Y71520D01*
X498644Y72832D01*
X496020D01*
X494708Y71520D01*
X583503Y72832D02*
X588750D01*
Y71520D01*
X583503Y66273D01*
Y64961D01*
X591374Y71520D02*
X592686Y72832D01*
X595310D01*
X596622Y71520D01*
Y66273D01*
X595310Y64961D01*
X592686D01*
X591374Y66273D01*
Y71520D01*
X599246Y64961D02*
Y66273D01*
X600558D01*
Y64961D01*
X599246D01*
X605805Y71520D02*
X607117Y72832D01*
X609741D01*
X611053Y71520D01*
Y70208D01*
X609741Y68896D01*
X611053Y67585D01*
Y66273D01*
X609741Y64961D01*
X607117D01*
X605805Y66273D01*
Y67585D01*
X607117Y68896D01*
X605805Y70208D01*
Y71520D01*
X607117Y68896D02*
X609741D01*
X618924Y72832D02*
X616300Y71520D01*
X613677Y68896D01*
Y66273D01*
X614989Y64961D01*
X617612D01*
X618924Y66273D01*
Y67585D01*
X617612Y68896D01*
X613677D01*
X626796Y72832D02*
X624172Y71520D01*
X621548Y68896D01*
Y66273D01*
X622860Y64961D01*
X625484D01*
X626796Y66273D01*
Y67585D01*
X625484Y68896D01*
X621548D01*
X629420Y64961D02*
Y70208D01*
X630731D01*
X632043Y68896D01*
Y64961D01*
Y68896D01*
X633355Y70208D01*
X634667Y68896D01*
Y64961D01*
X637291D02*
X639915D01*
X638603D01*
Y70208D01*
X637291D01*
X643851Y64961D02*
X646474D01*
X645162D01*
Y72832D01*
X643851D01*
X660906Y64961D02*
X658282Y67585D01*
Y70208D01*
X660906Y72832D01*
X664841Y64961D02*
X667465D01*
X666153D01*
Y72832D01*
X664841Y71520D01*
X671401Y64961D02*
Y66273D01*
X672713D01*
Y64961D01*
X671401D01*
X677960Y71520D02*
X679272Y72832D01*
X681896D01*
X683208Y71520D01*
Y70208D01*
X681896Y68896D01*
X683208Y67585D01*
Y66273D01*
X681896Y64961D01*
X679272D01*
X677960Y66273D01*
Y67585D01*
X679272Y68896D01*
X677960Y70208D01*
Y71520D01*
X679272Y68896D02*
X681896D01*
X685832Y64961D02*
Y70208D01*
X687144D01*
X688456Y68896D01*
Y64961D01*
Y68896D01*
X689768Y70208D01*
X691080Y68896D01*
Y64961D01*
X693703D02*
Y70208D01*
X695015D01*
X696327Y68896D01*
Y64961D01*
Y68896D01*
X697639Y70208D01*
X698951Y68896D01*
Y64961D01*
X701575D02*
X704199Y67585D01*
Y70208D01*
X701575Y72832D01*
X757309Y64961D02*
X759933D01*
X758621D01*
Y72832D01*
X757309Y71520D01*
X763869D02*
X765180Y72832D01*
X767804D01*
X769116Y71520D01*
Y70208D01*
X767804Y68896D01*
X766492D01*
X767804D01*
X769116Y67585D01*
Y66273D01*
X767804Y64961D01*
X765180D01*
X763869Y66273D01*
X771740Y72832D02*
X776988D01*
Y71520D01*
X771740Y66273D01*
Y64961D01*
X779612D02*
Y66273D01*
X780924D01*
Y64961D01*
X779612D01*
X786171Y72832D02*
X791419D01*
Y71520D01*
X786171Y66273D01*
Y64961D01*
X794043Y66273D02*
X795355Y64961D01*
X797978D01*
X799290Y66273D01*
Y71520D01*
X797978Y72832D01*
X795355D01*
X794043Y71520D01*
Y70208D01*
X795355Y68896D01*
X799290D01*
X807162Y72832D02*
X801914D01*
Y68896D01*
X804538Y70208D01*
X805850D01*
X807162Y68896D01*
Y66273D01*
X805850Y64961D01*
X803226D01*
X801914Y66273D01*
X809786Y64961D02*
Y70208D01*
X811098D01*
X812409Y68896D01*
Y64961D01*
Y68896D01*
X813721Y70208D01*
X815033Y68896D01*
Y64961D01*
X817657D02*
X820281D01*
X818969D01*
Y70208D01*
X817657D01*
X824217Y64961D02*
X826840D01*
X825529D01*
Y72832D01*
X824217D01*
X841271Y64961D02*
X838648Y67585D01*
Y70208D01*
X841271Y72832D01*
X845207Y71520D02*
X846519Y72832D01*
X849143D01*
X850455Y71520D01*
Y70208D01*
X849143Y68896D01*
X847831D01*
X849143D01*
X850455Y67585D01*
Y66273D01*
X849143Y64961D01*
X846519D01*
X845207Y66273D01*
X853079Y64961D02*
Y66273D01*
X854391D01*
Y64961D01*
X853079D01*
X864886Y72832D02*
X859638D01*
Y68896D01*
X862262Y70208D01*
X863574D01*
X864886Y68896D01*
Y66273D01*
X863574Y64961D01*
X860950D01*
X859638Y66273D01*
X867510Y64961D02*
Y70208D01*
X868822D01*
X870133Y68896D01*
Y64961D01*
Y68896D01*
X871445Y70208D01*
X872757Y68896D01*
Y64961D01*
X875381D02*
Y70208D01*
X876693D01*
X878005Y68896D01*
Y64961D01*
Y68896D01*
X879317Y70208D01*
X880629Y68896D01*
Y64961D01*
X883253D02*
X885876Y67585D01*
Y70208D01*
X883253Y72832D01*
X909600D02*
X906976Y71520D01*
X904352Y68896D01*
Y66273D01*
X905664Y64961D01*
X908288D01*
X909600Y66273D01*
Y67585D01*
X908288Y68896D01*
X904352D01*
X917472Y72832D02*
X914848Y71520D01*
X912224Y68896D01*
Y66273D01*
X913536Y64961D01*
X916160D01*
X917472Y66273D01*
Y67585D01*
X916160Y68896D01*
X912224D01*
X920095Y64961D02*
Y66273D01*
X921407D01*
Y64961D01*
X920095D01*
X926655Y66273D02*
X927967Y64961D01*
X930591D01*
X931903Y66273D01*
Y71520D01*
X930591Y72832D01*
X927967D01*
X926655Y71520D01*
Y70208D01*
X927967Y68896D01*
X931903D01*
X939774Y64961D02*
X934526D01*
X939774Y70208D01*
Y71520D01*
X938462Y72832D01*
X935838D01*
X934526Y71520D01*
X942398Y66273D02*
X943710Y64961D01*
X946334D01*
X947646Y66273D01*
Y71520D01*
X946334Y72832D01*
X943710D01*
X942398Y71520D01*
Y70208D01*
X943710Y68896D01*
X947646D01*
X950269Y64961D02*
Y70208D01*
X951581D01*
X952893Y68896D01*
Y64961D01*
Y68896D01*
X954205Y70208D01*
X955517Y68896D01*
Y64961D01*
X958141D02*
X960765D01*
X959453D01*
Y70208D01*
X958141D01*
X964700Y64961D02*
X967324D01*
X966012D01*
Y72832D01*
X964700D01*
X981755Y64961D02*
X979132Y67585D01*
Y70208D01*
X981755Y72832D01*
X985691Y64961D02*
X988315D01*
X987003D01*
Y72832D01*
X985691Y71520D01*
X992251Y64961D02*
Y66273D01*
X993563D01*
Y64961D01*
X992251D01*
X998810Y72832D02*
X1004058D01*
Y71520D01*
X998810Y66273D01*
Y64961D01*
X1006682D02*
Y70208D01*
X1007994D01*
X1009305Y68896D01*
Y64961D01*
Y68896D01*
X1010617Y70208D01*
X1011929Y68896D01*
Y64961D01*
X1014553D02*
Y70208D01*
X1015865D01*
X1017177Y68896D01*
Y64961D01*
Y68896D01*
X1018489Y70208D01*
X1019801Y68896D01*
Y64961D01*
X1022425D02*
X1025048Y67585D01*
Y70208D01*
X1022425Y72832D01*
X1060842Y64961D02*
Y72832D01*
X1064777D01*
X1066089Y71520D01*
Y68896D01*
X1064777Y67585D01*
X1060842D01*
X1068713Y72832D02*
X1073961D01*
X1071337D01*
Y64961D01*
X1076585Y72832D02*
Y64961D01*
Y68896D01*
X1081832D01*
Y72832D01*
Y64961D01*
X1129695Y71520D02*
X1128383Y72832D01*
X1125759D01*
X1124447Y71520D01*
Y70208D01*
X1125759Y68896D01*
X1128383D01*
X1129695Y67585D01*
Y66273D01*
X1128383Y64961D01*
X1125759D01*
X1124447Y66273D01*
X1132319Y64961D02*
X1134943D01*
X1133631D01*
Y72832D01*
X1132319D01*
X1140190Y64961D02*
X1142814D01*
X1144126Y66273D01*
Y68896D01*
X1142814Y70208D01*
X1140190D01*
X1138878Y68896D01*
Y66273D01*
X1140190Y64961D01*
X1148062Y71520D02*
Y70208D01*
X1146750D01*
X1149374D01*
X1148062D01*
Y66273D01*
X1149374Y64961D01*
X494708Y50524D02*
X496020Y49213D01*
X498644D01*
X499956Y50524D01*
Y55772D01*
X498644Y57084D01*
X496020D01*
X494708Y55772D01*
Y54460D01*
X496020Y53148D01*
X499956D01*
X502580Y55772D02*
X503892Y57084D01*
X506515D01*
X507827Y55772D01*
Y54460D01*
X506515Y53148D01*
X507827Y51836D01*
Y50524D01*
X506515Y49213D01*
X503892D01*
X502580Y50524D01*
Y51836D01*
X503892Y53148D01*
X502580Y54460D01*
Y55772D01*
X503892Y53148D02*
X506515D01*
X520111Y57084D02*
X525358D01*
X522735D01*
Y49213D01*
X529294D02*
X531918D01*
X533230Y50524D01*
Y53148D01*
X531918Y54460D01*
X529294D01*
X527982Y53148D01*
Y50524D01*
X529294Y49213D01*
X537166Y55772D02*
Y54460D01*
X535854D01*
X538478D01*
X537166D01*
Y50524D01*
X538478Y49213D01*
X543725Y54460D02*
X546349D01*
X547661Y53148D01*
Y49213D01*
X543725D01*
X542413Y50524D01*
X543725Y51836D01*
X547661D01*
X550285Y49213D02*
X552909D01*
X551597D01*
Y57084D01*
X550285D01*
X699420Y36088D02*
X704667D01*
X699420Y38712D02*
X704667D01*
X720410Y40024D02*
X719098Y41336D01*
X716474D01*
X715163Y40024D01*
Y34776D01*
X716474Y33465D01*
X719098D01*
X720410Y34776D01*
X724346Y38712D02*
X726970D01*
X728282Y37400D01*
Y33465D01*
X724346D01*
X723034Y34776D01*
X724346Y36088D01*
X728282D01*
X730906Y33465D02*
X733529D01*
X732218D01*
Y41336D01*
X730906D01*
X742713Y38712D02*
X738777D01*
X737465Y37400D01*
Y34776D01*
X738777Y33465D01*
X742713D01*
X745337Y38712D02*
Y34776D01*
X746649Y33465D01*
X750584D01*
Y38712D01*
X753208Y33465D02*
X755832D01*
X754520D01*
Y41336D01*
X753208D01*
X761080Y38712D02*
X763703D01*
X765015Y37400D01*
Y33465D01*
X761080D01*
X759768Y34776D01*
X761080Y36088D01*
X765015D01*
X768951Y40024D02*
Y38712D01*
X767639D01*
X770263D01*
X768951D01*
Y34776D01*
X770263Y33465D01*
X778134D02*
X775511D01*
X774199Y34776D01*
Y37400D01*
X775511Y38712D01*
X778134D01*
X779446Y37400D01*
Y36088D01*
X774199D01*
X787318Y41336D02*
Y33465D01*
X783382D01*
X782070Y34776D01*
Y37400D01*
X783382Y38712D01*
X787318D01*
X799125Y33465D02*
Y40024D01*
Y37400D01*
X797813D01*
X800437D01*
X799125D01*
Y40024D01*
X800437Y41336D01*
X804373Y38712D02*
Y33465D01*
Y36088D01*
X805685Y37400D01*
X806997Y38712D01*
X808308D01*
X813556Y33465D02*
X816180D01*
X817492Y34776D01*
Y37400D01*
X816180Y38712D01*
X813556D01*
X812244Y37400D01*
Y34776D01*
X813556Y33465D01*
X820116D02*
Y38712D01*
X821428D01*
X822740Y37400D01*
Y33465D01*
Y37400D01*
X824051Y38712D01*
X825363Y37400D01*
Y33465D01*
X837171Y40024D02*
Y38712D01*
X835859D01*
X838482D01*
X837171D01*
Y34776D01*
X838482Y33465D01*
X843730D02*
X846354D01*
X847666Y34776D01*
Y37400D01*
X846354Y38712D01*
X843730D01*
X842418Y37400D01*
Y34776D01*
X843730Y33465D01*
X851602D02*
X854225D01*
X855537Y34776D01*
Y37400D01*
X854225Y38712D01*
X851602D01*
X850290Y37400D01*
Y34776D01*
X851602Y33465D01*
X858161D02*
X860785D01*
X859473D01*
Y41336D01*
X858161D01*
X872592Y33465D02*
X876528D01*
X877840Y34776D01*
X876528Y36088D01*
X873904D01*
X872592Y37400D01*
X873904Y38712D01*
X877840D01*
X881776Y40024D02*
Y38712D01*
X880464D01*
X883088D01*
X881776D01*
Y34776D01*
X883088Y33465D01*
X888335Y38712D02*
X890959D01*
X892271Y37400D01*
Y33465D01*
X888335D01*
X887023Y34776D01*
X888335Y36088D01*
X892271D01*
X894895Y38712D02*
Y33465D01*
Y36088D01*
X896207Y37400D01*
X897519Y38712D01*
X898830D01*
X904078Y40024D02*
Y38712D01*
X902766D01*
X905390D01*
X904078D01*
Y34776D01*
X905390Y33465D01*
X922445Y38712D02*
X918509D01*
X917197Y37400D01*
Y34776D01*
X918509Y33465D01*
X922445D01*
X929004D02*
X926381D01*
X925069Y34776D01*
Y37400D01*
X926381Y38712D01*
X929004D01*
X930316Y37400D01*
Y36088D01*
X925069D01*
X932940Y33465D02*
Y38712D01*
X936876D01*
X938188Y37400D01*
Y33465D01*
X942124Y40024D02*
Y38712D01*
X940812D01*
X943435D01*
X942124D01*
Y34776D01*
X943435Y33465D01*
X947371Y38712D02*
Y33465D01*
Y36088D01*
X948683Y37400D01*
X949995Y38712D01*
X951307D01*
X959178Y33465D02*
X956555D01*
X955243Y34776D01*
Y37400D01*
X956555Y38712D01*
X959178D01*
X960490Y37400D01*
Y36088D01*
X955243D01*
X970986Y30841D02*
Y38712D01*
X974921D01*
X976233Y37400D01*
Y34776D01*
X974921Y33465D01*
X970986D01*
X980169D02*
X982793D01*
X984105Y34776D01*
Y37400D01*
X982793Y38712D01*
X980169D01*
X978857Y37400D01*
Y34776D01*
X980169Y33465D01*
X986729D02*
X990664D01*
X991976Y34776D01*
X990664Y36088D01*
X988041D01*
X986729Y37400D01*
X988041Y38712D01*
X991976D01*
X994600Y33465D02*
X997224D01*
X995912D01*
Y38712D01*
X994600D01*
X1002472Y40024D02*
Y38712D01*
X1001160D01*
X1003784D01*
X1002472D01*
Y34776D01*
X1003784Y33465D01*
X1007719D02*
X1010343D01*
X1009031D01*
Y38712D01*
X1007719D01*
X1015591Y33465D02*
X1018215D01*
X1019526Y34776D01*
Y37400D01*
X1018215Y38712D01*
X1015591D01*
X1014279Y37400D01*
Y34776D01*
X1015591Y33465D01*
X1022150D02*
Y38712D01*
X1026086D01*
X1027398Y37400D01*
Y33465D01*
X1039205Y40024D02*
Y38712D01*
X1037893D01*
X1040517D01*
X1039205D01*
Y34776D01*
X1040517Y33465D01*
X1045765D02*
X1048388D01*
X1049700Y34776D01*
Y37400D01*
X1048388Y38712D01*
X1045765D01*
X1044453Y37400D01*
Y34776D01*
X1045765Y33465D01*
X1061508Y40024D02*
Y38712D01*
X1060196D01*
X1062820D01*
X1061508D01*
Y34776D01*
X1062820Y33465D01*
X1068067D02*
X1070691D01*
X1072003Y34776D01*
Y37400D01*
X1070691Y38712D01*
X1068067D01*
X1066755Y37400D01*
Y34776D01*
X1068067Y33465D01*
X1075939D02*
X1078563D01*
X1079874Y34776D01*
Y37400D01*
X1078563Y38712D01*
X1075939D01*
X1074627Y37400D01*
Y34776D01*
X1075939Y33465D01*
X1082498D02*
X1085122D01*
X1083810D01*
Y41336D01*
X1082498D01*
X1100865Y33465D02*
X1098241D01*
X1096929Y34776D01*
Y37400D01*
X1098241Y38712D01*
X1100865D01*
X1102177Y37400D01*
Y36088D01*
X1096929D01*
X1104801Y33465D02*
Y38712D01*
X1108737D01*
X1110048Y37400D01*
Y33465D01*
X1117920Y41336D02*
Y33465D01*
X1113984D01*
X1112672Y34776D01*
Y37400D01*
X1113984Y38712D01*
X1117920D01*
X1133663D02*
X1129727D01*
X1128415Y37400D01*
Y34776D01*
X1129727Y33465D01*
X1133663D01*
X1140222D02*
X1137599D01*
X1136287Y34776D01*
Y37400D01*
X1137599Y38712D01*
X1140222D01*
X1141534Y37400D01*
Y36088D01*
X1136287D01*
X1144158Y33465D02*
Y38712D01*
X1148094D01*
X1149406Y37400D01*
Y33465D01*
X1153342Y40024D02*
Y38712D01*
X1152030D01*
X1154653D01*
X1153342D01*
Y34776D01*
X1154653Y33465D01*
X1158589Y38712D02*
Y33465D01*
Y36088D01*
X1159901Y37400D01*
X1161213Y38712D01*
X1162525D01*
X1170396Y33465D02*
X1167773D01*
X1166461Y34776D01*
Y37400D01*
X1167773Y38712D01*
X1170396D01*
X1171708Y37400D01*
Y36088D01*
X1166461D01*
X1182204Y30841D02*
Y38712D01*
X1186139D01*
X1187451Y37400D01*
Y34776D01*
X1186139Y33465D01*
X1182204D01*
X1191387D02*
X1194011D01*
X1195323Y34776D01*
Y37400D01*
X1194011Y38712D01*
X1191387D01*
X1190075Y37400D01*
Y34776D01*
X1191387Y33465D01*
X1197947D02*
X1201882D01*
X1203194Y34776D01*
X1201882Y36088D01*
X1199259D01*
X1197947Y37400D01*
X1199259Y38712D01*
X1203194D01*
X1205818Y33465D02*
X1208442D01*
X1207130D01*
Y38712D01*
X1205818D01*
X1213690Y40024D02*
Y38712D01*
X1212378D01*
X1215001D01*
X1213690D01*
Y34776D01*
X1215001Y33465D01*
X1218937D02*
X1221561D01*
X1220249D01*
Y38712D01*
X1218937D01*
X1226809Y33465D02*
X1229432D01*
X1230744Y34776D01*
Y37400D01*
X1229432Y38712D01*
X1226809D01*
X1225497Y37400D01*
Y34776D01*
X1226809Y33465D01*
X1233368D02*
Y38712D01*
X1237304D01*
X1238616Y37400D01*
Y33465D01*
X1241240D02*
Y34776D01*
X1242552D01*
Y33465D01*
X1241240D01*
X699420Y20340D02*
X704667D01*
X699420Y22964D02*
X704667D01*
X715163Y17717D02*
Y25588D01*
X719098D01*
X720410Y24276D01*
Y21652D01*
X719098Y20340D01*
X715163D01*
X717786D02*
X720410Y17717D01*
X724346D02*
X726970D01*
X728282Y19028D01*
Y21652D01*
X726970Y22964D01*
X724346D01*
X723034Y21652D01*
Y19028D01*
X724346Y17717D01*
X730906Y22964D02*
Y19028D01*
X732218Y17717D01*
X736153D01*
Y22964D01*
X740089Y24276D02*
Y22964D01*
X738777D01*
X741401D01*
X740089D01*
Y19028D01*
X741401Y17717D01*
X753208D02*
Y25588D01*
X757144D01*
X758456Y24276D01*
Y21652D01*
X757144Y20340D01*
X753208D01*
X762392Y22964D02*
X765015D01*
X766327Y21652D01*
Y17717D01*
X762392D01*
X761080Y19028D01*
X762392Y20340D01*
X766327D01*
X770263Y24276D02*
Y22964D01*
X768951D01*
X771575D01*
X770263D01*
Y19028D01*
X771575Y17717D01*
X775511Y25588D02*
Y17717D01*
Y21652D01*
X776823Y22964D01*
X779446D01*
X780758Y21652D01*
Y17717D01*
X791254Y25588D02*
Y17717D01*
X796501D01*
X803061D02*
X800437D01*
X799125Y19028D01*
Y21652D01*
X800437Y22964D01*
X803061D01*
X804373Y21652D01*
Y20340D01*
X799125D01*
X806997Y17717D02*
Y22964D01*
X810932D01*
X812244Y21652D01*
Y17717D01*
X817492Y15093D02*
X818804D01*
X820116Y16405D01*
Y22964D01*
X816180D01*
X814868Y21652D01*
Y19028D01*
X816180Y17717D01*
X820116D01*
X824051Y24276D02*
Y22964D01*
X822740D01*
X825363D01*
X824051D01*
Y19028D01*
X825363Y17717D01*
X829299Y25588D02*
Y17717D01*
Y21652D01*
X830611Y22964D01*
X833235D01*
X834547Y21652D01*
Y17717D01*
X845042Y21652D02*
X850290D01*
X847666Y24276D02*
Y19028D01*
X860785Y25588D02*
X866033D01*
X863409D01*
Y17717D01*
X869968D02*
X872592D01*
X873904Y19028D01*
Y21652D01*
X872592Y22964D01*
X869968D01*
X868657Y21652D01*
Y19028D01*
X869968Y17717D01*
X877840D02*
X880464D01*
X881776Y19028D01*
Y21652D01*
X880464Y22964D01*
X877840D01*
X876528Y21652D01*
Y19028D01*
X877840Y17717D01*
X884399D02*
X887023D01*
X885711D01*
Y25588D01*
X884399D01*
X904078Y24276D02*
X902766Y25588D01*
X900142D01*
X898831Y24276D01*
Y22964D01*
X900142Y21652D01*
X902766D01*
X904078Y20340D01*
Y19028D01*
X902766Y17717D01*
X900142D01*
X898831Y19028D01*
X906702Y17717D02*
X909326D01*
X908014D01*
Y22964D01*
X906702D01*
X913262D02*
X918509D01*
X913262Y17717D01*
X918509D01*
X925069D02*
X922445D01*
X921133Y19028D01*
Y21652D01*
X922445Y22964D01*
X925069D01*
X926381Y21652D01*
Y20340D01*
X921133D01*
X936876D02*
X942124D01*
X936876Y22964D02*
X942124D01*
X957866Y24276D02*
X956555Y25588D01*
X953931D01*
X952619Y24276D01*
Y22964D01*
X953931Y21652D01*
X956555D01*
X957866Y20340D01*
Y19028D01*
X956555Y17717D01*
X953931D01*
X952619Y19028D01*
X960490Y17717D02*
X963114D01*
X961802D01*
Y25588D01*
X960490D01*
X968362Y17717D02*
X970986D01*
X972298Y19028D01*
Y21652D01*
X970986Y22964D01*
X968362D01*
X967050Y21652D01*
Y19028D01*
X968362Y17717D01*
X976233Y24276D02*
Y22964D01*
X974921D01*
X977545D01*
X976233D01*
Y19028D01*
X977545Y17717D01*
X989353D02*
X991976D01*
X990664D01*
Y25588D01*
X989353D01*
X999848Y17717D02*
X997224D01*
X995912Y19028D01*
Y21652D01*
X997224Y22964D01*
X999848D01*
X1001160Y21652D01*
Y20340D01*
X995912D01*
X1003784Y17717D02*
Y22964D01*
X1007719D01*
X1009031Y21652D01*
Y17717D01*
X1014279Y15093D02*
X1015591D01*
X1016903Y16405D01*
Y22964D01*
X1012967D01*
X1011655Y21652D01*
Y19028D01*
X1012967Y17717D01*
X1016903D01*
X1020838Y24276D02*
Y22964D01*
X1019526D01*
X1022150D01*
X1020838D01*
Y19028D01*
X1022150Y17717D01*
X1026086Y25588D02*
Y17717D01*
Y21652D01*
X1027398Y22964D01*
X1030022D01*
X1031334Y21652D01*
Y17717D01*
X1043141Y22964D02*
X1045765D01*
X1047077Y21652D01*
Y17717D01*
X1043141D01*
X1041829Y19028D01*
X1043141Y20340D01*
X1047077D01*
X1049701Y17717D02*
X1053636D01*
X1054948Y19028D01*
X1053636Y20340D01*
X1051012D01*
X1049701Y21652D01*
X1051012Y22964D01*
X1054948D01*
X1070691Y25588D02*
Y17717D01*
X1066755D01*
X1065443Y19028D01*
Y21652D01*
X1066755Y22964D01*
X1070691D01*
X1077251Y17717D02*
X1074627D01*
X1073315Y19028D01*
Y21652D01*
X1074627Y22964D01*
X1077251D01*
X1078563Y21652D01*
Y20340D01*
X1073315D01*
X1082498Y17717D02*
Y24276D01*
Y21652D01*
X1081186D01*
X1083810D01*
X1082498D01*
Y24276D01*
X1083810Y25588D01*
X1087746Y17717D02*
X1090370D01*
X1089058D01*
Y22964D01*
X1087746D01*
X1094306Y17717D02*
Y22964D01*
X1098241D01*
X1099553Y21652D01*
Y17717D01*
X1106113D02*
X1103489D01*
X1102177Y19028D01*
Y21652D01*
X1103489Y22964D01*
X1106113D01*
X1107425Y21652D01*
Y20340D01*
X1102177D01*
X1115296Y25588D02*
Y17717D01*
X1111360D01*
X1110048Y19028D01*
Y21652D01*
X1111360Y22964D01*
X1115296D01*
X1125791Y17717D02*
X1128415D01*
X1127103D01*
Y22964D01*
X1125791D01*
X1132351Y17717D02*
Y22964D01*
X1136287D01*
X1137599Y21652D01*
Y17717D01*
X1149406Y24276D02*
Y22964D01*
X1148094D01*
X1150718D01*
X1149406D01*
Y19028D01*
X1150718Y17717D01*
X1154653Y25588D02*
Y17717D01*
Y21652D01*
X1155965Y22964D01*
X1158589D01*
X1159901Y21652D01*
Y17717D01*
X1166461D02*
X1163837D01*
X1162525Y19028D01*
Y21652D01*
X1163837Y22964D01*
X1166461D01*
X1167773Y21652D01*
Y20340D01*
X1162525D01*
X1178268Y17717D02*
Y25588D01*
X1182204D01*
X1183516Y24276D01*
Y21652D01*
X1182204Y20340D01*
X1178268D01*
X1191387Y24276D02*
X1190075Y25588D01*
X1187451D01*
X1186139Y24276D01*
Y19028D01*
X1187451Y17717D01*
X1190075D01*
X1191387Y19028D01*
X1194011Y25588D02*
Y17717D01*
X1197947D01*
X1199259Y19028D01*
Y20340D01*
X1197947Y21652D01*
X1194011D01*
X1197947D01*
X1199259Y22964D01*
Y24276D01*
X1197947Y25588D01*
X1194011D01*
X1209754Y17717D02*
X1212378D01*
X1211066D01*
Y25588D01*
X1209754D01*
X1217625Y22964D02*
X1220249D01*
X1221561Y21652D01*
Y17717D01*
X1217625D01*
X1216313Y19028D01*
X1217625Y20340D01*
X1221561D01*
X1224185Y22964D02*
Y19028D01*
X1225497Y17717D01*
X1229433D01*
Y16405D01*
X1228121Y15093D01*
X1226809D01*
X1229433Y17717D02*
Y22964D01*
X1233368Y17717D02*
X1235992D01*
X1237304Y19028D01*
Y21652D01*
X1235992Y22964D01*
X1233368D01*
X1232056Y21652D01*
Y19028D01*
X1233368Y17717D01*
X1239928Y22964D02*
Y19028D01*
X1241240Y17717D01*
X1245175D01*
Y22964D01*
X1249111Y24276D02*
Y22964D01*
X1247799D01*
X1250423D01*
X1249111D01*
Y19028D01*
X1250423Y17717D01*
D33*
X0Y19685D02*
G03*
X19685Y0I19685J0D01*
G01*
Y196850D02*
G03*
X0Y177165I0J-19685D01*
G01*
X196850D02*
G03*
X177165Y196850I-19685J0D01*
G01*
Y0D02*
G03*
X196850Y19685I0J19685D01*
G01*
X19685Y0D02*
X177165D01*
X196850Y19685D02*
Y177165D01*
X19685Y196850D02*
X177165D01*
X0Y19685D02*
Y177165D01*
D34*
X1263780Y-246618D02*
Y-238747D01*
X1267715D01*
X1269027Y-240059D01*
Y-242682D01*
X1267715Y-243994D01*
X1263780D01*
X1266403D02*
X1269027Y-246618D01*
X1275587D02*
X1272963D01*
X1271651Y-245306D01*
Y-242682D01*
X1272963Y-241371D01*
X1275587D01*
X1276899Y-242682D01*
Y-243994D01*
X1271651D01*
X1279523Y-241371D02*
X1282146Y-246618D01*
X1284770Y-241371D01*
X909449Y-278117D02*
Y-285988D01*
X913385D01*
X914697Y-284676D01*
Y-279429D01*
X913385Y-278117D01*
X909449D01*
X921256Y-285988D02*
X918632D01*
X917320Y-284676D01*
Y-282052D01*
X918632Y-280741D01*
X921256D01*
X922568Y-282052D01*
Y-283364D01*
X917320D01*
X925192Y-285988D02*
X929128D01*
X930439Y-284676D01*
X929128Y-283364D01*
X926504D01*
X925192Y-282052D01*
X926504Y-280741D01*
X930439D01*
X935687Y-288612D02*
X936999D01*
X938311Y-287300D01*
Y-280741D01*
X934375D01*
X933063Y-282052D01*
Y-284676D01*
X934375Y-285988D01*
X938311D01*
X940935D02*
X943559D01*
X942247D01*
Y-280741D01*
X940935D01*
X947494Y-285988D02*
Y-280741D01*
X951430D01*
X952742Y-282052D01*
Y-285988D01*
X959301D02*
X956678D01*
X955366Y-284676D01*
Y-282052D01*
X956678Y-280741D01*
X959301D01*
X960613Y-282052D01*
Y-283364D01*
X955366D01*
X963237Y-280741D02*
Y-285988D01*
Y-283364D01*
X964549Y-282052D01*
X965861Y-280741D01*
X967173D01*
X1106299Y-160006D02*
Y-167878D01*
X1110235D01*
X1111547Y-166566D01*
Y-161319D01*
X1110235Y-160006D01*
X1106299D01*
X1115483Y-167878D02*
X1118106D01*
X1119418Y-166566D01*
Y-163942D01*
X1118106Y-162630D01*
X1115483D01*
X1114171Y-163942D01*
Y-166566D01*
X1115483Y-167878D01*
X1127290Y-162630D02*
X1123354D01*
X1122042Y-163942D01*
Y-166566D01*
X1123354Y-167878D01*
X1127290D01*
X1129914Y-162630D02*
Y-166566D01*
X1131226Y-167878D01*
X1135161D01*
Y-162630D01*
X1137785Y-167878D02*
Y-162630D01*
X1139097D01*
X1140409Y-163942D01*
Y-167878D01*
Y-163942D01*
X1141721Y-162630D01*
X1143033Y-163942D01*
Y-167878D01*
X1149592D02*
X1146968D01*
X1145657Y-166566D01*
Y-163942D01*
X1146968Y-162630D01*
X1149592D01*
X1150904Y-163942D01*
Y-165254D01*
X1145657D01*
X1153528Y-167878D02*
Y-162630D01*
X1157464D01*
X1158776Y-163942D01*
Y-167878D01*
X1162712Y-161319D02*
Y-162630D01*
X1161400D01*
X1164023D01*
X1162712D01*
Y-166566D01*
X1164023Y-167878D01*
X1106299Y-199377D02*
Y-207248D01*
X1111547D01*
X1115483Y-202000D02*
X1118106D01*
X1119418Y-203312D01*
Y-207248D01*
X1115483D01*
X1114171Y-205936D01*
X1115483Y-204624D01*
X1119418D01*
X1122042Y-202000D02*
Y-205936D01*
X1123354Y-207248D01*
X1127290D01*
Y-208560D01*
X1125978Y-209872D01*
X1124666D01*
X1127290Y-207248D02*
Y-202000D01*
X1133849Y-207248D02*
X1131226D01*
X1129914Y-205936D01*
Y-203312D01*
X1131226Y-202000D01*
X1133849D01*
X1135161Y-203312D01*
Y-204624D01*
X1129914D01*
X1137785Y-202000D02*
Y-207248D01*
Y-204624D01*
X1139097Y-203312D01*
X1140409Y-202000D01*
X1141721D01*
X1153528Y-207248D02*
Y-199377D01*
X1158776Y-207248D01*
Y-199377D01*
X1162712Y-202000D02*
X1165335D01*
X1166647Y-203312D01*
Y-207248D01*
X1162712D01*
X1161400Y-205936D01*
X1162712Y-204624D01*
X1166647D01*
X1169271Y-207248D02*
Y-202000D01*
X1170583D01*
X1171895Y-203312D01*
Y-207248D01*
Y-203312D01*
X1173207Y-202000D01*
X1174519Y-203312D01*
Y-207248D01*
X1181078D02*
X1178454D01*
X1177143Y-205936D01*
Y-203312D01*
X1178454Y-202000D01*
X1181078D01*
X1182390Y-203312D01*
Y-204624D01*
X1177143D01*
X1106299Y-238747D02*
Y-246618D01*
X1110235D01*
X1111547Y-245306D01*
Y-240059D01*
X1110235Y-238747D01*
X1106299D01*
X1115483Y-241371D02*
X1118106D01*
X1119418Y-242682D01*
Y-246618D01*
X1115483D01*
X1114171Y-245306D01*
X1115483Y-243994D01*
X1119418D01*
X1123354Y-240059D02*
Y-241371D01*
X1122042D01*
X1124666D01*
X1123354D01*
Y-245306D01*
X1124666Y-246618D01*
X1132537D02*
X1129914D01*
X1128602Y-245306D01*
Y-242682D01*
X1129914Y-241371D01*
X1132537D01*
X1133849Y-242682D01*
Y-243994D01*
X1128602D01*
X1106299Y-278117D02*
Y-285988D01*
X1110235D01*
X1111547Y-284676D01*
Y-279429D01*
X1110235Y-278117D01*
X1106299D01*
X1115483Y-285988D02*
X1118106D01*
X1119418Y-284676D01*
Y-282052D01*
X1118106Y-280741D01*
X1115483D01*
X1114171Y-282052D01*
Y-284676D01*
X1115483Y-285988D01*
X1127290Y-280741D02*
X1123354D01*
X1122042Y-282052D01*
Y-284676D01*
X1123354Y-285988D01*
X1127290D01*
X1129914Y-280741D02*
Y-284676D01*
X1131226Y-285988D01*
X1135161D01*
Y-280741D01*
X1137785Y-285988D02*
Y-280741D01*
X1139097D01*
X1140409Y-282052D01*
Y-285988D01*
Y-282052D01*
X1141721Y-280741D01*
X1143033Y-282052D01*
Y-285988D01*
X1149592D02*
X1146968D01*
X1145657Y-284676D01*
Y-282052D01*
X1146968Y-280741D01*
X1149592D01*
X1150904Y-282052D01*
Y-283364D01*
X1145657D01*
X1153528Y-285988D02*
Y-280741D01*
X1157464D01*
X1158776Y-282052D01*
Y-285988D01*
X1162712Y-279429D02*
Y-280741D01*
X1161400D01*
X1164023D01*
X1162712D01*
Y-284676D01*
X1164023Y-285988D01*
D49*
X437102Y210630D02*
G03*
X437102Y210630I-3000J0D01*
G01*
Y84646D02*
G03*
X437102Y84646I-3000J0D01*
G01*
D81*
X435902Y210630D02*
G03*
X435902Y210630I-1800J0D01*
G01*
D82*
X43688Y180145D02*
Y181745D01*
X45288D01*
Y180145D01*
X43688D01*
Y190145D02*
Y191745D01*
X45288D01*
Y190145D01*
X43688D01*
X167323Y79909D02*
X166523Y81509D01*
X168123D01*
X167323Y79909D01*
X171260D02*
X170460Y81509D01*
X172060D01*
X171260Y79909D01*
X114173Y164318D02*
X114573Y164718D01*
X114973D01*
X114573Y165118D01*
X114973Y165518D01*
X114573D01*
X114173Y165918D01*
X113773Y165518D01*
X113373D01*
X113773Y165118D01*
X113373Y164718D01*
X113773D01*
X114173Y164318D01*
Y145106D02*
X114573Y145505D01*
X114973D01*
X114573Y145905D01*
X114973Y146306D01*
X114573D01*
X114173Y146705D01*
X113773Y146306D01*
X113373D01*
X113773Y145905D01*
X113373Y145505D01*
X113773D01*
X114173Y145106D01*
X136011Y182271D02*
X136411Y183071D01*
X136011Y183871D01*
X136811Y183471D01*
X137611Y183871D01*
X137211Y183071D01*
X137611Y182271D01*
X136811Y182671D01*
X136011Y182271D01*
X149791D02*
X150191Y183071D01*
X149791Y183871D01*
X150591Y183471D01*
X151391Y183871D01*
X150991Y183071D01*
X151391Y182271D01*
X150591Y182671D01*
X149791Y182271D01*
X63176Y12979D02*
X63576Y13780D01*
X63176Y14580D01*
X63976Y14179D01*
X64776Y14580D01*
X64376Y13780D01*
X64776Y12979D01*
X63976Y13379D01*
X63176Y12979D01*
X49397D02*
X49797Y13780D01*
X49397Y14580D01*
X50197Y14179D01*
X50997Y14580D01*
X50597Y13780D01*
X50997Y12979D01*
X50197Y13379D01*
X49397Y12979D01*
X145854D02*
X146254Y13780D01*
X145854Y14580D01*
X146654Y14179D01*
X147454Y14580D01*
X147054Y13780D01*
X147454Y12979D01*
X146654Y13379D01*
X145854Y12979D01*
X132074D02*
X132474Y13780D01*
X132074Y14580D01*
X132874Y14179D01*
X133674Y14580D01*
X133274Y13780D01*
X133674Y12979D01*
X132874Y13379D01*
X132074Y12979D01*
X88183Y125584D02*
Y125184D01*
X88983D01*
Y125584D01*
X89383D01*
Y126384D01*
X88983D01*
Y126784D01*
X88183D01*
Y126384D01*
X87783D01*
Y125584D01*
X88183D01*
X107868D02*
Y125184D01*
X108668D01*
Y125584D01*
X109068D01*
Y126384D01*
X108668D01*
Y126784D01*
X107868D01*
Y126384D01*
X107468D01*
Y125584D01*
X107868D01*
X98025Y68498D02*
Y68098D01*
X98825D01*
Y68498D01*
X99225D01*
Y69298D01*
X98825D01*
Y69698D01*
X98025D01*
Y69298D01*
X97625D01*
Y68498D01*
X98025D01*
X107868D02*
Y68098D01*
X108668D01*
Y68498D01*
X109068D01*
Y69298D01*
X108668D01*
Y69698D01*
X107868D01*
Y69298D01*
X107468D01*
Y68498D01*
X107868D01*
X88183D02*
Y68098D01*
X88983D01*
Y68498D01*
X89383D01*
Y69298D01*
X88983D01*
Y69698D01*
X88183D01*
Y69298D01*
X87783D01*
Y68498D01*
X88183D01*
X120066Y97625D02*
X120466D01*
X120866Y98025D01*
X121266Y97625D01*
X121666D01*
Y98025D01*
X121266Y98425D01*
X121666Y98825D01*
Y99225D01*
X121266D01*
X120866Y98825D01*
X120466Y99225D01*
X120066D01*
Y98825D01*
X120466Y98425D01*
X120066Y98025D01*
Y97625D01*
X75184D02*
X75584D01*
X75984Y98025D01*
X76384Y97625D01*
X76784D01*
Y98025D01*
X76384Y98425D01*
X76784Y98825D01*
Y99225D01*
X76384D01*
X75984Y98825D01*
X75584Y99225D01*
X75184D01*
Y98825D01*
X75584Y98425D01*
X75184Y98025D01*
Y97625D01*
X191129Y107468D02*
Y109068D01*
X192729D01*
Y107468D01*
X191129D01*
X97625Y49213D02*
X98425Y50013D01*
X99225Y49213D01*
X98425Y48413D01*
X97625Y49213D01*
Y41339D02*
X98425Y42139D01*
X99225Y41339D01*
X98425Y40539D01*
X97625Y41339D01*
X6916Y155027D02*
Y156627D01*
X8517D01*
Y155027D01*
X6916D01*
X16917Y155027D02*
Y156627D01*
X18517D01*
Y155027D01*
X16917D01*
X6916Y145027D02*
Y146627D01*
X8517D01*
Y145027D01*
X6916D01*
X16917D02*
Y146627D01*
X18517D01*
Y145027D01*
X16917D01*
X6916Y135027D02*
Y136627D01*
X8517D01*
Y135027D01*
X6916D01*
X16917D02*
Y136627D01*
X18517D01*
Y135027D01*
X16917D01*
X63688Y190145D02*
Y191745D01*
X65288D01*
Y190145D01*
X63688D01*
Y180145D02*
Y181745D01*
X65288D01*
Y180145D01*
X63688D01*
X53688Y190145D02*
Y191745D01*
X55288D01*
Y190145D01*
X53688D01*
X53688Y180145D02*
Y181745D01*
X55288D01*
Y180145D01*
X53688D01*
X73688D02*
Y181745D01*
X75288D01*
Y180145D01*
X73688D01*
X73688Y190145D02*
Y191745D01*
X75288D01*
Y190145D01*
X73688D01*
X83688Y180145D02*
Y181745D01*
X85288D01*
Y180145D01*
X83688D01*
Y190145D02*
Y191745D01*
X85288D01*
Y190145D01*
X83688D01*
X93688Y180145D02*
Y181745D01*
X95288D01*
Y180145D01*
X93688D01*
Y190145D02*
Y191745D01*
X95288D01*
Y190145D01*
X93688D01*
X31035Y111806D02*
Y113406D01*
X32635D01*
Y111806D01*
X31035D01*
X31435Y112206D02*
Y113006D01*
X32235D01*
Y112206D01*
X31435D01*
X13035Y111806D02*
Y113406D01*
X14635D01*
Y111806D01*
X13035D01*
X13435Y112206D02*
Y113006D01*
X14235D01*
Y112206D01*
X13435D01*
X13035Y85806D02*
Y87406D01*
X14635D01*
Y85806D01*
X13035D01*
X13435Y86206D02*
Y87006D01*
X14235D01*
Y86206D01*
X13435D01*
X31035Y85806D02*
Y87406D01*
X32635D01*
Y85806D01*
X31035D01*
X31435Y86206D02*
Y87006D01*
X32235D01*
Y86206D01*
X31435D01*
X47074Y121247D02*
Y122847D01*
X48674D01*
Y121247D01*
X47074D01*
X37074D02*
Y122847D01*
X38674D01*
Y121247D01*
X37074D01*
X27074D02*
Y122847D01*
X28674D01*
Y121247D01*
X27074D01*
X17074D02*
Y122847D01*
X18674D01*
Y121247D01*
X17074D01*
X7074D02*
Y122847D01*
X8674D01*
Y121247D01*
X7074D01*
X434102Y191882D02*
X431102Y197882D01*
X437102D01*
X434102Y191882D01*
X431102Y179134D02*
X434102Y182134D01*
X437102Y179134D01*
X434102Y176134D01*
X431102Y179134D01*
Y160386D02*
Y166386D01*
X437102D01*
Y160386D01*
X431102D01*
X432302Y161586D02*
Y165186D01*
X435902D01*
Y161586D01*
X432302D01*
X434102Y144638D02*
X435602Y146138D01*
X437102D01*
X435602Y147638D01*
X437102Y149138D01*
X435602D01*
X434102Y150638D01*
X432602Y149138D01*
X431102D01*
X432602Y147638D01*
X431102Y146138D01*
X432602D01*
X434102Y144638D01*
X431102Y128890D02*
Y134890D01*
X437102D01*
Y128890D01*
X431102D01*
X432602Y114642D02*
Y113142D01*
X435602D01*
Y114642D01*
X437102D01*
Y117642D01*
X435602D01*
Y119142D01*
X432602D01*
Y117642D01*
X431102D01*
Y114642D01*
X432602D01*
X431102Y97394D02*
X432602Y100394D01*
X431102Y103394D01*
X434102Y101894D01*
X437102Y103394D01*
X435602Y100394D01*
X437102Y97394D01*
X434102Y98894D01*
X431102Y97394D01*
Y65898D02*
X432602D01*
X434102Y67398D01*
X435602Y65898D01*
X437102D01*
Y67398D01*
X435602Y68898D01*
X437102Y70398D01*
Y71898D01*
X435602D01*
X434102Y70398D01*
X432602Y71898D01*
X431102D01*
Y70398D01*
X432602Y68898D01*
X431102Y67398D01*
Y65898D01*
D83*
X20485Y19685D02*
G03*
X20485Y19685I-800J0D01*
G01*
Y177165D02*
G03*
X20485Y177165I-800J0D01*
G01*
X177965D02*
G03*
X177965Y177165I-800J0D01*
G01*
Y19685D02*
G03*
X177965Y19685I-800J0D01*
G01*
X63005Y144488D02*
G03*
X63005Y144488I-800J0D01*
G01*
X66154Y142717D02*
G03*
X66154Y142717I-800J0D01*
G01*
X101194Y175197D02*
G03*
X101194Y175197I-800J0D01*
G01*
X69698Y127165D02*
G03*
X69698Y127165I-800J0D01*
G01*
X72847Y124409D02*
G03*
X72847Y124409I-800J0D01*
G01*
X58871Y147638D02*
G03*
X58871Y147638I-800J0D01*
G01*
X38595Y151181D02*
G03*
X38595Y151181I-800J0D01*
G01*
Y157087D02*
G03*
X38595Y157087I-800J0D01*
G01*
X97257Y138583D02*
G03*
X97257Y138583I-800J0D01*
G01*
Y151575D02*
G03*
X97257Y151575I-800J0D01*
G01*
X105131Y59055D02*
G03*
X105131Y59055I-800J0D01*
G01*
X93320D02*
G03*
X93320Y59055I-800J0D01*
G01*
Y53150D02*
G03*
X93320Y53150I-800J0D01*
G01*
X105131D02*
G03*
X105131Y53150I-800J0D01*
G01*
X93320Y37402D02*
G03*
X93320Y37402I-800J0D01*
G01*
X105131D02*
G03*
X105131Y37402I-800J0D01*
G01*
Y31496D02*
G03*
X105131Y31496I-800J0D01*
G01*
X93320D02*
G03*
X93320Y31496I-800J0D01*
G01*
X55918Y44291D02*
G03*
X55918Y44291I-800J0D01*
G01*
X59855D02*
G03*
X59855Y44291I-800J0D01*
G01*
X51981D02*
G03*
X51981Y44291I-800J0D01*
G01*
X48044D02*
G03*
X48044Y44291I-800J0D01*
G01*
X138595D02*
G03*
X138595Y44291I-800J0D01*
G01*
X142532D02*
G03*
X142532Y44291I-800J0D01*
G01*
X150406D02*
G03*
X150406Y44291I-800J0D01*
G01*
X146469D02*
G03*
X146469Y44291I-800J0D01*
G01*
X53950Y32480D02*
G03*
X53950Y32480I-800J0D01*
G01*
X144501D02*
G03*
X144501Y32480I-800J0D01*
G01*
X56902Y108268D02*
G03*
X56902Y108268I-800J0D01*
G01*
X152001Y91732D02*
G03*
X152001Y91732I-800J0D01*
G01*
X46076Y109843D02*
G03*
X46076Y109843I-800J0D01*
G01*
X96469Y113779D02*
G03*
X96469Y113779I-800J0D01*
G01*
X151587Y109055D02*
G03*
X151587Y109055I-800J0D01*
G01*
X160249Y105315D02*
G03*
X160249Y105315I-800J0D01*
G01*
Y130905D02*
G03*
X160249Y130905I-800J0D01*
G01*
X189383Y88583D02*
G03*
X189383Y88583I-800J0D01*
G01*
X41351Y144882D02*
G03*
X41351Y144882I-800J0D01*
G01*
X128753Y154528D02*
G03*
X128753Y154528I-800J0D01*
G01*
Y150591D02*
G03*
X128753Y150591I-800J0D01*
G01*
Y158465D02*
G03*
X128753Y158465I-800J0D01*
G01*
Y162402D02*
G03*
X128753Y162402I-800J0D01*
G01*
X188792Y44291D02*
G03*
X188792Y44291I-800J0D01*
G01*
X192729D02*
G03*
X192729Y44291I-800J0D01*
G01*
X184855D02*
G03*
X184855Y44291I-800J0D01*
G01*
X180918D02*
G03*
X180918Y44291I-800J0D01*
G01*
X131902Y87402D02*
G03*
X131902Y87402I-800J0D01*
G01*
X32296Y131890D02*
G03*
X32296Y131890I-800J0D01*
G01*
D84*
X62605Y144488D02*
G03*
X62605Y144488I-400J0D01*
G01*
X65754Y142717D02*
G03*
X65754Y142717I-400J0D01*
G01*
X100794Y175197D02*
G03*
X100794Y175197I-400J0D01*
G01*
X69298Y127165D02*
G03*
X69298Y127165I-400J0D01*
G01*
X72447Y124409D02*
G03*
X72447Y124409I-400J0D01*
G01*
X58471Y147638D02*
G03*
X58471Y147638I-400J0D01*
G01*
X38195Y151181D02*
G03*
X38195Y151181I-400J0D01*
G01*
Y157087D02*
G03*
X38195Y157087I-400J0D01*
G01*
X96857Y138583D02*
G03*
X96857Y138583I-400J0D01*
G01*
Y151575D02*
G03*
X96857Y151575I-400J0D01*
G01*
X104731Y59055D02*
G03*
X104731Y59055I-400J0D01*
G01*
X92920D02*
G03*
X92920Y59055I-400J0D01*
G01*
Y53150D02*
G03*
X92920Y53150I-400J0D01*
G01*
X104731D02*
G03*
X104731Y53150I-400J0D01*
G01*
X92920Y37402D02*
G03*
X92920Y37402I-400J0D01*
G01*
X104731D02*
G03*
X104731Y37402I-400J0D01*
G01*
Y31496D02*
G03*
X104731Y31496I-400J0D01*
G01*
X92920D02*
G03*
X92920Y31496I-400J0D01*
G01*
X55518Y44291D02*
G03*
X55518Y44291I-400J0D01*
G01*
X59455D02*
G03*
X59455Y44291I-400J0D01*
G01*
X51581D02*
G03*
X51581Y44291I-400J0D01*
G01*
X47644D02*
G03*
X47644Y44291I-400J0D01*
G01*
X138195D02*
G03*
X138195Y44291I-400J0D01*
G01*
X142132D02*
G03*
X142132Y44291I-400J0D01*
G01*
X150006D02*
G03*
X150006Y44291I-400J0D01*
G01*
X146069D02*
G03*
X146069Y44291I-400J0D01*
G01*
X53550Y32480D02*
G03*
X53550Y32480I-400J0D01*
G01*
X144101D02*
G03*
X144101Y32480I-400J0D01*
G01*
X56502Y108268D02*
G03*
X56502Y108268I-400J0D01*
G01*
X151601Y91732D02*
G03*
X151601Y91732I-400J0D01*
G01*
X45676Y109843D02*
G03*
X45676Y109843I-400J0D01*
G01*
X96069Y113779D02*
G03*
X96069Y113779I-400J0D01*
G01*
X151187Y109055D02*
G03*
X151187Y109055I-400J0D01*
G01*
X159849Y105315D02*
G03*
X159849Y105315I-400J0D01*
G01*
Y130905D02*
G03*
X159849Y130905I-400J0D01*
G01*
X188983Y88583D02*
G03*
X188983Y88583I-400J0D01*
G01*
X40951Y144882D02*
G03*
X40951Y144882I-400J0D01*
G01*
X128353Y154528D02*
G03*
X128353Y154528I-400J0D01*
G01*
Y150591D02*
G03*
X128353Y150591I-400J0D01*
G01*
Y158465D02*
G03*
X128353Y158465I-400J0D01*
G01*
Y162402D02*
G03*
X128353Y162402I-400J0D01*
G01*
X188392Y44291D02*
G03*
X188392Y44291I-400J0D01*
G01*
X192329D02*
G03*
X192329Y44291I-400J0D01*
G01*
X184455D02*
G03*
X184455Y44291I-400J0D01*
G01*
X180518D02*
G03*
X180518Y44291I-400J0D01*
G01*
X131502Y87402D02*
G03*
X131502Y87402I-400J0D01*
G01*
X31896Y131890D02*
G03*
X31896Y131890I-400J0D01*
G01*
D85*
X437399Y233462D02*
X435825Y235036D01*
X432677D01*
X431102Y233462D01*
Y231888D01*
X432677Y230313D01*
X435825D01*
X437399Y228739D01*
Y227165D01*
X435825Y225591D01*
X432677D01*
X431102Y227165D01*
X440548Y231888D02*
Y227165D01*
X442122Y225591D01*
X446845D01*
Y224016D01*
X445271Y222442D01*
X443697D01*
X446845Y225591D02*
Y231888D01*
X449994Y225591D02*
Y231888D01*
X451568D01*
X453142Y230313D01*
Y225591D01*
Y230313D01*
X454717Y231888D01*
X456291Y230313D01*
Y225591D01*
X459440Y235036D02*
Y225591D01*
X464163D01*
X465737Y227165D01*
Y228739D01*
Y230313D01*
X464163Y231888D01*
X459440D01*
X470460Y225591D02*
X473608D01*
X475183Y227165D01*
Y230313D01*
X473608Y231888D01*
X470460D01*
X468885Y230313D01*
Y227165D01*
X470460Y225591D01*
X478331D02*
X481480D01*
X479906D01*
Y235036D01*
X478331D01*
X494708D02*
Y225591D01*
Y230313D01*
X501005D01*
Y235036D01*
Y225591D01*
X504154D02*
X507303D01*
X505728D01*
Y231888D01*
X504154D01*
X513600Y233462D02*
Y231888D01*
X512025D01*
X515174D01*
X513600D01*
Y227165D01*
X515174Y225591D01*
X535640Y233462D02*
X534065Y235036D01*
X530917D01*
X529343Y233462D01*
Y227165D01*
X530917Y225591D01*
X534065D01*
X535640Y227165D01*
X540363Y225591D02*
X543511D01*
X545086Y227165D01*
Y230313D01*
X543511Y231888D01*
X540363D01*
X538788Y230313D01*
Y227165D01*
X540363Y225591D01*
X548234Y231888D02*
Y227165D01*
X549808Y225591D01*
X554531D01*
Y231888D01*
X557680Y225591D02*
Y231888D01*
X562403D01*
X563977Y230313D01*
Y225591D01*
X568700Y233462D02*
Y231888D01*
X567126D01*
X570274D01*
X568700D01*
Y227165D01*
X570274Y225591D01*
X589800Y235036D02*
X583503D01*
Y230313D01*
X586651D01*
X583503D01*
Y225591D01*
X592948D02*
X596097D01*
X594523D01*
Y231888D01*
X592948D01*
X600820Y225591D02*
Y231888D01*
X605543D01*
X607117Y230313D01*
Y225591D01*
X610266D02*
X613414D01*
X611840D01*
Y231888D01*
X610266D01*
X618137Y225591D02*
X622860D01*
X624434Y227165D01*
X622860Y228739D01*
X619711D01*
X618137Y230313D01*
X619711Y231888D01*
X624434D01*
X627583Y235036D02*
Y225591D01*
Y230313D01*
X629157Y231888D01*
X632306D01*
X633880Y230313D01*
Y225591D01*
X641751D02*
X638603D01*
X637029Y227165D01*
Y230313D01*
X638603Y231888D01*
X641751D01*
X643326Y230313D01*
Y228739D01*
X637029D01*
X652772Y235036D02*
Y225591D01*
X648049D01*
X646474Y227165D01*
Y230313D01*
X648049Y231888D01*
X652772D01*
X665366Y235036D02*
Y225591D01*
Y230313D01*
X671663D01*
Y235036D01*
Y225591D01*
X676386D02*
X679535D01*
X681109Y227165D01*
Y230313D01*
X679535Y231888D01*
X676386D01*
X674812Y230313D01*
Y227165D01*
X676386Y225591D01*
X684258D02*
X687406D01*
X685832D01*
Y235036D01*
X684258D01*
X696852Y225591D02*
X693703D01*
X692129Y227165D01*
Y230313D01*
X693703Y231888D01*
X696852D01*
X698426Y230313D01*
Y228739D01*
X692129D01*
X717318Y233462D02*
X715743Y235036D01*
X712595D01*
X711021Y233462D01*
Y231888D01*
X712595Y230313D01*
X715743D01*
X717318Y228739D01*
Y227165D01*
X715743Y225591D01*
X712595D01*
X711021Y227165D01*
X720466Y225591D02*
X723615D01*
X722041D01*
Y231888D01*
X720466D01*
X728338D02*
X734635D01*
X728338Y225591D01*
X734635D01*
X742506D02*
X739358D01*
X737783Y227165D01*
Y230313D01*
X739358Y231888D01*
X742506D01*
X744081Y230313D01*
Y228739D01*
X737783D01*
X757309Y225591D02*
Y235036D01*
X762032D01*
X763606Y233462D01*
Y230313D01*
X762032Y228739D01*
X757309D01*
X766755Y235036D02*
Y225591D01*
Y230313D01*
X768329Y231888D01*
X771478D01*
X773052Y230313D01*
Y225591D01*
X776201Y231888D02*
Y227165D01*
X777775Y225591D01*
X782498D01*
Y224016D01*
X780924Y222442D01*
X779349D01*
X782498Y225591D02*
Y231888D01*
X785646Y225591D02*
X790369D01*
X791944Y227165D01*
X790369Y228739D01*
X787221D01*
X785646Y230313D01*
X787221Y231888D01*
X791944D01*
X795092Y225591D02*
X798241D01*
X796666D01*
Y231888D01*
X795092D01*
X809261D02*
X804538D01*
X802964Y230313D01*
Y227165D01*
X804538Y225591D01*
X809261D01*
X813984Y231888D02*
X817132D01*
X818707Y230313D01*
Y225591D01*
X813984D01*
X812409Y227165D01*
X813984Y228739D01*
X818707D01*
X821855Y225591D02*
X825004D01*
X823429D01*
Y235036D01*
X821855D01*
X839172D02*
Y225591D01*
X845469D01*
X853341D02*
X850192D01*
X848618Y227165D01*
Y230313D01*
X850192Y231888D01*
X853341D01*
X854915Y230313D01*
Y228739D01*
X848618D01*
X858064Y225591D02*
Y231888D01*
X862787D01*
X864361Y230313D01*
Y225591D01*
X870658Y222442D02*
X872233D01*
X873807Y224016D01*
Y231888D01*
X869084D01*
X867510Y230313D01*
Y227165D01*
X869084Y225591D01*
X873807D01*
X878530Y233462D02*
Y231888D01*
X876956D01*
X880104D01*
X878530D01*
Y227165D01*
X880104Y225591D01*
X884827Y235036D02*
Y225591D01*
Y230313D01*
X886401Y231888D01*
X889550D01*
X891124Y230313D01*
Y225591D01*
X904352D02*
Y235036D01*
X909075D01*
X910650Y233462D01*
Y230313D01*
X909075Y228739D01*
X904352D01*
X907501D02*
X910650Y225591D01*
X915372D02*
X918521D01*
X920095Y227165D01*
Y230313D01*
X918521Y231888D01*
X915372D01*
X913798Y230313D01*
Y227165D01*
X915372Y225591D01*
X923244Y231888D02*
Y227165D01*
X924818Y225591D01*
X929541D01*
Y231888D01*
X934264Y233462D02*
Y231888D01*
X932690D01*
X935838D01*
X934264D01*
Y227165D01*
X935838Y225591D01*
X950007D02*
Y235036D01*
X954730D01*
X956304Y233462D01*
Y230313D01*
X954730Y228739D01*
X950007D01*
X961027Y231888D02*
X964176D01*
X965750Y230313D01*
Y225591D01*
X961027D01*
X959453Y227165D01*
X961027Y228739D01*
X965750D01*
X970473Y233462D02*
Y231888D01*
X968898D01*
X972047D01*
X970473D01*
Y227165D01*
X972047Y225591D01*
X976770Y235036D02*
Y225591D01*
Y230313D01*
X978344Y231888D01*
X981493D01*
X983067Y230313D01*
Y225591D01*
X995662Y235036D02*
Y225591D01*
X1001959D01*
X1009830D02*
X1006682D01*
X1005107Y227165D01*
Y230313D01*
X1006682Y231888D01*
X1009830D01*
X1011405Y230313D01*
Y228739D01*
X1005107D01*
X1014553Y225591D02*
Y231888D01*
X1019276D01*
X1020850Y230313D01*
Y225591D01*
X1027147Y222442D02*
X1028722D01*
X1030296Y224016D01*
Y231888D01*
X1025573D01*
X1023999Y230313D01*
Y227165D01*
X1025573Y225591D01*
X1030296D01*
X1035019Y233462D02*
Y231888D01*
X1033445D01*
X1036593D01*
X1035019D01*
Y227165D01*
X1036593Y225591D01*
X1041316Y235036D02*
Y225591D01*
Y230313D01*
X1042890Y231888D01*
X1046039D01*
X1047613Y230313D01*
Y225591D01*
X1060842D02*
Y235036D01*
X1065565D01*
X1067139Y233462D01*
Y230313D01*
X1065565Y228739D01*
X1060842D01*
X1070287Y225591D02*
X1073436D01*
X1071862D01*
Y235036D01*
X1070287D01*
X1079733Y231888D02*
X1082882D01*
X1084456Y230313D01*
Y225591D01*
X1079733D01*
X1078159Y227165D01*
X1079733Y228739D01*
X1084456D01*
X1089179Y233462D02*
Y231888D01*
X1087605D01*
X1090753D01*
X1089179D01*
Y227165D01*
X1090753Y225591D01*
X1100199D02*
X1097050D01*
X1095476Y227165D01*
Y230313D01*
X1097050Y231888D01*
X1100199D01*
X1101773Y230313D01*
Y228739D01*
X1095476D01*
X1111219Y235036D02*
Y225591D01*
X1106496D01*
X1104922Y227165D01*
Y230313D01*
X1106496Y231888D01*
X1111219D01*
X1124447Y235036D02*
Y225591D01*
Y230313D01*
X1130745D01*
Y235036D01*
Y225591D01*
X1135467D02*
X1138616D01*
X1140190Y227165D01*
Y230313D01*
X1138616Y231888D01*
X1135467D01*
X1133893Y230313D01*
Y227165D01*
X1135467Y225591D01*
X1143339D02*
X1146488D01*
X1144913D01*
Y235036D01*
X1143339D01*
X1155933Y225591D02*
X1152785D01*
X1151210Y227165D01*
Y230313D01*
X1152785Y231888D01*
X1155933D01*
X1157508Y230313D01*
Y228739D01*
X1151210D01*
X1170102Y235036D02*
X1176399D01*
X1173250D01*
Y225591D01*
X1179548Y231888D02*
Y227165D01*
X1181122Y225591D01*
X1185845D01*
Y224016D01*
X1184271Y222442D01*
X1182696D01*
X1185845Y225591D02*
Y231888D01*
X1188993Y222442D02*
Y231888D01*
X1193716D01*
X1195291Y230313D01*
Y227165D01*
X1193716Y225591D01*
X1188993D01*
X1203162D02*
X1200014D01*
X1198439Y227165D01*
Y230313D01*
X1200014Y231888D01*
X1203162D01*
X1204736Y230313D01*
Y228739D01*
X1198439D01*
X420394Y239764D02*
X1217965D01*
X420394Y218504D02*
X1217965D01*
X420394Y239764D02*
Y45276D01*
X1217965Y239764D02*
Y45276D01*
X489354Y239764D02*
Y45276D01*
X578148Y239764D02*
Y45276D01*
X751955Y239764D02*
Y45276D01*
X898998Y239764D02*
Y45276D01*
X1055487Y239764D02*
Y45276D01*
X1119093Y239764D02*
Y45276D01*
X420394Y61024D02*
X1217965D01*
X420394Y45276D02*
X1217965D01*
D86*
X436350Y40024D02*
X435038Y41336D01*
X432414D01*
X431102Y40024D01*
Y38712D01*
X432414Y37400D01*
X435038D01*
X436350Y36088D01*
Y34776D01*
X435038Y33465D01*
X432414D01*
X431102Y34776D01*
X438974Y33465D02*
X441598D01*
X440286D01*
Y41336D01*
X438974D01*
X446845Y33465D02*
X449469D01*
X450781Y34776D01*
Y37400D01*
X449469Y38712D01*
X446845D01*
X445533Y37400D01*
Y34776D01*
X446845Y33465D01*
X454717Y40024D02*
Y38712D01*
X453405D01*
X456029D01*
X454717D01*
Y34776D01*
X456029Y33465D01*
X473084Y41336D02*
Y33465D01*
X469148D01*
X467836Y34776D01*
Y37400D01*
X469148Y38712D01*
X473084D01*
X479643Y33465D02*
X477019D01*
X475707Y34776D01*
Y37400D01*
X477019Y38712D01*
X479643D01*
X480955Y37400D01*
Y36088D01*
X475707D01*
X484891Y33465D02*
Y40024D01*
Y37400D01*
X483579D01*
X486203D01*
X484891D01*
Y40024D01*
X486203Y41336D01*
X490138Y33465D02*
X492762D01*
X491450D01*
Y38712D01*
X490138D01*
X496698Y33465D02*
Y38712D01*
X500634D01*
X501946Y37400D01*
Y33465D01*
X504569D02*
X507193D01*
X505881D01*
Y38712D01*
X504569D01*
X512441Y40024D02*
Y38712D01*
X511129D01*
X513753D01*
X512441D01*
Y34776D01*
X513753Y33465D01*
X517689D02*
X520312D01*
X519000D01*
Y38712D01*
X517689D01*
X525560Y33465D02*
X528184D01*
X529496Y34776D01*
Y37400D01*
X528184Y38712D01*
X525560D01*
X524248Y37400D01*
Y34776D01*
X525560Y33465D01*
X532120D02*
Y38712D01*
X536055D01*
X537367Y37400D01*
Y33465D01*
X539991D02*
X543927D01*
X545239Y34776D01*
X543927Y36088D01*
X541303D01*
X539991Y37400D01*
X541303Y38712D01*
X545239D01*
X555734D02*
X557046D01*
Y37400D01*
X555734D01*
Y38712D01*
Y34776D02*
X557046D01*
Y33465D01*
X555734D01*
Y34776D01*
X569959Y33465D02*
Y41336D01*
X573895D01*
X575207Y40024D01*
Y37400D01*
X573895Y36088D01*
X569959D01*
X572583D02*
X575207Y33465D01*
X579143D02*
X581767D01*
X583078Y34776D01*
Y37400D01*
X581767Y38712D01*
X579143D01*
X577831Y37400D01*
Y34776D01*
X579143Y33465D01*
X585702Y38712D02*
Y34776D01*
X587014Y33465D01*
X590950D01*
Y38712D01*
X594886Y40024D02*
Y38712D01*
X593574D01*
X596198D01*
X594886D01*
Y34776D01*
X596198Y33465D01*
X608005D02*
Y41336D01*
X611941D01*
X613252Y40024D01*
Y37400D01*
X611941Y36088D01*
X608005D01*
X617188Y38712D02*
X619812D01*
X621124Y37400D01*
Y33465D01*
X617188D01*
X615876Y34776D01*
X617188Y36088D01*
X621124D01*
X625060Y40024D02*
Y38712D01*
X623748D01*
X626372D01*
X625060D01*
Y34776D01*
X626372Y33465D01*
X630307Y41336D02*
Y33465D01*
Y37400D01*
X631619Y38712D01*
X634243D01*
X635555Y37400D01*
Y33465D01*
X646050Y41336D02*
Y33465D01*
X651298D01*
X657858D02*
X655234D01*
X653922Y34776D01*
Y37400D01*
X655234Y38712D01*
X657858D01*
X659169Y37400D01*
Y36088D01*
X653922D01*
X661793Y33465D02*
Y38712D01*
X665729D01*
X667041Y37400D01*
Y33465D01*
X672289Y30841D02*
X673600D01*
X674912Y32153D01*
Y38712D01*
X670977D01*
X669665Y37400D01*
Y34776D01*
X670977Y33465D01*
X674912D01*
X678848Y40024D02*
Y38712D01*
X677536D01*
X680160D01*
X678848D01*
Y34776D01*
X680160Y33465D01*
X684096Y41336D02*
Y33465D01*
Y37400D01*
X685408Y38712D01*
X688031D01*
X689344Y37400D01*
Y33465D01*
X569959Y17717D02*
Y25588D01*
X573895D01*
X575207Y24276D01*
Y21652D01*
X573895Y20340D01*
X569959D01*
X577831Y25588D02*
Y17717D01*
Y21652D01*
X579143Y22964D01*
X581767D01*
X583078Y21652D01*
Y17717D01*
X585702Y22964D02*
Y19028D01*
X587014Y17717D01*
X590950D01*
Y16405D01*
X589638Y15093D01*
X588326D01*
X590950Y17717D02*
Y22964D01*
X593574Y17717D02*
X597510D01*
X598821Y19028D01*
X597510Y20340D01*
X594886D01*
X593574Y21652D01*
X594886Y22964D01*
X598821D01*
X601445Y17717D02*
X604069D01*
X602757D01*
Y22964D01*
X601445D01*
X613252D02*
X609317D01*
X608005Y21652D01*
Y19028D01*
X609317Y17717D01*
X613252D01*
X617188Y22964D02*
X619812D01*
X621124Y21652D01*
Y17717D01*
X617188D01*
X615876Y19028D01*
X617188Y20340D01*
X621124D01*
X623748Y17717D02*
X626372D01*
X625060D01*
Y25588D01*
X623748D01*
X638179D02*
Y17717D01*
X643427D01*
X649986D02*
X647362D01*
X646050Y19028D01*
Y21652D01*
X647362Y22964D01*
X649986D01*
X651298Y21652D01*
Y20340D01*
X646050D01*
X653922Y17717D02*
Y22964D01*
X657858D01*
X659169Y21652D01*
Y17717D01*
X664417Y15093D02*
X665729D01*
X667041Y16405D01*
Y22964D01*
X663105D01*
X661793Y21652D01*
Y19028D01*
X663105Y17717D01*
X667041D01*
X670977Y24276D02*
Y22964D01*
X669665D01*
X672289D01*
X670977D01*
Y19028D01*
X672289Y17717D01*
X676224Y25588D02*
Y17717D01*
Y21652D01*
X677536Y22964D01*
X680160D01*
X681472Y21652D01*
Y17717D01*
M02*
